<?xml version="1.0" standalone="no"?>
<!DOCTYPE svg PUBLIC "-//W3C//DTD SVG 1.1//EN" "http://www.w3.org/Graphics/SVG/1.1/DTD/svg11.dtd" >
<svg xmlns="http://www.w3.org/2000/svg" xmlns:xlink="http://www.w3.org/1999/xlink" version="1.1">
<metadata></metadata>
<defs>
<font id="sansserifexbflfcondmedium" horiz-adv-x="997" >
<font-face units-per-em="2048" ascent="1638" descent="-410" />
<missing-glyph horiz-adv-x="579" />
<glyph unicode="fi" horiz-adv-x="1093" d="M43 791v323h85v166q0 179 122.5 292t326.5 113q63 0 118 -10.5t98 -29.5t79 -46t61 -59t42.5 -69t25.5 -76t8 -81v-112h-339v71q0 19 -1 32.5t-7 31.5t-16 30t-29.5 20t-45.5 8q-58 0 -81.5 -35t-23.5 -98v-148h148v-323h-148v-791h-338v791h-85zM670 0v1114h339v-1114 h-339z" />
<glyph unicode="fl" horiz-adv-x="1065" d="M43 791v323h85v186q0 74 29.5 142.5t84 123t139 87t185.5 32.5q98 0 176.5 -28t127 -71.5t81 -100.5t45.5 -112t13 -109v-1264h-339v1239q0 67 -23.5 99.5t-82.5 32.5q-98 0 -98 -134v-123h148v-323h-148v-791h-338v791h-85z" />
<glyph unicode=" "  horiz-adv-x="579" />
<glyph unicode="&#x09;" horiz-adv-x="579" />
<glyph unicode="&#xa0;" horiz-adv-x="579" />
<glyph unicode="!" horiz-adv-x="542" d="M104 553v1070h341v-1070h-341zM107 221q0 61 18.5 113.5t58 87.5t94 35t94 -35t57.5 -87.5t18 -113.5t-18 -113.5t-57.5 -88t-94 -35.5t-94 35.5t-58 88t-18.5 113.5z" />
<glyph unicode="&#x22;" horiz-adv-x="556" d="M84 1687h137l-21 -477h-93zM345 1687h135l-20 -477h-94z" />
<glyph unicode="#" horiz-adv-x="1131" d="M54 609l41 250h191l41 260h-188l41 245h189l43 271h163l-43 -271h193l43 271h164l-43 -271h193l-41 -245h-193l-41 -260h191l-39 -250h-193l-46 -273h-163l46 273h-193l-46 -273h-164l45 273h-191zM451 859h193l40 260h-193z" />
<glyph unicode="$" horiz-adv-x="915" d="M43 200l72 336q57 -64 141 -112.5t144 -48.5q59 0 92 27t33 73q0 36 -27 67t-77 44q-96 26 -168.5 77.5t-117 121.5t-66 152t-21.5 174q0 123 39 232.5t116 187t177 96.5v87h177v-89q53 -5 106.5 -25t99.5 -49t87 -67l-71 -350q-38 33 -71.5 55t-87 40.5t-111.5 18.5 q-44 0 -69.5 -31t-25.5 -74q0 -34 25 -61.5t79 -40.5q93 -20 165.5 -71.5t117 -123t67.5 -156.5t23 -178q0 -128 -38 -235t-114.5 -181.5t-181.5 -95.5v-139h-177v135q-99 9 -186.5 66t-150.5 138z" />
<glyph unicode="%" horiz-adv-x="881" d="M54 1300q0 88 21.5 164t67 127t107.5 51q63 0 108.5 -51t66 -126.5t20.5 -164.5q0 -88 -20.5 -163t-66 -125.5t-108.5 -50.5q-62 0 -107.5 50.5t-67 125.5t-21.5 163zM91 0l573 1623h136l-572 -1623h-137zM191 1300q0 -46 6.5 -79.5t20 -52t32.5 -18.5q30 0 45 39.5 t15 110.5t-15 112t-45 41q-29 0 -44 -41.5t-15 -111.5zM462 327q0 89 21 165t66.5 126t107.5 50q63 0 108.5 -50.5t66 -126t20.5 -164.5q0 -87 -20.5 -162t-66 -125.5t-108.5 -50.5q-62 0 -107.5 50t-66.5 125.5t-21 162.5zM598 327q0 -69 15.5 -109t43.5 -40q59 0 59 149 q0 153 -59 153q-14 0 -25.5 -11t-18.5 -31t-11 -48t-4 -63z" />
<glyph unicode="&#x26;" horiz-adv-x="1206" d="M30 457q0 73 18.5 139.5t54 124t74 103.5t92.5 96l-39 69q-32 55 -49.5 112.5t-17.5 135.5q0 109 44 201.5t127.5 149t188.5 56.5q145 0 239.5 -107t94.5 -277q0 -224 -184 -394l100 -174q20 20 41.5 44.5t33 38.5t33 42t26.5 33l202 -312q-65 -89 -146 -184l201 -354 h-373l-75 128q-6 -5 -29 -25t-33 -28t-32.5 -24.5t-40 -24t-41.5 -17.5t-49.5 -14t-54.5 -4q-132 0 -224.5 60.5t-137 164.5t-44.5 241zM371 527q0 -35 25.5 -68.5t69.5 -33.5q35 0 63 32l-99 179q-2 -1 -4 -3q-11 -8 -18 -14.5t-17 -19.5t-15 -31t-5 -41zM460 1284 q0 -40 20 -80l41 -70q32 39 49.5 71t17.5 70q0 83 -63 83q-19 0 -34 -10.5t-23 -27t-8 -36.5z" />
<glyph unicode="'" horiz-adv-x="295" d="M84 1687h137l-21 -477h-93z" />
<glyph unicode="(" horiz-adv-x="475" d="M46 783q0 278 71 528.5t208 425.5l132 -132q-82 -182 -125 -400t-43 -444q0 -147 18 -291t55 -281t91 -254l-139 -144q-87 135 -148 299.5t-90.5 339t-29.5 353.5z" />
<glyph unicode=")" horiz-adv-x="460" d="M28 1605l131 132q91 -117 154.5 -272.5t94 -327.5t30.5 -354q0 -272 -68 -531.5t-199 -460.5l-139 144q81 176 122 389.5t41 436.5q0 150 -18.5 296.5t-56 286.5t-92.5 261z" />
<glyph unicode="*" horiz-adv-x="553" d="M63 1189q0 22 26.5 50.5t62.5 52t64 39t40 20.5q-11 5 -39 21.5t-63 41t-60.5 55.5t-25.5 56q0 39 34 39q15 0 35.5 -16.5t42 -44t38 -50t33.5 -49t18 -26.5q-1 2 -3.5 14.5t-5.5 26t-7 33t-7 39.5t-6 41.5t-4.5 43.5t-1.5 40q0 43 10.5 64t35.5 21q8 0 15 -2.5t12 -7.5 t8.5 -12t5.5 -16.5t3 -21t1 -25.5q0 -31 -5 -72.5t-11 -72.5t-12 -59.5t-6 -33.5l17.5 26.5t33.5 49t38 50t42.5 44t35 16.5t22.5 -7t9.5 -14t1.5 -18q0 -25 -26 -56t-61 -55.5t-62.5 -41t-39.5 -21.5q12 -5 40 -20.5t64 -39t62.5 -52t26.5 -50.5q0 -25 -7.5 -37.5 t-30.5 -12.5q-12 0 -29 12.5t-33 30t-34.5 41.5t-31 42t-25 37t-13.5 21q0 -3 2.5 -13t4.5 -21t5.5 -27t6.5 -32t5.5 -35.5t5 -37.5t3.5 -37t1 -36q0 -42 -10 -62t-35 -20q-13 0 -22 5t-14 16t-7.5 25.5t-2.5 35.5q0 41 8 94.5t17 96.5t10 48q-2 -2 -14.5 -21t-24.5 -37 t-30.5 -42t-34.5 -41.5t-33.5 -30t-29.5 -12.5q-22 0 -30.5 12.5t-8.5 37.5z" />
<glyph unicode="+" horiz-adv-x="870" d="M100 416v348h206v347h253v-347h218v-348h-215v-348h-256v348h-206z" />
<glyph unicode="," horiz-adv-x="527" d="M7 -178l154 625h303l-278 -625h-179z" />
<glyph unicode="-" horiz-adv-x="881" d="M107 416v348h676v-348h-676z" />
<glyph unicode="." horiz-adv-x="471" d="M75 221q0 61 18.5 113.5t58 87.5t93.5 35q41 0 74.5 -20t54 -54t31.5 -75.5t11 -86.5q0 -61 -18.5 -113.5t-58.5 -88t-94 -35.5t-93.5 35.5t-58 88t-18.5 113.5z" />
<glyph unicode="/" horiz-adv-x="519" d="M18 -104l342 1798h133l-339 -1798h-136z" />
<glyph unicode="0" horiz-adv-x="1037" d="M41 809.5q0 126.5 19 246t58 226.5t95 186.5t135 126.5t173 47q92 0 171 -47t134.5 -126.5t94.5 -186.5t58 -226.5t19 -246t-19 -246.5t-58 -226.5t-94.5 -186t-134.5 -126t-171 -46.5q-94 0 -173 46.5t-135 126t-95 186t-58 226.5t-19 246.5zM375 809q0 -172 37 -271.5 t109 -99.5q70 0 106.5 99.5t36.5 271.5t-36.5 271.5t-106.5 99.5q-72 0 -109 -99.5t-37 -271.5z" />
<glyph unicode="1" horiz-adv-x="627" d="M98 1219v404h443v-1623h-339v1219h-104z" />
<glyph unicode="2" horiz-adv-x="952" d="M37 0v266l158 187q27 31 63.5 79.5t90.5 131.5t97.5 164t75 173t31.5 163q0 67 -20 99t-69 32q-93 0 -93 -217h-301q0 93 12 172t42 151t76.5 122t119.5 79.5t166 29.5q95 0 167.5 -23t120.5 -63t78.5 -100t43.5 -130t13 -157q0 -73 -12.5 -144t-30 -128t-48.5 -119 t-56 -104t-66 -96.5t-65 -83.5t-65 -77h343v-407h-872z" />
<glyph unicode="3" horiz-adv-x="911" d="M59 501h301q0 -62 23 -97t72 -35q45 0 63 36t18 118q0 66 -12 99t-38.5 45t-80.5 12v330q42 0 66.5 5.5t39.5 21t20 38.5t5 63q0 74 -17.5 102t-67.5 28q-46 0 -64 -35t-18 -102h-301q0 76 9 141.5t28 124t50 103.5t73 77.5t99.5 50t127.5 17.5q99 0 174 -29t122.5 -84 t71 -131.5t23.5 -174.5q0 -142 -44 -230.5t-125 -122.5q90 -27 145.5 -124t55.5 -253q0 -94 -21 -175.5t-59 -143t-89.5 -105.5t-114 -66.5t-130.5 -22.5q-104 0 -182.5 37t-127 106t-72.5 163t-23 213z" />
<glyph unicode="4" horiz-adv-x="1043" d="M52 286v371l350 966h480v-931h111v-406h-111v-286h-339v286h-491zM395 692h148v456z" />
<glyph unicode="5" horiz-adv-x="904" d="M48 80l32 377q23 -21 92.5 -48t133.5 -27q41 0 72 5t61.5 19.5t50.5 38.5t32 64.5t12 95.5q0 123 -56.5 175t-156.5 52q-89 0 -187 -34l66 825h598v-382h-334l-17 -143q34 6 71 6q54 0 102.5 -16.5t94 -56.5t78.5 -100t53 -153t20 -210q0 -94 -16 -175t-42.5 -140 t-64 -107t-79 -79t-88.5 -51.5t-91.5 -29t-89.5 -8.5q-206 0 -347 102z" />
<glyph unicode="6" horiz-adv-x="963" d="M39 512q0 258 118 536l243 568h337l-271 -586q24 7 66 7q31 0 63 -6t69 -21.5t70 -39.5t64 -64t53 -91.5t35.5 -125.5t13.5 -162q0 -99 -15 -183t-48 -156t-83 -122.5t-123 -78.5t-165 -28q-135 0 -233 71.5t-146 195.5t-48 286zM364 518q0 -67 28.5 -116.5t80.5 -49.5 t80.5 49.5t28.5 116.5q0 69 -28.5 118.5t-80.5 49.5q-27 0 -48 -14t-34 -38t-20 -53.5t-7 -62.5z" />
<glyph unicode="7" horiz-adv-x="959" d="M61 0l390 1219h-390v404h859l-469 -1623h-390z" />
<glyph unicode="8" horiz-adv-x="888" d="M32 441q0 54 6.5 102.5t15.5 82.5t25.5 66.5t28.5 51.5t34 41.5t32.5 31.5l31.5 27q-29 28 -49.5 55t-43 70.5t-34 106t-11.5 141.5q0 82 28.5 158t78 133.5t121 92t151.5 34.5q78 0 149 -33t123 -88.5t82.5 -133t30.5 -161.5q0 -66 -9.5 -122.5t-23 -93.5t-35 -70.5 t-37.5 -51t-38 -37.5q3 -3 8 -7q29 -23 45 -37.5t43.5 -49.5t43 -72t27.5 -98.5t12 -134.5q0 -128 -54.5 -237t-151 -173.5t-211.5 -64.5q-91 0 -170.5 39.5t-133 104.5t-84.5 150.5t-31 176.5zM360 503q0 -69 24 -120.5t67 -52.5q41 0 64 48.5t23 116.5q0 69 -24 120 t-69 51q-28 0 -48 -24t-28.5 -60t-8.5 -79zM380 1180q0 -47 16.5 -82t48.5 -35t50.5 35.5t18.5 81.5t-18.5 80.5t-50.5 34.5t-48.5 -34t-16.5 -81z" />
<glyph unicode="9" horiz-adv-x="972" d="M61 1069q0 99 15.5 184.5t48.5 159.5t82.5 126t121.5 82t162 30q102 0 184 -42.5t134.5 -117.5t80.5 -177t28 -223q0 -255 -115 -532l-241 -568h-339l248 552q-40 6 -78 17t-80 31.5t-77.5 48.5t-68.5 69.5t-56 92.5t-36.5 119.5t-13.5 147.5zM377 1087 q0 -68 28.5 -117.5t80.5 -49.5q35 0 61.5 25t38.5 62t12 80q0 68 -30 117.5t-82 49.5t-80.5 -49.5t-28.5 -117.5z" />
<glyph unicode=":" horiz-adv-x="462" d="M75 221q0 61 18.5 113.5t58 87.5t93.5 35q41 0 74.5 -20t54 -54t31.5 -75.5t11 -86.5q0 -61 -18.5 -113.5t-58.5 -88t-94 -35.5t-93.5 35.5t-58 88t-18.5 113.5zM75 870q0 61 18.5 113.5t58 88t93.5 35.5q41 0 74.5 -20.5t54 -54t31.5 -75.5t11 -87q0 -61 -18.5 -113.5 t-58.5 -87.5t-94 -35t-93.5 35t-58 87.5t-18.5 113.5z" />
<glyph unicode=";" horiz-adv-x="568" d="M7 -182l156 639h310l-282 -639h-184zM171 870q0 36 6.5 70t20.5 64.5t34 53t48 36t61 13.5q41 0 74 -20.5t54 -54t32 -75.5t11 -87t-11 -86.5t-32 -75.5t-54 -54t-74 -20q-54 0 -94 35t-58 87.5t-18 113.5z" />
<glyph unicode="&#x3c;" horiz-adv-x="519" d="M68 498v348l398 373v-349l-218 -197l207 -198v-347z" />
<glyph unicode="=" horiz-adv-x="849" d="M100 230v291h673v-291h-673zM100 705v291h673v-291h-673z" />
<glyph unicode="&#x3e;" horiz-adv-x="519" d="M84 870v349l398 -373v-348l-387 -370v347l209 198z" />
<glyph unicode="?" horiz-adv-x="917" d="M43 1139q0 148 46.5 258.5t140.5 174t225 63.5q106 0 187 -35t132.5 -100t77.5 -155t26 -202q0 -227 -80.5 -366t-196.5 -139v-76h-301v332h112q30 0 52.5 9t42 32t29.5 67.5t10 108.5q0 107 -22 147t-79 40q-53 0 -77.5 -45t-22.5 -114h-302zM275 221q0 61 18.5 113.5 t58 87.5t93.5 35t94 -35t58.5 -87.5t18.5 -113.5t-18.5 -113.5t-58.5 -88t-94 -35.5t-93.5 35.5t-58 88t-18.5 113.5z" />
<glyph unicode="@" d="M39 909q0 106 18.5 207t57 190.5t92.5 157t131 107t167 39.5q85 0 161 -35.5t133 -98t98.5 -147t63 -186t21.5 -211.5q0 -118 -21 -205.5t-68.5 -140t-117.5 -52.5q-30 0 -53 7t-36 16t-25 26.5t-16.5 28t-12.5 32.5q-15 -26 -26 -40.5t-31 -33t-49 -27.5t-66 -9 q-94 0 -151 87.5t-57 224.5q0 71 17 139t48 123.5t80.5 89.5t109.5 34t95.5 -31.5t45.5 -83.5l14 108h93l-55 -436q-2 -13 -2 -41q0 -116 89 -116q29 0 51 27t34.5 72t19 96.5t6.5 107.5q0 67 -9 132t-27 123.5t-43 110t-58.5 93t-72.5 71.5t-85.5 46t-97.5 16 q-75 0 -138 -33.5t-107.5 -91.5t-75.5 -136.5t-46 -168.5t-15 -188q0 -73 11 -144.5t32 -139t54 -124.5t74 -100t95.5 -67t115.5 -24q71 0 137.5 23.5t98.5 59.5l57 -63q-56 -53 -126.5 -82t-170.5 -29q-91 0 -167 38.5t-130 104.5t-91.5 154.5t-55.5 188t-18 204.5z M350 846q0 -84 29.5 -141t84.5 -57q43 0 78 45t52.5 110.5t17.5 133.5q0 80 -26.5 133t-76.5 53q-36 0 -67 -24.5t-51 -64.5t-30.5 -89t-10.5 -99z" />
<glyph unicode="A" horiz-adv-x="1113" d="M26 0l334 1623h393l334 -1623h-334l-55 234h-286l-52 -234h-334zM482 596h143l-70 343z" />
<glyph unicode="B" horiz-adv-x="995" d="M68 0v1623h448q83 0 148.5 -24t114.5 -74.5t75 -133.5t26 -196q0 -78 -9 -134.5t-28 -94t-39 -59.5t-51 -46q42 -17 77.5 -47.5t66 -77t47.5 -114.5t17 -151q0 -94 -20 -171t-57 -132t-89.5 -93t-117 -56.5t-139.5 -18.5h-470zM407 375h75q48 0 70.5 31.5t22.5 111.5 q0 139 -95 139h-73v-282zM407 1037h55q79 0 79 141q0 67 -20.5 105t-58.5 38h-55v-284z" />
<glyph unicode="C" horiz-adv-x="815" d="M28 813.5q0 137.5 22.5 261t69 227.5t113.5 179.5t160.5 118t204.5 42.5q78 0 143 -26v-432q-61 37 -145 37q-61 0 -105 -57.5t-64 -148t-20 -201.5q0 -83 12.5 -158.5t35.5 -135.5t59.5 -96t81.5 -36q95 0 145 37v-427q-62 -20 -143 -20q-110 0 -203.5 43t-160.5 120 t-114 182t-69.5 229t-22.5 261.5z" />
<glyph unicode="D" horiz-adv-x="1085" d="M91 0v1623h366q114 0 211.5 -46t166 -125t117.5 -183.5t72.5 -222.5t23.5 -241t-23 -239.5t-71.5 -219t-116.5 -179.5t-164.5 -122t-210.5 -45h-371zM430 443h47q66 0 113 56t68 140t21 184q0 98 -21 181.5t-68.5 139.5t-112.5 56h-47v-757z" />
<glyph unicode="E" horiz-adv-x="824" d="M73 0v1623h680v-404h-341v-210h319v-406h-319v-196h341v-407h-680z" />
<glyph unicode="F" horiz-adv-x="813" d="M75 0v1623h680v-404h-341v-258h321v-404h-321v-557h-339z" />
<glyph unicode="G" horiz-adv-x="1131" d="M34 814q0 125 22 244.5t67.5 225.5t109.5 185.5t155 126t198 46.5q72 0 136 -20t112.5 -52.5t91 -78.5t72 -92.5t54.5 -100.5l-323 -175q-1 3 -10.5 20t-12 21.5t-11.5 18t-14.5 18t-16.5 14t-21.5 12.5t-25 6.5t-31.5 3.5q-42 0 -75 -34.5t-53.5 -92.5t-31 -130.5 t-10.5 -152.5q0 -85 12 -164t35 -143.5t59 -103.5t81 -39q55 0 86 23.5t31 65.5v132h-115v302h456v-509q0 -51 -17.5 -106t-55 -110t-90 -99t-129.5 -71t-166 -27q-111 0 -205 46.5t-160 127t-112.5 187.5t-69 227t-22.5 248z" />
<glyph unicode="H" horiz-adv-x="1095" d="M73 0v1623h341v-616h252v616h341v-1623h-341v601h-252v-601h-341z" />
<glyph unicode="I" horiz-adv-x="495" d="M80 0v1623h341v-1623h-341z" />
<glyph unicode="J" horiz-adv-x="640" d="M54 54v378q15 -19 28 -28t31 -9q40 0 64 17t36 59t12 115v1037h339v-1122q0 -235 -96 -368t-270 -133q-81 0 -144 54z" />
<glyph unicode="K" horiz-adv-x="1050" d="M70 0v1623h340v-586l234 586h347l-297 -753l308 -870h-345l-247 698v-698h-340z" />
<glyph unicode="L" horiz-adv-x="803" d="M73 0v1623h341v-1216h325v-407h-666z" />
<glyph unicode="M" horiz-adv-x="1390" d="M26 0l197 1623h345l128 -798l134 798h341l193 -1623h-338l-89 857l-137 -857h-193l-152 857l-91 -857h-338z" />
<glyph unicode="N" horiz-adv-x="1158" d="M78 0v1623h315l336 -850v850h340v-1623h-340l-311 791v-791h-340z" />
<glyph unicode="O" horiz-adv-x="1204" d="M43 809.5q0 126.5 22 246t67.5 226.5t110.5 186.5t157 126.5t200.5 47t201 -47t157 -126.5t110.5 -186.5t68 -226.5t22 -246t-22 -246.5t-68 -226.5t-110.5 -186t-157 -126t-201 -46.5t-200.5 46.5t-157 126t-110.5 186t-67.5 226.5t-22 246.5zM418 809.5q0 -63.5 7 -124 t22 -114t36 -93.5t51.5 -63.5t66.5 -23.5q44 0 79.5 35.5t57.5 95.5t33.5 133.5t11.5 153.5t-11.5 153.5t-33.5 133.5t-57.5 96t-79.5 36q-36 0 -66.5 -23.5t-51.5 -64t-36 -94t-22 -113.5t-7 -123.5z" />
<glyph unicode="P" horiz-adv-x="942" d="M70 0v1623h457q86 0 153.5 -31.5t115 -94t73 -160t25.5 -226.5q0 -255 -96 -381.5t-271 -126.5h-109v-603h-348zM418 970h55q43 0 61.5 35t18.5 106q0 141 -80 141h-55v-282z" />
<glyph unicode="Q" horiz-adv-x="1202" d="M43 809.5q0 126.5 22 246t67.5 226.5t110.5 186.5t157 126.5t200.5 47t201 -47t157 -126.5t110.5 -186.5t68 -226.5t22 -246.5q0 -176 -43.5 -339t-126.5 -281l130 -300l-308 -128l-93 232q-48 -15 -117 -15q-109 0 -201 46.5t-157 126t-110.5 186t-67.5 226.5t-22 246.5 zM418 809.5q0 -63.5 7 -124t22 -114t36 -93.5t51.5 -63.5t66.5 -23.5q44 0 79.5 35.5t57.5 95.5t33.5 133.5t11.5 153.5t-11.5 153.5t-33.5 133.5t-57.5 96t-79.5 36q-36 0 -66.5 -23.5t-51.5 -64t-36 -94t-22 -113.5t-7 -123.5z" />
<glyph unicode="R" horiz-adv-x="1022" d="M73 0v1623h473q61 0 112.5 -17t96 -56t75.5 -98.5t48.5 -149t17.5 -202.5q0 -102 -15 -183.5t-41 -131.5t-53.5 -80.5t-59.5 -45.5l255 -659h-391l-170 509v-509h-348zM421 970h54q27 0 44 13.5t26.5 45t9.5 82.5q0 141 -80 141h-54v-282z" />
<glyph unicode="S" horiz-adv-x="929" d="M30 200l70 336q5 -4 14 -12q34 -28 52 -43t50.5 -39t56 -36t53 -21.5t56.5 -9.5q54 0 86.5 30.5t32.5 71.5q0 35 -27.5 65t-76.5 46q-184 61 -267.5 187.5t-83.5 328.5q0 108 26.5 203.5t76 168t125.5 114.5t169 42q134 0 235 -43t157 -105l-71 -350q-30 25 -50.5 38.5 t-57.5 34t-80.5 31t-93.5 10.5q-33 0 -60 -30.5t-27 -67.5q0 -35 29 -64t90 -45q72 -18 131 -56.5t100.5 -89t70 -113.5t41.5 -130.5t13 -139.5q0 -81 -17 -156.5t-53 -142.5t-86.5 -117.5t-122.5 -79.5t-157 -29q-59 0 -114 14t-94.5 34t-79.5 52t-63.5 55.5t-52.5 57.5z " />
<glyph unicode="T" horiz-adv-x="826" d="M41 1182v441h746v-441h-203v-1182h-341v1182h-202z" />
<glyph unicode="U" horiz-adv-x="992" d="M61 480v1143h339v-1059q0 -64 25.5 -96t62.5 -32q26 0 45.5 12.5t31.5 42t12 73.5v1059h339v-1143q0 -125 -32 -221t-90 -155.5t-135 -89.5t-170.5 -30t-170.5 30t-135 89.5t-90 155.5t-32 221z" />
<glyph unicode="V" horiz-adv-x="1076" d="M26 1623h347l173 -820l172 820h349l-392 -1623h-257z" />
<glyph unicode="W" horiz-adv-x="1597" d="M28 1623h341l145 -846l143 846h300l143 -846l139 846h343l-309 -1623h-325l-141 891l-143 -891h-325z" />
<glyph unicode="X" horiz-adv-x="1056" d="M20 1623h362l150 -365l141 365h366l-330 -820l323 -803h-364l-136 347l-144 -347h-360l319 807z" />
<glyph unicode="Y" horiz-adv-x="1026" d="M22 1623h347l140 -404l139 404h359l-330 -879v-744h-345v744z" />
<glyph unicode="Z" horiz-adv-x="1124" d="M22 0l512 1195h-436v428h998l-491 -1193h466v-430h-1049z" />
<glyph unicode="[" horiz-adv-x="451" d="M89 -243v2052h291v-208h-105v-1635h105v-209h-291z" />
<glyph unicode="\" horiz-adv-x="512" d="M18 1705h151l317 -1787h-150z" />
<glyph unicode="]" horiz-adv-x="451" d="M87 -34h106v1635h-106v208h293v-2052h-293v209z" />
<glyph unicode="^" horiz-adv-x="601" d="M91 1089l200 427h52l200 -427h-75l-149 273l-162 -273h-66z" />
<glyph unicode="_" horiz-adv-x="527" d="M0 -50h557v-161h-557v161z" />
<glyph unicode="`" horiz-adv-x="533" d="M123 1505l109 79l161 -263l-107 -80z" />
<glyph unicode="a" d="M43 551q0 110 21.5 211.5t62 183.5t107 131t148.5 49q81 0 128.5 -34.5t75.5 -98.5v121h332v-1114h-332v128q-11 -29 -25 -51.5t-37.5 -47t-59.5 -38t-82 -13.5q-66 0 -122.5 32t-95.5 87t-66.5 128.5t-41 155.5t-13.5 170zM352 571q0 -56 11.5 -102.5t38 -77.5t64.5 -31 q36 0 62.5 31t38.5 77.5t12 102t-12 102.5t-38.5 78.5t-62.5 31.5q-28 0 -50.5 -18t-36 -48.5t-20.5 -67.5t-7 -78z" />
<glyph unicode="b" horiz-adv-x="963" d="M52 0v1679h341v-681q25 46 48 72t62 43t93 17q64 0 119 -32.5t93.5 -88t66 -129.5t40.5 -157.5t13 -171.5q0 -111 -21.5 -213t-61.5 -184.5t-104.5 -132t-144.5 -49.5q-123 0 -203 151v-123h-341zM384 557q0 -52 11.5 -96t37 -74t60.5 -30q36 0 62 30t38 74t12 96 t-12 96.5t-38 74t-62 29.5q-27 0 -48 -17t-34 -45.5t-20 -63.5t-7 -74z" />
<glyph unicode="c" horiz-adv-x="627" d="M26 548q0 111 22 213t63.5 184t109 131.5t150.5 49.5q45 0 79.5 -5.5t60.5 -17.5t37 -19t31 -23v-341q-14 19 -21 26.5t-21 19.5t-29.5 16.5t-34.5 4.5q-39 0 -68 -34t-42 -84.5t-13 -109.5t13 -111t42 -86.5t68 -34.5q15 0 28.5 3.5t24 9.5t19.5 13.5t15.5 16t11 16.5 t7.5 16v-350q-15 -16 -29 -27t-38.5 -24t-60 -20t-80.5 -7q-68 0 -125 32.5t-97 87.5t-68.5 128.5t-41.5 156t-13 169.5z" />
<glyph unicode="d" horiz-adv-x="956" d="M30 551q0 111 21 213.5t61 184.5t104.5 131.5t143.5 49.5q35 0 64.5 -8t48 -18.5t37 -30.5t27 -32.5t22.5 -35.5q1 -2 2 -2.5t1.5 -2t1.5 -2.5v681h338v-1679h-338v123q-13 -25 -23 -41.5t-29 -39.5t-38.5 -36.5t-49.5 -23.5t-64 -10q-54 0 -100.5 23t-82.5 63.5t-64 95 t-46 119t-27.5 135t-9.5 143.5zM352 557.5q0 -80.5 30 -140.5t82 -60q35 0 60.5 30t37 74t11.5 96t-11.5 96.5t-37 74t-60.5 29.5q-52 0 -82 -59.5t-30 -140z" />
<glyph unicode="e" horiz-adv-x="874" d="M20 546.5q0 88.5 16.5 172t50.5 158.5t82.5 131t117 89t149.5 33q72 0 133.5 -22.5t107 -63t80.5 -95.5t56.5 -121.5t32.5 -139t11 -150.5v-47h-507q0 -122 25 -177t76 -55q24 0 41 9.5t26.5 27.5t14.5 35t8 40l309 -57q-98 -351 -416 -351q-80 0 -148.5 33t-116.5 89 t-82 130.5t-50.5 158.5t-16.5 172.5zM354 705h187q0 23 -5.5 46t-16 44t-29.5 33.5t-43 12.5q-32 0 -54.5 -23.5t-30.5 -52.5t-8 -60z" />
<glyph unicode="f" horiz-adv-x="663" d="M43 766v348h85v231q0 61 13.5 111.5t39 87t59 64t75.5 44.5t86.5 25t93.5 8q69 0 137 -23v-278q-49 21 -89 21q-77 0 -77 -105v-186h146v-348h-146v-766h-338v766h-85z" />
<glyph unicode="g" horiz-adv-x="976" d="M43 582q0 108 20 208t57.5 180t97.5 128t134 48q36 0 66.5 -8.5t52.5 -22t41.5 -33.5t32.5 -39.5t26 -44.5v116h338v-1127q0 -79 -17.5 -145t-49.5 -115t-75 -86t-96 -59.5t-110.5 -34t-119.5 -11.5q-74 0 -142 23.5t-115 54.5v311q129 -66 246 -66q54 0 82.5 16.5 t43.5 63.5t15 136v50q-13 -23 -25 -40t-29.5 -35t-37 -29t-46 -18t-58.5 -7q-80 0 -145 50t-105 134t-61 187t-21 215zM364 559q0 -52 11.5 -96t37 -73.5t60.5 -29.5t60.5 29.5t37 73.5t11.5 96t-11.5 96.5t-37 74t-60.5 29.5t-60.5 -29.5t-37 -74t-11.5 -96.5z" />
<glyph unicode="h" horiz-adv-x="963" d="M78 0v1683h338v-681q64 130 189 130q138 0 219 -108.5t81 -282.5v-741h-309v638q0 151 -91 151q-32 0 -52.5 -22.5t-28.5 -55t-8 -73.5v-638h-338z" />
<glyph unicode="i" horiz-adv-x="486" d="M63 1438.5q0 69.5 20 129t63.5 99.5t103.5 40q45 0 81.5 -23t59 -61t34 -85.5t11.5 -99t-11.5 -98.5t-34 -85.5t-59 -61t-81.5 -22.5q-60 0 -103.5 39.5t-63.5 99t-20 129zM82 0v1114h339v-1114h-339z" />
<glyph unicode="j" horiz-adv-x="488" d="M63 1438.5q0 69.5 20 129t63.5 99.5t103.5 40q45 0 81.5 -23t59 -61t34 -85.5t11.5 -99t-11.5 -98.5t-34 -85.5t-59 -61t-81.5 -22.5q-60 0 -103.5 39.5t-63.5 99t-20 129zM82 -457v1571h339v-1571h-339z" />
<glyph unicode="k" horiz-adv-x="1002" d="M84 0v1683h339v-1008l173 439h348l-228 -555l264 -559h-379l-178 430v-430h-339z" />
<glyph unicode="l" horiz-adv-x="499" d="M84 0v1683h339v-1683h-339z" />
<glyph unicode="m" horiz-adv-x="1465" d="M59 0v1114h336v-118q40 55 103.5 94.5t149.5 39.5q51 0 90 -10t65 -29.5t42.5 -38t32.5 -45.5q15 19 24 29.5t26 28t34.5 26.5t41.5 19.5t55 15t69 4.5q67 0 121.5 -30.5t87.5 -81.5t50.5 -114.5t17.5 -133.5v-770h-338v638q0 151 -80 151q-87 0 -87 -151v-638h-338v638 q0 29 -3 52t-11 47.5t-26 38t-45 13.5q-25 0 -42.5 -14t-26 -37.5t-12 -47.5t-3.5 -52v-638h-334z" />
<glyph unicode="n" horiz-adv-x="983" d="M78 0v1114h338v-159q81 177 257 177q56 0 98.5 -19t70.5 -52.5t46 -83.5t25 -107t7 -129v-741h-338v629q0 32 -3 54.5t-10.5 46.5t-25.5 36.5t-45 12.5q-82 0 -82 -150v-629h-338z" />
<glyph unicode="o" horiz-adv-x="909" d="M32 552.5q0 88.5 16.5 172.5t51.5 158.5t84.5 130t120 88t152.5 32.5q69 0 129.5 -22.5t106 -63t81.5 -95.5t59 -120t35 -136t12 -144q0 -89 -16.5 -172.5t-51.5 -158.5t-84 -131t-119 -88.5t-152 -32.5t-152.5 32.5t-120 88.5t-84.5 131t-51.5 158.5t-16.5 172zM347 553 q0 -27 3.5 -53t9.5 -49.5t15 -43.5t21 -35t27.5 -23t33.5 -8q35 0 60.5 31t37 78t11.5 103q0 41 -7 78t-20 67t-34 48t-48 18q-35 0 -60.5 -31t-37.5 -78t-12 -102z" />
<glyph unicode="p" horiz-adv-x="995" d="M87 -462v1576h338v-134q17 33 33 56t40 46.5t57 35.5t74 12q79 0 143 -49.5t103.5 -132t60.5 -184.5t21 -213t-21 -213t-60.5 -184.5t-103.5 -132t-143 -49.5q-39 0 -71 9.5t-50.5 20t-37 32.5t-25.5 34t-20 36v-566h-338zM416 546q0 -81 29.5 -141t81.5 -60 q35 0 60.5 30t37 74.5t11.5 96.5q0 38 -7 73.5t-20 64t-34 45.5t-48 17q-52 0 -81.5 -59.5t-29.5 -140.5z" />
<glyph unicode="q" horiz-adv-x="963" d="M30 551q0 111 21 213.5t61 184.5t104.5 131.5t143.5 49.5q84 0 130 -35t74 -115v134h338v-1576h-338v566q-13 -27 -27.5 -47.5t-38 -41.5t-59 -32t-79.5 -11q-54 0 -100.5 23t-82.5 63.5t-64 95t-46 119t-27.5 135t-9.5 143.5zM352 546q0 -81 30 -141t82 -60 q35 0 60.5 30t37 74.5t11.5 96.5t-11.5 96.5t-37 74t-60.5 29.5t-61 -29.5t-38.5 -74t-12.5 -96.5z" />
<glyph unicode="r" horiz-adv-x="729" d="M75 0v1114h341v-101q44 54 112.5 91t146.5 37v-416q-54 0 -98 -10t-81.5 -32t-58.5 -62t-21 -96v-525h-341z" />
<glyph unicode="s" horiz-adv-x="765" d="M22 115l85 235q104 -68 203 -68q67 0 67 52q0 57 -99 87q-217 65 -217 336q0 46 9 90.5t26 86t44.5 76t62.5 60.5t81.5 41t99.5 15q87 0 150.5 -11.5t94.5 -25t71 -37.5l-66 -284q-118 50 -179 50q-31 0 -50 -6.5t-25.5 -16.5t-6.5 -25q0 -25 20.5 -39t72.5 -26 q89 -20 152.5 -75t93 -126.5t29.5 -151.5q0 -78 -25 -146t-73.5 -120.5t-125.5 -83t-174 -30.5q-55 0 -102.5 11.5t-87 33.5t-68.5 44.5t-63 53.5z" />
<glyph unicode="t" horiz-adv-x="647" d="M54 766v348h85v320h338v-320h119v-348h-119v-766h-338v766h-85z" />
<glyph unicode="u" horiz-adv-x="933" d="M65 436v678h330v-626q0 -128 76 -128q77 0 77 128v626h332v-678q0 -61 -10.5 -118t-31.5 -109t-55 -94.5t-78.5 -74t-104 -49t-129.5 -17.5q-84 0 -152 24.5t-115 67t-78.5 101.5t-46 126t-14.5 143z" />
<glyph unicode="v" horiz-adv-x="885" d="M28 1114h306l117 -482l100 482h321l-301 -1114h-241z" />
<glyph unicode="w" horiz-adv-x="1338" d="M22 1114h303l118 -452l100 452h255l107 -461l104 461h321l-302 -1114h-241l-112 451l-113 -451h-239z" />
<glyph unicode="x" horiz-adv-x="979" d="M30 0l284 573l-266 541h347l93 -198l91 198h349l-266 -543l284 -571h-345l-113 228l-111 -228h-347z" />
<glyph unicode="y" horiz-adv-x="911" d="M18 1114h348l89 -422l102 422h343l-453 -1569h-334l178 614z" />
<glyph unicode="z" horiz-adv-x="842" d="M63 0l256 716h-251v398h719l-251 -707h251v-407h-724z" />
<glyph unicode="{" horiz-adv-x="503" d="M59 807q23 29 37 51t28.5 64.5t14.5 88.5v440q0 77 17 137.5t46.5 100.5t71 66t86.5 37t97 11v-176q-28 0 -49 -6t-35 -18.5t-23 -28.5t-13 -40.5t-5.5 -48t-1.5 -58.5v-416q0 -35 -9 -66t-27 -56.5t-34.5 -42.5t-40.5 -39q111 -116 111 -204v-480q0 -30 2 -53.5t10 -51 t21.5 -46t37.5 -30.5t56 -12v-178q-66 0 -121 18.5t-100.5 59.5t-71 114.5t-25.5 173.5v485q0 109 -80 204z" />
<glyph unicode="|" horiz-adv-x="295" d="M80 -104v1820h136v-1820h-136z" />
<glyph unicode="}" horiz-adv-x="490" d="M54 -70q33 0 57 12t37.5 30.5t21 46t10 51t2.5 53.5v480q0 88 111 204q-25 22 -41 39t-34 42.5t-27 56.5t-9 66v416q0 42 -2 69t-9.5 54.5t-21 42.5t-37.5 24.5t-58 9.5v176q52 0 97.5 -11t87 -37t70.5 -66t46.5 -100.5t17.5 -137.5v-440q0 -46 14 -88.5t28.5 -64.5 t37.5 -51q-80 -95 -80 -204v-485q0 -100 -25.5 -173.5t-71 -114.5t-100.5 -59.5t-122 -18.5v178z" />
<glyph unicode="~" horiz-adv-x="799" d="M123 968q32 51 82.5 88t115.5 37q34 0 59.5 -11.5t51.5 -33.5q2 -2 10.5 -9.5t12 -10t11.5 -9t12 -9t11.5 -6.5t13.5 -6t13.5 -3.5t15.5 -1.5q46 0 71.5 19t51.5 57l63 -73q-85 -114 -191 -114q-26 0 -49.5 8t-37.5 17.5t-30 24.5q-22 20 -30.5 27.5t-26 16.5t-34.5 9 q-76 0 -133 -94z" />
<glyph unicode="&#xa1;" horiz-adv-x="542" d="M102 1084q0 61 18.5 114t58.5 88t94 35t93.5 -35t58 -87.5t18.5 -114t-18.5 -114t-58 -87.5t-93.5 -35q-41 0 -74 20.5t-54 54t-32 75t-11 86.5zM104 -319v1072h341v-1072h-341z" />
<glyph unicode="&#xa2;" horiz-adv-x="670" d="M78 761q0 86 17 165t49 144t83.5 107t115.5 48v133h100v-130q51 -3 84 -24t64 -56v-252q-13 19 -22 30.5t-25.5 26.5t-38.5 22t-50 7q-43 0 -74.5 -31t-45.5 -78t-14 -103q0 -41 8.5 -78t24.5 -67t42 -48t59 -18q50 0 81.5 23t54.5 62v-258q-78 -72 -148 -72v-139h-100 v139q-65 7 -117 48t-83.5 103.5t-48 138t-16.5 157.5z" />
<glyph unicode="&#xa3;" horiz-adv-x="849" d="M50 282q9 14 19 26t20 22t22 19.5t23.5 17t26.5 15.5q55 85 55 221q0 15 -5 79h-116v175h100q-9 58 -45 189q-29 117 -29 252q0 150 87 243.5t247 93.5q70 0 125 -21.5t89.5 -57t57.5 -85.5t32 -103.5t9 -115.5q0 -41 -2 -61h-187q0 42 -4.5 71.5t-11.5 45.5t-19.5 24.5 t-23 10.5t-27.5 2q-77 0 -77 -120q0 -50 35 -182q40 -147 44 -186h171v-175h-150q5 -52 5 -91q0 -179 -50 -246q5 0 11 -1.5t11.5 -3.5t10 -4t11 -4.5t10.5 -4.5q35 -15 76 -15q47 0 90 26.5t68 66.5l32 -257q-15 -28 -27 -46t-34 -42t-45.5 -38.5t-59 -24.5t-77.5 -10 q-49 0 -84.5 15t-72.5 41q-31 23 -55 34.5t-54 11.5q-61 0 -99.5 -22.5t-78.5 -68.5z" />
<glyph unicode="&#xa5;" horiz-adv-x="1024" d="M30 1621h352l139 -354l134 356h354l-323 -800h151v-127h-151v-93h151v-128h-151v-475h-347v475h-150v128h150v93h-150v127h150z" />
<glyph unicode="&#xa6;" horiz-adv-x="336" d="M104 0v614h124v-614h-124zM104 857v675h124v-675h-124z" />
<glyph unicode="&#xa7;" horiz-adv-x="1002" d="M39 777q0 136 62 247t147 143q-44 67 -44 169q0 149 77.5 238.5t206.5 89.5q67 0 119 -9t89 -24t79 -39l-55 -273q-82 39 -177 39q-30 0 -50 -20.5t-20 -68.5q0 -54 16.5 -70.5t74.5 -25.5q122 -17 210.5 -88.5t133 -181.5t44.5 -246q0 -302 -193 -412q37 -55 37 -120 q0 -173 -87.5 -267t-253.5 -94q-69 0 -152.5 35t-154.5 108l80 234q70 -61 177 -61q46 0 64.5 20.5t18.5 68.5q0 15 -1.5 25t-4 18.5t-11.5 16t-17 13t-28.5 13.5t-37.5 14t-52 17q-146 50 -221.5 173.5t-75.5 317.5zM306 714q0 -73 26 -126.5t68 -79.5t95 -26 q80 0 134.5 62.5t54.5 169.5q0 102 -55 167t-134 65q-39 0 -73.5 -15.5t-60 -44.5t-40.5 -73t-15 -99z" />
<glyph unicode="&#xa8;" horiz-adv-x="831" d="M54 1438.5q0 62.5 18 116t55.5 89t88.5 35.5t88.5 -35.5t55 -89t17.5 -116t-17.5 -116t-55 -89t-88.5 -35.5t-88.5 35.5t-55.5 89t-18 116zM471 1439q0 63 17 116t54.5 88.5t89.5 35.5q50 0 87 -35.5t54.5 -89t17.5 -116t-17.5 -116t-54.5 -89t-87 -35.5 q-52 0 -89.5 35.5t-54.5 89t-17 116.5z" />
<glyph unicode="&#xa9;" horiz-adv-x="868" d="M57 841.5q0 88.5 15 172t47 158t77.5 130.5t109.5 88.5t139 32.5t139 -32.5t109.5 -88.5t77 -130.5t46.5 -158t15 -172.5q0 -87 -15 -170.5t-46.5 -157.5t-77 -130t-109.5 -88.5t-139 -32.5t-139 32.5t-109.5 88t-77.5 129.5t-47 157.5t-15 172zM123 841.5 q0 -97.5 20.5 -187t59 -162t101.5 -115.5t141 -43q63 0 116.5 28.5t91 77t64 113.5t39 138t12.5 150q0 98 -20.5 187t-59.5 161.5t-102 115.5t-141 43t-141 -43t-101.5 -115.5t-59 -161.5t-20.5 -186.5zM241 839q0 70 21.5 129t69 99t113.5 40q84 0 141 -57v-87 q-23 29 -59 49t-82 20q-60 0 -92 -56.5t-32 -136.5q0 -81 33 -141t91 -60q87 0 141 82v-104q-24 -24 -60.5 -40.5t-80.5 -16.5q-64 0 -111.5 42t-70 104t-22.5 134z" />
<glyph unicode="&#xaa;" horiz-adv-x="612" d="M70 648v166h496v-166h-496zM82 1189q0 76 18 140t57.5 107.5t94.5 43.5q75 0 105 -66v59h168v-564h-168v64q-31 -75 -105 -75q-55 0 -94.5 43t-57.5 107.5t-18 140.5zM239 1198q0 -46 14 -76.5t42 -30.5t42.5 31t14.5 76q0 28 -6 52t-19 39.5t-31.5 15.5t-32 -15.5 t-19 -39.5t-5.5 -52z" />
<glyph unicode="&#xab;" d="M59 603v186l336 411l141 -137l-291 -367l291 -349l-141 -154zM482 603v186l338 411l139 -137l-289 -367l289 -349l-139 -154z" />
<glyph unicode="&#xac;" horiz-adv-x="603" d="M48 818v104h531v-104h-531zM123 204q0 43 7.5 75.5t22 54t24.5 31.5t27 23q-29 28 -46 66t-17 108q0 77 50.5 134t124.5 57q47 0 87.5 -25.5t64 -69.5t23.5 -96q0 -49 -12 -86t-24 -54t-30 -34q2 -1 6 -4q17 -13 26.5 -23t24 -30.5t21 -51.5t6.5 -73q0 -91 -55.5 -154 t-137.5 -63q-84 0 -138.5 64.5t-54.5 150.5zM206 1573v186h206v-746h-156v560h-50zM275 232q0 -32 11 -55t30 -25q20 0 30.5 23t10.5 55t-11 54t-32 22q-19 0 -29 -21t-10 -53zM284 543q0 -13 3.5 -25t10.5 -19.5t16 -7.5q14 0 22.5 15.5t8.5 36.5q0 22 -8.5 38.5 t-22.5 16.5t-22 -16.5t-8 -38.5z" />
<glyph unicode="&#xad;" horiz-adv-x="881" d="M107 416v348h676v-348h-676z" />
<glyph unicode="&#xae;" horiz-adv-x="633" d="M91 1475q0 62 10.5 120.5t33 110.5t54.5 91.5t77 62.5t98 23q66 0 118.5 -35t85 -92.5t49.5 -129t17 -149.5t-17 -149.5t-49.5 -129.5t-85 -92.5t-118.5 -34.5t-119 34.5t-86 92t-50.5 129t-17.5 148.5zM137 1477q0 -92 24.5 -171.5t77.5 -132t125 -52.5t124.5 52.5 t77.5 131.5t25 172q0 68 -15 131t-42.5 113.5t-71.5 81t-98 30.5q-72 0 -125 -52.5t-77.5 -132t-24.5 -171.5zM273 1260v438h104q37 0 64 -31t27 -87q0 -58 -24.5 -87t-66.5 -29h-25l119 -204h-37l-118 204h-12v-204h-31zM304 1501h73q19 0 32.5 10.5t20 28t6.5 40.5 q0 35 -15 57t-44 22h-73v-158z" />
<glyph unicode="&#xaf;" horiz-adv-x="672" d="M84 1198v166h569v-166h-569z" />
<glyph unicode="&#xb0;" horiz-adv-x="390" d="M50 1388.5q0 57.5 16 107t51.5 83t84.5 33.5t84.5 -34t51.5 -84t16 -108q0 -42 -9.5 -81t-28 -71t-48 -51t-66.5 -19q-49 0 -84.5 33.5t-51.5 83.5t-16 107.5zM123 1386q0 -61 21 -105t58 -44t58.5 44.5t21.5 104.5q0 63 -21.5 107.5t-58.5 44.5t-58 -44.5t-21 -107.5z " />
<glyph unicode="&#xb1;" horiz-adv-x="842" d="M84 137v290h680v-290h-680zM84 868v349h226v347h226v-347h225l3 -349h-228v-347h-224v347h-228z" />
<glyph unicode="&#xb2;" horiz-adv-x="627" d="M130 1019v122l72 84q17 22 39 53t53 80t51.5 102t20.5 93q0 31 -9 46t-32 15q-24 0 -33.5 -30.5t-9.5 -69.5h-137q0 54 9.5 97.5t30.5 80t59.5 56.5t91.5 20q105 0 149 -56.5t44 -160.5q0 -46 -10.5 -90.5t-24.5 -77t-38.5 -70t-40.5 -57.5t-42 -52h156v-185h-399z" />
<glyph unicode="&#xb3;" horiz-adv-x="640" d="M148 1241h138q0 -61 44 -61q11 0 18.5 4t12 13.5t6.5 22.5t2 32q0 43 -13 57t-50 14v152q26 0 39 5.5t18.5 17.5t5.5 36q0 34 -9 47t-33 13q-21 0 -28.5 -16t-7.5 -48h-139q0 236 178 236q91 0 135 -50t44 -141q0 -131 -77 -163q41 -11 67 -56t26 -117q0 -107 -55 -172 t-136 -65q-63 0 -105.5 30.5t-61.5 83t-19 125.5z" />
<glyph unicode="&#xb4;" horiz-adv-x="451" d="M80 1321l161 263l109 -79l-161 -264z" />
<glyph unicode="&#xb5;" horiz-adv-x="640" d="M59 818v104h532v-104h-532zM121 -2v123l72 83q18 21 39.5 52t53 80.5t51.5 102.5t20 93q0 20 -3 33t-12.5 21t-25.5 8q-13 0 -22 -10t-13 -26.5t-6 -32t-2 -32.5h-136q0 54 9 98t30 80.5t59.5 56.5t91.5 20q54 0 92.5 -15.5t60 -45.5t31.5 -68.5t10 -89.5 q0 -45 -11 -89.5t-25 -76.5t-38.5 -70t-40 -57.5t-42.5 -51.5h157v-186h-400zM216 1573v184h205v-746h-157v562h-48z" />
<glyph unicode="&#xb6;" horiz-adv-x="917" d="M59 1093q0 165 46 286t127 182.5t189 61.5h206v-1844h-152v824h-54q-167 0 -264.5 123t-97.5 367zM700 -221v1844h150v-1844h-150z" />
<glyph unicode="&#xb7;" horiz-adv-x="612" d="M159 846q0 61 18.5 113.5t58.5 87.5t94 35t94 -35t58.5 -87.5t18.5 -113.5t-18.5 -113.5t-58.5 -88t-94 -35.5t-94 35.5t-58.5 88t-18.5 113.5z" />
<glyph unicode="&#xb8;" horiz-adv-x="390" d="M107 -173q26 -27 54 -27q22 0 33.5 12t11.5 31q0 39 -40 75l18 82h85l-15 -75q16 -15 26 -25.5t21 -35.5t11 -53q0 -50 -32 -86.5t-80 -36.5q-27 0 -53 12.5t-40 28.5v98z" />
<glyph unicode="&#xb9;" horiz-adv-x="568" d="M216 1573v186h205v-746h-155v560h-50z" />
<glyph unicode="&#xba;" horiz-adv-x="660" d="M80 648v166h495v-166h-495zM111 1193.5q0 76.5 23.5 142t74 109.5t118.5 44q70 0 120 -44t73 -109.5t23 -142.5q0 -56 -13.5 -108.5t-39.5 -95t-68 -68t-95 -25.5q-68 0 -118.5 44t-74 110.5t-23.5 143zM273 1193q0 -44 14.5 -76.5t39.5 -32.5q28 0 42.5 32.5t14.5 76.5 q0 29 -6 52.5t-19 39t-32 15.5q-13 0 -23.5 -9t-17 -24t-10 -34t-3.5 -40z" />
<glyph unicode="&#xbb;" horiz-adv-x="987" d="M41 347l291 349l-291 367l139 137l338 -411v-186l-338 -410zM471 347l288 349l-288 367l138 137l339 -411v-186l-339 -410z" />
<glyph unicode="&#xbc;" horiz-adv-x="640" d="M59 818v104h532v-104h-532zM95 132v170l161 444h221v-427h50v-187h-50v-132h-156v132h-226zM216 1573v186h205v-746h-155v560h-50zM252 319h69v208z" />
<glyph unicode="&#xbd;" horiz-adv-x="640" d="M59 818v104h532v-104h-532zM121 -2v123l72 83q18 21 39.5 52t53 80.5t51.5 102.5t20 93q0 20 -3 33t-12.5 21t-25.5 8q-13 0 -22 -10t-13 -26.5t-6 -32t-2 -32.5h-136q0 54 9 98t30 80.5t59.5 56.5t91.5 20q54 0 92.5 -15.5t60 -45.5t31.5 -68.5t10 -89.5 q0 -45 -11 -89.5t-25 -76.5t-38.5 -70t-40 -57.5t-42.5 -51.5h157v-186h-400zM216 1573v184h205v-746h-157v562h-48z" />
<glyph unicode="&#xbe;" horiz-adv-x="640" d="M59 818v104h532v-104h-532zM89 128v169l161 444h221v-427h50v-186h-50v-132h-157v132h-225zM148 1241h138q0 -61 44 -61q11 0 18.5 4t12 13.5t6.5 22.5t2 32q0 43 -13 57t-50 14v152q26 0 39 5.5t18.5 17.5t5.5 36q0 34 -9 47t-33 13q-21 0 -28.5 -16t-7.5 -48h-139 q0 236 178 236q91 0 135 -50t44 -141q0 -131 -77 -163q41 -11 67 -56t26 -117q0 -107 -55 -172t-136 -65q-63 0 -105.5 30.5t-61.5 83t-19 125.5zM245 314h69v209z" />
<glyph unicode="&#xbf;" horiz-adv-x="917" d="M48 121q0 227 80.5 365.5t196.5 138.5v78h300v-332h-111q-30 0 -52.5 -9.5t-42 -33t-29.5 -68t-10 -108.5q0 -107 21.5 -146.5t78.5 -39.5q53 0 77 45t22 114h303q0 -147 -46 -258t-140 -174.5t-225 -63.5q-140 0 -236.5 62t-141.5 171t-45 259zM310 1043q0 61 18 114 t57.5 88t94 35t94 -35t58 -88t18.5 -114t-18.5 -113.5t-58 -87.5t-94 -35t-94 35t-57.5 87.5t-18 113.5z" />
<glyph unicode="&#xc0;" horiz-adv-x="1113" d="M26 0l334 1623h393l334 -1623h-334l-55 234h-286l-52 -234h-334zM366 1930l100 72l146 -238l-98 -70zM482 596h143l-70 343z" />
<glyph unicode="&#xc1;" horiz-adv-x="1113" d="M26 0l334 1623h393l334 -1623h-334l-55 234h-286l-52 -234h-334zM482 596h143l-70 343zM493 1757l149 241l99 -72l-147 -237z" />
<glyph unicode="&#xc2;" horiz-adv-x="1113" d="M26 0l334 1623h393l334 -1623h-334l-55 234h-286l-52 -234h-334zM373 1750l159 252h39l149 -252l-67 -65l-100 168l-108 -174zM482 596h143l-70 343z" />
<glyph unicode="&#xc3;" horiz-adv-x="1113" d="M26 0l334 1623h393l334 -1623h-334l-55 234h-286l-52 -234h-334zM259 1868q17 30 39.5 53.5t57 41t71.5 17.5q27 0 48 -4t37 -14t24.5 -17t22.5 -21q13 -11 20.5 -17t20 -13t27 -10.5t32.5 -3.5q70 0 102 59l78 -104q-13 -22 -30.5 -41.5t-40.5 -36t-52 -27t-59 -10.5 q-73 0 -121 48l-13.5 13.5t-14.5 13.5l-14 10.5t-17 10t-18 5t-23 2.5q-65 0 -97 -59zM482 596h143l-70 343z" />
<glyph unicode="&#xc4;" horiz-adv-x="1113" d="M26 0l334 1623h393l334 -1623h-334l-55 234h-286l-52 -234h-334zM286 1871q0 69 29 118.5t82 49.5q54 0 84.5 -49.5t30.5 -118t-30.5 -118.5t-84.5 -50q-22 0 -40.5 9.5t-31 25.5t-21.5 37.5t-13.5 46t-4.5 49.5zM482 596h143l-70 343zM591 1871q0 44 11.5 81.5t38 62 t62.5 24.5q53 0 82 -49.5t29 -118.5t-29 -118.5t-82.5 -49.5t-82.5 50t-29 118z" />
<glyph unicode="&#xc5;" horiz-adv-x="1113" d="M26 0l334 1623h393l334 -1623h-334l-55 234h-286l-52 -234h-334zM425 1876q0 72 34.5 125.5t97.5 53.5q60 0 93.5 -53.5t33.5 -125.5q0 -46 -13.5 -85.5t-43 -66t-70.5 -26.5q-63 0 -97.5 53t-34.5 125zM482 596h143l-70 343zM486 1874q0 -49 19 -85t52.5 -36t51.5 36 t18 85q0 50 -18 86t-52 36t-52.5 -36.5t-18.5 -85.5z" />
<glyph unicode="&#xc6;" horiz-adv-x="1356" d="M26 0l401 1623h851v-404h-330v-214h316v-407h-316v-191h330v-407h-680v243h-173l-52 -243h-347zM501 603h97v464z" />
<glyph unicode="&#xc7;" horiz-adv-x="815" d="M28 814q0 137 22.5 260.5t69 227.5t113.5 179.5t160.5 118t204.5 42.5q78 0 143 -26v-432q-61 37 -145 37q-61 0 -105 -57.5t-64 -148t-20 -201.5q0 -83 12.5 -158.5t35.5 -135.5t59.5 -96t81.5 -36q95 0 145 37v-427q-62 -20 -138 -20l-21 -85q35 -15 65 -52.5t30 -92.5 q0 -56 -38.5 -100.5t-111.5 -44.5q-59 0 -97 31v171q33 -28 56 -28q9 0 17 2t14 6t10.5 10t6.5 14t2 18q0 19 -13.5 37.5t-34.5 28.5l24 91q-117 20 -210 93t-152.5 184.5t-90.5 252t-31 300.5z" />
<glyph unicode="&#xc8;" horiz-adv-x="824" d="M73 0v1623h680v-404h-341v-210h319v-406h-319v-196h341v-407h-680zM232 1930l100 72l145 -238l-100 -70z" />
<glyph unicode="&#xc9;" horiz-adv-x="824" d="M73 0v1623h680v-404h-341v-210h319v-406h-319v-196h341v-407h-680zM300 1757l145 241l101 -72l-146 -237z" />
<glyph unicode="&#xca;" horiz-adv-x="824" d="M73 0v1623h680v-404h-341v-210h319v-406h-319v-196h341v-407h-680zM223 1755l157 252h41l150 -252l-70 -66l-99 168l-107 -172z" />
<glyph unicode="&#xcb;" horiz-adv-x="824" d="M73 0v1623h680v-404h-341v-210h319v-406h-319v-196h341v-407h-680zM139 1871q0 69 28.5 118.5t82.5 49.5q53 0 83.5 -49.5t30.5 -118t-30.5 -118.5t-83.5 -50q-54 0 -82.5 49.5t-28.5 118.5zM443 1871q0 44 12 81.5t38 62t62 24.5q53 0 82 -49.5t29 -118.5t-29 -118.5 t-82 -49.5t-82.5 50t-29.5 118z" />
<glyph unicode="&#xcc;" horiz-adv-x="495" d="M46 1930l99 72l148 -238l-100 -70zM80 0v1623h341v-1623h-341z" />
<glyph unicode="&#xcd;" horiz-adv-x="495" d="M80 0v1623h341v-1623h-341zM202 1757l145 241l100 -72l-145 -237z" />
<glyph unicode="&#xce;" horiz-adv-x="495" d="M70 1787l158 252h38l152 -252l-71 -67l-99 169l-107 -173zM80 0v1623h341v-1623h-341z" />
<glyph unicode="&#xcf;" horiz-adv-x="495" d="M-18 1871q0 69 29 118.5t82 49.5q36 0 62.5 -24.5t38.5 -62t12 -81.5q0 -68 -29.5 -118t-83 -50t-82.5 49.5t-29 118.5zM80 0v1623h341v-1623h-341zM286 1871q0 69 29 118.5t82.5 49.5t82.5 -49.5t29 -118t-29 -118.5t-83 -50q-22 0 -40.5 9.5t-31 25.5t-21.5 37.5 t-13.5 46t-4.5 49.5z" />
<glyph unicode="&#xd0;" horiz-adv-x="1085" d="M4 718v228h87v677h366q114 0 211.5 -46t166 -125t117.5 -183.5t72.5 -222.5t23.5 -241t-23 -239.5t-71.5 -219t-116.5 -179.5t-164.5 -122t-210.5 -45h-371v718h-87zM430 443h47q66 0 113 56t68 140t21 184q0 98 -21 181.5t-68.5 139.5t-112.5 56h-47v-254h102v-228h-102 v-275z" />
<glyph unicode="&#xd1;" horiz-adv-x="1158" d="M78 0v1623h315l336 -850v850h340v-1623h-340l-311 791v-791h-340zM266 1868q29 48 71 80t97 32q35 0 62.5 -9.5t39 -19t30.5 -27.5q17 -15 27 -22.5t30 -14.5t43 -7q70 0 102 59l78 -104q-28 -47 -76 -81t-106 -34q-73 0 -121 48q-3 3 -14 13.5t-15 13.5t-13.5 10.5 t-16.5 10t-18 5t-23 2.5q-65 0 -98 -59z" />
<glyph unicode="&#xd2;" horiz-adv-x="1204" d="M43 809.5q0 126.5 22 246t67.5 226.5t110.5 186.5t157 126.5t200.5 47t201 -47t157 -126.5t110.5 -186.5t68 -226.5t22 -246t-22 -246.5t-68 -226.5t-110.5 -186t-157 -126t-201 -46.5t-200.5 46.5t-157 126t-110.5 186t-67.5 226.5t-22 246.5zM405 1930l98 72l147 -238 l-99 -70zM418 809.5q0 -63.5 7 -124t22 -114t36 -93.5t51.5 -63.5t66.5 -23.5q44 0 79.5 35.5t57.5 95.5t33.5 133.5t11.5 153.5t-11.5 153.5t-33.5 133.5t-57.5 96t-79.5 36q-36 0 -66.5 -23.5t-51.5 -64t-36 -94t-22 -113.5t-7 -123.5z" />
<glyph unicode="&#xd3;" horiz-adv-x="1204" d="M43 809.5q0 126.5 22 246t67.5 226.5t110.5 186.5t157 126.5t200.5 47t201 -47t157 -126.5t110.5 -186.5t68 -226.5t22 -246t-22 -246.5t-68 -226.5t-110.5 -186t-157 -126t-201 -46.5t-200.5 46.5t-157 126t-110.5 186t-67.5 226.5t-22 246.5zM418 809.5q0 -63.5 7 -124 t22 -114t36 -93.5t51.5 -63.5t66.5 -23.5q44 0 79.5 35.5t57.5 95.5t33.5 133.5t11.5 153.5t-11.5 153.5t-33.5 133.5t-57.5 96t-79.5 36q-36 0 -66.5 -23.5t-51.5 -64t-36 -94t-22 -113.5t-7 -123.5zM501 1757l147 241l100 -72l-147 -237z" />
<glyph unicode="&#xd4;" horiz-adv-x="1204" d="M43 809.5q0 126.5 22 246t67.5 226.5t110.5 186.5t157 126.5t200.5 47t201 -47t157 -126.5t110.5 -186.5t68 -226.5t22 -246t-22 -246.5t-68 -226.5t-110.5 -186t-157 -126t-201 -46.5t-200.5 46.5t-157 126t-110.5 186t-67.5 226.5t-22 246.5zM418 809.5q0 -63.5 7 -124 t22 -114t36 -93.5t51.5 -63.5t66.5 -23.5q44 0 79.5 35.5t57.5 95.5t33.5 133.5t11.5 153.5t-11.5 153.5t-33.5 133.5t-57.5 96t-79.5 36q-36 0 -66.5 -23.5t-51.5 -64t-36 -94t-22 -113.5t-7 -123.5zM423 1778l156 252h39l152 -252l-70 -66l-99 168l-108 -173z" />
<glyph unicode="&#xd5;" horiz-adv-x="1204" d="M43 809.5q0 126.5 22 246t67.5 226.5t110.5 186.5t157 126.5t200.5 47t201 -47t157 -126.5t110.5 -186.5t68 -226.5t22 -246t-22 -246.5t-68 -226.5t-110.5 -186t-157 -126t-201 -46.5t-200.5 46.5t-157 126t-110.5 186t-67.5 226.5t-22 246.5zM300 1868q28 48 70.5 80 t97.5 32q36 0 63 -9.5t39 -19t31 -27.5q16 -15 26 -22.5t30 -14.5t43 -7q70 0 103 59l77 -104q-27 -47 -75 -81t-107 -34q-73 0 -121 48l-13.5 13.5t-14.5 13.5l-14 10.5t-17 10t-18 5t-23 2.5q-65 0 -97 -59zM418 809.5q0 -63.5 7 -124t22 -114t36 -93.5t51.5 -63.5 t66.5 -23.5q44 0 79.5 35.5t57.5 95.5t33.5 133.5t11.5 153.5t-11.5 153.5t-33.5 133.5t-57.5 96t-79.5 36q-36 0 -66.5 -23.5t-51.5 -64t-36 -94t-22 -113.5t-7 -123.5z" />
<glyph unicode="&#xd6;" horiz-adv-x="1204" d="M43 809.5q0 126.5 22 246t67.5 226.5t110.5 186.5t157 126.5t200.5 47t201 -47t157 -126.5t110.5 -186.5t68 -226.5t22 -246t-22 -246.5t-68 -226.5t-110.5 -186t-157 -126t-201 -46.5t-200.5 46.5t-157 126t-110.5 186t-67.5 226.5t-22 246.5zM334 1871q0 69 29 118.5 t82 49.5q36 0 63 -24.5t39 -62t12 -81.5q0 -68 -30 -118t-84 -50q-53 0 -82 49.5t-29 118.5zM418 809.5q0 -63.5 7 -124t22 -114t36 -93.5t51.5 -63.5t66.5 -23.5q44 0 79.5 35.5t57.5 95.5t33.5 133.5t11.5 153.5t-11.5 153.5t-33.5 133.5t-57.5 96t-79.5 36 q-36 0 -66.5 -23.5t-51.5 -64t-36 -94t-22 -113.5t-7 -123.5zM638 1871q0 44 12 81.5t38 62t62 24.5q28 0 49.5 -14t35 -38t20 -53.5t6.5 -62.5q0 -69 -28.5 -118.5t-82 -49.5t-83 50t-29.5 118z" />
<glyph unicode="&#xd7;" horiz-adv-x="1282" d="M87 128l445 447l-445 446l108 109l447 -448l447 448l109 -109l-448 -446l448 -447l-109 -110l-447 448l-447 -448z" />
<glyph unicode="&#xd8;" horiz-adv-x="1204" d="M43 809q0 127 22 246.5t67.5 226.5t110.5 186.5t157 126.5t201 47q139 0 249 -76l41 105h150l-82 -202q98 -116 149 -290.5t51 -369.5q0 -126 -22 -246t-68 -226.5t-110.5 -186t-157 -126t-200.5 -46.5q-121 0 -219 56l-32 -80h-148l67 167q-110 114 -168 298t-58 390z M418 809q0 -142 29 -243l247 612q-40 50 -93 50q-36 0 -66.5 -23.5t-51.5 -64t-36 -94t-22 -113.5t-7 -124zM534 414q35 -23 67 -23q44 0 79.5 35.5t57.5 95.5t33.5 133.5t11.5 153.5q0 93 -17 178z" />
<glyph unicode="&#xd9;" horiz-adv-x="992" d="M61 480v1143h339v-1059q0 -64 25.5 -96t62.5 -32q26 0 45.5 12.5t31.5 42t12 73.5v1059h339v-1143q0 -125 -32 -221t-90 -155.5t-135 -89.5t-170.5 -30t-170.5 30t-135 89.5t-90 155.5t-32 221zM323 1930l98 72l147 -238l-100 -70z" />
<glyph unicode="&#xda;" horiz-adv-x="992" d="M61 480v1143h339v-1059q0 -64 25.5 -96t62.5 -32q26 0 45.5 12.5t31.5 42t12 73.5v1059h339v-1143q0 -125 -32 -221t-90 -155.5t-135 -89.5t-170.5 -30t-170.5 30t-135 89.5t-90 155.5t-32 221zM418 1757l146 241l100 -72l-146 -237z" />
<glyph unicode="&#xdb;" horiz-adv-x="992" d="M61 480v1143h339v-1059q0 -64 25.5 -96t62.5 -32q26 0 45.5 12.5t31.5 42t12 73.5v1059h339v-1143q0 -125 -32 -221t-90 -155.5t-135 -89.5t-170.5 -30t-170.5 30t-135 89.5t-90 155.5t-32 221zM314 1742l157 252h38l153 -252l-71 -67l-100 169l-107 -173z" />
<glyph unicode="&#xdc;" horiz-adv-x="992" d="M61 480v1143h339v-1059q0 -64 25.5 -96t62.5 -32q26 0 45.5 12.5t31.5 42t12 73.5v1059h339v-1143q0 -125 -32 -221t-90 -155.5t-135 -89.5t-170.5 -30t-170.5 30t-135 89.5t-90 155.5t-32 221zM221 1871q0 69 29 118.5t82 49.5t83 -49.5t30 -118t-30 -118.5t-83 -50 q-36 0 -62 25t-37.5 62t-11.5 81zM525 1871q0 69 29 118.5t82 49.5t82.5 -49.5t29.5 -118t-29.5 -118.5t-82.5 -50q-36 0 -62 25t-37.5 62t-11.5 81z" />
<glyph unicode="&#xdd;" horiz-adv-x="1026" d="M22 1623h347l140 -404l139 404h359l-330 -879v-744h-345v744zM436 1757l146 241l100 -72l-146 -237z" />
<glyph unicode="&#xde;" horiz-adv-x="942" d="M70 0v1623h348v-268h109q86 0 153.5 -31t115 -94t73 -160.5t25.5 -225.5q0 -255 -96 -382.5t-271 -127.5h-109v-334h-348zM418 703h55q43 0 61.5 35t18.5 106q0 141 -80 141h-55v-282z" />
<glyph unicode="&#xdf;" horiz-adv-x="1204" d="M43 766v348h85v73q0 91 35 175t96 146t148.5 99t186.5 37q68 0 132.5 -16.5t122 -51t101 -83.5t68.5 -119t25 -153q0 -220 -97 -289q76 -23 125 -70t74.5 -127.5t25.5 -196.5q0 -100 -13 -181.5t-37.5 -140t-58 -100.5t-78 -67.5t-94 -37t-107.5 -11.5h-212v418h84 q77 0 113.5 41.5t36.5 134.5q0 42 -7 69.5t-21 46.5t-41 29t-62 14t-88 4v286q59 0 81 32t22 103q0 58 -28 89t-75 31q-56 0 -88 -38.5t-32 -107.5v-1152h-338v766h-85z" />
<glyph unicode="&#xe0;" d="M43 551q0 110 21.5 211.5t62 183.5t107 131t148.5 49q81 0 128.5 -34.5t75.5 -98.5v121h332v-1114h-332v128q-11 -29 -25 -51.5t-37.5 -47t-59.5 -38t-82 -13.5q-66 0 -122.5 32t-95.5 87t-66.5 128.5t-41 155.5t-13.5 170zM275 1505l109 79l164 -263l-110 -80zM352 571 q0 -56 11.5 -102.5t38 -77.5t64.5 -31q36 0 62.5 31t38.5 77.5t12 102t-12 102.5t-38.5 78.5t-62.5 31.5q-28 0 -50.5 -18t-36 -48.5t-20.5 -67.5t-7 -78z" />
<glyph unicode="&#xe1;" d="M43 551q0 110 21.5 211.5t62 183.5t107 131t148.5 49q81 0 128.5 -34.5t75.5 -98.5v121h332v-1114h-332v128q-11 -29 -25 -51.5t-37.5 -47t-59.5 -38t-82 -13.5q-66 0 -122.5 32t-95.5 87t-66.5 128.5t-41 155.5t-13.5 170zM352 571q0 -56 11.5 -102.5t38 -77.5t64.5 -31 q36 0 62.5 31t38.5 77.5t12 102t-12 102.5t-38.5 78.5t-62.5 31.5q-28 0 -50.5 -18t-36 -48.5t-20.5 -67.5t-7 -78zM418 1321l161 263l110 -79l-162 -264z" />
<glyph unicode="&#xe2;" d="M43 551q0 110 21.5 211.5t62 183.5t107 131t148.5 49q81 0 128.5 -34.5t75.5 -98.5v121h332v-1114h-332v128q-11 -29 -25 -51.5t-37.5 -47t-59.5 -38t-82 -13.5q-66 0 -122.5 32t-95.5 87t-66.5 128.5t-41 155.5t-13.5 170zM273 1310l195 311h53l186 -311l-87 -85 l-125 214l-131 -218zM352 571q0 -56 11.5 -102.5t38 -77.5t64.5 -31q36 0 62.5 31t38.5 77.5t12 102t-12 102.5t-38.5 78.5t-62.5 31.5q-28 0 -50.5 -18t-36 -48.5t-20.5 -67.5t-7 -78z" />
<glyph unicode="&#xe3;" d="M43 551q0 110 21.5 211.5t62 183.5t107 131t148.5 49q81 0 128.5 -34.5t75.5 -98.5v121h332v-1114h-332v128q-11 -29 -25 -51.5t-37.5 -47t-59.5 -38t-82 -13.5q-66 0 -122.5 32t-95.5 87t-66.5 128.5t-41 155.5t-13.5 170zM209 1446q28 48 70.5 79.5t97.5 31.5 q22 0 40.5 -3.5t30.5 -8t25 -13.5t19 -14.5t17 -16.5q13 -11 20.5 -16.5t20 -13t27.5 -11t32 -3.5q70 0 103 59l77 -104q-27 -47 -75 -80.5t-107 -33.5q-73 0 -121 47l-12 12t-12.5 12t-11.5 10t-13 9t-14 6.5t-17 5t-20 1.5q-64 0 -97 -60zM352 571q0 -56 11.5 -102.5 t38 -77.5t64.5 -31q36 0 62.5 31t38.5 77.5t12 102t-12 102.5t-38.5 78.5t-62.5 31.5q-28 0 -50.5 -18t-36 -48.5t-20.5 -67.5t-7 -78z" />
<glyph unicode="&#xe4;" d="M43 551q0 110 21.5 211.5t62 183.5t107 131t148.5 49q81 0 128.5 -34.5t75.5 -98.5v121h332v-1114h-332v128q-11 -29 -25 -51.5t-37.5 -47t-59.5 -38t-82 -13.5q-66 0 -122.5 32t-95.5 87t-66.5 128.5t-41 155.5t-13.5 170zM141 1439q0 46 10.5 88.5t30 76.5t50.5 54.5 t70 20.5q51 0 88.5 -35.5t55.5 -89t18 -115.5q0 -47 -10.5 -89.5t-30.5 -76.5t-51.5 -54.5t-69.5 -20.5q-51 0 -88.5 35.5t-55 89t-17.5 116.5zM352 571q0 -56 11.5 -102.5t38 -77.5t64.5 -31q36 0 62.5 31t38.5 77.5t12 102t-12 102.5t-38.5 78.5t-62.5 31.5 q-28 0 -50.5 -18t-36 -48.5t-20.5 -67.5t-7 -78zM557 1439q0 63 17 116t54.5 88.5t89.5 35.5q50 0 87.5 -35.5t55 -89t17.5 -116t-17.5 -116t-55 -89t-87.5 -35.5q-52 0 -89.5 35.5t-54.5 89t-17 116.5z" />
<glyph unicode="&#xe5;" d="M43 551q0 110 21.5 211.5t62 183.5t107 131t148.5 49q81 0 128.5 -34.5t75.5 -98.5v121h332v-1114h-332v128q-11 -29 -25 -51.5t-37.5 -47t-59.5 -38t-82 -13.5q-66 0 -122.5 32t-95.5 87t-66.5 128.5t-41 155.5t-13.5 170zM321 1434q0 58 17.5 108t55.5 83.5t90 33.5 q51 0 88.5 -33.5t54.5 -83.5t17 -107.5t-17.5 -107t-54.5 -82.5t-88 -33q-39 0 -71 19t-51.5 50.5t-30 71t-10.5 81.5zM352 571q0 -56 11.5 -102.5t38 -77.5t64.5 -31q36 0 62.5 31t38.5 77.5t12 102t-12 102.5t-38.5 78.5t-62.5 31.5q-28 0 -50.5 -18t-36 -48.5 t-20.5 -67.5t-7 -78zM395 1432q0 -61 23.5 -105.5t65.5 -44.5t65.5 44.5t23.5 105.5q0 40 -10 74t-30.5 56t-48.5 22q-42 0 -65.5 -45t-23.5 -107z" />
<glyph unicode="&#xe6;" horiz-adv-x="1512" d="M43 551q0 110 21.5 211.5t62 183.5t107 131t148.5 49q81 0 128.5 -34.5t75.5 -98.5v121h225v-82q102 98 243 98q87 0 157.5 -32.5t119 -87.5t81.5 -131t48 -161.5t15 -179.5v-47h-507q0 -122 25 -177t76 -55q24 0 41.5 9.5t27 27.5t14 35t7.5 40l310 -57q-14 -47 -31 -87 t-42 -79t-58 -69t-74 -53.5t-95 -35.5t-117 -12q-138 0 -241 95v-73h-225v128q-11 -29 -25 -51.5t-37.5 -47t-59.5 -38t-82 -13.5q-66 0 -122.5 32t-95.5 87t-66.5 128.5t-41 155.5t-13.5 170zM352 571q0 -56 11.5 -102.5t38 -77.5t64.5 -31q36 0 62.5 31t38.5 77.5t12 102 t-12 102.5t-38.5 78.5t-62.5 31.5q-28 0 -50.5 -18t-36 -48.5t-20.5 -67.5t-7 -78zM973 705h186q0 23 -5 46t-15.5 44t-29 33.5t-42.5 12.5q-33 0 -55 -23.5t-30.5 -52.5t-8.5 -60z" />
<glyph unicode="&#xe7;" horiz-adv-x="627" d="M20 548q0 111 22.5 213t64 184t109 131.5t150.5 49.5q37 0 68 -5t49.5 -10t39.5 -16t28 -16t24 -18v-341q-15 19 -22 26.5t-20.5 19.5t-29 16.5t-35.5 4.5q-39 0 -67.5 -34t-42 -84.5t-13.5 -109.5t13.5 -111t42 -86.5t67.5 -34.5q22 0 41 7.5t32 19t21 23.5t13 25v-350 q-18 -19 -34.5 -32t-51.5 -26t-79 -16l-15 -76q16 -14 26 -25t21 -35.5t11 -52.5q0 -50 -32 -86.5t-80 -36.5q-28 0 -53.5 12t-39.5 29v98q27 -28 54 -28q22 0 33.5 11.5t11.5 31.5q0 39 -41 76l19 82q-74 11 -133.5 64t-96 132t-56 175t-19.5 199z" />
<glyph unicode="&#xe8;" horiz-adv-x="874" d="M20 546.5q0 88.5 16.5 172t50.5 158.5t82.5 131t117 89t149.5 33q72 0 133.5 -22.5t107 -63t80.5 -95.5t56.5 -121.5t32.5 -139t11 -150.5v-47h-507q0 -122 25 -177t76 -55q24 0 41 9.5t26.5 27.5t14.5 35t8 40l309 -57q-98 -351 -416 -351q-80 0 -148.5 33t-116.5 89 t-82 130.5t-50.5 158.5t-16.5 172.5zM262 1505l109 79l163 -263l-109 -80zM354 705h187q0 23 -5.5 46t-16 44t-29.5 33.5t-43 12.5q-32 0 -54.5 -23.5t-30.5 -52.5t-8 -60z" />
<glyph unicode="&#xe9;" horiz-adv-x="874" d="M20 546.5q0 88.5 16.5 172t50.5 158.5t82.5 131t117 89t149.5 33q72 0 133.5 -22.5t107 -63t80.5 -95.5t56.5 -121.5t32.5 -139t11 -150.5v-47h-507q0 -122 25 -177t76 -55q24 0 41 9.5t26.5 27.5t14.5 35t8 40l309 -57q-98 -351 -416 -351q-80 0 -148.5 33t-116.5 89 t-82 130.5t-50.5 158.5t-16.5 172.5zM352 1321l164 263l107 -79l-161 -264zM354 705h187q0 23 -5.5 46t-16 44t-29.5 33.5t-43 12.5q-32 0 -54.5 -23.5t-30.5 -52.5t-8 -60z" />
<glyph unicode="&#xea;" horiz-adv-x="874" d="M20 546.5q0 88.5 16.5 172t50.5 158.5t82.5 131t117 89t149.5 33q72 0 133.5 -22.5t107 -63t80.5 -95.5t56.5 -121.5t32.5 -139t11 -150.5v-47h-507q0 -122 25 -177t76 -55q24 0 41 9.5t26.5 27.5t14.5 35t8 40l309 -57q-98 -351 -416 -351q-80 0 -148.5 33t-116.5 89 t-82 130.5t-50.5 158.5t-16.5 172.5zM223 1310l195 311h50l189 -311l-86 -85l-126 214l-131 -218zM354 705h187q0 23 -5.5 46t-16 44t-29.5 33.5t-43 12.5q-32 0 -54.5 -23.5t-30.5 -52.5t-8 -60z" />
<glyph unicode="&#xeb;" horiz-adv-x="874" d="M20 546.5q0 88.5 16.5 172t50.5 158.5t82.5 131t117 89t149.5 33q72 0 133.5 -22.5t107 -63t80.5 -95.5t56.5 -121.5t32.5 -139t11 -150.5v-47h-507q0 -122 25 -177t76 -55q24 0 41 9.5t26.5 27.5t14.5 35t8 40l309 -57q-98 -351 -416 -351q-80 0 -148.5 33t-116.5 89 t-82 130.5t-50.5 158.5t-16.5 172.5zM73 1438.5q0 62.5 17.5 116t55 89t88.5 35.5t88.5 -35.5t55 -89t17.5 -116t-17.5 -116t-55 -89t-88.5 -35.5t-88.5 35.5t-55 89t-17.5 116zM354 705h187q0 23 -5.5 46t-16 44t-29.5 33.5t-43 12.5q-32 0 -54.5 -23.5t-30.5 -52.5t-8 -60 zM488 1438.5q0 62.5 17.5 116t55 89t89.5 35.5q50 0 87 -35.5t54.5 -89t17.5 -116t-17.5 -116t-54.5 -89t-87 -35.5q-52 0 -89.5 35.5t-55 89t-17.5 116z" />
<glyph unicode="&#xec;" horiz-adv-x="486" d="M26 1505l108 79l163 -263l-108 -80zM98 0v1114h302v-1114h-302z" />
<glyph unicode="&#xed;" horiz-adv-x="486" d="M98 0v1114h302v-1114h-302zM191 1321l161 263l110 -79l-162 -264z" />
<glyph unicode="&#xee;" horiz-adv-x="486" d="M22 1310l197 311h50l188 -311l-86 -85l-126 214l-132 -218zM98 0v1114h302v-1114h-302z" />
<glyph unicode="&#xef;" horiz-adv-x="486" d="M-73 1449q0 87 39 151t107 64q46 0 80 -31.5t50 -79.5t16 -104q0 -42 -9.5 -80.5t-27.5 -69t-46 -49t-63 -18.5q-45 0 -79.5 32t-50.5 80.5t-16 104.5zM98 0v1114h302v-1114h-302zM302 1449q0 56 15.5 104t49.5 79.5t80 31.5q67 0 105.5 -64t38.5 -151q0 -56 -16 -104.5 t-49.5 -80.5t-78.5 -32q-35 0 -63.5 18.5t-46 49.5t-26.5 69t-9 80z" />
<glyph unicode="&#xf0;" horiz-adv-x="909" d="M32 552.5q0 88.5 16.5 172.5t51.5 158.5t84.5 130t120 88t152.5 32.5q23 0 34 -2q-33 90 -94 161l-147 -126l-125 122l141 125q-56 46 -97 71t-108 57l162 226q46 -21 68 -32t60 -31.5t69.5 -44t63.5 -53.5l141 126l128 -128l-135 -116q262 -251 262 -938 q0 -69 -12 -137.5t-34.5 -133.5t-59 -121t-82 -98.5t-106 -66.5t-129.5 -24q-82 0 -152.5 32.5t-120 88.5t-84.5 131t-51.5 158.5t-16.5 172zM347 553q0 -27 3.5 -53t9.5 -49.5t15 -43.5t21 -35t27.5 -23t33.5 -8q35 0 60.5 31t37 78t11.5 103q0 41 -7 78t-20 67t-34 48 t-48 18q-35 0 -60.5 -31t-37.5 -78t-12 -102z" />
<glyph unicode="&#xf1;" horiz-adv-x="983" d="M78 0v1114h338v-159q81 177 257 177q56 0 98.5 -19t70.5 -52.5t46 -83.5t25 -107t7 -129v-741h-338v629q0 32 -3 54.5t-10.5 46.5t-25.5 36.5t-45 12.5q-82 0 -82 -150v-629h-338zM209 1446q28 48 70.5 79.5t97.5 31.5q22 0 40.5 -3.5t30.5 -8t25 -13.5t19 -14.5 t17 -16.5q13 -11 20.5 -16.5t20 -13t27.5 -11t32 -3.5q70 0 103 59l77 -104q-27 -47 -75 -80.5t-107 -33.5q-73 0 -121 47l-12 12t-12.5 12t-11.5 10t-13 9t-14 6.5t-17 5t-20 1.5q-64 0 -97 -60z" />
<glyph unicode="&#xf2;" horiz-adv-x="909" d="M32 552.5q0 88.5 16.5 172.5t51.5 158.5t84.5 130t120 88t152.5 32.5q69 0 129.5 -22.5t106 -63t81.5 -95.5t59 -120t35 -136t12 -144q0 -89 -16.5 -172.5t-51.5 -158.5t-84 -131t-119 -88.5t-152 -32.5t-152.5 32.5t-120 88.5t-84.5 131t-51.5 158.5t-16.5 172z M262 1505l109 79l163 -263l-109 -80zM347 553q0 -27 3.5 -53t9.5 -49.5t15 -43.5t21 -35t27.5 -23t33.5 -8q35 0 60.5 31t37 78t11.5 103q0 41 -7 78t-20 67t-34 48t-48 18q-35 0 -60.5 -31t-37.5 -78t-12 -102z" />
<glyph unicode="&#xf3;" horiz-adv-x="909" d="M32 552.5q0 88.5 16.5 172.5t51.5 158.5t84.5 130t120 88t152.5 32.5q69 0 129.5 -22.5t106 -63t81.5 -95.5t59 -120t35 -136t12 -144q0 -89 -16.5 -172.5t-51.5 -158.5t-84 -131t-119 -88.5t-152 -32.5t-152.5 32.5t-120 88.5t-84.5 131t-51.5 158.5t-16.5 172zM347 553 q0 -27 3.5 -53t9.5 -49.5t15 -43.5t21 -35t27.5 -23t33.5 -8q35 0 60.5 31t37 78t11.5 103q0 41 -7 78t-20 67t-34 48t-48 18q-35 0 -60.5 -31t-37.5 -78t-12 -102zM380 1321l163 263l110 -79l-165 -264z" />
<glyph unicode="&#xf4;" horiz-adv-x="909" d="M32 552.5q0 88.5 16.5 172.5t51.5 158.5t84.5 130t120 88t152.5 32.5q69 0 129.5 -22.5t106 -63t81.5 -95.5t59 -120t35 -136t12 -144q0 -89 -16.5 -172.5t-51.5 -158.5t-84 -131t-119 -88.5t-152 -32.5t-152.5 32.5t-120 88.5t-84.5 131t-51.5 158.5t-16.5 172z M223 1310l195 311h50l189 -311l-86 -85l-126 214l-131 -218zM347 553q0 -27 3.5 -53t9.5 -49.5t15 -43.5t21 -35t27.5 -23t33.5 -8q35 0 60.5 31t37 78t11.5 103q0 41 -7 78t-20 67t-34 48t-48 18q-35 0 -60.5 -31t-37.5 -78t-12 -102z" />
<glyph unicode="&#xf5;" horiz-adv-x="909" d="M32 552.5q0 88.5 16.5 172.5t51.5 158.5t84.5 130t120 88t152.5 32.5q69 0 129.5 -22.5t106 -63t81.5 -95.5t59 -120t35 -136t12 -144q0 -89 -16.5 -172.5t-51.5 -158.5t-84 -131t-119 -88.5t-152 -32.5t-152.5 32.5t-120 88.5t-84.5 131t-51.5 158.5t-16.5 172z M145 1446q28 48 71 79.5t98 31.5q35 0 62 -9.5t38.5 -18.5t30.5 -28q16 -15 27 -22.5t31 -14.5t43 -7q70 0 102 59l77 -104q-28 -47 -76 -80.5t-106 -33.5q-72 0 -120 47q-4 4 -14 13.5t-14.5 13.5t-14 11t-16.5 10t-18 5.5t-23 2.5q-65 0 -98 -60zM347 553q0 -27 3.5 -53 t9.5 -49.5t15 -43.5t21 -35t27.5 -23t33.5 -8q35 0 60.5 31t37 78t11.5 103q0 41 -7 78t-20 67t-34 48t-48 18q-35 0 -60.5 -31t-37.5 -78t-12 -102z" />
<glyph unicode="&#xf6;" horiz-adv-x="909" d="M32 552.5q0 88.5 16.5 172.5t51.5 158.5t84.5 130t120 88t152.5 32.5q69 0 129.5 -22.5t106 -63t81.5 -95.5t59 -120t35 -136t12 -144q0 -89 -16.5 -172.5t-51.5 -158.5t-84 -131t-119 -88.5t-152 -32.5t-152.5 32.5t-120 88.5t-84.5 131t-51.5 158.5t-16.5 172z M73 1438.5q0 62.5 17.5 116t55 89t88.5 35.5t88.5 -35.5t55 -89t17.5 -116t-17.5 -116t-55 -89t-88.5 -35.5t-88.5 35.5t-55 89t-17.5 116zM347 553q0 -27 3.5 -53t9.5 -49.5t15 -43.5t21 -35t27.5 -23t33.5 -8q35 0 60.5 31t37 78t11.5 103q0 41 -7 78t-20 67t-34 48 t-48 18q-35 0 -60.5 -31t-37.5 -78t-12 -102zM488 1438.5q0 62.5 17.5 116t55 89t89.5 35.5q50 0 87 -35.5t54.5 -89t17.5 -116t-17.5 -116t-54.5 -89t-87 -35.5q-52 0 -89.5 35.5t-55 89t-17.5 116z" />
<glyph unicode="&#xf7;" horiz-adv-x="633" d="M52 573v282h542v-282h-542zM152 221q0 61 18.5 113.5t58.5 87.5t94 35t93.5 -35t58 -87.5t18.5 -113.5t-18.5 -113.5t-58 -88t-93.5 -35.5t-94 35.5t-58.5 88t-18.5 113.5zM152 1193q0 61 18.5 113.5t58.5 88t94 35.5t93.5 -35.5t58 -88t18.5 -113.5t-18.5 -113.5 t-58 -87.5t-93.5 -35t-94 35t-58.5 87.5t-18.5 113.5z" />
<glyph unicode="&#xf8;" horiz-adv-x="909" d="M32 553q0 88 16.5 172t51.5 158.5t84.5 130t120 88t153 32.5t156.5 -34l22 64h99l-43 -114q91 -77 139.5 -211t48.5 -286q0 -89 -16.5 -172.5t-51.5 -158.5t-84 -131t-119 -88.5t-152 -32.5q-83 0 -162 37l-22 -59h-98l44 111q-91 79 -139 211t-48 283zM347 553 q0 -27 3.5 -53t9.5 -49.5t15 -43.5t21 -35t27.5 -23t33.5 -8q35 0 60.5 31t37 78t11.5 103q0 41 -7 78t-20 67t-34 48t-48 18q-35 0 -60.5 -31t-37.5 -78t-12 -102z" />
<glyph unicode="&#xf9;" horiz-adv-x="933" d="M65 436v678h330v-626q0 -128 76 -128q77 0 77 128v626h332v-678q0 -61 -10.5 -118t-31.5 -109t-55 -94.5t-78.5 -74t-104 -49t-129.5 -17.5q-84 0 -152 24.5t-115 67t-78.5 101.5t-46 126t-14.5 143zM248 1505l109 79l164 -263l-109 -80z" />
<glyph unicode="&#xfa;" horiz-adv-x="933" d="M65 436v678h330v-626q0 -128 76 -128q77 0 77 128v626h332v-678q0 -61 -10.5 -118t-31.5 -109t-55 -94.5t-78.5 -74t-104 -49t-129.5 -17.5q-84 0 -152 24.5t-115 67t-78.5 101.5t-46 126t-14.5 143zM405 1321l161 263l109 -79l-161 -264z" />
<glyph unicode="&#xfb;" horiz-adv-x="933" d="M65 436v678h330v-626q0 -128 76 -128q77 0 77 128v626h332v-678q0 -61 -10.5 -118t-31.5 -109t-55 -94.5t-78.5 -74t-104 -49t-129.5 -17.5q-84 0 -152 24.5t-115 67t-78.5 101.5t-46 126t-14.5 143zM250 1310l195 311h50l189 -311l-86 -85l-125 214l-132 -218z" />
<glyph unicode="&#xfc;" horiz-adv-x="933" d="M65 436v678h330v-626q0 -128 76 -128q77 0 77 128v626h332v-678q0 -61 -10.5 -118t-31.5 -109t-55 -94.5t-78.5 -74t-104 -49t-129.5 -17.5q-84 0 -152 24.5t-115 67t-78.5 101.5t-46 126t-14.5 143zM102 1438.5q0 62.5 18 116t55.5 89t88.5 35.5t88.5 -35.5t55 -89 t17.5 -116t-17.5 -116t-55 -89t-88.5 -35.5t-88.5 35.5t-55.5 89t-18 116zM518 1439q0 63 17 116t54.5 88.5t89.5 35.5q50 0 87.5 -35.5t55 -89t17.5 -116t-17.5 -116t-55 -89t-87.5 -35.5q-52 0 -89.5 35.5t-54.5 89t-17 116.5z" />
<glyph unicode="&#xfd;" horiz-adv-x="911" d="M18 1114h348l89 -422l102 422h343l-453 -1569h-334l178 614zM352 1321l162 263l109 -79l-161 -264z" />
<glyph unicode="&#xfe;" horiz-adv-x="995" d="M87 -462v2141h338v-699q17 33 33 56t40 46.5t57 35.5t74 12q79 0 143 -49.5t103.5 -132t60.5 -184.5t21 -213t-21 -213t-60.5 -184.5t-103.5 -132t-143 -49.5q-39 0 -71 9.5t-50.5 20t-37 32.5t-25.5 34t-20 36v-566h-338zM416 546q0 -81 29.5 -141t81.5 -60 q35 0 60.5 30t37 74.5t11.5 96.5q0 38 -7 73.5t-20 64t-34 45.5t-48 17q-52 0 -81.5 -59.5t-29.5 -140.5z" />
<glyph unicode="&#xff;" horiz-adv-x="911" d="M18 1114h348l89 -422l102 422h343l-453 -1569h-334l178 614zM95 1436.5q0 62.5 17.5 116t55 89t88.5 35.5q39 0 70.5 -20.5t51 -54.5t30 -77t10.5 -89q0 -62 -17.5 -116t-55.5 -89.5t-89 -35.5t-88.5 36t-55 89.5t-17.5 116zM512 1436q0 63 17 116.5t54.5 89t89.5 35.5 q50 0 87 -35.5t54.5 -89t17.5 -116.5q0 -46 -10.5 -88.5t-30 -77t-50.5 -55t-68 -20.5q-52 0 -89.5 36t-54.5 89t-17 116z" />
<glyph unicode="&#x131;" horiz-adv-x="495" d="M82 0v1114h339v-1114h-339z" />
<glyph unicode="&#x141;" horiz-adv-x="803" d="M4 382v297l69 71v873h341v-618l104 104v-298l-104 -104v-300h325v-407h-666v453z" />
<glyph unicode="&#x142;" horiz-adv-x="499" d="M4 382v297l80 82v922h339v-662l70 70v-297l-70 -71v-723h-339v464z" />
<glyph unicode="&#x152;" horiz-adv-x="1727" d="M43 809.5q0 126.5 22 246t67.5 226.5t110.5 186.5t157 126.5t201 47q244 0 397 -228v209h679v-404h-341v-210h321v-406h-321v-196h341v-407h-679v202q-153 -224 -397 -224q-109 0 -201 46.5t-157 126t-110.5 186t-67.5 226.5t-22 246.5zM418 809.5q0 -63.5 7 -124 t22 -114t36 -93.5t51.5 -63.5t66.5 -23.5q44 0 79.5 35.5t57.5 95.5t33.5 133.5t11.5 153.5t-11.5 153.5t-33.5 133.5t-57.5 96t-79.5 36q-36 0 -66.5 -23.5t-51.5 -64t-36 -94t-22 -113.5t-7 -123.5z" />
<glyph unicode="&#x153;" horiz-adv-x="1423" d="M32 552.5q0 88.5 16.5 172.5t51.5 158.5t84.5 130t120 88t152.5 32.5q150 0 257 -106q103 106 249 106q86 0 157 -32.5t119.5 -88.5t81.5 -132.5t48 -162.5t15 -180v-47h-506q0 -123 25 -177.5t75 -54.5q24 0 41.5 9.5t27 27t14.5 35t8 40.5l309 -57q-99 -351 -417 -351 q-149 0 -252 110q-107 -103 -252 -103q-82 0 -152.5 32.5t-120 88.5t-84.5 131t-51.5 158.5t-16.5 172zM347 553q0 -27 3.5 -53t9.5 -49.5t15 -43.5t21 -35t27.5 -23t33.5 -8q35 0 60.5 31t37 78t11.5 103q0 41 -7 78t-20 67t-34 48t-48 18q-35 0 -60.5 -31t-37.5 -78 t-12 -102zM882 705h187q0 32 -8.5 61.5t-31 52t-53.5 22.5q-33 0 -55 -23.5t-30.5 -52.5t-8.5 -60z" />
<glyph unicode="&#x160;" horiz-adv-x="929" d="M30 200l70 336q5 -4 14 -12q34 -28 52 -43t50.5 -39t56 -36t53 -21.5t56.5 -9.5q54 0 86.5 30.5t32.5 71.5q0 35 -27.5 65t-76.5 46q-184 61 -267.5 187.5t-83.5 328.5q0 108 26.5 203.5t76 168t125.5 114.5t169 42q134 0 235 -43t157 -105l-71 -350q-30 25 -50.5 38.5 t-57.5 34t-80.5 31t-93.5 10.5q-33 0 -60 -30.5t-27 -67.5q0 -35 29 -64t90 -45q72 -18 131 -56.5t100.5 -89t70 -113.5t41.5 -130.5t13 -139.5q0 -81 -17 -156.5t-53 -142.5t-86.5 -117.5t-122.5 -79.5t-157 -29q-59 0 -114 14t-94.5 34t-79.5 52t-63.5 55.5t-52.5 57.5z M245 2009l87 84l125 -213l131 218l91 -89l-193 -313h-50z" />
<glyph unicode="&#x161;" horiz-adv-x="765" d="M22 115l85 235q104 -68 203 -68q67 0 67 52q0 57 -99 87q-217 65 -217 336q0 46 9 90.5t26 86t44.5 76t62.5 60.5t81.5 41t99.5 15q87 0 150.5 -11.5t94.5 -25t71 -37.5l-66 -284q-118 50 -179 50q-31 0 -50 -6.5t-25.5 -16.5t-6.5 -25q0 -25 20.5 -39t72.5 -26 q89 -20 152.5 -75t93 -126.5t29.5 -151.5q0 -78 -25 -146t-73.5 -120.5t-125.5 -83t-174 -30.5q-55 0 -102.5 11.5t-87 33.5t-68.5 44.5t-63 53.5zM178 1498l86 84l124 -213l133 218l91 -89l-194 -314h-49z" />
<glyph unicode="&#x178;" horiz-adv-x="1026" d="M22 1623h347l140 -404l139 404h359l-330 -879v-744h-345v744zM248 1871.5q0 68.5 29 118t82.5 49.5t83.5 -49.5t30 -118t-30 -118.5t-83.5 -50t-82.5 50t-29 118.5zM553 1871q0 69 28.5 118.5t82.5 49.5q36 0 62 -24.5t37.5 -62t11.5 -81.5q0 -69 -29 -118.5t-82.5 -49.5 t-82 49.5t-28.5 118.5z" />
<glyph unicode="&#x17d;" horiz-adv-x="1124" d="M22 0l512 1195h-436v428h998l-491 -1193h466v-430h-1049zM360 2009l85 84l126 -213l132 218l91 -89l-193 -313h-50z" />
<glyph unicode="&#x17e;" horiz-adv-x="842" d="M63 0l256 716h-251v398h719l-251 -707h251v-407h-724zM211 1498l86 84l126 -213l132 218l91 -89l-193 -314h-51z" />
<glyph unicode="&#x192;" horiz-adv-x="987" d="M87 0v1252h813v-1252h-813z" />
<glyph unicode="&#x2c6;" horiz-adv-x="601" d="M98 1310l195 311h50l189 -311l-87 -85l-124 214l-132 -218z" />
<glyph unicode="&#x2c7;" horiz-adv-x="627" d="M98 1453l86 83l126 -213l131 219l91 -89l-193 -314h-50z" />
<glyph unicode="&#x2d8;" horiz-adv-x="533" d="M107 1336l43 42q51 -75 123 -75q74 0 139 75l39 -42q-21 -35 -49.5 -59.5t-59.5 -35.5t-64 -11t-63.5 11t-58.5 35.5t-49 59.5z" />
<glyph unicode="&#x2d9;" horiz-adv-x="545" d="M152 1419q0 82 38 142t107.5 60t107.5 -60t38 -142q0 -52 -15.5 -97t-49.5 -75t-81 -30q-35 0 -63.5 17t-46 46t-26.5 64.5t-9 74.5z" />
<glyph unicode="&#x2da;" horiz-adv-x="888" d="M115 1434.5q0 57.5 18 107.5t56.5 83.5t90.5 33.5q51 0 88 -33.5t53.5 -83.5t16.5 -108t-16.5 -107t-53.5 -82t-88 -33q-52 0 -90.5 33t-56.5 82.5t-18 107zM191 1432q0 -61 23.5 -105.5t65 -44.5t65.5 44.5t24 105.5q0 40 -10 74t-30.5 56t-48.5 22q-42 0 -65.5 -45 t-23.5 -107z" />
<glyph unicode="&#x2db;" horiz-adv-x="475" d="M137 -173q0 42 6 74.5t13 47.5t16.5 30.5t11.5 20.5h80q-1 -2 -3.5 -6t-8.5 -16.5t-10.5 -26t-8 -34t-3.5 -40.5q0 -100 59 -100q28 0 58 30v-98q-8 -20 -36 -36t-59 -16q-20 0 -40 10.5t-37 30t-27.5 53.5t-10.5 76z" />
<glyph unicode="&#x2dc;" horiz-adv-x="742" d="M95 1446q28 48 71 79.5t98 31.5q35 0 62 -9.5t38.5 -18.5t30.5 -28q13 -11 20.5 -16.5t20 -13t27 -11t32.5 -3.5q71 0 103 59l77 -104q-28 -47 -76 -80.5t-106 -33.5q-72 0 -120 47l-12 12t-12.5 12t-11.5 10t-13 9t-14 6.5t-17.5 5t-19.5 1.5q-65 0 -98 -60z" />
<glyph unicode="&#x2dd;" horiz-adv-x="608" d="M95 1343l114 286l123 -56l-113 -289zM316 1343l114 286l123 -56l-115 -289z" />
<glyph unicode="&#x3c0;" horiz-adv-x="640" d="M59 818v104h532v-104h-532zM89 128v169l161 444h221v-427h50v-186h-50v-132h-157v132h-225zM148 1241h138q0 -61 44 -61q11 0 18.5 4t12 13.5t6.5 22.5t2 32q0 43 -13 57t-50 14v152q26 0 39 5.5t18.5 17.5t5.5 36q0 34 -9 47t-33 13q-21 0 -28.5 -16t-7.5 -48h-139 q0 236 178 236q91 0 135 -50t44 -141q0 -131 -77 -163q41 -11 67 -56t26 -117q0 -107 -55 -172t-136 -65q-63 0 -105.5 30.5t-61.5 83t-19 125.5zM245 314h69v209z" />
<glyph unicode="&#x2000;" horiz-adv-x="1049" />
<glyph unicode="&#x2001;" horiz-adv-x="2098" />
<glyph unicode="&#x2002;" horiz-adv-x="1049" />
<glyph unicode="&#x2003;" horiz-adv-x="2098" />
<glyph unicode="&#x2004;" horiz-adv-x="699" />
<glyph unicode="&#x2005;" horiz-adv-x="524" />
<glyph unicode="&#x2006;" horiz-adv-x="349" />
<glyph unicode="&#x2007;" horiz-adv-x="349" />
<glyph unicode="&#x2008;" horiz-adv-x="262" />
<glyph unicode="&#x2009;" horiz-adv-x="419" />
<glyph unicode="&#x200a;" horiz-adv-x="116" />
<glyph unicode="&#x2010;" horiz-adv-x="881" d="M107 416v348h676v-348h-676z" />
<glyph unicode="&#x2011;" horiz-adv-x="881" d="M107 416v348h676v-348h-676z" />
<glyph unicode="&#x2012;" horiz-adv-x="881" d="M107 416v348h676v-348h-676z" />
<glyph unicode="&#x2013;" horiz-adv-x="1093" d="M107 416v348h871v-348h-871z" />
<glyph unicode="&#x2014;" horiz-adv-x="1425" d="M107 416v348h1225v-348h-1225z" />
<glyph unicode="&#x2018;" horiz-adv-x="331" d="M73 1328v336h186v-237h-64v-99q0 -35 8.5 -61.5t18 -38.5t28.5 -32q4 -5 6 -7l-74 -93q-22 21 -29.5 28.5t-27 32t-28 44.5t-16.5 54t-8 73z" />
<glyph unicode="&#x2019;" horiz-adv-x="354" d="M89 1427v237h186v-336q0 -28 -4 -53.5t-8.5 -43.5t-16.5 -38.5t-17 -29.5t-21.5 -26.5t-20 -21t-21.5 -19.5l-75 93l7 7q19 20 28 32t17.5 38.5t8.5 61.5v99h-63z" />
<glyph unicode="&#x201a;" horiz-adv-x="351" d="M87 145v237h186v-336q0 -46 -9 -82.5t-27 -64.5t-31 -42.5t-36 -36.5q-5 -5 -7 -6l-74 93l7 7q19 20 28 32t17.5 38.5t8.5 61.5v99h-63z" />
<glyph unicode="&#x201c;" horiz-adv-x="627" d="M87 1328v336h186v-237h-64v-99q0 -12 1 -23t2 -19.5t4 -17t5 -14t7 -13.5t7 -11.5t8.5 -10.5t8.5 -10t9.5 -10.5l9.5 -9.5l-76 -93q-22 21 -29.5 28.5t-27 32t-27.5 44.5t-16 54t-8 73zM364 1328v336h187v-237h-65v-99q0 -12 1 -23t2.5 -19.5t4.5 -17t5 -14t6.5 -13.5 t7 -11.5t8.5 -10.5t8.5 -10t9.5 -10.5t9 -9.5l-75 -93q-22 21 -30 28.5t-27.5 32t-27.5 44.5t-16 54t-8 73z" />
<glyph unicode="&#x201d;" horiz-adv-x="624" d="M87 1427v237h186v-336q0 -46 -9 -82.5t-27 -64.5t-31 -42.5t-36 -36.5q-5 -4 -7 -6l-74 93l7 7q14 15 21 24t16 25t13 36t4 47v99h-63zM364 1427v237h187v-336q0 -46 -9 -82.5t-27.5 -64.5t-31.5 -42.5t-36 -36.5q-1 -2 -2 -2.5t-2 -2t-2 -1.5l-75 93q3 2 7 7 q14 15 21.5 24t16.5 25t12.5 36t3.5 47v99h-63z" />
<glyph unicode="&#x201e;" horiz-adv-x="624" d="M87 145v237h186v-336q0 -46 -9 -82.5t-27 -64.5t-31 -42.5t-36 -36.5q-5 -5 -7 -6l-74 93l7 7q19 20 28 32t17.5 38.5t8.5 61.5v99h-63zM364 145v237h187v-336q0 -46 -9 -82.5t-27.5 -64.5t-31.5 -42.5t-36 -36.5q-4 -5 -6 -6l-75 93q3 2 7 7q19 20 28 32t17.5 38.5 t8.5 61.5v99h-63z" />
<glyph unicode="&#x2020;" horiz-adv-x="331" d="M43 1243v62h114v368h62v-368h113v-62h-113v-881h-62v881h-114z" />
<glyph unicode="&#x2021;" horiz-adv-x="331" d="M43 982v61h114v235h-114v63h114v332h62v-332h113v-63h-113v-235h113v-61h-113v-723h-62v723h-114z" />
<glyph unicode="&#x2022;" horiz-adv-x="735" d="M91 618q0 77 18.5 149t52.5 129.5t89 92t122 34.5t122 -34.5t89 -92t52.5 -129.5t18.5 -149q0 -61 -11.5 -119.5t-34.5 -110t-56 -90.5t-79.5 -61.5t-100.5 -22.5q-67 0 -122 34.5t-89 92t-52.5 129t-18.5 148.5z" />
<glyph unicode="&#x2026;" horiz-adv-x="2358" d="M221 221q0 45 11 86.5t31.5 75.5t53.5 54t74 20q54 0 94 -35t58.5 -87.5t18.5 -113.5t-18.5 -113.5t-58.5 -88t-94 -35.5t-94 35.5t-58 88t-18 113.5zM998 221q0 61 18.5 113.5t58.5 87.5t94 35t93.5 -35t58 -87.5t18.5 -113.5t-18.5 -113.5t-58 -88t-93.5 -35.5 t-94 35.5t-58.5 88t-18.5 113.5zM1775 221q0 61 18.5 113.5t58.5 87.5t94 35q24 0 45 -7t38 -19t31.5 -29.5t24.5 -38t17.5 -44t11 -48.5t3.5 -50q0 -61 -18.5 -113.5t-58.5 -88t-94 -35.5q-41 0 -74.5 20.5t-54 54t-31.5 75.5t-11 87z" />
<glyph unicode="&#x202f;" horiz-adv-x="419" />
<glyph unicode="&#x2030;" horiz-adv-x="1379" d="M54 1300q0 88 21.5 164t67 127t107.5 51q63 0 108.5 -51t66 -126.5t20.5 -164.5q0 -88 -20.5 -163t-66 -125.5t-108.5 -50.5q-62 0 -107.5 50.5t-67 125.5t-21.5 163zM95 0l632 1623h139l-634 -1623h-137zM191 1300q0 -46 6.5 -79.5t20 -52t32.5 -18.5q30 0 45 39.5 t15 110.5t-15 112t-45 41q-29 0 -44 -41.5t-15 -111.5zM495 327q0 89 21.5 165t67 126t108.5 50t108.5 -50.5t66 -126t20.5 -164.5q0 -87 -20.5 -162t-66 -125.5t-108.5 -50.5t-108.5 50t-67 125.5t-21.5 162.5zM632 327.5q0 -45.5 6.5 -79t20 -52t33.5 -18.5q58 0 58 149 q0 153 -58 153q-20 0 -33.5 -19.5t-20 -53.5t-6.5 -79.5zM948 327q0 89 21 165t66.5 126t107.5 50q63 0 109 -50.5t66.5 -126t20.5 -164.5q0 -87 -20.5 -162t-66.5 -125.5t-109 -50.5q-62 0 -107.5 50t-66.5 125.5t-21 162.5zM1084 327q0 -69 15.5 -109t43.5 -40 q59 0 59 149q0 153 -59 153q-28 0 -43.5 -41.5t-15.5 -111.5z" />
<glyph unicode="&#x2039;" horiz-adv-x="519" d="M22 603v186l340 411l139 -137l-290 -367l290 -349l-139 -154z" />
<glyph unicode="&#x203a;" horiz-adv-x="519" d="M13 347l291 349l-291 367l139 137l339 -411v-186l-339 -410z" />
<glyph unicode="&#x2044;" horiz-adv-x="820" d="M18 -104l664 1798h136l-664 -1798h-136z" />
<glyph unicode="&#x205f;" horiz-adv-x="524" />
<glyph unicode="&#x2122;" horiz-adv-x="618" d="M52 1582v57h219v-57h-89v-378h-39v378h-91zM262 1207l63 439l91 -321l91 321l61 -439h-39l-31 273l-82 -298l-82 304l-34 -279h-38z" />
<glyph unicode="&#x2202;" horiz-adv-x="640" d="M59 818v104h532v-104h-532zM132 214h139q0 -62 43 -62q22 0 30 17t8 56q0 44 -12.5 57t-48.5 13v152q25 0 38 6t18 18.5t5 36t-3.5 35.5t-12 17.5t-24.5 5.5q-21 0 -29 -15.5t-8 -47.5h-138q0 236 177 236q91 0 135 -49.5t44 -141.5q0 -132 -77 -164q41 -10 67 -55.5 t26 -117.5q0 -106 -55 -171.5t-135 -65.5q-95 0 -141 64t-46 176zM216 1577v187h205v-745h-155v558h-50z" />
<glyph unicode="&#x220f;" horiz-adv-x="627" d="M59 818v104h532v-104h-532zM130 1019v122l72 84q17 22 39 53t53 80t51.5 102t20.5 93q0 31 -9 46t-32 15q-24 0 -33.5 -30.5t-9.5 -69.5h-137q0 54 9.5 97.5t30.5 80t59.5 56.5t91.5 20q105 0 149 -56.5t44 -160.5q0 -46 -10.5 -90.5t-24.5 -77t-38.5 -70t-40.5 -57.5 t-42 -52h156v-185h-399zM137 216h138q0 -62 44 -62q21 0 29.5 17.5t8.5 56.5q0 43 -12.5 56t-49.5 13v154q37 0 49.5 12t12.5 46q0 35 -8.5 47t-32.5 12q-21 0 -28.5 -15.5t-7.5 -47.5h-139q0 236 178 236q91 0 135 -49.5t44 -140.5q0 -132 -77 -165q41 -10 67 -55t26 -117 q0 -70 -26 -125t-69.5 -83t-95.5 -28q-94 0 -140 63.5t-46 174.5z" />
<glyph unicode="&#x2211;" horiz-adv-x="640" d="M59 818v104h532v-104h-532zM95 132v170l161 444h221v-427h50v-187h-50v-132h-156v132h-226zM216 1573v186h205v-746h-155v560h-50zM252 319h69v208z" />
<glyph unicode="&#x2212;" horiz-adv-x="1033" d="M128 555v122h781v-122h-781z" />
<glyph unicode="&#x221a;" horiz-adv-x="952" d="M50 375l111 237q34 -105 51.5 -192.5t30.5 -217.5q27 113 143.5 349.5t260.5 468t235 314.5v-358q-194 -148 -369 -416.5t-279 -570.5q-56 165 -97 256t-87 130z" />
<glyph unicode="&#x222b;" horiz-adv-x="1167" d="M80 2v1564h1018v-1564h-1018zM166 104h836v1360h-836v-1360z" />
<glyph unicode="&#x2248;" horiz-adv-x="1763" d="M93 286q0 70 26 130.5t70 102.5t104 66t125 24h228v280h-228q-141 0 -233 91.5t-92 231.5q0 64 25 122.5t67 101.5t101.5 68.5t125.5 25.5q105 0 179.5 -44t110 -116t35.5 -163v-227h276v227q0 91 37 163t111.5 116t177.5 44q135 0 226.5 -90.5t91.5 -227.5 q0 -90 -43.5 -164.5t-118 -116.5t-163.5 -42h-228v-280h228q89 0 163.5 -40.5t118 -115t43.5 -167.5q0 -135 -91 -225.5t-227 -90.5q-103 0 -177.5 43t-111.5 115t-37 163v227h-276v-227q0 -92 -35.5 -163.5t-110 -114.5t-179.5 -43q-137 0 -228 89.5t-91 226.5zM182 291 q0 -109 66 -171.5t170 -62.5q109 0 168.5 67t59.5 169v225h-225q-110 0 -174.5 -62.5t-64.5 -164.5zM182 1207q0 -102 64.5 -164.5t174.5 -62.5h225v224q0 103 -59.5 170t-168.5 67q-104 0 -170 -63t-66 -171zM737 609h276v280h-276v-280zM1104 293q0 -102 60 -169t168 -67 q105 0 170.5 62.5t65.5 171.5q0 102 -64.5 164.5t-173.5 62.5h-226v-225zM1104 980h226q109 0 173.5 62.5t64.5 164.5q0 72 -30.5 125.5t-83.5 81t-122 27.5q-108 0 -168 -67t-60 -170v-224z" />
<glyph unicode="&#x2260;" horiz-adv-x="685" d="M107 347v210h164l39 187h-203v206h240l33 164h118l-32 -164h118v-206h-159l-37 -187h196v-210h-237l-26 -138h-119l28 138h-123z" />
<glyph unicode="&#x2264;" horiz-adv-x="558" d="M98 148v290h386v-290h-386zM98 859v348l397 370v-347l-217 -198l206 -197v-349z" />
<glyph unicode="&#x2265;" horiz-adv-x="558" d="M84 1219v347l398 -371v-349l-387 -371v348l209 198zM95 137v290h387v-290h-387z" />
<glyph unicode="&#x25ca;" horiz-adv-x="796" d="M65 634l335 518l331 -508l-336 -519zM189 629l206 -310l212 325l-207 317z" />
<glyph unicode="&#x25fc;" horiz-adv-x="1113" d="M0 0v1114h1114v-1114h-1114z" />
<glyph unicode="&#xe000;" horiz-adv-x="0" />
<glyph unicode="&#xe001;" horiz-adv-x="0" />
<glyph unicode="&#xe002;" horiz-adv-x="0" />
<glyph unicode="&#xe003;" horiz-adv-x="1807" d="M191 761q0 128 52.5 228.5t151.5 157.5t230 57q130 0 207 -54q54 -37 79 -49t57 -12q76 0 151 61q70 57 191 57q65 0 132 -20t117 -56t59 -79q-43 -33 -71 -59t-56 -63.5t-41.5 -83.5t-13.5 -102q0 -64 19.5 -119.5t52.5 -95.5t74 -67.5t86 -40.5q-13 -33 -27.5 -64 t-35.5 -71t-45 -75t-52 -72t-60.5 -66.5t-68 -53t-77 -36.5t-83.5 -13q-105 0 -167 76q-28 36 -89 36q-62 0 -91 -36q-57 -72 -149 -72q-29 0 -67.5 16.5t-81 46t-88 73.5t-88 96.5t-80 117.5t-66 133.5t-45 147t-16.5 156.5zM935 1217q0 33 12 70t32.5 70t48 63.5 t58.5 52.5t64.5 35t63.5 13q13 0 18 -5t5 -15q0 -44 -23 -99.5t-59.5 -105.5t-88.5 -84t-105 -34q-26 0 -26 39z" />
<glyph unicode="&#xe004;" horiz-adv-x="694" />
</font>
</defs>
</svg>
