<?xml version="1.0" standalone="no"?>
<!DOCTYPE svg PUBLIC "-//W3C//DTD SVG 1.1//EN" "http://www.w3.org/Graphics/SVG/1.1/DTD/svg11.dtd" >
<svg xmlns="http://www.w3.org/2000/svg" xmlns:xlink="http://www.w3.org/1999/xlink" version="1.1">
<metadata></metadata>
<defs>
<font id="sansserifbldflf-italicitalic" horiz-adv-x="969" >
<font-face units-per-em="2048" ascent="1638" descent="-410" />
<missing-glyph horiz-adv-x="844" />
<glyph unicode="fi" horiz-adv-x="1532" d="M212 0l137 777h-137l61 346h136l49 270q10 55 33 105.5t60.5 97t91.5 85t121.5 66.5t155 43.5t187.5 15.5q139 0 240.5 -30.5t161.5 -87t88.5 -131t28.5 -168.5q0 -48 -8 -100h-421q5 33 5 49q0 132 -139 132q-174 0 -200 -163l-30 -184h244l-63 -346h-244l-137 -777 h-421zM970 0l200 1123h421l-200 -1123h-421z" />
<glyph unicode="fl" horiz-adv-x="1532" d="M212 0l137 777h-137l61 346h136l35 222q11 73 39.5 139t80.5 125.5t123.5 102.5t174 68.5t224.5 25.5q121 0 216.5 -28.5t154.5 -73.5t97.5 -106.5t53.5 -121.5t15 -123q0 -45 -7 -81l-225 -1272h-421l230 1294q4 33 4 48q0 56 -32.5 92t-108.5 36q-50 0 -87 -13 t-59.5 -35.5t-34.5 -47.5t-17 -55l-32 -196h244l-63 -346h-244l-137 -777h-421z" />
<glyph unicode=" "  horiz-adv-x="844" />
<glyph unicode="&#x09;" horiz-adv-x="844" />
<glyph unicode="&#xa0;" horiz-adv-x="844" />
<glyph unicode="!" horiz-adv-x="744" d="M193 186q0 46 17 90.5t48.5 81t81.5 59t111 22.5q102 0 157 -58.5t55 -143.5q0 -47 -17 -91.5t-48.5 -81t-82 -59t-110.5 -22.5q-103 0 -157.5 59t-54.5 144zM268 541l212 1199h422l-209 -1199h-425z" />
<glyph unicode="&#x22;" horiz-adv-x="833" d="M424 1355l53 468h186l-110 -468h-129zM782 1355l53 468h186l-112 -468h-127z" />
<glyph unicode="#" horiz-adv-x="1875" d="M214 653l114 268h305l118 279h-302l111 263h303l124 290h271l-125 -290h320l124 290h270l-124 -290h298l-112 -263h-298l-118 -279h298l-114 -268h-298l-124 -292h-271l125 292h-319l-125 -292h-270l124 292h-305zM904 921h319l117 279h-319z" />
<glyph unicode="$" horiz-adv-x="1466" d="M163 242l234 279q66 -65 173 -112.5t223 -47.5q140 0 216.5 48.5t76.5 139.5q0 76 -45 127t-151 73q-73 14 -133.5 33.5t-115 48t-95 66.5t-70 87t-45 112t-15.5 139q0 74 26.5 147.5t79.5 140t125 118t171 82t210 30.5l20 124h173l-24 -124q105 -7 219 -44.5t193 -92.5 l-191 -312q-167 105 -353 105q-56 0 -99.5 -11t-72 -31.5t-43.5 -49t-15 -64.5q0 -65 41.5 -97.5t135.5 -51.5q258 -49 383.5 -187t125.5 -352q0 -177 -77.5 -306t-219.5 -196.5t-334 -67.5l-34 -193h-174l37 193q-163 9 -307 73.5t-249 173.5z" />
<glyph unicode="%" horiz-adv-x="1702" d="M188 0l1374 1740h224l-1377 -1740h-221zM293 1411q0 49 12.5 97t37 92t62 82t84.5 66.5t108.5 44.5t130.5 16q90 0 161.5 -27.5t115 -74t65.5 -104t22 -121.5q0 -59 -17.5 -116t-53.5 -108t-86.5 -89.5t-121.5 -61.5t-153 -23q-90 0 -162 27.5t-116 73.5t-66.5 104 t-22.5 122zM546 1435q0 -56 37 -96t105 -40q72 0 114 48.5t42 110.5q0 57 -36 96t-104 39q-72 0 -115 -47.5t-43 -110.5zM904 302q0 58 18 114.5t54.5 107t88 89.5t123 61.5t154.5 22.5q90 0 161 -27t114 -73t65 -104t22 -123q0 -58 -17.5 -114t-54 -106.5t-86.5 -89.5 t-120.5 -61.5t-151.5 -22.5q-91 0 -163.5 27t-116.5 73t-67 103.5t-23 122.5zM1158 326q0 -37 15.5 -67.5t48.5 -49.5t77 -19q72 0 114 48t42 108q0 59 -35 98t-101 39q-74 0 -117.5 -47t-43.5 -110z" />
<glyph unicode="&#x26;" horiz-adv-x="1651" d="M161 372q0 88 21.5 154.5t81 138t152 143.5t247.5 174l-54 107q-1 3 -11.5 24t-16.5 36t-14 42t-12 61.5t-4 75.5q0 79 35 156.5t97.5 139.5t157.5 100t205 38q87 0 158.5 -19.5t121 -53t83.5 -79.5t49.5 -97t15.5 -106q0 -35 -6.5 -68t-15.5 -60t-28.5 -56t-35 -50 t-45.5 -48.5t-50 -44.5t-58 -44.5t-59.5 -42.5t-65.5 -45q-22 -15 -33 -22l153 -310l293 186l130 -274l-288 -175l180 -353h-382l-84 165q-33 -18 -84.5 -48t-76.5 -44t-68.5 -33.5t-79.5 -28t-89.5 -15t-117.5 -6.5q-177 0 -289.5 107t-112.5 275zM524 444q0 -57 39 -97 t105 -40q18 0 36.5 3t40 11.5t35 14t40.5 22.5t37 23t43 28t41 28l-157 304q-131 -74 -195.5 -145t-64.5 -152zM870 1360q0 -21 4.5 -37t20.5 -46l53 -100q112 77 147 116.5t35 92.5q0 48 -33 72t-83 24q-60 0 -102 -35t-42 -87z" />
<glyph unicode="'" horiz-adv-x="484" d="M424 1355l53 468h186l-110 -468h-129z" />
<glyph unicode="(" horiz-adv-x="784" d="M154 590q0 171 46.5 343t138.5 338t241 321.5t341 279.5l144 -166q-190 -125 -332 -308t-215.5 -390t-73.5 -413q0 -197 70.5 -370.5t216.5 -303.5l-203 -155q-181 143 -277.5 359t-96.5 465z" />
<glyph unicode=")" horiz-adv-x="808" d="M21 -68q144 95 261 224t196.5 273.5t122.5 302.5t43 312q0 196 -71.5 369t-216.5 303l202 156q181 -143 278 -359t97 -465q0 -171 -47 -343t-139 -338.5t-240.5 -321.5t-341.5 -279z" />
<glyph unicode="*" horiz-adv-x="833" d="M342 1353q0 46 63 75q82 45 239 79q-54 12 -86.5 21t-68.5 22.5t-61 28.5q-7 5 -13 9.5t-11.5 10t-9.5 10.5t-7.5 10.5t-5 12t-1.5 13.5q0 24 16 45t48 21q24 0 53 -15.5t56.5 -42t47.5 -48t41 -47l21 -25.5q-3 19 -7.5 51.5t-7 51.5t-5 42t-2.5 38q0 142 78 142 q53 0 53 -69q0 -70 -79 -256q12 10 32.5 28t38 33.5t39.5 34t42 32.5t40 26.5t38 19.5t33 7q53 0 53 -59q0 -24 -15.5 -41t-65.5 -40q-22 -11 -64.5 -25t-84 -25t-72.5 -17q143 -33 216 -77q14 -7 24.5 -17t16.5 -22t6 -24q0 -26 -14.5 -45.5t-48.5 -19.5q-21 0 -45.5 12 t-45.5 29t-44 40t-37.5 40.5t-29.5 35.5t-17 20q1 -12 6 -41t7.5 -49t5 -46t2.5 -46q0 -142 -78 -142q-54 0 -54 68q0 14 2.5 29.5t5 28.5t8.5 32.5t10.5 31.5t13 34t13 32.5t14.5 34.5t14 33q-3 -3 -40 -36.5t-71 -62.5t-78.5 -55t-73.5 -26q-26 0 -39.5 14t-13.5 40z" />
<glyph unicode="+" horiz-adv-x="1305" d="M268 595l46 249h374l63 372h249l-65 -372h374l-44 -249h-373l-64 -374h-248l64 374h-376z" />
<glyph unicode="," horiz-adv-x="560" d="M-51 -363l293 631h321l-433 -631h-181z" />
<glyph unicode="-" horiz-adv-x="981" d="M281 595l45 249h634l-44 -249h-635z" />
<glyph unicode="." horiz-adv-x="621" d="M126 188q0 32 10 64t30 61.5t47.5 52.5t65.5 36.5t82 13.5q105 0 158 -55t53 -137q0 -35 -8.5 -69t-27.5 -64.5t-46 -54t-66.5 -37t-86.5 -13.5q-104 0 -157.5 57t-53.5 145z" />
<glyph unicode="/" horiz-adv-x="796" d="M12 -112l900 1928h174l-898 -1928h-176z" />
<glyph unicode="0" horiz-adv-x="1714" d="M226 770q0 102 18.5 204t56 199.5t91 185t127.5 161t161 127t195 83.5t227 30q143 0 262.5 -43t202.5 -118t141 -176.5t85.5 -216.5t27.5 -241q0 -102 -18.5 -204t-56 -199.5t-91 -185t-127 -160.5t-160.5 -126.5t-195 -83.5t-227 -30q-143 0 -262.5 43t-203 118 t-141.5 176t-85.5 216t-27.5 241zM646 779q0 -93 20 -175.5t58.5 -148t102 -103.5t143.5 -38q67 0 127.5 26.5t107 73t84.5 108.5t62.5 133.5t37.5 148.5t13 154q0 93 -20 175.5t-59 148t-102.5 103.5t-143.5 38t-150 -37.5t-120.5 -101t-87.5 -146.5t-55 -174.5t-18 -184.5 z" />
<glyph unicode="1" horiz-adv-x="932" d="M370 0l251 1418h-235l55 322h659l-305 -1740h-425z" />
<glyph unicode="2" horiz-adv-x="1372" d="M107 0l828 997q51 61 74.5 118.5t23.5 130.5q0 62 -36 102.5t-113 40.5q-54 0 -99 -39t-70 -94t-36 -118h-411q8 59 23.5 117t43 119.5t63.5 115.5t87.5 102t112.5 82.5t142.5 54.5t173.5 20q145 0 256.5 -35t179.5 -97.5t102 -145.5t34 -182q0 -63 -14 -124.5 t-35.5 -111.5t-57.5 -106.5t-67.5 -98t-78.5 -97.5l-331 -402h451l-62 -349h-1184z" />
<glyph unicode="3" horiz-adv-x="1500" d="M188 507h392q9 -70 77 -120t182 -50q129 0 206.5 72t77.5 203q0 119 -64.5 170t-195.5 51l34 198q48 0 85.5 4t73.5 13t62 24.5t46 38.5t30 57t10 78q0 56 -27.5 97.5t-78 63t-119.5 21.5q-67 0 -117 -17t-78.5 -47.5t-43.5 -62.5t-21 -71h-393q6 79 32 152.5t79 143.5 t127.5 121.5t187 83t248.5 31.5q189 0 330.5 -58.5t219.5 -169.5t78 -262q0 -133 -55 -217t-169 -134q138 -83 138 -353q0 -98 -28 -185t-86 -160t-141.5 -125.5t-200 -82t-255.5 -29.5q-122 0 -224.5 30t-174 80.5t-124.5 118.5t-81.5 141t-38.5 151z" />
<glyph unicode="4" horiz-adv-x="1690" d="M193 307l60 351l1036 1082h397l-195 -1112h225l-56 -321h-225l-56 -307h-421l56 307h-821zM628 628h442l100 567z" />
<glyph unicode="5" horiz-adv-x="1417" d="M95 86l131 333q44 -22 61 -29.5t60 -24t75.5 -23t85 -12.5t111.5 -6q123 0 223.5 42t160.5 122.5t60 183.5q0 78 -30 138t-84.5 97t-126 56t-157.5 19q-68 0 -126 -10.5t-86 -20.5t-76 -30l260 819h874l-73 -322h-536l-61 -197q53 9 115 9q74 0 144.5 -18.5t135.5 -62 t113 -106.5t77 -158.5t29 -212.5q0 -212 -102.5 -369.5t-293 -242t-445.5 -84.5q-100 0 -178.5 8t-141.5 25.5t-103 33.5t-96 43z" />
<glyph unicode="6" horiz-adv-x="1654" d="M212 526q0 121 46.5 247.5t141.5 247.5l558 716h449l-463 -609q66 23 128 23q127 0 234.5 -37.5t186 -107t123 -174t44.5 -232.5q0 -126 -39 -230t-109 -179.5t-167.5 -127.5t-215.5 -77t-252 -25q-154 0 -281 44t-210.5 120.5t-128.5 179.5t-45 221zM631 524 q0 -54 16.5 -101t50 -85t88.5 -60t125.5 -22t129.5 28t96.5 74.5t58 103.5t20.5 118q0 52 -16.5 99.5t-48 85.5t-84 60.5t-119.5 22.5q-73 0 -135 -28.5t-101 -75t-60 -104t-21 -116.5z" />
<glyph unicode="7" horiz-adv-x="1466" d="M-5 -2l1021 1420h-690l54 322h1346l-1254 -1742h-477z" />
<glyph unicode="8" horiz-adv-x="1412" d="M168 453q0 80 23.5 154t69 138.5t121 112.5t171.5 70q-37 30 -66 61t-56.5 74t-43 99t-15.5 120q0 67 20 133.5t66.5 130.5t114 112.5t171.5 78.5t231 30q129 0 232 -34t167.5 -93t98.5 -134.5t34 -160.5q0 -76 -19 -140.5t-49 -109t-71.5 -79.5t-82.5 -55t-85 -33 q3 -3 11 -9q21 -16 34 -26t37.5 -33.5t40.5 -44t36.5 -53.5t32.5 -67t20.5 -79t8.5 -95q0 -107 -37 -199.5t-101 -158.5t-148.5 -113.5t-181 -70.5t-197.5 -23q-108 0 -203 27.5t-164.5 75.5t-120 111t-75.5 135.5t-25 147.5zM600 505q0 -51 18.5 -92t62.5 -67.5t107 -26.5 q65 0 117 38t78 94.5t26 116.5q0 77 -47 130t-139 53q-67 0 -119.5 -38t-78 -93t-25.5 -115zM802 1277q0 -55 31 -93t90 -38q71 0 112.5 51t41.5 117q0 55 -31 93t-90 38q-71 0 -112.5 -51t-41.5 -117z" />
<glyph unicode="9" horiz-adv-x="1702" d="M337 1126q0 144 59 265t161.5 202t242 126.5t300.5 45.5q159 0 288 -42t213.5 -117.5t130 -179t45.5 -226.5q0 -80 -20 -161t-62.5 -167.5t-105.5 -167.5l-551 -704h-448l456 597q-66 -22 -130 -22q-126 0 -232.5 37.5t-183.5 107t-120 173.5t-43 233zM772 1160 q0 -58 16.5 -108t48.5 -89.5t84 -62.5t119 -23q74 0 135.5 28.5t100.5 74t60.5 100.5t21.5 111q0 57 -17 106.5t-50 88.5t-88 61.5t-126 22.5q-70 0 -129.5 -28t-96.5 -73t-58 -99.5t-21 -109.5z" />
<glyph unicode=":" horiz-adv-x="621" d="M126 178q0 44 16.5 86t46.5 76.5t78 55t105 20.5q97 0 148.5 -55t51.5 -135q0 -44 -16 -86.5t-46 -77t-78 -55.5t-106 -21q-97 0 -148.5 55.5t-51.5 136.5zM251 863q0 43 16.5 85t46.5 77t77.5 56t105.5 21q97 0 148.5 -55.5t51.5 -134.5q0 -45 -16 -87.5t-46 -77.5 t-78 -56t-106 -21q-97 0 -148.5 56t-51.5 137z" />
<glyph unicode=";" horiz-adv-x="596" d="M-51 -363l293 631h321l-433 -631h-181zM251 863q0 43 16.5 85t46.5 77t77.5 56t105.5 21q97 0 148.5 -55.5t51.5 -134.5q0 -45 -16 -87.5t-46 -77.5t-78 -56t-106 -21q-97 0 -148.5 56t-51.5 137z" />
<glyph unicode="&#x3c;" horiz-adv-x="856" d="M234 721l761 586l-64 -361l-303 -225l205 -224l-63 -360z" />
<glyph unicode="=" horiz-adv-x="1056" d="M226 321l42 249h746l-42 -249h-746zM302 768l47 248h746l-44 -248h-749z" />
<glyph unicode="&#x3e;" horiz-adv-x="856" d="M181 137l63 360l282 224l-219 225l63 361l553 -586z" />
<glyph unicode="?" horiz-adv-x="1342" d="M277 1221q12 83 38.5 156.5t77 144t120.5 120.5t174.5 80.5t233.5 30.5q81 0 153 -13.5t130.5 -38.5t107 -60.5t84 -80.5t60 -98.5t36.5 -113t12 -125.5q0 -117 -31.5 -209.5t-97.5 -163t-172.5 -113t-251.5 -53.5l-30 -170h-380l83 444h136q59 0 105.5 15t82.5 45.5 t55.5 82t19.5 120.5q0 76 -35 123t-109 47q-150 0 -177 -170h-425zM441 186q0 46 17.5 90.5t49 81t81.5 59t111 22.5q102 0 157 -58.5t55 -143.5q0 -47 -17.5 -91.5t-49 -81t-81.5 -59t-111 -22.5q-102 0 -157 59t-55 144z" />
<glyph unicode="@" horiz-adv-x="1644" d="M239 872q0 102 26 204t74 197t122 177.5t165 143.5t209.5 96.5t248.5 35.5q120 0 224.5 -24.5t193 -77t151.5 -129.5t98 -187t35 -245q0 -57 -9.5 -113t-29.5 -111.5t-53 -103t-76.5 -84.5t-105 -58t-133.5 -21q-81 0 -127 37t-52 86q-123 -123 -300 -123 q-153 0 -239 89.5t-86 228.5q0 63 18 126t55.5 119.5t89 100t123 69t153.5 25.5q71 0 127.5 -19.5t88.5 -48.5t47 -65l44 117h153l-170 -468q0 -35 5 -59t17.5 -43t36 -28t58.5 -9q52 0 94.5 22t69.5 58t45.5 83.5t26.5 95.5t8 97q0 117 -28.5 210t-80 156.5t-125.5 106 t-161.5 61.5t-192.5 19q-131 0 -246.5 -42t-200 -114.5t-146.5 -167t-92.5 -201.5t-30.5 -216q0 -71 15.5 -137t46.5 -125.5t80 -108.5t112.5 -85t147.5 -55.5t181 -19.5q96 0 195 31t158 78l63 -88q-57 -51 -181.5 -95t-250.5 -44q-132 0 -244.5 34.5t-193 95t-138 142 t-85.5 176.5t-28 198zM724 909q0 -52 19.5 -94t62.5 -69t103 -27q62 0 113.5 23.5t83.5 62.5t49 86.5t17 97.5q0 53 -19.5 96t-62 71t-101.5 28q-61 0 -112.5 -24.5t-84.5 -64.5t-50.5 -88t-17.5 -98z" />
<glyph unicode="A" horiz-adv-x="1605" d="M49 0l841 1740h484l232 -1740h-422l-33 251h-554l-125 -251h-423zM779 639h325l-64 533z" />
<glyph unicode="B" horiz-adv-x="1466" d="M149 0l307 1740h509q76 0 148.5 -16t138.5 -50.5t115 -84t78 -122t29 -158.5q0 -305 -263 -386q35 -7 70.5 -24t71.5 -47.5t63.5 -70.5t45 -97.5t17.5 -123.5q0 -178 -77.5 -305t-218 -191t-332.5 -64h-702zM628 324h165q120 0 191.5 56t71.5 169q0 90 -53.5 143.5 t-146.5 53.5h-152zM760 1070h91q99 0 152 46.5t53 150.5q0 67 -37.5 109t-106.5 42h-89z" />
<glyph unicode="C" horiz-adv-x="1621" d="M200 782q0 102 21.5 203t66 197.5t108 182.5t151.5 158.5t192.5 125t234.5 82t274 29.5q172 0 286 -26t199 -74l-80 -453q-79 54 -179 83t-255 29q-98 0 -181.5 -28.5t-143 -76.5t-102 -111t-63 -133t-20.5 -142q0 -53 11.5 -103t34.5 -95.5t59 -83.5t83 -66t109 -43.5 t134 -15.5q125 0 213.5 30t179.5 83l-80 -466q-36 -22 -66.5 -36.5t-77 -30t-107 -23.5t-135.5 -8q-123 0 -232.5 23t-196.5 65t-159 100.5t-123 129t-86.5 151.5t-52.5 167t-17 176z" />
<glyph unicode="D" horiz-adv-x="1676" d="M149 0l307 1740h485q164 0 301 -45t232 -122.5t161 -182t96.5 -222t30.5 -245.5q0 -97 -18.5 -192.5t-57 -187t-94 -172.5t-133.5 -149.5t-171 -117.5t-210 -76.5t-247 -27.5h-682zM637 370h167q94 0 177 31.5t144.5 86t106 126.5t67 154t22.5 167q0 70 -16 132.5 t-51.5 117.5t-87 95.5t-126 63.5t-165.5 23h-61z" />
<glyph unicode="E" horiz-adv-x="1205" d="M151 0l307 1740h933l-63 -373h-512l-56 -309h482l-65 -374h-482l-56 -312h512l-65 -372h-935z" />
<glyph unicode="F" horiz-adv-x="1193" d="M151 0l307 1740h933l-63 -373h-512l-56 -309h486l-67 -374h-484l-120 -684h-424z" />
<glyph unicode="G" horiz-adv-x="1961" d="M183 814q0 117 28 231t81.5 220t137.5 196t189 156.5t243 104.5t293 38q271 0 464 -107.5t299 -292.5l-385 -216q-54 98 -157 158.5t-246 60.5q-54 0 -105 -9.5t-94 -27t-81 -42.5t-69.5 -56t-57 -67t-44.5 -76t-32 -83t-19.5 -88t-6.5 -91q0 -91 29 -171t85 -143 t146.5 -100t204.5 -37q159 0 276 73t171 196h-400l58 324h842v-46q0 -101 -20 -199.5t-61 -191.5t-100 -175t-141 -150.5t-179 -117.5t-219 -76.5t-257 -27.5q-173 0 -317.5 45.5t-245.5 124t-172 185t-104.5 227.5t-33.5 251z" />
<glyph unicode="H" horiz-adv-x="1690" d="M149 0l307 1740h421l-119 -682h558l119 682h423l-305 -1740h-425l120 682h-555l-121 -682h-423z" />
<glyph unicode="I" horiz-adv-x="756" d="M165 0l307 1740h423l-305 -1740h-425z" />
<glyph unicode="J" horiz-adv-x="1328" d="M144 214l309 269q26 -48 71.5 -79.5t101.5 -31.5q85 0 144 51t78 157l205 1160h421l-211 -1203q-97 -556 -675 -556q-85 0 -156.5 19t-124.5 54.5t-90.5 73t-72.5 86.5z" />
<glyph unicode="K" horiz-adv-x="1702" d="M149 0l307 1740h421l-109 -629l625 629h467l-797 -799l516 -941h-465l-410 749l-132 -749h-423z" />
<glyph unicode="L" horiz-adv-x="1130" d="M149 0l307 1740h421l-240 -1368h465l-64 -372h-889z" />
<glyph unicode="M" horiz-adv-x="2100" d="M46 0l582 1740h451l121 -905l442 905h442l-3 -1740h-402v960l-484 -960h-249l-156 972l-320 -972h-424z" />
<glyph unicode="N" horiz-adv-x="1988" d="M175 0l308 1740h394l676 -1061l184 1061h430l-307 -1740h-422l-650 1021l-179 -1021h-434z" />
<glyph unicode="O" horiz-adv-x="1988" d="M221 814q0 100 20.5 198.5t61.5 191.5t100 176.5t140.5 153t178.5 120t218 78.5t255 28q144 0 270 -32.5t221 -91t169.5 -137.5t121 -173t71 -197t24.5 -210q0 -118 -28 -232t-81.5 -219t-137.5 -193.5t-189.5 -154t-244.5 -102.5t-296 -37q-172 0 -317 45.5t-246.5 124 t-172.5 185t-104.5 227.5t-33.5 251zM660 823q0 -91 29.5 -171t85.5 -143t146.5 -100t204.5 -37q97 0 180.5 29.5t142.5 80.5t101 120t62.5 147.5t20.5 162.5q0 66 -18 130.5t-56 122.5t-91.5 102t-130.5 70t-167 26q-98 0 -181.5 -30t-143 -81t-102 -120t-63 -147 t-20.5 -162z" />
<glyph unicode="P" horiz-adv-x="1398" d="M149 0l307 1740h563q252 0 402.5 -140t150.5 -372q0 -184 -82.5 -315.5t-234.5 -199t-360 -67.5h-207l-116 -646h-423zM751 1019h190q89 0 147 49.5t58 142.5q0 67 -42 111.5t-112 44.5h-178z" />
<glyph unicode="Q" horiz-adv-x="1951" d="M221 814q0 100 20.5 198.5t61.5 191.5t100 176.5t140.5 153t178.5 120t218 78.5t255 28q144 0 270 -32.5t221 -91t169.5 -137.5t121 -173t71 -197t24.5 -210q0 -126 -31.5 -247.5t-92.5 -230.5t-156.5 -200.5t-217.5 -152.5l110 -232l-400 -58l-89 188q-65 -5 -100 -5 q-172 0 -317 45.5t-246.5 124t-172.5 185t-104.5 227.5t-33.5 251zM660 823q0 -104 37 -193.5t116 -155.5t191 -88l-104 221l399 58l105 -216q111 71 170 194.5t59 268.5q0 66 -18 130.5t-56 122.5t-91.5 102t-130.5 70t-167 26q-98 0 -181.5 -30t-143 -81t-102 -120 t-63 -147t-20.5 -162z" />
<glyph unicode="R" horiz-adv-x="1500" d="M149 0l307 1740h563q252 0 402.5 -140t150.5 -372q0 -221 -116.5 -364.5t-329.5 -193.5l307 -670h-454l-291 646l-116 -646h-423zM751 1019h190q89 0 147 49.5t58 142.5q0 67 -42 111.5t-112 44.5h-178z" />
<glyph unicode="S" horiz-adv-x="1412" d="M86 237l242 284q92 -78 191 -120.5t225 -42.5q109 0 167.5 52t58.5 141q0 75 -50 127.5t-167 77.5q-107 22 -187.5 58t-142.5 91t-93.5 134.5t-31.5 183.5q0 80 28 156.5t84.5 143.5t134.5 117.5t186 79.5t232 29q104 0 187.5 -10.5t151.5 -33t117.5 -47.5t113.5 -65 l-198 -307q-56 34 -95.5 52.5t-95.5 32t-121 13.5q-92 0 -149.5 -39t-57.5 -115q0 -45 41 -83t125 -55q481 -103 481 -507q0 -283 -198 -441t-553 -158q-358 0 -626 251z" />
<glyph unicode="T" horiz-adv-x="1330" d="M361 1367l63 373h1121l-66 -373h-349l-240 -1367h-422l241 1367h-348z" />
<glyph unicode="U" horiz-adv-x="1570" d="M226 502q0 65 16 156l189 1082h422l-195 -1107q-5 -38 -5 -58q0 -51 18 -89.5t48.5 -61t68 -33.5t80.5 -11q105 0 178 55t94 170l200 1135h422l-215 -1226q-24 -136 -87.5 -238.5t-160.5 -166t-220.5 -95t-274.5 -31.5q-97 0 -182.5 19.5t-158.5 60.5t-125.5 101.5 t-82 146.5t-29.5 191z" />
<glyph unicode="V" horiz-adv-x="1779" d="M349 1740h421l227 -1189l643 1189h425l-954 -1740h-421z" />
<glyph unicode="W" horiz-adv-x="2268" d="M337 1740h407l84 -1007l456 1007h322l83 -1007l465 1007h404l-798 -1740h-337l-124 944l-464 -944h-338z" />
<glyph unicode="X" horiz-adv-x="1690" d="M46 0l733 921l-382 819h473l207 -451l349 451h497l-665 -831l421 -909h-477l-246 541l-432 -541h-478z" />
<glyph unicode="Y" horiz-adv-x="1570" d="M353 1740h475l205 -454l349 454h497l-702 -858l-158 -882h-422l156 882z" />
<glyph unicode="Z" horiz-adv-x="1607" d="M2 0l1063 1391h-695l61 349h1394l-1065 -1391h785l-63 -349h-1480z" />
<glyph unicode="[" horiz-adv-x="684" d="M98 -261l390 2201h412l-32 -175h-164l-327 -1853h174l-35 -173h-418z" />
<glyph unicode="\" horiz-adv-x="744" d="M356 1828h172l186 -1916h-175z" />
<glyph unicode="]" horiz-adv-x="684" d="M86 -261l31 173h171l326 1853h-163l32 175h412l-390 -2201h-419z" />
<glyph unicode="^" horiz-adv-x="913" d="M117 760l458 842h88l200 -842h-73l-197 614l-376 -614h-100z" />
<glyph unicode="_" horiz-adv-x="869" d="M-14 -161l14 88h921l-14 -88h-921z" />
<glyph unicode="`" horiz-adv-x="672" d="M93 1645l151 151l302 -387l-66 -69z" />
<glyph unicode="a" horiz-adv-x="1468" d="M173 502q0 94 25 184t78.5 171.5t129 143t183.5 98t234 36.5q213 0 328 -87l16 82h373l-200 -1130h-373l12 70q-54 -44 -127 -69t-187 -25q-94 0 -175 29t-138.5 78.5t-98.5 116.5t-60.5 143.5t-19.5 158.5zM588 546q0 -57 23.5 -105t75.5 -80.5t125 -32.5q59 0 108.5 22 t80.5 58.5t47.5 80.5t16.5 91q0 56 -23.5 104.5t-75.5 80.5t-125 32q-59 0 -108.5 -22t-80.5 -58t-47.5 -80t-16.5 -91z" />
<glyph unicode="b" horiz-adv-x="1417" d="M98 0l316 1804h374l-135 -744q17 14 31.5 23.5t37.5 20t49 17t62.5 10.5t80.5 4q112 0 205.5 -29t158.5 -79t110.5 -118t67 -144.5t21.5 -159.5q0 -94 -22.5 -182.5t-72.5 -170.5t-123 -142.5t-181 -97t-239 -36.5q-146 0 -215.5 19.5t-140.5 74.5l-13 -70h-372zM570 546 q0 -57 24 -105t76.5 -80.5t124.5 -32.5q48 0 89.5 14.5t71 39t51 57t31.5 68.5t10 73q0 56 -23.5 104.5t-76 80.5t-125.5 32q-59 0 -108.5 -22t-80.5 -58t-47.5 -80t-16.5 -91z" />
<glyph unicode="c" horiz-adv-x="1032" d="M142 488q0 95 25.5 187t79.5 175.5t128.5 147t180.5 100.5t228 37q198 0 351 -65l-63 -366q-31 18 -47.5 26.5t-48.5 20t-69.5 16.5t-85.5 5q-55 0 -101 -20.5t-74.5 -54t-44.5 -74.5t-16 -84q0 -79 50.5 -133.5t146.5 -54.5q79 0 130 19.5t111 60.5l-65 -375 q-126 -83 -317 -83q-98 0 -180.5 28t-140.5 76.5t-99 114.5t-60 140.5t-19 155.5z" />
<glyph unicode="d" horiz-adv-x="1425" d="M178 505q0 93 25 183t76.5 171t124 142.5t175 97.5t221.5 36q61 0 111 -6t89.5 -18t69.5 -27t60 -36l135 756h372l-316 -1804h-373l10 58q-43 -43 -106.5 -62.5t-158.5 -19.5q-101 0 -186.5 29t-145 79t-101.5 117t-62 144t-20 160zM585 546q0 -57 24 -105t76 -80.5 t124 -32.5q60 0 109.5 22t80 58.5t47.5 80.5t17 91q0 56 -24 104.5t-76 80.5t-124 32q-60 0 -109 -22t-80 -58t-48 -80t-17 -91z" />
<glyph unicode="e" horiz-adv-x="1317" d="M144 534q0 94 25 183t77.5 168.5t126 139.5t177.5 95t225 35q118 0 216.5 -31t165.5 -84t113.5 -123.5t68 -147.5t21.5 -157q0 -63 -15 -135h-787q0 -100 41.5 -150t146.5 -50q45 0 79 7.5t54.5 22t32.5 28.5t21 33h374q-14 -40 -29 -74.5t-41 -76t-56.5 -75t-76 -66 t-99.5 -54.5t-127.5 -35.5t-158.5 -13.5q-113 0 -208.5 31t-162 84t-113.5 125t-69 153t-22 168zM585 719h368q0 22 -4.5 42t-16.5 41t-31.5 36t-51 24.5t-72.5 9.5q-49 0 -85.5 -14t-57.5 -38t-32.5 -48.5t-16.5 -52.5z" />
<glyph unicode="f" horiz-adv-x="925" d="M212 0l137 777h-137l61 349h136l47 260q21 117 67 198.5t119.5 130t168 70t220.5 21.5q91 0 185 -25l-51 -297q-69 12 -114 12q-154 0 -174 -126l-44 -244h239l-63 -349h-239l-137 -777h-421z" />
<glyph unicode="g" horiz-adv-x="1532" d="M142 -95h370q7 -43 66.5 -73t156.5 -30q60 0 105 9.5t83.5 32t62.5 64t33 102.5l12 80q-21 -20 -30 -28t-33 -24t-47 -23t-62.5 -13.5t-88.5 -6.5q-105 0 -191.5 28t-147 76t-102 113t-61 138.5t-19.5 154.5q0 76 18 152t53 146.5t88.5 131t120.5 105t154 70t185 25.5 q229 0 334 -87l14 73h373l-203 -1135q-22 -128 -79.5 -221.5t-146.5 -150.5t-200 -84t-248 -27q-112 0 -205.5 24t-156.5 64t-108.5 93.5t-69 108t-30.5 112.5zM633 546q0 -57 24 -105t76.5 -80.5t124.5 -32.5q60 0 109 22t80 58.5t47.5 80.5t16.5 91q0 56 -23.5 104.5 t-76 80.5t-124.5 32q-60 0 -109.5 -22t-80 -58t-47.5 -80t-17 -91z" />
<glyph unicode="h" horiz-adv-x="1454" d="M93 0l316 1804h424l-143 -829q27 36 58 64t75.5 53t105.5 38.5t136 13.5q89 0 164 -25t131 -73.5t87.5 -125t31.5 -174.5q0 -49 -12 -122l-109 -624h-423l103 582q2 14 2 42q0 80 -46.5 135t-128.5 55q-56 0 -101.5 -21t-75 -58t-48.5 -83t-28 -101l-98 -551h-421z" />
<glyph unicode="i" horiz-adv-x="642" d="M109 0l200 1121h422l-200 -1121h-422zM353 1511q0 47 17.5 91.5t49 81t81.5 59t111 22.5q102 0 156.5 -59t54.5 -144q0 -46 -17 -90.5t-48.5 -81t-81.5 -59t-111 -22.5q-102 0 -157 59t-55 143z" />
<glyph unicode="j" horiz-adv-x="635" d="M39 -497l287 1618h423l-286 -1618h-424zM365 1511q0 47 17.5 91.5t49 81t81.5 59t111 22.5q102 0 156.5 -59t54.5 -144q0 -46 -17 -90.5t-48.5 -81t-81.5 -59t-111 -22.5q-102 0 -157 59t-55 143z" />
<glyph unicode="k" horiz-adv-x="1581" d="M137 0l319 1804h421l-189 -1080l491 399h470l-630 -523l490 -600h-493l-375 461l-81 -461h-423z" />
<glyph unicode="l" horiz-adv-x="744" d="M161 0l319 1804h422l-317 -1804h-424z" />
<glyph unicode="m" horiz-adv-x="2212" d="M107 0l200 1121h421l-16 -90q143 109 399 109q71 0 129.5 -11t100 -31.5t69.5 -42t53 -48.5q26 22 51 39t60 35.5t72 30.5t86 20t103 8q190 0 301 -96t111 -267q0 -51 -10 -98l-119 -679h-420l116 646q7 47 7 68q0 59 -39 101.5t-117 42.5q-45 0 -85 -18t-67.5 -46.5 t-45 -62t-22.5 -66.5l-119 -665h-424l112 646q12 61 12 80q0 130 -158 130q-93 0 -150.5 -53t-71.5 -133l-118 -670h-421z" />
<glyph unicode="n" horiz-adv-x="1417" d="M107 0l212 1121h409l-19 -102q54 55 134 88t213 33q183 0 292.5 -104t109.5 -290q0 -44 -13 -125l-110 -621h-423l107 612q4 21 4 63q0 52 -16.5 91t-52 62t-86.5 23q-45 0 -82 -14t-61 -35.5t-41.5 -51.5t-27 -58.5t-15.5 -60.5l-113 -631h-421z" />
<glyph unicode="o" horiz-adv-x="1335" d="M161 524q0 93 26 184t80.5 172t130.5 142.5t183 97t231 35.5q81 0 154 -15.5t131 -44.5t106.5 -69t83.5 -88.5t59 -103.5t35.5 -114t11.5 -120q0 -98 -26 -190t-80 -172.5t-130 -140.5t-182.5 -94.5t-230.5 -34.5q-97 0 -180.5 21.5t-146.5 59.5t-112.5 90t-80.5 114.5 t-47 130.5t-16 140zM558 549q0 -92 55 -156.5t155 -64.5q55 0 100 22t73.5 57.5t43.5 79.5t15 90q0 58 -22 107t-70.5 81t-114.5 32q-56 0 -101.5 -21.5t-74 -57t-44 -79.5t-15.5 -90z" />
<glyph unicode="p" horiz-adv-x="1458" d="M58 -502l291 1628h372l-12 -68q118 93 293 93q74 0 140.5 -15.5t119.5 -44t97 -67.5t76 -86t54 -101t33 -111t11 -117q0 -92 -25 -180.5t-76.5 -168t-124 -139.5t-176 -95.5t-224.5 -35.5q-76 0 -134.5 7.5t-102.5 23.5t-71 30.5t-62 38.5l-103 -592h-376zM633 556 q0 -57 24 -105t76.5 -80t124.5 -32q60 0 109 22t80 58t47.5 80.5t16.5 90.5q0 42 -14 80.5t-41 69t-71 49t-98 18.5q-60 0 -109.5 -22t-80 -58t-47.5 -80.5t-17 -90.5z" />
<glyph unicode="q" horiz-adv-x="1425" d="M163 509q0 93 25.5 182.5t78 170.5t125.5 142.5t176 97.5t222 36q74 0 127 -6t89 -19t55 -24t46 -31l12 68h372l-287 -1628h-373l102 570q-45 -39 -98.5 -58.5t-152.5 -19.5q-103 0 -189 28.5t-146 77.5t-102 115t-62 141.5t-20 156.5zM528 546q0 -57 24 -105t76.5 -80.5 t124.5 -32.5q60 0 109.5 22t80 58.5t47.5 80.5t17 91q0 56 -24 104.5t-76.5 80.5t-124.5 32q-60 0 -109 -22t-80 -58t-48 -80t-17 -91z" />
<glyph unicode="r" horiz-adv-x="1005" d="M124 0l200 1121h422l-15 -77q41 37 85 59.5t90 32.5t101 10q45 0 79 -5t45.5 -8.5t40.5 -13.5l-56 -319q-55 14 -146 14q-82 0 -147.5 -23.5t-111.5 -75t-60 -127.5l-105 -588h-422z" />
<glyph unicode="s" horiz-adv-x="1044" d="M75 144l164 212q132 -110 273 -110q134 0 134 86q0 82 -127 102q-153 26 -230 108.5t-77 210.5q0 34 6 68.5t22.5 73t41.5 72.5t65.5 66t92 54.5t124.5 36.5t160 14q238 0 404 -105l-124 -226q-58 35 -108.5 52.5t-118.5 17.5q-53 0 -86 -20t-33 -57q0 -19 9 -32 t32.5 -23.5t63.5 -16.5q160 -26 243 -116.5t83 -239.5q0 -84 -30.5 -156t-88 -127.5t-149 -87t-207.5 -31.5q-105 0 -187 12t-145.5 36.5t-109.5 53.5t-97 72z" />
<glyph unicode="t" horiz-adv-x="944" d="M230 0l138 782h-136l58 348h138l58 318h421l-56 -318h235l-60 -348h-236l-139 -782h-421z" />
<glyph unicode="u" horiz-adv-x="1347" d="M202 405q0 58 10 114l107 602h422l-113 -624q-4 -28 -4 -44q0 -61 33.5 -96.5t102.5 -35.5q70 0 111.5 42t51.5 100l117 658h423l-133 -744q-33 -182 -196 -293t-410 -111q-245 0 -383.5 113.5t-138.5 318.5z" />
<glyph unicode="v" horiz-adv-x="1405" d="M246 1121h403l167 -590l359 590h414l-745 -1121h-249z" />
<glyph unicode="w" horiz-adv-x="2139" d="M237 1121h400l153 -593l377 593h203l170 -587l366 587h419l-695 -1121h-292l-161 531l-338 -531h-295z" />
<glyph unicode="x" horiz-adv-x="1393" d="M2 0l568 568l-326 553h444l156 -268l267 268h454l-553 -553l336 -568h-446l-161 277l-285 -277h-454z" />
<glyph unicode="y" horiz-adv-x="1554" d="M119 -502l483 665l-365 967h419l221 -599l430 599h421l-1187 -1632h-422z" />
<glyph unicode="z" horiz-adv-x="1305" d="M68 0l625 782h-432l60 348h1139l-629 -781h455l-63 -349h-1155z" />
<glyph unicode="{" horiz-adv-x="769" d="M249 865q71 49 117.5 107.5t59.5 138.5l79 444q14 84 47 148.5t80 107.5t110 70.5t133.5 39.5t155.5 12l-31 -188q-57 0 -98 -10t-67 -26t-43.5 -44.5t-26.5 -59t-16 -75.5l-74 -426q-6 -39 -24 -73.5t-40 -58.5t-52.5 -46t-55 -35t-54.5 -26q29 -20 51 -39.5t44 -46.5 t34 -61.5t12 -73.5q0 -16 -5 -49l-83 -463q-9 -64 -9 -83q0 -65 40.5 -94.5t145.5 -29.5l-33 -190q-184 0 -289.5 81.5t-105.5 244.5q0 53 10 102l81 458q4 33 4 47q0 26 -5 51t-14 46t-21.5 40t-26.5 33.5t-30 26.5z" />
<glyph unicode="|" horiz-adv-x="435" d="M112 -112l344 1952h172l-342 -1952h-174z" />
<glyph unicode="}" horiz-adv-x="769" d="M51 -265l32 186q57 0 97.5 10t67 26.5t44 45t26.5 59t16 75.5l73 458q8 48 27 89.5t41.5 69.5t53 51.5t55.5 37.5t55 27q-142 79 -142 222q0 15 5 48l78 395q10 48 10 83q0 66 -41 95t-147 29l35 191q90 0 161.5 -20t124 -59.5t80.5 -102t28 -145.5q0 -53 -10 -102 l-75 -390q-5 -33 -5 -47q0 -63 27.5 -113.5t70.5 -83.5q-34 -24 -60 -47t-52 -55.5t-43.5 -74.5t-25.5 -93l-81 -488q-13 -83 -46 -148t-80 -107.5t-110.5 -70.5t-134 -39.5t-155.5 -11.5z" />
<glyph unicode="~" horiz-adv-x="1205" d="M170 1053q28 34 54.5 57.5t63 44.5t83.5 31.5t104 10.5q41 0 80.5 -8.5t62.5 -18t54 -24.5q6 -3 24.5 -14t25.5 -15t22 -11.5t25 -10.5t23.5 -6t26.5 -3q44 0 78 7.5t60 23t42.5 30t38.5 39.5l100 -97q-29 -34 -55.5 -57t-63.5 -44t-86 -31.5t-110 -10.5t-104 14t-86 40 q-22 14 -35 21.5t-34 16.5t-42.5 13.5t-46.5 4.5q-30 0 -53.5 -3t-43.5 -11.5t-32 -14.5t-28.5 -21.5t-23 -22.5t-24.5 -27z" />
<glyph unicode="&#xa1;" horiz-adv-x="744" d="M117 -334l209 1199h425l-212 -1199h-422zM356 1170q0 37 10.5 73t32 68.5t52 57.5t72.5 39.5t91 14.5q52 0 93.5 -16.5t67 -45t38.5 -64.5t13 -76q0 -37 -10.5 -73t-32.5 -68.5t-52 -57.5t-72.5 -40t-90.5 -15q-103 0 -157.5 59t-54.5 144z" />
<glyph unicode="&#xa2;" horiz-adv-x="1105" d="M281 765q0 57 11 114t34 111.5t55.5 103.5t77 90t97 71t118.5 47t138 17l21 136h137l-22 -139q127 -15 222 -83l-47 -241q-26 23 -43.5 35.5t-52 30.5t-79.5 26t-102 8q-62 0 -114.5 -25t-86 -66.5t-52 -93t-18.5 -105.5q0 -48 15 -90.5t45 -76.5t79 -54.5t112 -20.5 q81 0 136 24.5t108 68.5l-49 -263q-53 -28 -108.5 -40.5t-140.5 -12.5l-26 -149h-137l28 149q-88 11 -157.5 50t-112 97.5t-64.5 130t-22 150.5z" />
<glyph unicode="&#xa3;" horiz-adv-x="1366" d="M149 -2v311q53 40 129 73.5t138 38.5q38 30 65 64t44 75.5t26.5 79t18.5 91.5h-284l33 188h253q-2 25 -9 49t-21.5 51.5t-21 38.5t-25.5 42q-17 28 -28 51.5t-19.5 62t-8.5 83.5q0 51 9.5 99t30.5 94t52 85t76 72t100.5 56.5t128.5 36.5t156 13q204 0 344 -92.5 t168 -237.5l-304 -139q-18 88 -68.5 127.5t-134.5 39.5q-74 0 -121.5 -42t-47.5 -125q0 -12 2 -24t4 -21t7.5 -22.5t8 -19.5t11 -20.5t11 -18t13.5 -20.5t12 -19q14 -24 23 -41.5t19.5 -43t17 -54.5t8.5 -61h295l-32 -188h-263q-10 -120 -42 -206t-104 -145q92 -46 225 -46 q150 0 284 117v-309q-39 -33 -73 -56t-85 -48.5t-115 -38.5t-139 -13q-80 0 -139 16t-119 44q-4 2 -20.5 9t-21.5 9t-19.5 8t-21.5 8t-20.5 6t-23 5.5t-21.5 2.5t-24 1q-84 0 -160.5 -23.5t-176.5 -73.5z" />
<glyph unicode="&#xa5;" horiz-adv-x="1602" d="M346 1737h482l205 -448l366 451h485l-707 -858h249l-27 -136h-248l-18 -100h249l-24 -137h-249l-90 -509h-422l91 509h-249l24 137h249l16 100h-248l25 136h248z" />
<glyph unicode="&#xa6;" horiz-adv-x="360" d="M112 0v658h132v-658h-132zM112 919v723h132v-723h-132z" />
<glyph unicode="&#xa7;" horiz-adv-x="1272" d="M-27 -114l181 231q43 -48 118 -79t156 -31q102 0 157.5 46t55.5 142q0 67 -41 106t-110 50q-197 31 -299.5 133t-102.5 293q0 48 11 92.5t30 81t44.5 68.5t56 57t63 43t65.5 29q-36 44 -58.5 95.5t-22.5 130.5q0 138 70.5 246t200.5 168.5t298 60.5q278 0 458 -170 l-181 -231q-44 48 -117.5 79t-157.5 31q-105 0 -158 -51t-53 -128q0 -69 46.5 -112t128.5 -56q175 -28 279 -135.5t104 -273.5q0 -143 -70 -231t-204 -140q36 -43 57.5 -96.5t21.5 -144.5q0 -74 -18.5 -141t-61.5 -129t-107.5 -107t-163.5 -72t-223 -27q-143 0 -263.5 49 t-189.5 123zM421 768q0 -39 19.5 -69t50.5 -47.5t65.5 -26.5t69.5 -9q33 0 62.5 4.5t61 16.5t54 31.5t37.5 52t15 74.5q0 50 -34 86.5t-79 51.5t-92 15t-86.5 -9t-72.5 -29.5t-52 -56.5t-19 -85z" />
<glyph unicode="&#xa8;" horiz-adv-x="893" d="M139 1523q0 85 55.5 144t151.5 59q77 0 122.5 -49t45.5 -124q0 -49 -20.5 -91.5t-67 -72t-109.5 -29.5q-56 0 -97.5 24t-61 60t-19.5 79zM621 1523q0 85 55.5 144t151.5 59q77 0 123 -49t46 -124q0 -49 -20.5 -91.5t-66.5 -72t-110 -29.5q-84 0 -131.5 48t-47.5 115z" />
<glyph unicode="&#xa9;" horiz-adv-x="1432" d="M124 948.5q0 130.5 51 249t137 204t204.5 136.5t248.5 51q104 0 202 -32.5t177 -92t138.5 -138t92 -176t32.5 -202.5q0 -130 -51 -248.5t-137 -204.5t-205 -137t-249 -51t-249 51t-204.5 137t-136.5 204.5t-51 249zM173 948q0 -120 47 -229.5t126.5 -189t189 -126.5 t229.5 -47t230 47t189.5 126.5t126.5 189t47 229.5t-47 230t-126.5 189t-189.5 126t-230 47t-229.5 -47t-189 -126t-126.5 -189t-47 -230zM449 960q0 82 36.5 150t110 110.5t169.5 42.5q134 0 232 -93v-59q-98 103 -232 103q-127 0 -197.5 -71t-70.5 -183q0 -69 29 -124.5 t91 -91t148 -35.5q46 0 82 8t63.5 24.5t46 32t40.5 40.5v-63q-85 -91 -232 -91q-75 0 -136 24.5t-100 66t-59.5 95t-20.5 114.5z" />
<glyph unicode="&#xaa;" horiz-adv-x="856" d="M190 826l12 86h656l-12 -86h-656zM237 1307q0 59 20.5 114.5t59.5 101t103 73t143 27.5q102 0 163 -44l7 42h188l-100 -568h-188l8 36q-57 -49 -158 -49q-78 0 -135.5 38.5t-84 98t-26.5 130.5zM444 1328q0 -45 29 -77t83 -32q39 0 69 19t43.5 47t13.5 60 q0 43 -29.5 75.5t-82.5 32.5q-59 0 -92.5 -37.5t-33.5 -87.5z" />
<glyph unicode="&#xab;" horiz-adv-x="1519" d="M27 646l36 200l614 402l142 -239l-436 -263l389 -307l-192 -258zM707 646l34 200l614 402l141 -239l-433 -263l390 -307l-195 -258z" />
<glyph unicode="&#xac;" d="M175 207q0 74 44.5 133.5t129.5 80.5q-37 30 -59 67t-22 92q0 38 15 75t45.5 69.5t85 52.5t125.5 20q58 0 104 -15t75 -41t44 -60t15 -72q0 -34 -8.5 -63t-22 -49.5t-32 -36t-37 -24.5t-38.5 -15q12 -8 18.5 -13t20.5 -18t22.5 -26.5t18.5 -32.5t15 -43t5 -51 q0 -78 -44 -137.5t-111 -88t-145 -28.5q-60 0 -110.5 19.5t-83.5 51t-51.5 71.5t-18.5 82zM198 858l11 88h661l-10 -88h-662zM368 230q0 -36 22 -60t63 -24q29 0 52.5 17t35.5 42.5t12 52.5q0 36 -21 60t-62 24q-23 0 -42.5 -10t-32.5 -26t-20 -36t-7 -40zM451 1012l112 637 h-105l25 147h294l-136 -784h-190zM461 577q0 -25 13.5 -41.5t39.5 -16.5q33 0 52 23t19 53q0 11 -3.5 21.5t-10.5 19t-18 13t-25 4.5q-31 0 -49 -23t-18 -53z" />
<glyph unicode="&#xad;" horiz-adv-x="981" d="M281 595l45 249h634l-44 -249h-635z" />
<glyph unicode="&#xae;" horiz-adv-x="1007" d="M251 1342q0 98 38 181.5t99 138t137 85t154 30.5q99 0 178.5 -45t124 -122t44.5 -170q0 -72 -21.5 -138.5t-60.5 -119.5t-91.5 -92.5t-117.5 -61t-135 -21.5q-151 0 -250 96.5t-99 238.5zM288 1348q0 -131 89 -217.5t230 -86.5q74 0 143.5 29t122.5 80t84.5 124.5 t31.5 157.5q0 131 -88 218t-226 87q-70 0 -139 -28t-124.5 -77.5t-89.5 -124.5t-34 -162zM477 1179l57 444h170q52 0 81 -29t29 -76q0 -55 -35 -94.5t-104 -39.5h-19l116 -205h-44l-114 205h-75l-27 -205h-35zM541 1418h138q29 0 50 9.5t31 25t14.5 31.5t4.5 32q0 33 -19 53 t-58 20h-139z" />
<glyph unicode="&#xaf;" horiz-adv-x="869" d="M95 1504l12 87h709l-12 -87h-709z" />
<glyph unicode="&#xb0;" horiz-adv-x="644" d="M349 1463q0 49 18 96t52 85t88 61t119 23q56 0 102 -18.5t74 -49.5t43 -69.5t15 -81.5q0 -48 -18.5 -94t-53 -83.5t-89.5 -60.5t-122 -23q-56 0 -101 18t-72 48.5t-41 68t-14 80.5zM431 1474q0 -28 10 -54.5t29 -47.5t50 -33.5t70 -12.5q86 0 135.5 52t49.5 121 q0 64 -41.5 107t-119.5 43q-84 0 -133.5 -52.5t-49.5 -122.5z" />
<glyph unicode="&#xb1;" horiz-adv-x="1093" d="M186 186l44 248h793l-44 -248h-793zM300 844l44 248h272l49 273h251l-51 -273h273l-41 -248h-274l-51 -274h-248l51 274h-275z" />
<glyph unicode="&#xb2;" d="M275 1019l374 448q44 55 44 112q0 28 -17.5 47t-51.5 19q-36 0 -60.5 -33.5t-32.5 -78.5h-185q6 38 18 74.5t35.5 73.5t55 65t79 45.5t105.5 17.5q128 0 192 -58t64 -153q0 -28 -7 -56t-16 -49t-26 -48t-29.5 -43.5t-34.5 -43.5l-151 -181h204l-28 -158h-532z" />
<glyph unicode="&#xb3;" d="M277 1246h179q4 -32 34 -55.5t80 -23.5q58 0 94 32.5t36 91.5q0 53 -30 76.5t-88 23.5l15 88q70 2 104 22t34 76q0 38 -27.5 60.5t-74.5 22.5q-101 0 -117 -90h-174q3 35 14.5 67.5t35 64.5t57 55t84 37.5t111.5 14.5q128 0 205 -59t77 -161q0 -61 -24.5 -98.5 t-75.5 -60.5q61 -35 61 -158q0 -115 -82.5 -189t-236.5 -74q-46 0 -86 9.5t-70 26.5t-54.5 39.5t-40.5 49.5t-26 55t-14 57z" />
<glyph unicode="&#xb4;" horiz-adv-x="721" d="M139 1409l305 387l151 -151l-393 -290z" />
<glyph unicode="&#xb5;" d="M124 -2l373 448q44 55 44 112q0 13 -4 24.5t-12 21t-21.5 15t-31.5 5.5q-35 0 -59.5 -33.5t-32.5 -78.5h-185q6 38 18 74.5t35 73.5t55 65t79.5 45.5t105.5 17.5q128 0 192 -58t64 -153q0 -28 -7 -56t-16 -49t-26 -48t-29.5 -43.5t-34.5 -43.5l-151 -181h204l-28 -158 h-532zM198 858l11 88h661l-10 -88h-662zM451 1012l112 637h-105l25 147h294l-136 -784h-190z" />
<glyph unicode="&#xb6;" horiz-adv-x="1398" d="M302 1109q0 123 35 227.5t94 178t138.5 125t168.5 76t183 24.5h381l-344 -1977h-212l151 883h-88q-69 0 -137 15t-135.5 50.5t-119 87.5t-83.5 132t-32 178zM1082 -237l344 1977h209l-341 -1977h-212z" />
<glyph unicode="&#xb7;" horiz-adv-x="744" d="M251 872q0 40 16 80.5t45 74t74.5 54.5t99.5 21q105 0 158 -55.5t53 -137.5q0 -44 -14.5 -85.5t-42 -76.5t-74.5 -56t-105 -21q-71 0 -119.5 28.5t-69.5 72.5t-21 101z" />
<glyph unicode="&#xb8;" horiz-adv-x="633" d="M121 -370l54 140q48 -28 88 -28q29 0 46 18.5t17 46.5q0 40 -49 72l57 121h146l-52 -117q41 -21 62.5 -60.5t21.5 -83.5q0 -82 -57 -123.5t-141 -41.5q-97 0 -193 56z" />
<glyph unicode="&#xb9;" d="M451 1012l112 637h-105l25 147h294l-136 -784h-190z" />
<glyph unicode="&#xba;" horiz-adv-x="893" d="M246 826l10 86h631l-12 -86h-629zM314 1307q0 59 21.5 115t61.5 101t103.5 72.5t140.5 27.5q71 0 128 -23.5t92 -63t53.5 -88.5t18.5 -103q0 -62 -21.5 -119t-61 -102t-102.5 -71.5t-141 -26.5q-72 0 -129 23.5t-92 63.5t-53.5 89.5t-18.5 104.5zM514 1319 q0 -45 28 -77.5t77 -32.5q55 0 85.5 37t30.5 87q0 45 -27.5 78.5t-76.5 33.5q-53 0 -85 -38.5t-32 -87.5z" />
<glyph unicode="&#xbb;" horiz-adv-x="1519" d="M100 453l480 293l-394 314l179 261l570 -475l-35 -200l-666 -429zM809 453l480 293l-397 314l183 261l567 -475l-33 -200l-665 -429z" />
<glyph unicode="&#xbc;" d="M102 130l28 158l465 487h177l-88 -502h104l-28 -143h-100l-23 -140h-191l24 140h-368zM198 858l11 88h661l-10 -88h-662zM298 273h199l44 255zM451 1012l112 637h-105l25 147h294l-136 -784h-190z" />
<glyph unicode="&#xbd;" d="M124 -2l373 448q44 55 44 112q0 13 -4 24.5t-12 21t-21.5 15t-31.5 5.5q-35 0 -59.5 -33.5t-32.5 -78.5h-185q6 38 18 74.5t35 73.5t55 65t79.5 45.5t105.5 17.5q128 0 192 -58t64 -153q0 -28 -7 -56t-16 -49t-26 -48t-29.5 -43.5t-34.5 -43.5l-151 -181h204l-28 -158 h-532zM198 858l11 88h661l-10 -88h-662zM451 1012l112 637h-105l25 147h294l-136 -784h-190z" />
<glyph unicode="&#xbe;" d="M105 126l27 160l465 486h178l-87 -502h102l-27 -144h-100l-24 -138h-190l23 138h-367zM198 858l11 88h661l-10 -88h-662zM277 1246h179q4 -32 34 -55.5t80 -23.5q58 0 94 32.5t36 91.5q0 53 -30 76.5t-88 23.5l15 88q70 2 104 22t34 76q0 38 -27.5 60.5t-74.5 22.5 q-101 0 -117 -90h-174q3 35 14.5 67.5t35 64.5t57 55t84 37.5t111.5 14.5q128 0 205 -59t77 -161q0 -61 -24.5 -98.5t-75.5 -60.5q61 -35 61 -158q0 -115 -82.5 -189t-236.5 -74q-46 0 -86 9.5t-70 26.5t-54.5 39.5t-40.5 49.5t-26 55t-14 57zM300 270h200l44 256z" />
<glyph unicode="&#xbf;" horiz-adv-x="1342" d="M100 190q0 496 553 538l29 172h381l-84 -444h-135q-59 0 -106 -15t-83 -46t-55.5 -82.5t-19.5 -119.5q0 -76 35 -124t109 -48q81 0 123.5 48t54.5 124h424q-9 -59 -24.5 -112.5t-42 -108t-62.5 -100t-87 -85t-112.5 -67.5t-142 -43.5t-173.5 -15.5q-141 0 -252.5 39.5 t-183 111t-109 167.5t-37.5 211zM693 1177q0 46 17 90.5t48.5 81.5t81.5 59t111 22q102 0 157 -58.5t55 -143.5q0 -46 -17.5 -90.5t-49 -81.5t-81.5 -59t-111 -22q-69 0 -118 29t-71 74t-22 99z" />
<glyph unicode="&#xc0;" horiz-adv-x="1605" d="M49 0l841 1740h484l232 -1740h-422l-33 251h-554l-125 -251h-423zM779 639h325l-64 533zM784 2123l135 136l263 -341l-61 -56z" />
<glyph unicode="&#xc1;" horiz-adv-x="1605" d="M49 0l841 1740h484l232 -1740h-422l-33 251h-554l-125 -251h-423zM779 639h325l-64 533zM1119 1869l253 327l124 -127l-326 -241z" />
<glyph unicode="&#xc2;" horiz-adv-x="1605" d="M49 0l841 1740h484l232 -1740h-422l-33 251h-554l-125 -251h-423zM779 639h325l-64 533zM851 1942l289 293h83l230 -293l-56 -46l-227 156l-266 -156z" />
<glyph unicode="&#xc3;" horiz-adv-x="1605" d="M49 0l841 1740h484l232 -1740h-422l-33 251h-554l-125 -251h-423zM707 1954q26 30 49 50.5t56 40t74.5 29.5t92.5 10q38 0 74 -8t56 -16.5t49 -22.5q2 -1 16.5 -9.5t17.5 -10.5t15.5 -8.5t18 -8.5t17.5 -6.5t20.5 -5.5t21 -2.5t24.5 -1.5q33 0 59.5 6.5t48.5 21t35.5 27 t33.5 35.5l91 -88q-26 -30 -49.5 -50.5t-57.5 -39.5t-78 -28.5t-98 -9.5q-38 0 -72 8t-53 16.5t-46 23.5q-19 13 -32 20.5t-32.5 15.5t-42 12t-49.5 4q-81 0 -129 -46q-12 -12 -41 -45zM779 639h325l-64 533z" />
<glyph unicode="&#xc4;" horiz-adv-x="1605" d="M49 0l841 1740h484l232 -1740h-422l-33 251h-554l-125 -251h-423zM779 639h325l-64 533zM779 1967q0 68 45 114.5t122 46.5q62 0 97.5 -39.5t35.5 -100.5q0 -60 -40.5 -106.5t-115.5 -46.5q-67 0 -105.5 39t-38.5 93zM1207 1967q0 33 11 61.5t31 51t52 35.5t71 13 q61 0 98 -39.5t37 -100.5q0 -38 -17 -72t-54 -57.5t-88 -23.5q-66 0 -103.5 39t-37.5 93z" />
<glyph unicode="&#xc5;" horiz-adv-x="1605" d="M49 0l841 1740h484l232 -1740h-422l-33 251h-554l-125 -251h-423zM779 639h325l-64 533zM923 1977q0 44 17 86.5t47.5 76.5t78.5 55t106 21q101 0 155.5 -57.5t54.5 -140.5q0 -43 -17 -84.5t-48 -75t-80 -54t-109 -20.5q-100 0 -152.5 55.5t-52.5 137.5zM997 1988 q0 -55 37 -94t106 -39q77 0 122 46.5t45 107.5q0 56 -37.5 95.5t-106.5 39.5q-76 0 -121 -47t-45 -109z" />
<glyph unicode="&#xc6;" horiz-adv-x="1963" d="M42 0l1116 1740h1033l-54 -322h-475l-66 -365h451l-59 -325h-451l-72 -404h477l-58 -324h-897l85 486h-302l-293 -486h-435zM933 809h195l91 498z" />
<glyph unicode="&#xc7;" horiz-adv-x="1621" d="M156 782q0 102 21.5 203t66 197.5t108 182.5t151.5 158.5t192.5 125t234.5 82t274 29.5q172 0 286 -26t199 -74l-80 -453q-33 22 -59 37t-64.5 30t-81.5 24t-103.5 15t-135.5 6q-94 0 -176 -28.5t-140.5 -76.5t-100.5 -111t-62.5 -133t-20.5 -142q0 -64 16.5 -122.5 t51 -110.5t84.5 -90.5t122 -61t158 -22.5q125 0 213 30t179 83l-80 -466q-75 -44 -153.5 -69.5t-207.5 -28.5l-29 -72q40 -22 62.5 -62t22.5 -85q0 -43 -13 -78.5t-39 -62.5t-68 -41.5t-97 -14.5q-93 0 -197 58l73 174q44 -30 88 -30q20 0 35 8.5t22.5 23.5t7.5 34 q0 38 -51 71l35 86q-147 14 -270 64.5t-209.5 127t-147 175t-89 208.5t-28.5 228z" />
<glyph unicode="&#xc8;" horiz-adv-x="1205" d="M151 0l307 1740h933l-63 -373h-512l-56 -309h482l-65 -374h-482l-56 -312h512l-65 -372h-935zM612 2123l132 136l263 -341l-59 -56z" />
<glyph unicode="&#xc9;" horiz-adv-x="1205" d="M151 0l307 1740h933l-63 -373h-512l-56 -309h482l-65 -374h-482l-56 -312h512l-65 -372h-935zM851 1869l253 327l124 -127l-328 -241z" />
<glyph unicode="&#xca;" horiz-adv-x="1205" d="M151 0l307 1740h933l-63 -373h-512l-56 -309h482l-65 -374h-482l-56 -312h512l-65 -372h-935zM646 1942l289 293h84l229 -293l-57 -46l-228 156l-263 -156z" />
<glyph unicode="&#xcb;" horiz-adv-x="1205" d="M151 0l307 1740h933l-63 -373h-512l-56 -309h482l-65 -374h-482l-56 -312h512l-65 -372h-935zM588 1967q0 68 44 114.5t121 46.5q63 0 98.5 -39.5t35.5 -100.5q0 -60 -40.5 -106.5t-115.5 -46.5q-46 0 -79 19t-48.5 48.5t-15.5 64.5zM1014 1967q0 44 18.5 80t57 58.5 t89.5 22.5q61 0 98 -39.5t37 -100.5q0 -38 -16.5 -72t-54 -57.5t-88.5 -23.5q-44 0 -77 19t-48.5 48.5t-15.5 64.5z" />
<glyph unicode="&#xcc;" horiz-adv-x="756" d="M165 0l307 1740h423l-305 -1740h-425zM283 2123l131 136l265 -341l-60 -56z" />
<glyph unicode="&#xcd;" horiz-adv-x="756" d="M165 0l307 1740h423l-305 -1740h-425zM660 1869l256 327l124 -127l-328 -241z" />
<glyph unicode="&#xce;" horiz-adv-x="756" d="M165 0l307 1740h423l-305 -1740h-425zM407 1942l293 293h79l230 -293l-53 -46l-230 156l-263 -156z" />
<glyph unicode="&#xcf;" horiz-adv-x="756" d="M165 0l307 1740h423l-305 -1740h-425zM351 1967q0 44 18.5 80t57 58.5t89.5 22.5q63 0 99 -39.5t36 -100t-40.5 -107t-115.5 -46.5q-68 0 -106 39t-38 93zM777 1967q0 68 44.5 114.5t122.5 46.5q61 0 97 -39.5t36 -100t-41.5 -107t-116.5 -46.5q-67 0 -104.5 39t-37.5 93 z" />
<glyph unicode="&#xd0;" horiz-adv-x="1676" d="M105 763l37 219h179l135 758h485q164 0 301 -45t232 -122.5t161 -182t96.5 -222t30.5 -245.5q0 -97 -18.5 -192.5t-57 -187t-94 -172.5t-133.5 -149.5t-171 -117.5t-210 -76.5t-247 -27.5h-682l134 763h-178zM637 370h167q94 0 177 31.5t144.5 86t106 126.5t67 154 t22.5 167q0 70 -16 132.5t-51.5 117.5t-87 95.5t-126 63.5t-165.5 23h-61l-68 -385h233l-35 -219h-237z" />
<glyph unicode="&#xd1;" horiz-adv-x="1988" d="M175 0l308 1740h394l676 -1061l184 1061h430l-307 -1740h-422l-650 1021l-179 -1021h-434zM853 1954q17 19 32 34t34 30.5t40 26.5t46 20.5t55.5 14t65.5 4.5q37 0 73 -8t56 -16.5t49 -22.5q3 -1 17 -9.5t17.5 -10.5t16 -8.5t18 -8.5t17 -6.5t20.5 -5.5t21 -2.5t24 -1.5 q34 0 60.5 6.5t48 21t35 27t34.5 35.5l90 -88q-26 -30 -49.5 -50.5t-57 -39.5t-78 -28.5t-98.5 -9.5q-38 0 -72 8t-53 16.5t-45 23.5q-26 17 -43.5 26.5t-47.5 17.5t-65 8q-34 0 -58.5 -5.5t-44 -19.5t-30.5 -24.5t-31 -33.5q-1 -2 -2 -3t-2 -2.5t-2 -2.5z" />
<glyph unicode="&#xd2;" horiz-adv-x="1988" d="M221 814q0 100 20.5 198.5t61.5 191.5t100 176.5t140.5 153t178.5 120t218 78.5t255 28q144 0 270 -32.5t221 -91t169.5 -137.5t121 -173t71 -197t24.5 -210q0 -118 -28 -232t-81.5 -219t-137.5 -193.5t-189.5 -154t-244.5 -102.5t-296 -37q-172 0 -317 45.5t-246.5 124 t-172.5 185t-104.5 227.5t-33.5 251zM660 823q0 -91 29.5 -171t85.5 -143t146.5 -100t204.5 -37q97 0 180.5 29.5t142.5 80.5t101 120t62.5 147.5t20.5 162.5q0 66 -18 130.5t-56 122.5t-91.5 102t-130.5 70t-167 26q-98 0 -181.5 -30t-143 -81t-102 -120t-63 -147 t-20.5 -162zM941 2123l131 136l263 -341l-61 -56z" />
<glyph unicode="&#xd3;" horiz-adv-x="1988" d="M221 814q0 100 20.5 198.5t61.5 191.5t100 176.5t140.5 153t178.5 120t218 78.5t255 28q144 0 270 -32.5t221 -91t169.5 -137.5t121 -173t71 -197t24.5 -210q0 -118 -28 -232t-81.5 -219t-137.5 -193.5t-189.5 -154t-244.5 -102.5t-296 -37q-172 0 -317 45.5t-246.5 124 t-172.5 185t-104.5 227.5t-33.5 251zM660 823q0 -91 29.5 -171t85.5 -143t146.5 -100t204.5 -37q97 0 180.5 29.5t142.5 80.5t101 120t62.5 147.5t20.5 162.5q0 66 -18 130.5t-56 122.5t-91.5 102t-130.5 70t-167 26q-98 0 -181.5 -30t-143 -81t-102 -120t-63 -147 t-20.5 -162zM1242 1869l254 327l125 -127l-327 -241z" />
<glyph unicode="&#xd4;" horiz-adv-x="1988" d="M221 814q0 100 20.5 198.5t61.5 191.5t100 176.5t140.5 153t178.5 120t218 78.5t255 28q144 0 270 -32.5t221 -91t169.5 -137.5t121 -173t71 -197t24.5 -210q0 -118 -28 -232t-81.5 -219t-137.5 -193.5t-189.5 -154t-244.5 -102.5t-296 -37q-172 0 -317 45.5t-246.5 124 t-172.5 185t-104.5 227.5t-33.5 251zM660 823q0 -91 29.5 -171t85.5 -143t146.5 -100t204.5 -37q97 0 180.5 29.5t142.5 80.5t101 120t62.5 147.5t20.5 162.5q0 66 -18 130.5t-56 122.5t-91.5 102t-130.5 70t-167 26q-98 0 -181.5 -30t-143 -81t-102 -120t-63 -147 t-20.5 -162zM897 1942l292 293h81l229 -293l-54 -46l-229 156l-263 -156z" />
<glyph unicode="&#xd5;" horiz-adv-x="1988" d="M221 814q0 100 20.5 198.5t61.5 191.5t100 176.5t140.5 153t178.5 120t218 78.5t255 28q144 0 270 -32.5t221 -91t169.5 -137.5t121 -173t71 -197t24.5 -210q0 -118 -28 -232t-81.5 -219t-137.5 -193.5t-189.5 -154t-244.5 -102.5t-296 -37q-172 0 -317 45.5t-246.5 124 t-172.5 185t-104.5 227.5t-33.5 251zM660 823q0 -91 29.5 -171t85.5 -143t146.5 -100t204.5 -37q97 0 180.5 29.5t142.5 80.5t101 120t62.5 147.5t20.5 162.5q0 66 -18 130.5t-56 122.5t-91.5 102t-130.5 70t-167 26q-98 0 -181.5 -30t-143 -81t-102 -120t-63 -147 t-20.5 -162zM823 1954q21 23 39 40.5t43 35t52 29t63 18.5t77 7q38 0 73.5 -8t55 -16t48.5 -23q3 -1 17 -9.5t17.5 -10.5t16 -8.5t18 -8.5t17.5 -6.5t20.5 -5.5t20.5 -2.5t25 -1.5q33 0 59.5 6.5t48.5 21t36 27.5t34 35l89 -88q-20 -23 -38 -40.5t-43.5 -35t-53 -28.5 t-65.5 -17.5t-82 -6.5q-37 0 -71.5 8t-54 16.5t-45.5 23.5q-26 17 -43 26.5t-47.5 17.5t-65.5 8q-33 0 -58 -5.5t-44.5 -19.5t-30.5 -24.5t-31 -33.5q-1 -2 -2 -3t-2 -2.5t-2 -2.5z" />
<glyph unicode="&#xd6;" horiz-adv-x="1988" d="M221 814q0 100 20.5 198.5t61.5 191.5t100 176.5t140.5 153t178.5 120t218 78.5t255 28q144 0 270 -32.5t221 -91t169.5 -137.5t121 -173t71 -197t24.5 -210q0 -118 -28 -232t-81.5 -219t-137.5 -193.5t-189.5 -154t-244.5 -102.5t-296 -37q-172 0 -317 45.5t-246.5 124 t-172.5 185t-104.5 227.5t-33.5 251zM660 823q0 -91 29.5 -171t85.5 -143t146.5 -100t204.5 -37q97 0 180.5 29.5t142.5 80.5t101 120t62.5 147.5t20.5 162.5q0 66 -18 130.5t-56 122.5t-91.5 102t-130.5 70t-167 26q-98 0 -181.5 -30t-143 -81t-102 -120t-63 -147 t-20.5 -162zM877 1967q0 68 44.5 114.5t122.5 46.5q62 0 97.5 -39.5t35.5 -100.5q0 -60 -40.5 -106.5t-115.5 -46.5q-34 0 -62 11t-45.5 29.5t-27 42t-9.5 49.5zM1304 1967q0 33 11 61.5t31.5 51t52.5 35.5t71 13q61 0 97.5 -39.5t36.5 -100t-42 -107t-117 -46.5 q-66 0 -103.5 39t-37.5 93z" />
<glyph unicode="&#xd7;" horiz-adv-x="1374" d="M93 137l477 479l-477 479l116 116l479 -480l479 480l117 -116l-480 -479l480 -479l-117 -118l-479 481l-479 -481z" />
<glyph unicode="&#xd8;" horiz-adv-x="1988" d="M221 814q0 100 20.5 198.5t61.5 191.5t100 176.5t140.5 153t178.5 120t218 78.5t255 28q246 0 440 -95l100 126h249l-188 -236q135 -115 205.5 -282.5t70.5 -353.5q0 -118 -28 -232t-81.5 -219t-137.5 -193.5t-189.5 -154t-244.5 -102.5t-296 -37q-265 0 -464 107 l-110 -137h-248l197 251q-122 115 -185.5 274t-63.5 338zM660 823q0 -155 86 -279l619 782q-87 37 -195 37q-98 0 -181.5 -30t-143 -81t-102 -120t-63 -147t-20.5 -162zM897 421q92 -49 229 -49q97 0 180.5 29.5t142.5 80.5t101 120t62.5 147.5t20.5 162.5q0 81 -28 160 t-82 142z" />
<glyph unicode="&#xd9;" horiz-adv-x="1570" d="M226 502q0 65 16 156l189 1082h422l-195 -1107q-5 -38 -5 -58q0 -51 18 -89.5t48.5 -61t68 -33.5t80.5 -11q105 0 178 55t94 170l200 1135h422l-215 -1226q-24 -136 -87.5 -238.5t-160.5 -166t-220.5 -95t-274.5 -31.5q-97 0 -182.5 19.5t-158.5 60.5t-125.5 101.5 t-82 146.5t-29.5 191zM726 2123l132 136l263 -341l-58 -56z" />
<glyph unicode="&#xda;" horiz-adv-x="1570" d="M226 502q0 65 16 156l189 1082h422l-195 -1107q-5 -38 -5 -58q0 -51 18 -89.5t48.5 -61t68 -33.5t80.5 -11q105 0 178 55t94 170l200 1135h422l-215 -1226q-24 -136 -87.5 -238.5t-160.5 -166t-220.5 -95t-274.5 -31.5q-97 0 -182.5 19.5t-158.5 60.5t-125.5 101.5 t-82 146.5t-29.5 191zM1065 1869l254 327l123 -127l-328 -241z" />
<glyph unicode="&#xdb;" horiz-adv-x="1570" d="M226 502q0 65 16 156l189 1082h422l-195 -1107q-5 -38 -5 -58q0 -51 18 -89.5t48.5 -61t68 -33.5t80.5 -11q105 0 178 55t94 170l200 1135h422l-215 -1226q-24 -136 -87.5 -238.5t-160.5 -166t-220.5 -95t-274.5 -31.5q-97 0 -182.5 19.5t-158.5 60.5t-125.5 101.5 t-82 146.5t-29.5 191zM812 1942l290 293h82l230 -293l-56 -46l-230 156l-263 -156z" />
<glyph unicode="&#xdc;" horiz-adv-x="1570" d="M226 502q0 65 16 156l189 1082h422l-195 -1107q-5 -38 -5 -58q0 -51 18 -89.5t48.5 -61t68 -33.5t80.5 -11q105 0 178 55t94 170l200 1135h422l-215 -1226q-24 -136 -87.5 -238.5t-160.5 -166t-220.5 -95t-274.5 -31.5q-97 0 -182.5 19.5t-158.5 60.5t-125.5 101.5 t-82 146.5t-29.5 191zM751 1967q0 44 18.5 80t57 58.5t89.5 22.5q63 0 99 -39.5t36 -100t-40.5 -107t-115.5 -46.5q-68 0 -106 39t-38 93zM1177 1967q0 33 11 61.5t31.5 51t52 35.5t70.5 13q61 0 98 -39.5t37 -100.5q0 -38 -16.5 -72t-54 -57.5t-87.5 -23.5q-67 0 -104.5 39 t-37.5 93z" />
<glyph unicode="&#xdd;" horiz-adv-x="1570" d="M353 1740h475l205 -454l349 454h497l-702 -858l-158 -882h-422l156 882zM1021 1869l253 327l125 -127l-329 -241z" />
<glyph unicode="&#xde;" horiz-adv-x="1398" d="M149 0l307 1740h421l-51 -292h139q252 0 402.5 -140t150.5 -373q0 -184 -82.5 -315.5t-234 -199t-360.5 -67.5h-210l-61 -353h-421zM697 726h190q88 0 146.5 50t58.5 143q0 66 -42.5 111t-111.5 45h-178z" />
<glyph unicode="&#xdf;" horiz-adv-x="1661" d="M198 772l60 349h137l21 127q42 241 205.5 366.5t431.5 125.5q121 0 221.5 -26.5t175.5 -78t117 -133t42 -186.5q0 -71 -22.5 -126t-60 -91.5t-93.5 -65.5q29 -7 57 -18.5t59 -32t57 -51.5t47 -71.5t33 -98t12 -124.5q0 -162 -44.5 -284.5t-127 -199.5t-195 -115 t-254.5 -38h-258l53 324h151q34 0 65 6.5t61.5 20t55.5 37t44 55.5t29.5 77.5t10.5 100.5q0 80 -36.5 130.5t-106.5 73.5t-176 23l51 296q34 0 59 2.5t52 11t44.5 24t28.5 42t11 62.5q0 64 -45 98t-127 34q-88 0 -141 -55t-68 -147l-214 -1216h-421l134 772h-136z" />
<glyph unicode="&#xe0;" horiz-adv-x="1468" d="M173 502q0 94 25 184t78.5 171.5t129 143t183.5 98t234 36.5q213 0 328 -87l16 82h373l-200 -1130h-373l12 70q-54 -44 -127 -69t-187 -25q-94 0 -175 29t-138.5 78.5t-98.5 116.5t-60.5 143.5t-19.5 158.5zM575 1645l151 151l302 -387l-65 -69zM588 546q0 -57 23.5 -105 t75.5 -80.5t125 -32.5q59 0 108.5 22t80.5 58.5t47.5 80.5t16.5 91q0 56 -23.5 104.5t-75.5 80.5t-125 32q-59 0 -108.5 -22t-80.5 -58t-47.5 -80t-16.5 -91z" />
<glyph unicode="&#xe1;" horiz-adv-x="1468" d="M173 502q0 94 25 184t78.5 171.5t129 143t183.5 98t234 36.5q213 0 328 -87l16 82h373l-200 -1130h-373l12 70q-54 -44 -127 -69t-187 -25q-94 0 -175 29t-138.5 78.5t-98.5 116.5t-60.5 143.5t-19.5 158.5zM588 546q0 -57 23.5 -105t75.5 -80.5t125 -32.5q59 0 108.5 22 t80.5 58.5t47.5 80.5t16.5 91q0 56 -23.5 104.5t-75.5 80.5t-125 32q-59 0 -108.5 -22t-80.5 -58t-47.5 -80t-16.5 -91zM784 1409l305 387l151 -151l-392 -290z" />
<glyph unicode="&#xe2;" horiz-adv-x="1468" d="M173 502q0 94 25 184t78.5 171.5t129 143t183.5 98t234 36.5q213 0 328 -87l16 82h373l-200 -1130h-373l12 70q-54 -44 -127 -69t-187 -25q-94 0 -175 29t-138.5 78.5t-98.5 116.5t-60.5 143.5t-19.5 158.5zM588 546q0 -57 23.5 -105t75.5 -80.5t125 -32.5q59 0 108.5 22 t80.5 58.5t47.5 80.5t16.5 91q0 56 -23.5 104.5t-75.5 80.5t-125 32q-59 0 -108.5 -22t-80.5 -58t-47.5 -80t-16.5 -91zM605 1386l323 328h88l254 -328l-59 -53l-253 174l-295 -174z" />
<glyph unicode="&#xe3;" horiz-adv-x="1468" d="M173 502q0 94 25 184t78.5 171.5t129 143t183.5 98t234 36.5q213 0 328 -87l16 82h373l-200 -1130h-373l12 70q-54 -44 -127 -69t-187 -25q-94 0 -175 29t-138.5 78.5t-98.5 116.5t-60.5 143.5t-19.5 158.5zM468 1470q28 33 54.5 56.5t63 45t83 32t103.5 10.5 q41 0 80.5 -9t63 -18t54.5 -25q3 -1 16.5 -9t17 -10t15.5 -8.5t17.5 -8.5t17 -7t19.5 -6.5t19 -4t22 -3.5t24 -1q48 0 86 15t60 33.5t51 51.5l100 -97q-28 -34 -54.5 -57.5t-64 -44.5t-86 -31.5t-109.5 -10.5t-104 14t-86 39q-19 12 -28.5 17.5t-27.5 14.5t-33 13t-37 7.5 t-47 3.5q-31 0 -57 -6t-41.5 -12t-35.5 -23.5t-27.5 -25.5t-28.5 -33zM588 546q0 -57 23.5 -105t75.5 -80.5t125 -32.5q59 0 108.5 22t80.5 58.5t47.5 80.5t16.5 91q0 56 -23.5 104.5t-75.5 80.5t-125 32q-59 0 -108.5 -22t-80.5 -58t-47.5 -80t-16.5 -91z" />
<glyph unicode="&#xe4;" horiz-adv-x="1468" d="M173 502q0 94 25 184t78.5 171.5t129 143t183.5 98t234 36.5q213 0 328 -87l16 82h373l-200 -1130h-373l12 70q-54 -44 -127 -69t-187 -25q-94 0 -175 29t-138.5 78.5t-98.5 116.5t-60.5 143.5t-19.5 158.5zM553 1523q0 85 55.5 144t151.5 59q52 0 90.5 -23t58 -62 t19.5 -88t-20.5 -91.5t-66.5 -72t-110 -29.5q-83 0 -130.5 48t-47.5 115zM588 546q0 -57 23.5 -105t75.5 -80.5t125 -32.5q59 0 108.5 22t80.5 58.5t47.5 80.5t16.5 91q0 56 -23.5 104.5t-75.5 80.5t-125 32q-59 0 -108.5 -22t-80.5 -58t-47.5 -80t-16.5 -91zM1035 1523 q0 85 55.5 144t151.5 59q39 0 71 -13.5t53.5 -36.5t33 -55t11.5 -68q0 -49 -20.5 -91.5t-66.5 -72t-110 -29.5q-83 0 -131 48t-48 115z" />
<glyph unicode="&#xe5;" horiz-adv-x="1468" d="M173 502q0 94 25 184t78.5 171.5t129 143t183.5 98t234 36.5q213 0 328 -87l16 82h373l-200 -1130h-373l12 70q-54 -44 -127 -69t-187 -25q-94 0 -175 29t-138.5 78.5t-98.5 116.5t-60.5 143.5t-19.5 158.5zM588 546q0 -57 23.5 -105t75.5 -80.5t125 -32.5q59 0 108.5 22 t80.5 58.5t47.5 80.5t16.5 91q0 56 -23.5 104.5t-75.5 80.5t-125 32q-59 0 -108.5 -22t-80.5 -58t-47.5 -80t-16.5 -91zM697 1463q0 49 18.5 96t52.5 85t87.5 61t119.5 23q56 0 101.5 -18.5t74 -49.5t43.5 -69.5t15 -81.5q0 -48 -18.5 -94t-53 -83.5t-89.5 -60.5t-122 -23 q-57 0 -101.5 18t-71.5 48.5t-41.5 68t-14.5 80.5zM779 1474q0 -61 41.5 -104.5t117.5 -43.5q58 0 101 26t63.5 64.5t20.5 82.5q0 64 -41 107t-119 43q-85 0 -134.5 -52.5t-49.5 -122.5z" />
<glyph unicode="&#xe6;" horiz-adv-x="2368" d="M173 502q0 94 25 184t78.5 171.5t129 143t183.5 98t234 36.5q213 0 328 -87l16 82h373l-5 -21q19 8 43.5 16.5t51.5 15t55 10.5t50 4q118 0 216.5 -31t165.5 -84t114 -123.5t68 -147.5t21 -157q0 -63 -15 -135h-787q0 -100 42 -150t146 -50q46 0 79.5 7.5t54 22 t32.5 28.5t21 33h374q-14 -40 -29 -74.5t-40.5 -76t-56.5 -75t-76.5 -66t-99.5 -54.5t-127.5 -35.5t-158.5 -13.5q-193 0 -328 88l-11 -61h-373l12 70q-54 -44 -127 -69t-187 -25q-94 0 -175 29t-138.5 78.5t-98.5 116.5t-60.5 143.5t-19.5 158.5zM588 546q0 -57 23.5 -105 t75.5 -80.5t125 -32.5q59 0 108.5 22t80.5 58.5t47.5 80.5t16.5 91q0 56 -23.5 104.5t-75.5 80.5t-125 32q-59 0 -108.5 -22t-80.5 -58t-47.5 -80t-16.5 -91zM1545 719h369q0 28 -8.5 53t-26.5 48.5t-54.5 37.5t-87.5 14q-48 0 -85 -14t-58.5 -37.5t-32.5 -48.5t-16 -53z " />
<glyph unicode="&#xe7;" horiz-adv-x="1032" d="M142 488q0 95 25.5 187t79.5 175.5t128.5 147t180.5 100.5t228 37q198 0 351 -65l-63 -366q-31 18 -47.5 26.5t-48.5 20t-69.5 16.5t-85.5 5q-55 0 -101 -20.5t-74.5 -54t-44.5 -74.5t-16 -84q0 -79 50.5 -133.5t146.5 -54.5q79 0 130 19.5t111 60.5l-65 -375 q-114 -77 -293 -83l-32 -73q37 -20 56.5 -56t19.5 -76q0 -74 -52.5 -112.5t-128.5 -38.5q-82 0 -175 51l49 130q49 -28 81 -28q27 0 42.5 17.5t15.5 44.5q0 35 -46 63l42 88q-97 16 -173.5 63.5t-124.5 116t-72.5 151.5t-24.5 174z" />
<glyph unicode="&#xe8;" horiz-adv-x="1317" d="M144 534q0 94 25 183t77.5 168.5t126 139.5t177.5 95t225 35q118 0 216.5 -31t165.5 -84t113.5 -123.5t68 -147.5t21.5 -157q0 -63 -15 -135h-787q0 -100 41.5 -150t146.5 -50q45 0 79 7.5t54.5 22t32.5 28.5t21 33h374q-14 -40 -29 -74.5t-41 -76t-56.5 -75t-76 -66 t-99.5 -54.5t-127.5 -35.5t-158.5 -13.5q-113 0 -208.5 31t-162 84t-113.5 125t-69 153t-22 168zM451 1645l151 151l302 -387l-65 -69zM585 719h368q0 22 -4.5 42t-16.5 41t-31.5 36t-51 24.5t-72.5 9.5q-49 0 -85.5 -14t-57.5 -38t-32.5 -48.5t-16.5 -52.5z" />
<glyph unicode="&#xe9;" horiz-adv-x="1317" d="M144 534q0 94 25 183t77.5 168.5t126 139.5t177.5 95t225 35q118 0 216.5 -31t165.5 -84t113.5 -123.5t68 -147.5t21.5 -157q0 -63 -15 -135h-787q0 -100 41.5 -150t146.5 -50q45 0 79 7.5t54.5 22t32.5 28.5t21 33h374q-14 -40 -29 -74.5t-41 -76t-56.5 -75t-76 -66 t-99.5 -54.5t-127.5 -35.5t-158.5 -13.5q-113 0 -208.5 31t-162 84t-113.5 125t-69 153t-22 168zM585 719h368q0 22 -4.5 42t-16.5 41t-31.5 36t-51 24.5t-72.5 9.5q-49 0 -85.5 -14t-57.5 -38t-32.5 -48.5t-16.5 -52.5zM746 1409l305 387l151 -151l-393 -290z" />
<glyph unicode="&#xea;" horiz-adv-x="1317" d="M144 534q0 94 25 183t77.5 168.5t126 139.5t177.5 95t225 35q118 0 216.5 -31t165.5 -84t113.5 -123.5t68 -147.5t21.5 -157q0 -63 -15 -135h-787q0 -100 41.5 -150t146.5 -50q45 0 79 7.5t54.5 22t32.5 28.5t21 33h374q-14 -40 -29 -74.5t-41 -76t-56.5 -75t-76 -66 t-99.5 -54.5t-127.5 -35.5t-158.5 -13.5q-113 0 -208.5 31t-162 84t-113.5 125t-69 153t-22 168zM509 1386l324 328h90l254 -328l-61 -53l-253 174l-293 -174zM585 719h368q0 22 -4.5 42t-16.5 41t-31.5 36t-51 24.5t-72.5 9.5q-49 0 -85.5 -14t-57.5 -38t-32.5 -48.5 t-16.5 -52.5z" />
<glyph unicode="&#xeb;" horiz-adv-x="1317" d="M144 534q0 94 25 183t77.5 168.5t126 139.5t177.5 95t225 35q118 0 216.5 -31t165.5 -84t113.5 -123.5t68 -147.5t21.5 -157q0 -63 -15 -135h-787q0 -100 41.5 -150t146.5 -50q45 0 79 7.5t54.5 22t32.5 28.5t21 33h374q-14 -40 -29 -74.5t-41 -76t-56.5 -75t-76 -66 t-99.5 -54.5t-127.5 -35.5t-158.5 -13.5q-113 0 -208.5 31t-162 84t-113.5 125t-69 153t-22 168zM461 1523q0 85 55 144t152 59q51 0 89.5 -23t58 -62t19.5 -88t-20 -91.5t-66 -72t-110 -29.5q-83 0 -130.5 48t-47.5 115zM585 719h368q0 22 -4.5 42t-16.5 41t-31.5 36 t-51 24.5t-72.5 9.5q-49 0 -85.5 -14t-57.5 -38t-32.5 -48.5t-16.5 -52.5zM944 1523q0 85 55 144t152 59q77 0 122.5 -49t45.5 -124q0 -36 -12.5 -69.5t-36 -61.5t-62.5 -45t-87 -17q-83 0 -130 48t-47 115z" />
<glyph unicode="&#xec;" horiz-adv-x="642" d="M161 0l200 1121h421l-197 -1121h-424zM207 1645l151 151l302 -387l-65 -69z" />
<glyph unicode="&#xed;" horiz-adv-x="642" d="M161 0l200 1121h421l-197 -1121h-424zM526 1409l305 387l151 -151l-392 -290z" />
<glyph unicode="&#xee;" horiz-adv-x="642" d="M161 0l200 1121h421l-197 -1121h-424zM265 1386l325 328h89l254 -328l-61 -53l-253 174l-293 -174z" />
<glyph unicode="&#xef;" horiz-adv-x="642" d="M161 0l200 1121h421l-197 -1121h-424zM178 1523q0 85 55.5 144t152.5 59q76 0 121.5 -49t45.5 -124q0 -49 -20.5 -91.5t-66.5 -72t-110 -29.5q-83 0 -130.5 48t-47.5 115zM660 1523q0 85 55.5 144t152.5 59q76 0 121.5 -49t45.5 -124q0 -49 -20 -91.5t-66 -72t-110 -29.5 q-83 0 -131 48t-48 115z" />
<glyph unicode="&#xf0;" horiz-adv-x="1335" d="M161 524q0 93 26 184t80.5 172t130.5 142.5t183 97t231 35.5q57 0 109 -7q-76 182 -205 287l-288 -180l-153 98l290 187q-188 111 -367 171l188 185q258 -82 435 -198l279 171l153 -99l-266 -164q200 -134 307.5 -391t107.5 -608q0 -98 -27 -191t-82.5 -174t-132.5 -142 t-184.5 -96.5t-231.5 -35.5q-97 0 -180.5 21.5t-146.5 59.5t-112.5 90t-80.5 114.5t-47 130.5t-16 140zM558 549q0 -92 55 -156.5t155 -64.5q55 0 100 22t73.5 57.5t43.5 79.5t15 90q0 58 -22 107t-70.5 81t-114.5 32q-56 0 -101.5 -21.5t-74 -57t-44 -79.5t-15.5 -90z" />
<glyph unicode="&#xf1;" horiz-adv-x="1417" d="M107 0l212 1121h409l-19 -102q54 55 134 88t213 33q183 0 292.5 -104t109.5 -290q0 -44 -13 -125l-110 -621h-423l107 612q4 21 4 63q0 52 -16.5 91t-52 62t-86.5 23q-45 0 -82 -14t-61 -35.5t-41.5 -51.5t-27 -58.5t-15.5 -60.5l-113 -631h-421zM434 1470q19 22 36 39 t38 34t44.5 29t52 22t62 15t72.5 5q41 0 80.5 -9t62 -18t53.5 -25q2 -1 15 -8.5t15.5 -9t14.5 -7.5l16 -8t14.5 -7t17 -6.5t17 -4.5t19 -4t19 -2t21.5 -1q37 0 66.5 7t53.5 22.5t40 30.5t38 40l100 -97q-28 -34 -55 -57.5t-64.5 -44.5t-86.5 -31.5t-110 -10.5t-103 14 t-86 39q-30 19 -48 28.5t-51.5 18.5t-73.5 9q-37 0 -64.5 -6t-50 -21.5t-34.5 -27.5t-34 -38q-2 -1 -2.5 -2t-2 -2.5l-2.5 -2.5z" />
<glyph unicode="&#xf2;" horiz-adv-x="1335" d="M161 524q0 93 26 184t80.5 172t130.5 142.5t183 97t231 35.5q81 0 154 -15.5t131 -44.5t106.5 -69t83.5 -88.5t59 -103.5t35.5 -114t11.5 -120q0 -98 -26 -190t-80 -172.5t-130 -140.5t-182.5 -94.5t-230.5 -34.5q-97 0 -180.5 21.5t-146.5 59.5t-112.5 90t-80.5 114.5 t-47 130.5t-16 140zM524 1645l153 151l302 -387l-67 -69zM558 549q0 -92 55 -156.5t155 -64.5q55 0 100 22t73.5 57.5t43.5 79.5t15 90q0 58 -22 107t-70.5 81t-114.5 32q-56 0 -101.5 -21.5t-74 -57t-44 -79.5t-15.5 -90z" />
<glyph unicode="&#xf3;" horiz-adv-x="1335" d="M161 524q0 93 26 184t80.5 172t130.5 142.5t183 97t231 35.5q81 0 154 -15.5t131 -44.5t106.5 -69t83.5 -88.5t59 -103.5t35.5 -114t11.5 -120q0 -98 -26 -190t-80 -172.5t-130 -140.5t-182.5 -94.5t-230.5 -34.5q-97 0 -180.5 21.5t-146.5 59.5t-112.5 90t-80.5 114.5 t-47 130.5t-16 140zM558 549q0 -92 55 -156.5t155 -64.5q55 0 100 22t73.5 57.5t43.5 79.5t15 90q0 58 -22 107t-70.5 81t-114.5 32q-56 0 -101.5 -21.5t-74 -57t-44 -79.5t-15.5 -90zM765 1409l305 387l151 -151l-393 -290z" />
<glyph unicode="&#xf4;" horiz-adv-x="1335" d="M161 524q0 93 26 184t80.5 172t130.5 142.5t183 97t231 35.5q81 0 154 -15.5t131 -44.5t106.5 -69t83.5 -88.5t59 -103.5t35.5 -114t11.5 -120q0 -98 -26 -190t-80 -172.5t-130 -140.5t-182.5 -94.5t-230.5 -34.5q-97 0 -180.5 21.5t-146.5 59.5t-112.5 90t-80.5 114.5 t-47 130.5t-16 140zM534 1386l324 328h90l254 -328l-62 -53l-253 174l-292 -174zM558 549q0 -92 55 -156.5t155 -64.5q55 0 100 22t73.5 57.5t43.5 79.5t15 90q0 58 -22 107t-70.5 81t-114.5 32q-56 0 -101.5 -21.5t-74 -57t-44 -79.5t-15.5 -90z" />
<glyph unicode="&#xf5;" horiz-adv-x="1335" d="M161 524q0 93 26 184t80.5 172t130.5 142.5t183 97t231 35.5q81 0 154 -15.5t131 -44.5t106.5 -69t83.5 -88.5t59 -103.5t35.5 -114t11.5 -120q0 -98 -26 -190t-80 -172.5t-130 -140.5t-182.5 -94.5t-230.5 -34.5q-97 0 -180.5 21.5t-146.5 59.5t-112.5 90t-80.5 114.5 t-47 130.5t-16 140zM428 1470q29 33 55.5 56.5t62.5 45t83 32t104 10.5q41 0 80.5 -9t62.5 -18t55 -25q2 -1 14.5 -8.5t15.5 -9t14.5 -7.5t15.5 -8t15 -7t17 -6.5t16.5 -4.5t19 -4t19.5 -2t22 -1q48 0 86 15t60 33.5t51 51.5l100 -97q-28 -34 -55 -57.5t-64.5 -44.5 t-86.5 -31.5t-109 -10.5q-61 0 -103.5 14t-86.5 39q-29 19 -47 28.5t-52 18.5t-74 9q-31 0 -57 -6t-41.5 -12t-35.5 -23.5t-27.5 -25.5t-29.5 -33zM558 549q0 -92 55 -156.5t155 -64.5q55 0 100 22t73.5 57.5t43.5 79.5t15 90q0 58 -22 107t-70.5 81t-114.5 32 q-56 0 -101.5 -21.5t-74 -57t-44 -79.5t-15.5 -90z" />
<glyph unicode="&#xf6;" horiz-adv-x="1335" d="M161 524q0 93 26 184t80.5 172t130.5 142.5t183 97t231 35.5q81 0 154 -15.5t131 -44.5t106.5 -69t83.5 -88.5t59 -103.5t35.5 -114t11.5 -120q0 -98 -26 -190t-80 -172.5t-130 -140.5t-182.5 -94.5t-230.5 -34.5q-97 0 -180.5 21.5t-146.5 59.5t-112.5 90t-80.5 114.5 t-47 130.5t-16 140zM463 1523q0 85 55 144t152 59q51 0 90 -23t59 -62t20 -88t-20.5 -91.5t-67 -72t-110.5 -29.5q-83 0 -130.5 48t-47.5 115zM558 549q0 -92 55 -156.5t155 -64.5q55 0 100 22t73.5 57.5t43.5 79.5t15 90q0 58 -22 107t-70.5 81t-114.5 32 q-56 0 -101.5 -21.5t-74 -57t-44 -79.5t-15.5 -90zM946 1523q0 85 55 144t152 59q77 0 122.5 -49t45.5 -124q0 -49 -20.5 -91.5t-67 -72t-110.5 -29.5q-83 0 -130 48t-47 115z" />
<glyph unicode="&#xf7;" horiz-adv-x="1030" d="M244 595l29 173h746l-30 -173h-745zM353 209q0 50 23.5 96.5t73 78.5t113.5 32q93 0 141.5 -50t48.5 -122q0 -32 -7.5 -62.5t-24.5 -58t-41.5 -48.5t-60 -33t-78.5 -12q-93 0 -140.5 50.5t-47.5 128.5zM502 1146q0 49 23.5 95t73 78t113.5 32q93 0 141.5 -50.5 t48.5 -123.5q0 -40 -13 -77t-38 -68.5t-66.5 -50t-94.5 -18.5q-63 0 -106.5 26t-62.5 66t-19 91z" />
<glyph unicode="&#xf8;" horiz-adv-x="1335" d="M161 524q0 93 26 184t80.5 172t130.5 142.5t183 97t231 35.5q169 0 299 -69l78 103h156l-129 -175q87 -77 132 -185.5t45 -228.5q0 -98 -26 -190t-80 -172.5t-130 -140.5t-182.5 -94.5t-230.5 -34.5q-157 0 -283 59l-68 -83h-156l116 149q-95 78 -143.5 190.5 t-48.5 240.5zM558 549q0 -92 55 -156.5t155 -64.5q55 0 100 22t73.5 57.5t43.5 79.5t15 90q0 58 -22 107t-70.5 81t-114.5 32q-56 0 -101.5 -21.5t-74 -57t-44 -79.5t-15.5 -90z" />
<glyph unicode="&#xf9;" horiz-adv-x="1347" d="M202 405q0 58 10 114l107 602h422l-113 -624q-4 -28 -4 -44q0 -61 33.5 -96.5t102.5 -35.5q70 0 111.5 42t51.5 100l117 658h423l-133 -744q-33 -182 -196 -293t-410 -111q-245 0 -383.5 113.5t-138.5 318.5zM539 1645l154 151l302 -387l-67 -69z" />
<glyph unicode="&#xfa;" horiz-adv-x="1347" d="M202 405q0 58 10 114l107 602h422l-113 -624q-4 -28 -4 -44q0 -61 33.5 -96.5t102.5 -35.5q70 0 111.5 42t51.5 100l117 658h423l-133 -744q-33 -182 -196 -293t-410 -111q-245 0 -383.5 113.5t-138.5 318.5zM835 1409l303 387l153 -151l-394 -290z" />
<glyph unicode="&#xfb;" horiz-adv-x="1347" d="M202 405q0 58 10 114l107 602h422l-113 -624q-4 -28 -4 -44q0 -61 33.5 -96.5t102.5 -35.5q70 0 111.5 42t51.5 100l117 658h423l-133 -744q-33 -182 -196 -293t-410 -111q-245 0 -383.5 113.5t-138.5 318.5zM590 1386l322 328h90l253 -328l-58 -53l-253 174l-295 -174z " />
<glyph unicode="&#xfc;" horiz-adv-x="1347" d="M202 405q0 58 10 114l107 602h422l-113 -624q-4 -28 -4 -44q0 -61 33.5 -96.5t102.5 -35.5q70 0 111.5 42t51.5 100l117 658h423l-133 -744q-33 -182 -196 -293t-410 -111q-245 0 -383.5 113.5t-138.5 318.5zM497 1523q0 85 55.5 144t151.5 59q77 0 122.5 -49t45.5 -124 q0 -36 -12 -69.5t-35.5 -61.5t-62.5 -45t-87 -17q-83 0 -130.5 48t-47.5 115zM979 1523q0 85 55.5 144t151.5 59q52 0 90.5 -23t58.5 -62t20 -88t-20.5 -91.5t-66.5 -72t-110 -29.5q-83 0 -131 48t-48 115z" />
<glyph unicode="&#xfd;" horiz-adv-x="1554" d="M119 -502l483 665l-365 967h419l221 -599l430 599h421l-1187 -1632h-422zM858 1409l305 387l151 -151l-393 -290z" />
<glyph unicode="&#xfe;" horiz-adv-x="1458" d="M58 -502l412 2306h374l-135 -746q118 93 293 93q74 0 140.5 -15.5t119.5 -44t97 -67.5t76 -86t54 -101t33 -111t11 -117q0 -92 -25 -180.5t-76.5 -168t-124 -139.5t-176 -95.5t-224.5 -35.5q-76 0 -134.5 7.5t-102.5 23.5t-71 30.5t-62 38.5l-103 -592h-376zM633 556 q0 -57 24 -105t76.5 -80t124.5 -32q60 0 109 22t80 58t47.5 80.5t16.5 90.5q0 42 -14 80.5t-41 69t-71 49t-98 18.5q-60 0 -109.5 -22t-80 -58t-47.5 -80.5t-17 -90.5z" />
<glyph unicode="&#xff;" horiz-adv-x="1554" d="M119 -502l483 665l-365 967h419l221 -599l430 599h421l-1187 -1632h-422zM619 1523q0 85 55 144t152 59q77 0 123 -49t46 -124q0 -49 -20.5 -91.5t-67 -72t-110.5 -29.5q-83 0 -130.5 48t-47.5 115zM1102 1523q0 85 55 144t152 59q77 0 122.5 -49t45.5 -124 q0 -49 -20.5 -91.5t-67 -72t-110.5 -29.5q-83 0 -130 48t-47 115z" />
<glyph unicode="&#x131;" horiz-adv-x="642" d="M161 0l200 1121h421l-197 -1121h-424z" />
<glyph unicode="&#x141;" horiz-adv-x="1130" d="M70 483l60 321l179 108l147 828h421l-102 -577l195 116l-58 -321l-193 -114l-82 -472h465l-64 -372h-889l104 593z" />
<glyph unicode="&#x142;" horiz-adv-x="744" d="M83 483l59 321l179 110l159 890h422l-114 -649l191 115l-58 -322l-190 -115l-146 -833h-424l104 593z" />
<glyph unicode="&#x152;" horiz-adv-x="2597" d="M163 814q0 117 28 231t81.5 220t137.5 196t189 156.5t243 104.5t293 38q221 0 391 -73t285 -203l44 256h887l-56 -322h-461l-65 -365h423l-55 -325h-423l-72 -404h460l-58 -324h-884l19 117q-225 -136 -535 -136q-172 0 -316.5 45.5t-246 124t-172 185t-104 227.5 t-33.5 251zM602 823q0 -91 29 -171t85 -143t146.5 -100t204.5 -37q98 0 181 29.5t142.5 80.5t101.5 120t62 147.5t20 162.5q0 66 -17.5 130.5t-55.5 122.5t-91.5 102t-130.5 70t-168 26q-54 0 -105 -9.5t-94 -27t-81.5 -42.5t-69.5 -56t-56.5 -67t-44.5 -76t-32 -83 t-19.5 -88t-6.5 -91z" />
<glyph unicode="&#x153;" horiz-adv-x="2200" d="M161 524q0 93 26 184t80.5 172t130.5 142.5t183 97t231 35.5q251 0 409 -146q170 146 421 146q118 0 216.5 -31t166 -84t114 -123.5t68 -147.5t21.5 -157q0 -69 -15 -135h-787q0 -100 41.5 -150t146.5 -50q45 0 78.5 7.5t54.5 22t32.5 28.5t20.5 33h374 q-13 -40 -28.5 -74.5t-41 -76t-56 -75t-76.5 -66t-100 -54.5t-127.5 -35.5t-158.5 -13.5q-249 0 -404 144q-173 -149 -438 -149q-97 0 -180.5 21.5t-146.5 59.5t-112.5 90t-80.5 114.5t-47 130.5t-16 140zM558 549q0 -92 55 -156.5t155 -64.5q55 0 100 22t73.5 57.5 t43.5 79.5t15 90q0 58 -22 107t-70.5 81t-114.5 32q-56 0 -101.5 -21.5t-74 -57t-44 -79.5t-15.5 -90zM1453 719h368q0 28 -8 53t-26.5 48.5t-55 37.5t-86.5 14q-49 0 -86 -14t-58 -38t-32 -48.5t-16 -52.5z" />
<glyph unicode="&#x160;" horiz-adv-x="1412" d="M86 237l242 284q92 -78 191 -120.5t225 -42.5q109 0 167.5 52t58.5 141q0 75 -50 127.5t-167 77.5q-107 22 -187.5 58t-142.5 91t-93.5 134.5t-31.5 183.5q0 80 28 156.5t84.5 143.5t134.5 117.5t186 79.5t232 29q104 0 187.5 -10.5t151.5 -33t117.5 -47.5t113.5 -65 l-198 -307q-56 34 -95.5 52.5t-95.5 32t-121 13.5q-92 0 -149.5 -39t-57.5 -115q0 -45 41 -83t125 -55q481 -103 481 -507q0 -283 -198 -441t-553 -158q-358 0 -626 251zM724 2162l55 45l230 -155l263 155l54 -45l-291 -293h-82z" />
<glyph unicode="&#x161;" horiz-adv-x="1044" d="M75 144l164 212q132 -110 273 -110q134 0 134 86q0 82 -127 102q-153 26 -230 108.5t-77 210.5q0 34 6 68.5t22.5 73t41.5 72.5t65.5 66t92 54.5t124.5 36.5t160 14q238 0 404 -105l-124 -226q-58 35 -108.5 52.5t-118.5 17.5q-53 0 -86 -20t-33 -57q0 -19 9 -32 t32.5 -23.5t63.5 -16.5q160 -26 243 -116.5t83 -239.5q0 -84 -30.5 -156t-88 -127.5t-149 -87t-207.5 -31.5q-105 0 -187 12t-145.5 36.5t-109.5 53.5t-97 72zM407 1665l58 53l249 -188l300 188l58 -53l-323 -327h-89z" />
<glyph unicode="&#x178;" horiz-adv-x="1570" d="M353 1740h475l205 -454l349 454h497l-702 -858l-158 -882h-422l156 882zM760 1967q0 44 19 80t57 58.5t90 22.5q62 0 98 -39.5t36 -100t-40.5 -107t-115.5 -46.5q-67 0 -105.5 39t-38.5 93zM1186 1967q0 68 45 114.5t122 46.5q61 0 97 -39.5t36 -100.5q0 -38 -16.5 -72 t-53.5 -57.5t-88 -23.5q-44 0 -77 19t-49 48.5t-16 64.5z" />
<glyph unicode="&#x17d;" horiz-adv-x="1607" d="M2 0l1063 1391h-695l61 349h1394l-1065 -1391h785l-63 -349h-1480zM833 2162l57 45l229 -155l263 155l53 -45l-289 -293h-83z" />
<glyph unicode="&#x17e;" horiz-adv-x="1305" d="M68 0l625 782h-432l60 348h1139l-629 -781h455l-63 -349h-1155zM577 1665l60 53l247 -188l300 188l58 -53l-323 -327h-88z" />
<glyph unicode="&#x192;" horiz-adv-x="1614" d="M137 0l235 1342h1344l-237 -1342h-1342z" />
<glyph unicode="&#x2c6;" horiz-adv-x="944" d="M156 1386l324 328h90l253 -328l-60 -53l-254 174l-292 -174z" />
<glyph unicode="&#x2c7;" horiz-adv-x="905" d="M188 1665l58 53l249 -188l300 188l58 -53l-325 -327h-87z" />
<glyph unicode="&#x2d8;" horiz-adv-x="744" d="M83 1562l75 68q81 -95 207 -95q127 0 261 93l62 -73q-72 -61 -156.5 -94t-166.5 -33q-168 0 -282 134z" />
<glyph unicode="&#x2d9;" horiz-adv-x="460" d="M75 1540q0 58 45.5 108t118.5 50q72 0 109.5 -38.5t37.5 -94.5q0 -43 -17.5 -79.5t-55.5 -61.5t-92 -25q-73 0 -109.5 39t-36.5 102z" />
<glyph unicode="&#x2da;" horiz-adv-x="769" d="M186 1463q0 39 11 77t34.5 72t55.5 60t77.5 41t98.5 15q56 0 102 -18.5t74 -49.5t43 -69.5t15 -81.5q0 -48 -18.5 -94t-53 -83.5t-89.5 -60.5t-122 -23q-56 0 -101 18t-72 48.5t-41 68t-14 80.5zM268 1474q0 -61 41 -104.5t117 -43.5q58 0 101.5 26t64 64.5t20.5 82.5 q0 64 -41.5 107t-119.5 43q-84 0 -133.5 -52.5t-49.5 -122.5z" />
<glyph unicode="&#x2db;" horiz-adv-x="633" d="M114 -198q0 65 23 107t70 91h149q-46 -40 -69.5 -77.5t-23.5 -80.5q0 -39 25 -60t70 -21q43 0 95 22q38 15 54 15q14 0 22 -7.5t8 -20.5q0 -14 -13.5 -36.5t-39 -47.5t-70.5 -43t-100 -18q-84 0 -142 48t-58 129z" />
<glyph unicode="&#x2dc;" horiz-adv-x="1142" d="M88 1470q18 22 35 39t38.5 34t45 29t51.5 22t62 15t73 5q41 0 80.5 -9t62.5 -18t54 -25q4 -2 15 -8.5t15.5 -9t14.5 -8t15 -7.5t15 -6.5t16.5 -6.5t16.5 -5t19 -4t19.5 -2t21.5 -1q37 0 66.5 7t53 22.5t40 30.5t38.5 40l100 -97q-29 -34 -55.5 -57.5t-63.5 -44.5 t-86 -31.5t-110 -10.5t-104 14t-86 39q-30 19 -48 28.5t-52 18.5t-74 9q-37 0 -64 -6t-49.5 -21.5t-35 -27.5t-34.5 -38l-2 -2t-2 -2.5t-2 -2.5z" />
<glyph unicode="&#x2dd;" horiz-adv-x="825" d="M124 1345l151 469l195 -88l-268 -407zM421 1345l154 469l193 -88l-268 -407z" />
<glyph unicode="&#x3c0;" d="M105 126l27 160l465 486h178l-87 -502h102l-27 -144h-100l-24 -138h-190l23 138h-367zM198 858l11 88h661l-10 -88h-662zM277 1246h179q4 -32 34 -55.5t80 -23.5q58 0 94 32.5t36 91.5q0 53 -30 76.5t-88 23.5l15 88q70 2 104 22t34 76q0 38 -27.5 60.5t-74.5 22.5 q-101 0 -117 -90h-174q3 35 14.5 67.5t35 64.5t57 55t84 37.5t111.5 14.5q128 0 205 -59t77 -161q0 -61 -24.5 -98.5t-75.5 -60.5q61 -35 61 -158q0 -115 -82.5 -189t-236.5 -74q-46 0 -86 9.5t-70 26.5t-54.5 39.5t-40.5 49.5t-26 55t-14 57zM300 270h200l44 256z" />
<glyph unicode="&#x2000;" horiz-adv-x="1129" />
<glyph unicode="&#x2001;" horiz-adv-x="2259" />
<glyph unicode="&#x2002;" horiz-adv-x="1129" />
<glyph unicode="&#x2003;" horiz-adv-x="2259" />
<glyph unicode="&#x2004;" horiz-adv-x="753" />
<glyph unicode="&#x2005;" horiz-adv-x="564" />
<glyph unicode="&#x2006;" horiz-adv-x="376" />
<glyph unicode="&#x2007;" horiz-adv-x="376" />
<glyph unicode="&#x2008;" horiz-adv-x="282" />
<glyph unicode="&#x2009;" horiz-adv-x="451" />
<glyph unicode="&#x200a;" horiz-adv-x="125" />
<glyph unicode="&#x2010;" horiz-adv-x="981" d="M281 595l45 249h634l-44 -249h-635z" />
<glyph unicode="&#x2011;" horiz-adv-x="981" d="M281 595l45 249h634l-44 -249h-635z" />
<glyph unicode="&#x2012;" horiz-adv-x="981" d="M281 595l45 249h634l-44 -249h-635z" />
<glyph unicode="&#x2013;" horiz-adv-x="1417" d="M256 595l44 249h1109l-46 -249h-1107z" />
<glyph unicode="&#x2014;" horiz-adv-x="2039" d="M256 595l44 249h1742l-46 -249h-1740z" />
<glyph unicode="&#x2018;" horiz-adv-x="535" d="M414 1467q0 34 7 66l54 300h249l-45 -254h-94l-10 -61q-5 -38 -5 -53q0 -34 9 -66t30 -83h-160q-35 86 -35 151z" />
<glyph unicode="&#x2019;" horiz-adv-x="535" d="M414 1316q54 79 79 136.5t38 126.5h-107l44 254h248l-39 -254q-13 -78 -38.5 -137t-78.5 -126h-146z" />
<glyph unicode="&#x201a;" horiz-adv-x="572" d="M188 -263q54 79 79 136.5t38 126.5h-107l44 253h248l-39 -253q-13 -78 -39 -137t-78 -126h-146z" />
<glyph unicode="&#x201c;" horiz-adv-x="893" d="M414 1467q0 34 7 66l54 300h249l-45 -254h-94l-10 -61q-5 -38 -5 -53q0 -34 9 -66t30 -83h-160q-35 86 -35 151zM779 1467q0 28 9 66l53 300h248l-43 -254h-95l-10 -61q-6 -47 -6 -53q0 -34 9.5 -66t30.5 -83h-161q-35 86 -35 151z" />
<glyph unicode="&#x201d;" horiz-adv-x="921" d="M439 1316q54 79 79 136.5t38 126.5h-107l44 254h248l-39 -254q-13 -78 -38.5 -137t-78.5 -126h-146zM804 1316q28 41 47 74t32.5 64t22.5 60.5t15 64.5h-107l44 254h249l-40 -254q-12 -78 -38 -137t-78 -126h-147z" />
<glyph unicode="&#x201e;" horiz-adv-x="921" d="M188 -263q54 79 79 136.5t38 126.5h-107l44 253h248l-39 -253q-13 -78 -39 -137t-78 -126h-146zM553 -263q54 79 79 136.5t38 126.5h-107l44 253h249l-40 -253q-12 -78 -38 -137t-78 -126h-147z" />
<glyph unicode="&#x2020;" horiz-adv-x="596" d="M361 1507l11 67h165l38 219h66l-36 -219h163l-12 -67h-163l-137 -751h-66l134 751h-163z" />
<glyph unicode="&#x2021;" horiz-adv-x="596" d="M298 1155l14 68h163l46 259h-163l12 69h164l43 242h69l-44 -242h163l-12 -69h-163l-46 -259h163l-12 -68h-164l-148 -813h-71l151 813h-165z" />
<glyph unicode="&#x2022;" horiz-adv-x="1218" d="M273 641q0 68 18.5 133.5t57.5 124t93.5 102.5t131.5 70t167 26q84 0 155 -23t120 -62t84 -92t51 -112.5t16 -123.5q0 -68 -18.5 -133t-57 -123.5t-93 -102.5t-131.5 -69.5t-167 -25.5q-84 0 -155 22.5t-120.5 61.5t-84.5 92t-51 112.5t-16 122.5z" />
<glyph unicode="&#x2026;" horiz-adv-x="2312" d="M244 188q0 40 16 80t44.5 73.5t74 54t98.5 20.5q105 0 159 -55.5t54 -136.5q0 -35 -8.5 -69t-27.5 -64.5t-46.5 -54t-67 -37t-87.5 -13.5q-104 0 -156.5 57t-52.5 145zM935 188q0 40 16.5 80t45 73.5t74 54t99.5 20.5q105 0 158.5 -55t53.5 -137q0 -35 -9 -69 t-27.5 -64.5t-45.5 -54t-67 -37t-87 -13.5q-104 0 -157.5 57t-53.5 145zM1628 188q0 40 16 80t45 73.5t74.5 54t98.5 20.5q105 0 158.5 -55t53.5 -137q0 -45 -14.5 -86t-42.5 -75.5t-74.5 -55.5t-105.5 -21q-104 0 -156.5 57t-52.5 145z" />
<glyph unicode="&#x202f;" horiz-adv-x="451" />
<glyph unicode="&#x2030;" horiz-adv-x="2556" d="M188 0l1374 1740h224l-1377 -1740h-221zM293 1411q0 49 12.5 97t37 92t62 82t84.5 66.5t108.5 44.5t130.5 16q90 0 161.5 -27.5t115 -74t65.5 -104t22 -121.5q0 -59 -17.5 -116t-53.5 -108t-86.5 -89.5t-121.5 -61.5t-153 -23q-90 0 -162 27.5t-116 73.5t-66.5 104 t-22.5 122zM546 1435q0 -56 37 -96t105 -40q72 0 114 48.5t42 110.5q0 57 -36 96t-104 39q-72 0 -115 -47.5t-43 -110.5zM904 302q0 58 18 114.5t54.5 107t88 89.5t123 61.5t154.5 22.5q90 0 161 -27t114 -73t65 -104t22 -123q0 -58 -17.5 -114t-54 -106.5t-86.5 -89.5 t-120.5 -61.5t-151.5 -22.5q-91 0 -163.5 27t-116.5 73t-67 103.5t-23 122.5zM1158 326q0 -37 15.5 -67.5t48.5 -49.5t77 -19q72 0 114 48t42 108q0 59 -35 98t-101 39q-74 0 -117.5 -47t-43.5 -110zM1796 302q0 58 18 114.5t54.5 107t88 89.5t123.5 61.5t155 22.5 q90 0 160.5 -27t113.5 -73t64.5 -103.5t21.5 -123.5q0 -58 -17.5 -114t-53.5 -106.5t-86 -89.5t-120 -61.5t-151 -22.5q-92 0 -164.5 27t-117 73t-67 103.5t-22.5 122.5zM2049 326q0 -37 15.5 -67.5t48.5 -49.5t78 -19q72 0 114 48t42 108q0 59 -35 98t-101 39 q-49 0 -87 -23t-56.5 -58.5t-18.5 -75.5z" />
<glyph unicode="&#x2039;" horiz-adv-x="856" d="M132 646l33 200l614 402l144 -239l-435 -263l389 -307l-193 -258z" />
<glyph unicode="&#x203a;" horiz-adv-x="856" d="M100 453l480 293l-394 314l179 261l570 -475l-35 -200l-666 -429z" />
<glyph unicode="&#x2044;" horiz-adv-x="1417" d="M-7 -88l1667 1904h321l-1664 -1904h-324z" />
<glyph unicode="&#x205f;" horiz-adv-x="564" />
<glyph unicode="&#x2122;" horiz-adv-x="1023" d="M349 1714l9 44h344l-9 -44h-152l-71 -423h-46l73 423h-148zM595 1294l184 471l86 -374l219 374v-471h-46v299l-194 -326l-79 335l-121 -308h-49z" />
<glyph unicode="&#x2202;" d="M156 214h178q3 -20 16 -37t39 -28.5t60 -11.5q58 0 93 32t35 92q0 53 -29 76.5t-87 23.5l14 88q69 2 104 21.5t35 75.5q0 38 -27.5 60t-74.5 22q-102 0 -117 -89h-176q4 45 22 85t52.5 75.5t93 56.5t134.5 21q129 0 206 -58.5t77 -160.5q0 -61 -24.5 -98t-75.5 -60 q61 -35 61 -158q0 -56 -20 -103.5t-58.5 -83.5t-100.5 -56t-140 -20q-67 0 -121.5 20t-89 54.5t-54.5 75t-25 85.5zM198 858l11 88h661l-10 -88h-662zM451 1012l112 637h-105l25 147h294l-136 -784h-190z" />
<glyph unicode="&#x220f;" d="M149 209h177q4 -31 35 -54t80 -23q58 0 93.5 32.5t35.5 91.5q0 53 -29 76.5t-88 23.5l15 88q69 2 104 21.5t35 75.5q0 26 -12.5 44.5t-35.5 28.5t-54 10q-102 0 -117 -90h-176q4 45 22 85t52.5 75.5t93 56.5t134.5 21q129 0 206 -58.5t77 -160.5q0 -60 -24.5 -97.5 t-75.5 -60.5q61 -35 61 -158q0 -45 -12.5 -84t-38.5 -72.5t-63 -57.5t-89.5 -37t-115.5 -13q-68 0 -122.5 20.5t-88.5 55t-54 75.5t-25 85zM198 858l11 88h661l-10 -88h-662zM275 1019l374 448q44 55 44 112q0 28 -17.5 47t-51.5 19q-36 0 -60.5 -33.5t-32.5 -78.5h-185 q6 38 18 74.5t35.5 73.5t55 65t79 45.5t105.5 17.5q128 0 192 -58t64 -153q0 -28 -7 -56t-16 -49t-26 -48t-29.5 -43.5t-34.5 -43.5l-151 -181h204l-28 -158h-532z" />
<glyph unicode="&#x2211;" d="M102 130l28 158l465 487h177l-88 -502h104l-28 -143h-100l-23 -140h-191l24 140h-368zM198 858l11 88h661l-10 -88h-662zM298 273h199l44 255zM451 1012l112 637h-105l25 147h294l-136 -784h-190z" />
<glyph unicode="&#x2212;" horiz-adv-x="1107" d="M137 595v131h838v-131h-838z" />
<glyph unicode="&#x221a;" horiz-adv-x="1574" d="M214 346l169 310q32 -109 42 -198.5t14 -240.5q71 122 180.5 262t241.5 276.5t275.5 263.5t292.5 234t282 177l-74 -384q-166 -76 -337.5 -185t-336 -243.5t-316 -297t-264.5 -332.5q-9 40 -15 64t-17.5 64.5t-24 69t-29 61t-37.5 57.5t-46 42z" />
<glyph unicode="&#x222b;" horiz-adv-x="1926" d="M132 -5l233 1677h1677l-233 -1677h-1677zM253 105h1458l210 1457h-1458z" />
<glyph unicode="&#x2248;" horiz-adv-x="1888" d="M46 251q0 71 25 133.5t74 113t131 80t187 29.5h197l49 365h-163q-178 0 -273 80t-95 215q0 64 23 123.5t65.5 108.5t113 78t157.5 29q58 0 109 -16.5t94 -51t68 -95t25 -141.5q0 -51 -5 -79l-21 -160h356l26 221q10 84 43 148t82.5 102t108 56.5t124.5 18.5 q87 0 157 -32.5t112 -99t42 -156.5q0 -68 -26 -129t-75.5 -111t-133.5 -79.5t-190 -29.5h-187l-46 -365h160q95 0 167 -25t113.5 -68.5t62 -95.5t20.5 -111q0 -147 -95.5 -239t-260.5 -92q-57 0 -108.5 18t-94 54t-67.5 96.5t-25 138.5q0 18 5 73l20 160h-356l-27 -214 q-11 -89 -42.5 -154.5t-79 -104t-105 -57t-126.5 -18.5q-140 0 -227.5 73.5t-87.5 209.5zM149 251q0 -81 61.5 -135.5t150.5 -54.5q110 0 181 73t89 222l20 160h-161q-88 0 -154 -18.5t-106.5 -53.5t-60.5 -83.5t-20 -109.5zM281 1270q0 -92 68.5 -149.5t206.5 -57.5h163 l20 160q2 19 2 54q0 120 -58 178.5t-159 58.5q-104 0 -173.5 -65.5t-69.5 -178.5zM751 607h356l46 365h-356zM1165 302q0 -60 17.5 -106.5t48 -75t68 -43t80.5 -14.5q112 0 179.5 65t67.5 167q0 48 -16.5 87.5t-49 69.5t-86 47t-123.5 17h-165l-19 -160q-2 -19 -2 -54z M1255 1063h190q43 0 81.5 7t70 20t58 31t46 40.5t33 47.5t20 53t6.5 57q0 37 -13 71.5t-38 64.5t-67.5 48t-96.5 18q-115 0 -183.5 -67.5t-84.5 -202.5z" />
<glyph unicode="&#x2260;" horiz-adv-x="1130" d="M246 321l42 249h268l93 198h-325l44 248h402l61 124h229l-60 -124h114l-44 -248h-191l-95 -198h249l-41 -249h-329l-70 -148h-230l74 148h-191z" />
<glyph unicode="&#x2264;" horiz-adv-x="1081" d="M186 186l44 248h793l-44 -248h-793zM351 1130l849 586l-52 -274l-464 -312l337 -309l-46 -275z" />
<glyph unicode="&#x2265;" horiz-adv-x="1081" d="M186 186l44 248h793l-44 -248h-793zM293 546l49 275l446 309l-354 312l49 274l638 -586z" />
<glyph unicode="&#x25ca;" horiz-adv-x="1317" d="M168 688l548 547l549 -547l-549 -549zM370 684l346 -345l347 345l-347 347z" />
<glyph unicode="&#x25fc;" horiz-adv-x="1120" d="M0 0v1121h1121v-1121h-1121z" />
<glyph unicode="&#xe000;" horiz-adv-x="0" />
<glyph unicode="&#xe001;" horiz-adv-x="0" />
<glyph unicode="&#xe002;" horiz-adv-x="0" />
<glyph unicode="&#xe003;" horiz-adv-x="1924" d="M205 816q0 138 56 245t162.5 168.5t246.5 61.5q139 0 222 -58q58 -39 85 -52.5t61 -13.5q81 0 162 66q75 61 204 61q70 0 142 -21.5t125.5 -60t63.5 -84.5q-47 -35 -77 -63t-59.5 -68t-44 -89.5t-14.5 -110.5q0 -68 21 -127.5t56.5 -102.5t79 -72.5t92.5 -43.5 q-15 -35 -30.5 -68t-38 -76t-48 -81t-56 -77.5t-65.5 -71t-72.5 -57t-82 -39t-89.5 -13.5q-112 0 -179 81q-31 39 -95 39q-67 0 -98 -39q-62 -76 -160 -76q-42 0 -100 31t-121.5 85t-126 133.5t-112 170t-80 202t-30.5 221.5zM1002 1304q0 72 46.5 149t117 127t136.5 50 q14 0 19 -5t5 -16q0 -37 -15.5 -83.5t-43.5 -92t-64 -84t-81.5 -62.5t-90.5 -24q-29 0 -29 41z" />
<glyph unicode="&#xe004;" horiz-adv-x="944" />
</font>
</defs>
</svg>
