<?xml version="1.0" standalone="no"?>
<!DOCTYPE svg PUBLIC "-//W3C//DTD SVG 1.1//EN" "http://www.w3.org/Graphics/SVG/1.1/DTD/svg11.dtd" >
<svg xmlns="http://www.w3.org/2000/svg" xmlns:xlink="http://www.w3.org/1999/xlink" version="1.1">
<metadata></metadata>
<defs>
<font id="sansserifexbflfitalic" horiz-adv-x="1008" >
<font-face units-per-em="2048" ascent="1638" descent="-410" />
<missing-glyph horiz-adv-x="742" />
<glyph unicode="fi" horiz-adv-x="1681" d="M198 0l138 791h-127l55 323h127l36 186q5 26 13.5 51.5t24.5 55.5t37 57.5t53.5 56t71.5 52t93 45t116.5 36t143.5 23t172 8.5q146 0 260 -22t183.5 -56.5t114.5 -81t62 -91.5t17 -93q0 -17 -4 -43l-19 -96h-523l11 71q4 13 4 32t-6 33.5t-21.5 28.5t-46.5 21t-77 7 q-142 0 -168 -141l-25 -140h227l-54 -323h-228l-141 -791h-520zM1032 0l196 1114h520l-193 -1114h-523z" />
<glyph unicode="fl" horiz-adv-x="1640" d="M198 0l138 791h-127l57 323h127l30 170q8 46 26.5 89t50 83t73.5 74.5t99.5 63t126 49t154.5 31.5t184 11q135 0 245 -23.5t182 -63t120.5 -92.5t69.5 -110t21 -118q0 -31 -7 -61l-213 -1217h-523l213 1207q3 11 3 36q0 57 -33 92.5t-106 35.5q-29 0 -53.5 -6t-42.5 -17 t-32 -24.5t-23.5 -30t-15 -32t-7.5 -31.5l-19 -116h227l-56 -323h-228l-141 -791h-520z" />
<glyph unicode=" "  horiz-adv-x="742" />
<glyph unicode="&#x09;" horiz-adv-x="742" />
<glyph unicode="&#xa0;" horiz-adv-x="742" />
<glyph unicode="!" horiz-adv-x="833" d="M225 204q0 47 17.5 91.5t49 81t82 58.5t112.5 22q75 0 129 -32t78.5 -81t24.5 -108q0 -47 -16.5 -91t-48 -80.5t-82.5 -58.5t-114 -22q-75 0 -129 32t-78.5 81t-24.5 107zM259 553l188 1070h523l-187 -1070h-524z" />
<glyph unicode="&#x22;" horiz-adv-x="859" d="M377 1210l50 477h209l-115 -477h-144zM707 1210l52 477h209l-118 -477h-143z" />
<glyph unicode="#" horiz-adv-x="1749" d="M200 609l104 250h287l109 260h-316l119 245h302l115 271h255l-116 -271h294l116 271h254l-116 -271h302l-117 -245h-289l-112 -260h307l-104 -250h-308l-115 -273h-255l116 273h-291l-118 -273h-254l115 273h-284zM844 859h293l111 260h-293z" />
<glyph unicode="$" horiz-adv-x="1408" d="M104 200l169 336q108 -77 203 -119t203 -42q203 0 203 105q0 45 -39.5 71t-119.5 40q-428 73 -428 480q0 60 19 124.5t53.5 125.5t86.5 116t114 96.5t141 67t163 26.5l15 87h272l-13 -91q120 0 222 -38t203 -101l-172 -350q-97 56 -194.5 85t-217.5 29q-55 0 -93.5 -26.5 t-38.5 -75.5q0 -81 154 -107q76 -13 139.5 -38t111 -60.5t82.5 -80t57 -98t33 -113t11 -126.5q0 -103 -37.5 -197t-106 -167t-174 -116t-231.5 -43h-35l-27 -139h-273l25 135q-139 9 -267 67.5t-213 136.5z" />
<glyph unicode="%" horiz-adv-x="1616" d="M278 0l1171 1623h208l-1171 -1623h-208zM308 1317q21 144 120 236q99 91 240 91q174 0 258 -127q71 -107 51 -251t-118 -236q-97 -91 -236 -91q-178 0 -264 127q-71 106 -51 251zM532 1223q18 -76 81 -87q9 -2 19 -2q63 0 99 77q35 74 18 150q-17 77 -80 86q-8 2 -16 2 q-68 0 -104 -77q-35 -73 -17 -149zM993 389q21 144 120 236q99 91 240 91q173 0 258 -127q71 -106 51 -250.5t-118 -236.5q-97 -90 -236 -91q-178 0 -264 127q-71 106 -51 251zM1216 296q19 -77 81 -88q10 -2 19 -2q64 0 100 77q34 74 17 150q-17 77 -80 86q-8 2 -17 2 q-67 0 -103 -77q-35 -73 -17 -148z" />
<glyph unicode="&#x26;" horiz-adv-x="1854" d="M148 382q0 165 97.5 288t325.5 246l-46 82q-45 81 -45 193q0 71 26 139t74.5 124.5t114.5 99t149.5 66.5t174.5 24q519 0 519 -384q0 -34 -11 -68t-26.5 -61.5t-45 -58.5t-52.5 -52t-64 -50.5t-64.5 -45t-67.5 -44.5l-18 -12l127 -174q114 66 232 156l255 -312 q-110 -88 -250 -181l247 -357h-581l-91 128q-32 -18 -54.5 -29t-64.5 -29.5t-85 -30t-98.5 -24t-124 -18.5t-144.5 -6q-99 0 -179 33t-129.5 88t-75 124t-25.5 146zM675 516q0 -39 27 -68.5t64 -29.5q31 0 54.5 5t40 13t35.5 21l-126 179q-95 -44 -95 -120zM932 1267 q0 -36 23 -69l45 -64q8 6 23 16l22.5 15t20 14t19.5 15t16 15t14 16.5t10 17t7 19t2 20.5q0 76 -91 76q-44 0 -77.5 -24t-33.5 -67z" />
<glyph unicode="'" horiz-adv-x="451" d="M377 1210l50 477h209l-115 -477h-144z" />
<glyph unicode="(" horiz-adv-x="729" d="M186 562q0 224 72 443t208.5 408.5t320.5 323.5l170 -180q-215 -221 -334.5 -486.5t-119.5 -534.5q0 -296 152 -564l-195 -181q-138 165 -206 362t-68 409z" />
<glyph unicode=")" horiz-adv-x="718" d="M26 -30q141 146 242.5 312.5t156.5 348t55 360.5q0 295 -166 543l209 203q137 -164 205 -362t68 -409q0 -224 -72 -443t-208 -408.5t-321 -323.5z" />
<glyph unicode="*" horiz-adv-x="833" d="M325 1191q0 45 66 80q79 44 247 80q-55 13 -89 22t-71 23t-62 29q-50 34 -50 69q0 27 15.5 47.5t48.5 20.5q83 0 223 -179q3 -4 4 -5q-3 26 -9 69t-9 71t-3 48q0 70 18 109t62 39q57 0 57 -70q0 -15 -3 -32t-9 -38.5t-11 -37.5t-15 -43t-15 -39t-16.5 -41t-14.5 -35 q14 11 40.5 34t47 41t48.5 40t50 36.5t45.5 24.5t40.5 10q55 0 55 -59q0 -26 -15 -43t-66 -41q-66 -34 -232 -70q159 -41 225 -78q22 -11 35 -29t13 -37q0 -28 -14.5 -48t-50.5 -20q-83 0 -223 178q-3 5 -4 6q1 -14 7.5 -56.5t10 -74.5t3.5 -58q0 -147 -80 -147 q-57 0 -57 70q0 11 1.5 23.5t3.5 23.5t6.5 27t7 25.5t9.5 28t10 27t11.5 29t11 27t12.5 28.5t12 27q-3 -2 -41.5 -37.5t-74 -65t-82 -56.5t-75.5 -27q-55 0 -55 54z" />
<glyph unicode="+" horiz-adv-x="1334" d="M228 416l58 348h348l60 347h347l-59 -347h348l-59 -348h-349l-61 -348h-347l61 348h-347z" />
<glyph unicode="," horiz-adv-x="811" d="M-18 -178l348 625h461l-537 -625h-272z" />
<glyph unicode="-" horiz-adv-x="1356" d="M239 416l61 348h1036l-61 -348h-1036z" />
<glyph unicode="." horiz-adv-x="742" d="M166 204q0 47 17.5 91.5t49 81t82.5 58.5t112 22q75 0 129 -32t78.5 -81t24.5 -108q0 -37 -10 -73t-32 -68.5t-52.5 -57t-73.5 -39t-94 -14.5q-75 0 -128.5 32t-78 81t-24.5 107z" />
<glyph unicode="/" horiz-adv-x="799" d="M11 -104l839 1798h209l-838 -1798h-210z" />
<glyph unicode="0" horiz-adv-x="1599" d="M228 649q-22 268 86 514q110 251 318 377q168 101 373 102q311 0 493 -216q152 -179 176 -456q22 -269 -84 -515q-109 -252 -315 -377q-164 -100 -366 -100q-319 0 -504 216q-154 179 -177 455zM702 763q0 -167 77 -257q58 -68 149 -68q114 0 190 131q71 123 74 287 q2 169 -74 258q-56 66 -145 66q-120 0 -198 -132q-72 -122 -73 -285z" />
<glyph unicode="1" horiz-adv-x="961" d="M312 0l215 1219h-163l70 404h685l-287 -1623h-520z" />
<glyph unicode="2" horiz-adv-x="1468" d="M59 0l45 266l276 187q103 69 188.5 131t179 141.5t158 149.5t106.5 147t42 142q2 64 -30 97.5t-94 33.5q-50 0 -87.5 -31.5t-57 -79.5t-24.5 -106h-464q9 70 30.5 135t56.5 128.5t88 115t120.5 91.5t158.5 62t197 22q319 0 487 -126t168 -349q0 -387 -703 -750h571 l-72 -407h-1340z" />
<glyph unicode="3" horiz-adv-x="1399" d="M180 501h464q2 -31 12 -55.5t26.5 -41.5t41 -26t55.5 -9q62 0 101.5 41t39.5 128q0 29 -5.5 51t-13.5 37t-22.5 25t-27.5 15.5t-33.5 8.5t-35.5 3.5t-38 0.5l56 330q59 -1 100 5.5t70 23t42.5 45t13.5 71.5q0 36 -18 62t-46 38.5t-62 12.5q-35 0 -60.5 -12.5t-40 -35 t-21.5 -42.5t-12 -47h-464q11 82 37.5 155t75.5 140t116.5 114.5t165.5 76t217 28.5q148 0 262.5 -31t185.5 -87t107 -131.5t36 -166.5q0 -65 -17 -121.5t-46.5 -97t-69.5 -70.5t-84.5 -46t-92.5 -21q63 -20 107.5 -51.5t75.5 -78.5t46 -112t15 -150q0 -98 -35 -180 t-95.5 -140t-141.5 -98.5t-172.5 -60t-189.5 -19.5q-124 0 -225.5 26.5t-173.5 73.5t-122.5 112.5t-75.5 142t-28 164.5z" />
<glyph unicode="4" horiz-adv-x="1603" d="M134 286l66 371l702 966h740l-162 -931h173l-73 -406h-173l-49 -286h-523l52 286h-753zM731 692h226l80 456z" />
<glyph unicode="5" horiz-adv-x="1390" d="M89 80l113 377q37 -20 136.5 -45.5t199.5 -29.5q71 -4 135.5 6.5t119 34t89.5 65t40 96.5q14 118 -68 183t-236 65q-50 0 -114.5 -7.5t-105.5 -15.5t-48 -11l244 825h918l-66 -382h-514l-50 -143q51 8 106.5 3.5t112.5 -22t108.5 -49t95 -77t72.5 -106.5t40.5 -137.5 t-1.5 -168.5q-12 -95 -46 -174t-82 -136t-111 -102t-129 -72.5t-141 -46t-142.5 -25.5t-137.5 -7q-116 0 -283 28.5t-255 73.5z" />
<glyph unicode="6" horiz-adv-x="1484" d="M200 540q9 119 66.5 251.5t160.5 256.5l471 568h521l-519 -586h1h28.5t57.5 -4t80 -11.5t90 -24.5t95.5 -40.5t87.5 -63t74 -88t48 -118.5t15 -153q-3 -128 -48.5 -232t-130.5 -179.5t-215 -116t-296 -40.5q-146 0 -263 45.5t-190 123.5t-108 185.5t-26 226.5zM661 460 q20 -76 94 -100q26 -8 56 -8q103 0 154 81q44 68 25 144q-20 77 -94 101q-26 8 -57 8q-102 0 -154 -81q-44 -68 -24 -145z" />
<glyph unicode="7" horiz-adv-x="1472" d="M87 -4l822 1223h-599l67 404h1326l-1009 -1627h-607z" />
<glyph unicode="8" horiz-adv-x="1367" d="M130 441q7 73 33 136.5t60.5 107t78.5 77t84 52.5t80 30q-7 6 -20 18q-23 21 -35 32.5t-31.5 33.5t-29.5 39.5t-21.5 45t-15 56t-3.5 66.5t6 82q13 85 65.5 161t136 133t202.5 90.5t256 33.5q119 0 220.5 -32.5t169.5 -88.5t103.5 -132.5t26.5 -162.5q-6 -66 -27.5 -124 t-51 -98t-66.5 -72.5t-71.5 -51t-69.5 -29.5q2 -2 13.5 -8t22.5 -12t28 -17.5t31.5 -24.5t32.5 -32t30 -40.5t25 -49.5t18 -60t8 -71.5t-5 -83.5q-10 -76 -47.5 -146.5t-99.5 -129.5t-142 -103t-180 -69.5t-208 -26.5q-139 -2 -258.5 37.5t-197.5 105t-118.5 151.5 t-32.5 177zM640 432q14 -80 82 -98q15 -4 33 -4q83 -1 133 81q44 73 31 152q-14 81 -82 99q-16 4 -34 4q-85 0 -133 -82q-44 -73 -30 -152zM798 1118q19 -55 80 -55q69 0 104 65q31 58 12 113q-19 54 -80 54q-68 0 -104 -65q-31 -58 -12 -112z" />
<glyph unicode="9" horiz-adv-x="1495" d="M280 1069q3 62 17.5 121t42.5 117.5t67.5 109t94.5 94t122 74.5t152.5 48.5t182.5 17.5q127 0 236.5 -46.5t185 -124.5t117 -186t41 -226.5t-52 -252t-152.5 -256.5l-470 -568h-523l477 552q-4 0 -20.5 2t-51.5 9t-75 17.5t-87.5 31.5t-91.5 47.5t-85 67t-70.5 89.5 t-45 116.5t-11.5 145.5zM766 1027q21 -77 96 -101q25 -8 56 -8q102 0 151 81q42 69 21 146q-21 78 -94 101q-25 8 -55 8q-101 0 -152 -81q-44 -69 -23 -146z" />
<glyph unicode=":" horiz-adv-x="742" d="M169 209q0 48 17.5 93t50 82t84.5 59.5t115 22.5q58 0 104 -18.5t74.5 -50.5t43.5 -72t15 -84q0 -48 -17.5 -93t-49.5 -82t-83.5 -59.5t-115.5 -22.5q-77 0 -132.5 33t-80.5 82.5t-25 109.5zM284 848q0 48 18 93t50.5 82t84.5 59t116 22q57 0 103 -18.5t74.5 -50 t43.5 -71.5t15 -84q0 -48 -17.5 -93t-49.5 -82t-84 -59.5t-115 -22.5q-77 0 -132.5 32.5t-81 82.5t-25.5 110z" />
<glyph unicode=";" horiz-adv-x="822" d="M-18 -182l354 639h471l-548 -639h-277zM377 848q0 48 18 93t50.5 82t85 59t115.5 22q76 0 131 -32.5t80 -82t25 -109.5q0 -48 -17 -93t-49.5 -82t-84.5 -59.5t-115 -22.5q-77 0 -132.5 32.5t-81 82.5t-25.5 110z" />
<glyph unicode="&#x3c;" horiz-adv-x="799" d="M193 498l59 348l680 373l-62 -349l-372 -197l287 -198l-62 -347z" />
<glyph unicode="=" horiz-adv-x="1310" d="M193 230l50 291h1037l-50 -291h-1037zM278 705l52 291h1036l-50 -291h-1038z" />
<glyph unicode="&#x3e;" horiz-adv-x="799" d="M169 128l61 347l354 198l-302 197l63 349l546 -373l-61 -348z" />
<glyph unicode="?" horiz-adv-x="1413" d="M271 1139q12 77 43.5 148t87.5 135t130.5 111t178.5 74.5t226 27.5q96 0 178 -13.5t144.5 -38t112 -59.5t83 -76.5t56 -92t32.5 -103t10 -111.5q0 -73 -18.5 -139.5t-52 -121t-80.5 -99t-104.5 -75t-124.5 -48.5t-138 -20l-12 -76h-464l59 332h173q49 0 93 14t80 41 t57.5 72.5t21.5 104.5q0 62 -12.5 99t-42.5 55t-81 18q-36 0 -64.5 -10.5t-46.5 -26t-31 -38t-19.5 -42t-10.5 -42.5h-464zM507 204q0 47 17.5 91.5t49 81t82 58.5t112.5 22q75 0 129 -32t78.5 -81t24.5 -108q0 -37 -10 -73t-32 -68.5t-52 -57t-73 -39t-94 -14.5 q-56 0 -101.5 18.5t-73.5 49.5t-42.5 70t-14.5 82z" />
<glyph unicode="@" horiz-adv-x="1536" d="M223 813.5q0 95.5 24 190.5t70 184t117 165.5t159.5 133.5t203.5 90t244 33q102 0 192.5 -21.5t170.5 -69.5t137.5 -118.5t91 -175t33.5 -234.5q0 -40 -4.5 -80t-16.5 -86t-30 -86.5t-48 -79t-68.5 -65.5t-93 -43.5t-119.5 -16.5q-75 0 -118 34t-49 80 q-114 -114 -280 -114q-75 0 -134 24.5t-95 66t-55 94t-19 111.5t17 118t52 111.5t83 93t115 64.5t143 24q97 0 160.5 -36t84.5 -88l41 108h143l-158 -436q0 -66 22.5 -98t85.5 -32q49 0 88.5 21t65 54.5t42.5 77.5t24.5 88.5t7.5 90.5q0 96 -19 174t-54.5 134t-83 96.5 t-107.5 65t-124 35.5t-137 11q-128 0 -240.5 -40.5t-194 -109t-140.5 -157.5t-88 -187.5t-29 -196.5q0 -80 19.5 -152t62.5 -135.5t105.5 -109t154 -72t202.5 -26.5q60 0 122.5 13t117 36.5t90.5 52.5l59 -82q-54 -48 -170 -89t-233 -41q-129 0 -236 33t-181.5 89.5 t-126 133.5t-75.5 164t-24 182.5zM675 848q0 -75 44.5 -126.5t128.5 -51.5q58 0 106 22.5t77.5 59t45.5 80.5t16 90q0 77 -44 129.5t-127 52.5q-57 0 -105 -22.5t-78.5 -60t-47 -82.5t-16.5 -91z" />
<glyph unicode="A" horiz-adv-x="1704" d="M52 0l798 1623h589l227 -1623h-504l-34 234h-449l-115 -234h-512zM857 596h221l-48 354z" />
<glyph unicode="B" horiz-adv-x="1508" d="M102 0l284 1623h762q195 0 306.5 -103.5t111.5 -278.5q0 -157 -67 -254.5t-189 -125.5q38 -12 72 -29t68.5 -47t59.5 -67.5t40.5 -93.5t15.5 -123q0 -53 -9.5 -102.5t-32.5 -100.5t-58 -94t-89 -81t-122 -65t-161 -42.5t-203 -15.5h-789zM698 421h132q66 0 109 31.5 t43 102.5q0 43 -31 71.5t-79 28.5h-131zM807 1039h87q57 0 100 36t43 100q0 45 -30.5 72.5t-71.5 27.5h-87z" />
<glyph unicode="C" horiz-adv-x="1256" d="M161 698q0 113 29.5 226.5t84.5 218.5t139.5 196t188.5 158.5t238 106t282 38.5q153 0 302 -26l-97 -549q-120 35 -244 35q-76 0 -138.5 -27.5t-101 -73t-59.5 -101.5t-21 -115q0 -52 16.5 -98t49.5 -83.5t88.5 -59t127.5 -21.5q105 0 191 34l-98 -559q-93 -20 -189 -20 q-158 0 -289.5 39t-223 106.5t-154.5 159.5t-92.5 196.5t-29.5 218.5z" />
<glyph unicode="D" horiz-adv-x="1670" d="M139 -2l286 1625h598q143 0 262 -39.5t202.5 -107.5t141.5 -160.5t85.5 -197t27.5 -218.5q0 -108 -26 -216t-74.5 -208.5t-124 -186.5t-169.5 -150.5t-217 -101t-261 -37.5zM753 521h72q67 0 125 21t99.5 57.5t70.5 83.5t43.5 98.5t14.5 103.5q0 70 -25.5 127.5t-81.5 94 t-134 36.5h-73z" />
<glyph unicode="E" horiz-adv-x="1228" d="M100 0l284 1623h1048l-70 -404h-525l-37 -210h495l-70 -406h-498l-33 -196h525l-73 -407h-1046z" />
<glyph unicode="F" horiz-adv-x="1206" d="M100 0l284 1623h1048l-70 -404h-525l-46 -258h495l-69 -404h-499l-98 -557h-520z" />
<glyph unicode="G" horiz-adv-x="1707" d="M175 739q0 110 27.5 219t79 210t131 187t178 150t226.5 100.5t270 36.5q127 0 232.5 -20t178.5 -52t133.5 -79.5t98 -94t70.5 -105.5l-479 -168q-14 23 -31 40t-45.5 35t-72 28.5t-99.5 10.5q-74 0 -139 -46.5t-107.5 -120.5t-67 -164.5t-24.5 -180.5q0 -71 15.5 -132.5 t46 -110t82 -77t117.5 -28.5q76 0 117 18t76 52l28 151h-182l54 302h703l-98 -564q-39 -53 -80.5 -97.5t-105.5 -95t-134 -85t-166.5 -57.5t-202.5 -23q-139 0 -259 29t-209.5 81.5t-159.5 123.5t-113.5 156.5t-66 178.5t-22.5 192z" />
<glyph unicode="H" horiz-adv-x="1611" d="M91 0l284 1623h523l-107 -616h391l107 616h523l-287 -1623h-520l106 601h-393l-106 -601h-521z" />
<glyph unicode="I" horiz-adv-x="753" d="M123 0l287 1623h520l-284 -1623h-523z" />
<glyph unicode="J" horiz-adv-x="983" d="M93 34l66 387q42 -26 107 -26q40 0 77 20t67 64.5t41 106.5l181 1037h520l-197 -1122q-19 -108 -62 -193.5t-101.5 -142.5t-132.5 -94.5t-151.5 -54t-162.5 -16.5q-126 0 -252 34z" />
<glyph unicode="K" horiz-adv-x="1540" d="M75 0l285 1623h510l-102 -586l462 586h545l-591 -753l323 -870h-544l-256 698l-123 -698h-509z" />
<glyph unicode="L" horiz-adv-x="1202" d="M91 0l284 1623h523l-214 -1216h503l-70 -407h-1026z" />
<glyph unicode="M" horiz-adv-x="2145" d="M54 0l592 1623h532l72 -716l332 716h535v-1623h-523v787l-346 -787h-296l-113 798l-262 -798h-523z" />
<glyph unicode="N" horiz-adv-x="1699" d="M91 0l284 1623h489l379 -782l137 782h523l-287 -1623h-520l-350 746l-134 -746h-521z" />
<glyph unicode="O" horiz-adv-x="1811" d="M182 735q0 111 27 220.5t78 211t130 188t178.5 150.5t229 100.5t275.5 36.5q158 0 291 -41.5t225 -112.5t156.5 -167t95 -205t30.5 -227q0 -114 -27.5 -225t-79.5 -212.5t-132.5 -188t-181 -150t-231.5 -99.5t-278 -36q-130 0 -243 29t-198.5 81t-151.5 122.5t-108 155.5 t-63.5 178t-21.5 191zM746 773q0 -58 15 -109t44.5 -91.5t78 -64.5t109.5 -24q73 0 134.5 34t100.5 89.5t60.5 123.5t21.5 137q0 58 -15.5 109.5t-45 92t-78 64t-110.5 23.5q-73 0 -134 -34.5t-99.5 -90t-60 -123t-21.5 -136.5z" />
<glyph unicode="P" horiz-adv-x="1401" d="M91 0l284 1623h679q110 0 203.5 -36.5t158 -99t101 -149.5t36.5 -186q0 -56 -10 -110.5t-33 -109.5t-57.5 -103t-86.5 -90t-117 -72t-152.5 -47t-189.5 -17h-178l-106 -603h-532zM798 993h87q43 0 75.5 18t49 47.5t16.5 64.5q0 45 -31.5 76t-76.5 31h-79z" />
<glyph unicode="Q" horiz-adv-x="1820" d="M204 735q0 111 27 220.5t78 211t130.5 188t179 150.5t229.5 100.5t275 36.5q159 0 291.5 -41.5t225 -112.5t157 -167t94.5 -205t30 -227q0 -217 -97.5 -417t-277.5 -329l146 -254l-494 -128l-98 221q-64 -4 -109 -4q-155 0 -286 41.5t-222 113t-155 168t-94 206 t-30 228.5zM768 773q0 -58 15 -109t44.5 -91.5t78 -64.5t110.5 -24q73 0 134 34t100 89.5t60.5 123.5t21.5 137q0 58 -15 109.5t-44.5 92t-78 64t-110.5 23.5q-72 0 -133.5 -34.5t-100.5 -90t-60.5 -123t-21.5 -136.5z" />
<glyph unicode="R" horiz-adv-x="1522" d="M91 0l284 1623h644q92 0 170.5 -18.5t136 -51.5t101.5 -77t71.5 -97t41 -109t13.5 -116q0 -90 -15.5 -160.5t-41.5 -119.5t-70.5 -89.5t-92 -68t-116.5 -57.5l272 -659h-600l-175 509l-91 -509h-532zM798 993h87q66 0 103.5 38.5t37.5 94.5q0 47 -31.5 75.5t-80.5 28.5 h-75z" />
<glyph unicode="S" horiz-adv-x="1451" d="M78 200l170 336q63 -38 94.5 -56t81.5 -42.5t85.5 -35t83 -19t99.5 -8.5q37 0 67.5 8.5t50 23t30 33t10.5 37.5q0 24 -14.5 46t-44 39.5t-68.5 23.5q-244 40 -357.5 156t-113.5 306q0 85 29 169t86.5 158.5t135.5 132t184 91t224 33.5q115 0 209 -11t171 -34t130.5 -45 t122.5 -58l-171 -350q-114 62 -216.5 88t-234.5 26q-49 0 -87.5 -31.5t-38.5 -70.5q0 -38 39.5 -68.5t125.5 -42.5q249 -38 388.5 -182.5t139.5 -357.5q0 -87 -26.5 -162t-83 -139.5t-139.5 -110t-203 -71t-267 -25.5q-112 0 -218 19t-194 53.5t-151.5 66.5t-128.5 74z" />
<glyph unicode="T" horiz-adv-x="1252" d="M271 1182l76 441h1149l-77 -441h-312l-209 -1182h-523l209 1182h-313z" />
<glyph unicode="U" horiz-adv-x="1506" d="M173 475q0 56 16 154l175 994h523l-175 -996q-9 -48 -9 -70q0 -57 33 -89t80 -32q37 0 67 12.5t54.5 43.5t32.5 79l184 1052h523l-193 -1096q-26 -145 -88 -250.5t-157 -169t-214 -93.5t-268 -30q-129 0 -237 34t-184.5 96.5t-119.5 155t-43 205.5z" />
<glyph unicode="V" horiz-adv-x="1659" d="M325 1623h534l128 -798l404 798h535l-889 -1623h-393z" />
<glyph unicode="W" horiz-adv-x="2458" d="M327 1623h523l85 -800l358 800h464l80 -800l354 800h527l-759 -1623h-497l-78 809l-363 -809h-498z" />
<glyph unicode="X" horiz-adv-x="1625" d="M43 0l634 807l-358 816h556l166 -365l280 365h564l-651 -820l356 -803h-562l-148 347l-282 -347h-555z" />
<glyph unicode="Y" horiz-adv-x="1566" d="M321 1623h534l147 -404l278 404h553l-660 -879l-130 -744h-534l133 744z" />
<glyph unicode="Z" horiz-adv-x="1692" d="M37 0l891 1195h-566l74 428h1453l-904 -1193h659l-76 -430h-1531z" />
<glyph unicode="[" horiz-adv-x="694" d="M91 -243l364 2052h452l-37 -208h-163l-289 -1635h161l-36 -209h-452z" />
<glyph unicode="\" horiz-adv-x="788" d="M332 1705h232l171 -1787h-232z" />
<glyph unicode="]" horiz-adv-x="694" d="M89 -243l36 209h164l288 1635h-161l37 208h452l-364 -2052h-452z" />
<glyph unicode="^" horiz-adv-x="961" d="M189 1000l362 516h83l251 -516h-82l-224 325l-299 -325h-91z" />
<glyph unicode="_" horiz-adv-x="811" d="M-28 -161l28 161h859l-27 -161h-860z" />
<glyph unicode="`" horiz-adv-x="705" d="M173 1491l122 123l264 -263l-123 -123z" />
<glyph unicode="a" horiz-adv-x="1536" d="M152 443q0 80 19 161t54.5 157t89.5 142.5t121 116t153 78t181 28.5q118 0 188.5 -33t117.5 -100l22 121h509l-195 -1114h-510l24 128q-29 -35 -56 -59t-66.5 -46.5t-91.5 -33.5t-118 -11q-89 0 -162.5 25t-124.5 68t-86.5 102t-52 127t-16.5 143zM638 532 q0 -74 38.5 -123t112.5 -49q63 0 112.5 38.5t74 95t24.5 115.5q0 74 -39 124t-113 50q-63 0 -112.5 -39.5t-73.5 -96t-24 -115.5z" />
<glyph unicode="b" horiz-adv-x="1465" d="M87 0l293 1679h522l-119 -681q78 132 306 132q75 0 140.5 -20t115.5 -56.5t89.5 -86t64.5 -108.5t38.5 -124.5t13.5 -133.5q0 -93 -23 -182.5t-70.5 -170.5t-114.5 -142t-162.5 -97.5t-207.5 -36.5q-130 0 -219 43.5t-127 107.5l-20 -123h-520zM694 536q0 -75 40 -127 t114 -52q58 0 101.5 33.5t64.5 82.5t21 104q0 75 -40.5 127.5t-114.5 52.5q-57 0 -101 -33.5t-64.5 -83t-20.5 -104.5z" />
<glyph unicode="c" horiz-adv-x="926" d="M128 451q0 68 13 137t40.5 135.5t66 126.5t92 110.5t116.5 87t142 57.5t166 21q108 0 189 -19.5t118 -45.5l-60 -341q-14 15 -19.5 21t-21.5 17t-31 16t-41 9t-59 4q-64 0 -115 -42.5t-76 -105t-25 -127.5q0 -51 16 -91.5t52 -67t88 -26.5q20 0 37 2t29.5 4t25 7t20 9 t17.5 11.5t15 12t15.5 14.5t16.5 15l-61 -350q-25 -15 -42.5 -24t-47.5 -20.5t-61.5 -18t-78.5 -11t-105 -4.5q-85 0 -156.5 26t-122 70.5t-85 105t-51 130t-16.5 145.5z" />
<glyph unicode="d" horiz-adv-x="1472" d="M139 468q0 80 17 159t49.5 152.5t83.5 137.5t114 111.5t146 74.5t176 27q85 0 149.5 -19t101 -45.5t67.5 -67.5l121 681h523l-296 -1679h-521l19 123q-29 -36 -51 -58t-59 -46t-86.5 -35.5t-115.5 -11.5q-87 0 -160 27t-124 73.5t-86 109.5t-51.5 135.5t-16.5 150.5z M638 532q0 -74 39.5 -124.5t111.5 -50.5q59 0 103 34.5t65 84.5t21 106q0 73 -39 124t-112 51q-59 0 -103 -34.5t-65 -85t-21 -105.5z" />
<glyph unicode="e" horiz-adv-x="1345" d="M148 501q0 94 28 186t85 174.5t135.5 145.5t188.5 99.5t235 36.5q126 0 228 -29.5t169.5 -78.5t113 -116t65.5 -139.5t20 -150.5q0 -75 -15 -138h-774q-13 -45 -13 -89q0 -22 4 -42t13.5 -39t25 -32.5t40 -21.5t56.5 -8q26 0 48.5 8t36 17t27 28.5t18.5 28.5t15 30 l466 -57q-18 -54 -47 -101.5t-79.5 -94.5t-116.5 -80t-162.5 -54t-212.5 -21q-120 0 -219.5 29.5t-168.5 80t-117 119t-70.5 146.5t-22.5 163zM670 705h287q4 22 4 43q0 102 -129 102q-39 0 -70.5 -15t-49.5 -39t-28 -46.5t-14 -44.5z" />
<glyph unicode="f" horiz-adv-x="1020" d="M198 0l134 766h-128l60 348h127l30 159q75 412 602 412q130 0 239 -23l-48 -278q-90 21 -136 21q-63 0 -93 -34t-41 -96l-30 -161h223l-61 -348h-221l-137 -766h-520z" />
<glyph unicode="g" horiz-adv-x="1501" d="M183 528q14 211 128 380q126 186 321 231q56 13 114 13q82 0 141.5 -18t98 -51t66.5 -85l24 116h518l-191 -1086q-11 -67 -33 -124.5t-51.5 -102.5t-69 -82t-83 -64t-96 -47.5t-106 -34t-116 -22t-122.5 -12t-128 -3.5q-67 0 -142 12t-133 29t-107 37l53 311 q55 -20 97.5 -32t117 -23t152.5 -11q70 0 120.5 20t86 69t48.5 127l9 50q-18 -19 -29 -30.5t-31 -29.5t-40 -28t-47.5 -21t-62 -15.5t-74.5 -4.5q-232 0 -348 171q-87 127 -87 309q0 25 2 52zM654 499q11 -92 83 -122q26 -11 59 -11q100 0 158 92q42 65 42 137q0 16 -2 32 q-11 92 -83 121q-26 11 -59 11q-99 0 -158 -91q-42 -65 -42 -137q0 -16 2 -32z" />
<glyph unicode="h" horiz-adv-x="1484" d="M118 0l298 1683h521l-121 -681q55 61 129.5 95.5t195.5 34.5q183 0 282.5 -96.5t99.5 -262.5q0 -47 -11 -116l-121 -657h-475l105 607q9 51 9 77q0 23 -5 41t-17.5 33t-35 23t-54.5 8q-139 0 -165 -151l-111 -638h-524z" />
<glyph unicode="i" horiz-adv-x="761" d="M125 0l196 1114h520l-193 -1114h-523zM360 1405q0 44 12.5 87.5t38 82t60.5 68t83 47t103 17.5q64 0 115 -19.5t81.5 -52.5t46.5 -74.5t16 -87.5q0 -55 -21 -108.5t-58.5 -97t-97 -70t-130.5 -26.5q-62 0 -111 19t-78.5 52t-44.5 74.5t-15 88.5z" />
<glyph unicode="j" horiz-adv-x="763" d="M43 -464l282 1578h521l-280 -1578h-523zM360 1405q0 44 12.5 87.5t38 82t60.5 68t83 47t103 17.5q64 0 115 -19.5t81.5 -52.5t46.5 -74.5t16 -87.5q0 -55 -21 -108.5t-58.5 -97t-97 -70t-130.5 -26.5q-62 0 -111 19t-78.5 52t-44.5 74.5t-15 88.5z" />
<glyph unicode="k" horiz-adv-x="1540" d="M128 0l297 1683h521l-178 -1008l349 439h534l-451 -555l305 -559h-579l-201 430l-75 -430h-522z" />
<glyph unicode="l" horiz-adv-x="770" d="M128 0l297 1683h521l-296 -1683h-522z" />
<glyph unicode="m" horiz-adv-x="2254" d="M89 0l191 1114h518l-21 -123q3 2 9 7q31 23 50.5 35.5t60.5 33.5t79.5 32.5t97 21t124.5 9.5q73 0 133 -11.5t98 -31t61.5 -39t36.5 -41.5q42 27 62 39t63 32t80.5 28.5t96 16t128.5 7.5q169 0 255.5 -80.5t86.5 -226.5q0 -36 -12 -107l-125 -716h-523l111 638q5 27 5 46 q0 45 -24 75t-85 30q-125 0 -150 -151l-112 -638h-520l112 638q2 11 2 39q0 22 -5 40t-16.5 35.5t-35 27t-55.5 9.5q-36 0 -65 -16.5t-45.5 -42t-25.5 -49t-12 -43.5l-111 -638h-518z" />
<glyph unicode="n" horiz-adv-x="1510" d="M118 0l196 1114h525l-28 -157q37 35 61.5 55.5t64 46.5t78.5 40t95 23.5t122 9.5q60 0 109 -11.5t83 -32.5t59 -49t39.5 -63.5t21.5 -73t7 -79.5q0 -63 -15 -134l-120 -689h-520l117 675q6 33 6 48q0 102 -105 102q-38 0 -65.5 -11.5t-44 -33.5t-25.5 -44.5t-15 -53.5 l-122 -682h-524z" />
<glyph unicode="o" horiz-adv-x="1371" d="M134 518q0 72 21 144.5t60 141.5t101 129t138.5 105t178 70.5t215.5 25.5q116 0 213 -28t165 -77.5t115.5 -115.5t70 -141.5t22.5 -157.5q0 -95 -27.5 -187t-85.5 -174.5t-140 -145.5t-199.5 -100t-254.5 -37q-118 0 -216.5 29t-167.5 79t-116.5 119.5t-70 150.5 t-22.5 170zM616 532q0 -33 9 -62.5t27 -53t46.5 -37t65.5 -13.5q61 0 108 35.5t69 87t22 107.5q0 70 -37 116.5t-108 46.5q-63 0 -110.5 -35t-69.5 -86t-22 -106z" />
<glyph unicode="p" horiz-adv-x="1529" d="M50 -462l280 1576h520l-25 -134q48 74 119.5 112t194.5 38q90 0 165.5 -27.5t128.5 -75t89.5 -112t54 -138.5t17.5 -154q0 -98 -21 -190.5t-67 -176.5t-112 -146.5t-162.5 -100t-212.5 -37.5q-132 0 -212.5 36t-133.5 96l-100 -566h-523zM741 514q0 -74 36.5 -123.5 t107.5 -49.5q47 0 86 22t62.5 58.5t36 80t12.5 89.5q0 74 -36 123.5t-107 49.5q-30 0 -58 -10.5t-49 -28.5t-38.5 -42t-28.5 -52t-17.5 -58t-6.5 -59z" />
<glyph unicode="q" horiz-adv-x="1484" d="M148 451q0 96 25 192.5t75.5 184t120.5 155t166.5 107.5t205.5 40q69 0 120 -11t85 -33.5t54.5 -45.5t40.5 -58l26 132h520l-289 -1576h-521l105 566q-43 -61 -113 -96.5t-187 -35.5q-87 0 -159.5 25.5t-122.5 70.5t-85 105.5t-51 130.5t-16 147zM636 505q0 -68 36 -114 t105 -46q61 0 108.5 37.5t71 92t23.5 111.5q0 68 -36 114t-105 46q-61 0 -108.5 -37.5t-71 -92t-23.5 -111.5z" />
<glyph unicode="r" horiz-adv-x="1124" d="M115 0l199 1114h523l-19 -101q60 59 166 93.5t255 34.5l-75 -416q-194 0 -305 -51.5t-128 -146.5l-93 -527h-523z" />
<glyph unicode="s" horiz-adv-x="1176" d="M54 115l182 249q39 -21 59.5 -30.5t59 -24t80 -21t90.5 -6.5q128 0 128 59q0 21 -13.5 35.5t-37 23t-61.5 14.5q-172 26 -252 100t-80 206q0 63 20.5 121.5t64.5 110.5t107.5 90.5t155 61t200.5 22.5q164 0 281 -20t226 -54l-150 -282q-202 46 -294 46q-69 0 -93 -13 t-24 -42q0 -51 122 -61q129 -10 218 -53t134.5 -118t45.5 -179q0 -80 -35 -147.5t-105 -119.5t-185 -81.5t-264 -29.5q-172 0 -322 39.5t-258 103.5z" />
<glyph unicode="t" horiz-adv-x="997" d="M214 0l133 766h-126l59 348h130l58 320h521l-59 -320h184l-62 -348h-184l-137 -766h-517z" />
<glyph unicode="u" horiz-adv-x="1438" d="M175 397q0 51 9 94l113 623h510l-111 -626q-4 -22 -4 -33q0 -20 5 -36.5t16 -30.5t30.5 -22.5t45.5 -8.5q36 0 62 11.5t41 32t23 41t13 46.5l111 626h512l-121 -678q-15 -76 -46 -142t-87.5 -126t-133.5 -102t-188.5 -67t-247.5 -25q-115 0 -208 23t-156 62t-106 93 t-62.5 115.5t-19.5 129.5z" />
<glyph unicode="v" horiz-adv-x="1363" d="M241 1114h468l96 -482l238 482h499l-662 -1114h-373z" />
<glyph unicode="w" horiz-adv-x="2059" d="M232 1114h466l100 -452l234 452h395l80 -461l243 461h491l-661 -1116h-368l-95 453l-253 -451l-369 -2z" />
<glyph unicode="x" horiz-adv-x="1506" d="M46 0l536 573l-309 541h534l109 -198l175 198h532l-506 -543l340 -571h-535l-128 228l-212 -228h-536z" />
<glyph unicode="y" horiz-adv-x="1399" d="M91 -464l382 623l-252 955h514l85 -422l234 422h528l-979 -1578h-512z" />
<glyph unicode="z" horiz-adv-x="1297" d="M98 0l540 716h-410l69 398h1108l-511 -707h388l-70 -407h-1114z" />
<glyph unicode="{" horiz-adv-x="777" d="M232 57q0 41 4 61l87 485q4 31 4 43q0 58 -26 95t-69 66q16 10 26.5 16t27.5 18.5t28.5 23.5t25.5 28t23.5 34.5t18.5 41t13 50.5l76 432q12 69 40 124.5t68.5 93t89.5 64.5t108 42t118 21.5t126 6.5l-30 -176q-45 0 -78 -4.5t-57 -16.5t-39.5 -26.5t-27 -39t-18.5 -49.5 t-14 -64l-65 -386q-9 -47 -27.5 -84.5t-39 -61t-49 -42t-50.5 -28t-51 -18.5q29 -18 50 -35t42 -41t31.5 -56t10.5 -70q0 -17 -4 -52l-78 -430q-9 -60 -9 -77q0 -61 38 -88.5t136 -27.5l-30 -178q-120 0 -215.5 33.5t-155 103.5t-59.5 168z" />
<glyph unicode="|" horiz-adv-x="451" d="M104 -104l321 1820h209l-320 -1820h-210z" />
<glyph unicode="}" horiz-adv-x="753" d="M39 -248l36 178q64 0 105.5 11.5t66 38t36.5 58.5t21 85l78 439q8 43 25.5 79.5t36 60t48.5 45.5t50.5 33t53.5 27q-27 19 -38.5 27.5t-33.5 29t-32 37.5t-19 43.5t-9 55.5q0 15 4 46l66 381q9 65 9 85q0 60 -37 87.5t-133 27.5l32 176q72 0 134 -9.5t117.5 -30.5t94 -53 t61.5 -81t23 -111q0 -23 -8 -67l-72 -421q-5 -20 -5 -52q0 -19 2.5 -35t9 -31t10.5 -24.5t15.5 -24t15.5 -19t19 -20t17 -17.5q-2 -2 -17.5 -12.5t-21 -15.5t-20.5 -16.5t-22.5 -20t-20 -22t-20 -27t-16.5 -30t-14.5 -35.5t-9.5 -40l-83 -470q-14 -77 -38.5 -133t-66 -101.5 t-102.5 -73.5t-147.5 -43t-200.5 -15z" />
<glyph unicode="~" horiz-adv-x="1124" d="M139 905q9 10 19.5 20t24 21.5t29 22t34 20.5t39 18t42.5 14.5t48 10t52 3.5q105 0 182 -53q24 -15 42.5 -24.5t45.5 -16t58 -6.5q119 0 204 76l73 -91q-31 -27 -54 -44t-58 -36t-77 -28t-90 -9q-109 0 -180 49q-22 15 -31.5 21t-29 15.5t-40.5 13t-47 3.5q-43 0 -78 -8 t-61.5 -24.5t-41.5 -28.5t-35 -33z" />
<glyph unicode="&#xa1;" horiz-adv-x="833" d="M-37 -306l189 1070h523l-189 -1070h-523zM216 1080q0 38 10.5 74t32 68t52 56.5t73.5 39t93 14.5q75 0 129 -32t78.5 -81t24.5 -108q0 -47 -17 -91.5t-49 -80.5t-83 -58t-113 -22q-56 0 -101.5 18.5t-73 50t-42 70.5t-14.5 82z" />
<glyph unicode="&#xa2;" horiz-adv-x="1031" d="M262 716q0 61 13.5 122t39.5 118t66 106t90.5 85.5t117 57t140.5 20.5l21 133h157l-20 -130q63 -5 119.5 -27t93.5 -53l-31 -252q-78 86 -225 86q-53 0 -97 -20.5t-72 -54t-43.5 -75t-15.5 -84.5q0 -51 21 -92.5t67 -69t112 -27.5q117 0 210 85l-33 -258 q-83 -72 -247 -72l-21 -139h-157l20 139q-80 12 -143 48t-102.5 90t-60 121t-20.5 143z" />
<glyph unicode="&#xa3;" horiz-adv-x="1310" d="M130 282q36 31 90 59.5t99 40.5q41 34 66.5 79t38.5 95t21 123h-179l31 178h156q-2 70 -26 175q-20 94 -20 159q0 46 6.5 88t23 88t42.5 84t69.5 73t100 59t136.5 38t176 14q69 0 128.5 -9t105 -25.5t82 -40t61.5 -51.5t42 -61t24.5 -67t7.5 -71q0 -53 -19 -119h-289 q5 36 5 50q0 62 -32 83t-95 21q-23 0 -43.5 -6t-41 -20.5t-33 -43t-12.5 -68.5q0 -32 6.5 -67.5t11 -50.5t15.5 -50q31 -99 31 -182h259l-29 -178h-232q-5 -51 -12.5 -92.5t-21 -90.5t-37.5 -88.5t-56 -62.5q18 -2 74.5 -17.5t106.5 -15.5q66 0 149 28.5t124 64.5v-257 q-185 -161 -393 -161q-68 0 -119.5 13t-105.5 37q-41 18 -61.5 26.5t-57 17t-72.5 8.5q-45 0 -80 -5.5t-70 -20t-57 -26.5t-66 -39z" />
<glyph unicode="&#xa5;" horiz-adv-x="1577" d="M323 1623h543l155 -356l270 356h546l-635 -800h232l-24 -127h-232l-16 -93h231l-22 -128h-232l-85 -475h-531l82 475h-232l22 128h234l17 93h-232l22 127h232z" />
<glyph unicode="&#xa6;" horiz-adv-x="336" d="M104 0v614h124v-614h-124zM104 857v675h124v-675h-124z" />
<glyph unicode="&#xa7;" horiz-adv-x="1636" d="M73 777q0 92 52.5 182.5t140 153t185.5 78.5q-21 46 -21 125q0 152 140.5 250t379.5 98q109 0 194 -9t144 -24t126 -39l-130 -273q-130 39 -286 39q-23 0 -45 -4.5t-43 -14t-33.5 -27.5t-12.5 -43q0 -26 4 -40t20 -24.5t42 -15.5t75 -9q145 -13 257 -58.5t180.5 -116.5 t103 -158.5t34.5 -189.5q0 -89 -30.5 -166t-81.5 -131.5t-111.5 -92.5t-128.5 -61q15 -24 15 -81q0 -101 -77 -183.5t-219.5 -130t-323.5 -47.5q-114 0 -247 35t-242 108l163 234q111 -61 287 -61q78 0 115.5 21.5t37.5 67.5q0 47 -32 62t-195 49q-6 1 -9 2 q-117 24 -199.5 67t-132.5 106t-73 142t-23 180zM512 714q0 -110 78.5 -171t223.5 -61q87 0 160 26.5t119 80.5t46 125q0 107 -79 169.5t-219 62.5q-68 0 -127 -15.5t-104.5 -43.5t-71.5 -73t-26 -100z" />
<glyph unicode="&#xa8;" horiz-adv-x="1181" d="M80 1430q0 33 9 65t28 60.5t46 50t64.5 34.5t82.5 13q68 0 117.5 -30.5t72.5 -76.5t23 -100q0 -27 -6.5 -54t-19 -52t-32.5 -46t-45 -37t-57.5 -25t-69.5 -9q-68 0 -118 30.5t-72.5 76.5t-22.5 100zM673 1430q0 41 14.5 80.5t42.5 71.5t73 51.5t99 19.5q69 0 119 -30.5 t73 -76.5t23 -100q0 -33 -9.5 -65t-28.5 -60.5t-45.5 -50t-64.5 -34.5t-82 -13q-102 0 -158 61t-56 146z" />
<glyph unicode="&#xa9;" horiz-adv-x="1172" d="M89 885q0 97 30 188t85.5 164.5t128.5 129t164.5 85.5t188.5 30q121 0 232 -47.5t191 -127.5t127.5 -190.5t47.5 -232t-47.5 -232t-127.5 -191t-191 -128t-232 -47.5t-232 47.5t-191 128t-127 191t-47 232.5zM137 887q0 -112 43.5 -214.5t118 -176.5t176.5 -118t214 -44 q90 0 174 28t152 79.5t119 119.5t79 152t28 174q0 112 -44 214t-117.5 176t-176 118t-214.5 44t-214 -44t-176.5 -118t-118 -176t-43.5 -214zM391 896q0 41 11.5 80.5t35.5 74.5t58.5 61t83 41.5t106.5 15.5q74 0 124.5 -23.5t91.5 -63.5v-54q-91 95 -216 95 q-60 0 -109 -19.5t-79 -52t-46 -72.5t-16 -83.5t16 -83.5t46 -73t79 -53t109 -20q80 0 129.5 29.5t86.5 79.5v-70q-79 -85 -216 -85q-71 0 -128.5 24t-93 63t-54.5 88t-19 101z" />
<glyph unicode="&#xaa;" horiz-adv-x="881" d="M148 609l25 164h764l-26 -164h-763zM239 1078q0 61 21.5 122t61 111.5t100.5 82t133 31.5q59 0 95 -16.5t59 -50.5l11 61h260l-100 -569h-260l12 66q-15 -18 -28.5 -30.5t-33 -24t-46 -17t-60.5 -5.5q-74 0 -126 33.5t-75.5 86.5t-23.5 119zM486 1123q0 -38 19.5 -63 t58.5 -25q46 0 76 40t30 87q0 37 -19.5 62.5t-56.5 25.5q-48 0 -78 -39.5t-30 -87.5z" />
<glyph unicode="&#xab;" horiz-adv-x="1417" d="M82 603l22 186l612 411l125 -224l-431 -280l365 -284l-181 -219zM712 603l23 186l613 411l125 -224l-434 -280l366 -284l-180 -219z" />
<glyph unicode="&#xac;" d="M175 209q4 41 20.5 74.5t39.5 55t46 34t46 18.5q-2 2 -8 7q-11 9 -16.5 14.5t-14.5 15.5t-13.5 18t-10 20.5t-7 25.5t-1.5 30t3 37q12 80 93 134.5t203 54.5q108 0 175.5 -55t58.5 -134q-6 -69 -44.5 -111.5t-82.5 -56.5q1 -1 9 -5.5t16.5 -10t20 -16t20 -23t16.5 -31.5 t9.5 -41.5t-0.5 -52.5q-12 -87 -98 -149.5t-208 -63.5q-124 -2 -201.5 62t-70.5 149zM193 818l26 108h754l-23 -108h-757zM407 198q11 -38 50 -39q39 0 61 38t11 76.5t-52 38.5q-39 0 -60 -38t-10 -76zM477 1013l98 560h-74l33 186h314l-132 -746h-239zM478 559 q-14 -37 7 -58q10 -10 27 -10q35 0 49 37t-7 58q-10 10 -27 10q-35 0 -49 -37z" />
<glyph unicode="&#xad;" horiz-adv-x="1356" d="M239 416l61 348h1036l-61 -348h-1036z" />
<glyph unicode="&#xae;" horiz-adv-x="944" d="M234 1252q0 91 35.5 169t92.5 128.5t128 79t144 28.5q139 0 231 -90.5t92 -223.5q0 -112 -53 -205t-144.5 -146t-200.5 -53q-92 0 -167 41.5t-116.5 113t-41.5 158.5zM269 1258q0 -123 82.5 -204t214.5 -81q93 0 174.5 46t131.5 131t50 189q0 122 -82 203t-211 81 q-65 0 -129 -26.5t-115.5 -72.5t-83.5 -116t-32 -150zM445 1100l53 414h159q48 0 75 -27t27 -71q0 -51 -32.5 -88t-97.5 -37h-17l108 -191h-41l-106 191h-70l-26 -191h-32zM505 1323h129q27 0 46 9t29 23.5t14 29t4 29.5q0 31 -18 49.5t-54 18.5h-130z" />
<glyph unicode="&#xaf;" horiz-adv-x="1147" d="M175 1343l27 164h878l-30 -164h-875z" />
<glyph unicode="&#xb0;" horiz-adv-x="601" d="M319 1364q0 46 17 90t49 79.5t83 57t114 21.5q105 0 161.5 -59t56.5 -143q0 -45 -17.5 -88t-49.5 -78.5t-84.5 -57.5t-116.5 -22q-102 0 -157.5 59t-55.5 141zM395 1371q0 -36 16 -66t51 -49t84 -19q79 0 125.5 51t46.5 117q0 36 -15 65t-50 48.5t-85 19.5 q-77 0 -125 -51.5t-48 -115.5z" />
<glyph unicode="&#xb1;" horiz-adv-x="1297" d="M152 137l52 290h1044l-50 -290h-1046zM282 868l59 349h348l64 347h347l-63 -347h347l-56 -349h-348l-64 -347h-348l64 347h-350z" />
<glyph unicode="&#xb2;" d="M264 1019l20 122l128 87q308 203 311 327q0 59 -59 59q-23 0 -40.5 -14.5t-26.5 -36.5t-11 -49h-213q6 50 26 93.5t54.5 80.5t91 58.5t128.5 21.5q98 0 166.5 -26.5t102.5 -75t34 -115.5q0 -180 -326 -347h264l-34 -185h-616z" />
<glyph unicode="&#xb3;" d="M310 1243h215q4 -59 61 -59q30 0 48.5 19t18.5 59q0 23 -6.5 37t-20 20t-25 7.5t-30.5 1.5l25 152q54 -2 79 13t25 53q0 17 -8 29t-20.5 17.5t-27.5 5.5q-10 0 -18.5 -2t-14.5 -5.5t-10.5 -9t-7.5 -10.5t-5.5 -12t-3.5 -12.5t-2 -12.5h-216q6 48 25 89t52 75t86 53 t121 19q135 0 203.5 -51.5t68.5 -138.5q0 -73 -41.5 -115.5t-101.5 -48.5q58 -19 85 -61.5t27 -120.5q0 -73 -42.5 -126.5t-107.5 -78t-143 -24.5q-138 0 -210.5 66t-77.5 172z" />
<glyph unicode="&#xb4;" horiz-adv-x="753" d="M200 1336l271 271l125 -125l-271 -270z" />
<glyph unicode="&#xb5;" d="M100 0l21 123l127 86q309 204 311 327q0 60 -58 60q-34 0 -54 -29t-24 -72h-214q6 50 26 93.5t54.5 81t91.5 59t128 21.5q148 0 225 -58t77 -160q0 -179 -325 -346h264l-34 -186h-616zM193 818l26 108h754l-23 -108h-757zM477 1013l98 560h-74l33 186h314l-132 -746h-239 z" />
<glyph unicode="&#xb6;" horiz-adv-x="1413" d="M275 1063q0 98 32.5 186.5t89 155.5t130 116.5t160 75.5t174.5 26h387l-320 -1844h-232l141 824h-82q-65 0 -129.5 14t-128.5 48.5t-112.5 86t-79 132t-30.5 179.5zM1043 -221l321 1844h232l-321 -1844h-232z" />
<glyph unicode="&#xb7;" horiz-adv-x="915" d="M314 830q0 47 17 91.5t49 80.5t82.5 58t112.5 22q75 0 129 -32t78.5 -81t24.5 -108q0 -47 -17 -91t-48.5 -80.5t-82 -58.5t-113.5 -22q-75 0 -129 32.5t-78.5 81.5t-24.5 107z" />
<glyph unicode="&#xb8;" horiz-adv-x="533" d="M93 -293l18 98q41 -33 80 -33q30 0 46.5 19t16.5 46q0 40 -33 70l50 93h129l-48 -87q22 -17 37.5 -48t15.5 -65q0 -28 -10 -54.5t-29.5 -48.5t-51.5 -35.5t-73 -13.5q-27 0 -54 7t-51.5 20.5t-42.5 31.5z" />
<glyph unicode="&#xb9;" d="M477 1013l98 560h-74l33 186h314l-132 -746h-239z" />
<glyph unicode="&#xba;" horiz-adv-x="926" d="M232 612l20 163h653l-23 -163h-650zM271 1123q0 56 23.5 110.5t67.5 100.5t115 74t157 28q74 0 132.5 -21.5t94.5 -59t55 -84.5t19 -100q0 -61 -23 -118.5t-66.5 -105.5t-114.5 -77t-158 -29q-75 0 -134 22.5t-95 62t-54.5 89.5t-18.5 108zM516 1130q0 -23 8.5 -42.5 t26.5 -32t43 -12.5q46 0 73 37t27 82q0 24 -8 42t-24.5 29.5t-41.5 11.5q-47 0 -75.5 -35t-28.5 -80z" />
<glyph unicode="&#xbb;" horiz-adv-x="1417" d="M63 412l435 284l-368 280l182 224l513 -411l-22 -186l-614 -410zM692 412l436 284l-369 280l180 224l516 -411l-23 -186l-616 -410z" />
<glyph unicode="&#xbc;" d="M123 128l29 169l325 444h339l-72 -427h76l-31 -186h-80l-23 -132h-241l23 132h-345zM193 818l26 108h754l-23 -108h-757zM397 314h106l35 209zM477 1013l98 560h-74l33 186h314l-132 -746h-239z" />
<glyph unicode="&#xbd;" d="M100 0l21 123l127 86q309 204 311 327q0 60 -58 60q-34 0 -54 -29t-24 -72h-214q6 50 26 93.5t54.5 81t91.5 59t128 21.5q148 0 225 -58t77 -160q0 -179 -325 -346h264l-34 -186h-616zM193 818l26 108h754l-23 -108h-757zM477 1013l98 560h-74l33 186h314l-132 -746h-239 z" />
<glyph unicode="&#xbe;" d="M123 130l29 170l325 444h339l-72 -428h76l-31 -186h-80l-23 -132h-241l23 132h-345zM193 818l26 108h754l-23 -108h-757zM310 1243h215q4 -59 61 -59q30 0 48.5 19t18.5 59q0 23 -6.5 37t-20 20t-25 7.5t-30.5 1.5l25 152q54 -2 79 13t25 53q0 17 -8 29t-20.5 17.5 t-27.5 5.5q-10 0 -18.5 -2t-14.5 -5.5t-10.5 -9t-7.5 -10.5t-5.5 -12t-3.5 -12.5t-2 -12.5h-216q6 48 25 89t52 75t86 53t121 19q135 0 203.5 -51.5t68.5 -138.5q0 -73 -41.5 -115.5t-101.5 -48.5q58 -19 85 -61.5t27 -120.5q0 -73 -42.5 -126.5t-107.5 -78t-143 -24.5 q-138 0 -210.5 66t-77.5 172zM397 316h106l35 209z" />
<glyph unicode="&#xbf;" horiz-adv-x="1413" d="M98 130q0 109 40.5 202t110.5 157t164.5 101.5t202.5 41.5l11 77h464l-59 -332h-173q-48 0 -92 -14t-80.5 -41t-58 -72.5t-21.5 -104.5q0 -93 30.5 -133t106.5 -40q36 0 64.5 10.5t46 26t31 38.5t19.5 42.5t11 42.5h464q-12 -77 -44 -148t-87.5 -135t-130 -111 t-178.5 -74.5t-226 -27.5q-134 0 -239.5 26t-175.5 71t-116 108.5t-65.5 134.5t-19.5 154zM650 1035q0 47 17 91t48.5 80.5t82.5 58t113 21.5q75 0 129 -31.5t78.5 -80.5t24.5 -107q0 -47 -17 -92t-48.5 -81t-82.5 -58t-113 -22q-74 0 -128 32t-79 81t-25 108z" />
<glyph unicode="&#xc0;" horiz-adv-x="1704" d="M52 0l798 1623h589l227 -1623h-504l-34 234h-449l-115 -234h-512zM825 1919l112 113l243 -243l-117 -106zM857 596h221l-48 354z" />
<glyph unicode="&#xc1;" horiz-adv-x="1704" d="M52 0l798 1623h589l227 -1623h-504l-34 234h-449l-115 -234h-512zM857 596h221l-48 354zM1100 1789l241 237l114 -107l-238 -236z" />
<glyph unicode="&#xc2;" horiz-adv-x="1704" d="M52 0l798 1623h589l227 -1623h-504l-34 234h-449l-115 -234h-512zM857 596h221l-48 354zM916 1778l251 246h74l223 -226l-93 -89l-173 174l-196 -194z" />
<glyph unicode="&#xc3;" horiz-adv-x="1704" d="M52 0l798 1623h589l227 -1623h-504l-34 234h-449l-115 -234h-512zM750 1883q24 27 62.5 51.5t89.5 42t98 17.5q95 0 171 -44q4 -2 17 -9t18 -9.5t16.5 -8t19 -8t19 -5.5t23 -4t24.5 -1q98 0 161 52q6 5 16 14l6 5l66 -139q-123 -107 -252 -107q-93 0 -162 40 q-4 3 -16.5 11t-17.5 11t-16.5 9.5t-20 9t-20.5 6t-24.5 5t-27.5 1.5q-101 0 -184 -84zM857 596h221l-48 354z" />
<glyph unicode="&#xc4;" horiz-adv-x="1704" d="M52 0l798 1623h589l227 -1623h-504l-34 234h-449l-115 -234h-512zM716 1887q0 71 48.5 124.5t133.5 53.5q82 0 127.5 -49.5t45.5 -117.5q0 -70 -49.5 -124t-134.5 -54q-82 0 -126.5 49t-44.5 118zM857 596h221l-48 354zM1239 1887q0 45 20 84.5t63 66.5t101 27 q82 0 126.5 -49t44.5 -118q0 -71 -48.5 -124.5t-133.5 -53.5q-82 0 -127.5 49.5t-45.5 117.5z" />
<glyph unicode="&#xc5;" horiz-adv-x="1704" d="M52 0l798 1623h589l227 -1623h-504l-34 234h-449l-115 -234h-512zM857 596h221l-48 354zM987 1859q0 50 23 94t72.5 74t115.5 30q84 0 129.5 -46.5t45.5 -114.5q0 -50 -23.5 -93.5t-74 -72.5t-118.5 -29q-81 0 -125.5 46t-44.5 112zM1048 1864q0 -44 31.5 -75.5 t89.5 -31.5q63 0 101 41.5t38 92.5q0 45 -31 77t-90 32q-62 0 -100.5 -42.5t-38.5 -93.5z" />
<glyph unicode="&#xc6;" horiz-adv-x="2086" d="M39 0l902 1623h1312l-71 -404h-523l-41 -214h503l-73 -407h-502l-34 -191h527l-72 -407h-1026l44 243h-269l-122 -243h-555zM900 603h148l82 464z" />
<glyph unicode="&#xc7;" horiz-adv-x="1256" d="M161 698q0 113 29.5 226.5t84.5 218.5t139.5 196t188.5 158.5t238 106t282 38.5q153 0 302 -26l-97 -549q-120 35 -244 35q-76 0 -138.5 -27.5t-101 -73t-59.5 -101.5t-21 -115q0 -52 16.5 -98t49.5 -83.5t88.5 -59t127.5 -21.5q105 0 191 34l-98 -559q-93 -20 -189 -20 h-30l-42 -85q39 -21 64.5 -56t25.5 -80q0 -72 -54 -119.5t-164 -47.5q-90 0 -154 44l31 171q49 -35 87 -35q29 0 50 21t21 50q0 35 -44 66l42 82q-125 18 -228 65.5t-175.5 114.5t-122 152.5t-73 180t-23.5 196.5z" />
<glyph unicode="&#xc8;" horiz-adv-x="1228" d="M100 0l284 1623h1048l-70 -404h-525l-37 -210h495l-70 -406h-498l-33 -196h525l-73 -407h-1046zM686 1919l112 113l243 -243l-115 -106z" />
<glyph unicode="&#xc9;" horiz-adv-x="1228" d="M100 0l284 1623h1048l-70 -404h-525l-37 -210h495l-70 -406h-498l-33 -196h525l-73 -407h-1046zM807 1789l241 237l114 -107l-240 -236z" />
<glyph unicode="&#xca;" horiz-adv-x="1228" d="M100 0l284 1623h1048l-70 -404h-525l-37 -210h495l-70 -406h-498l-33 -196h525l-73 -407h-1046zM675 1778l251 246h74l223 -226l-93 -89l-175 174l-194 -194z" />
<glyph unicode="&#xcb;" horiz-adv-x="1228" d="M100 0l284 1623h1048l-70 -404h-525l-37 -210h495l-70 -406h-498l-33 -196h525l-73 -407h-1046zM501 1887q0 71 47.5 124.5t133.5 53.5q81 0 127 -49.5t46 -117.5q0 -70 -49.5 -124t-135.5 -54q-81 0 -125 49t-44 118zM1023 1887q0 71 49 124.5t135 53.5q81 0 126 -49 t45 -118q0 -71 -48.5 -124.5t-134.5 -53.5q-81 0 -126.5 49.5t-45.5 117.5z" />
<glyph unicode="&#xcc;" horiz-adv-x="753" d="M123 0l287 1623h520l-284 -1623h-523zM375 1919l111 113l243 -243l-115 -106z" />
<glyph unicode="&#xcd;" horiz-adv-x="753" d="M123 0l287 1623h520l-284 -1623h-523zM668 1789l241 237l114 -107l-238 -236z" />
<glyph unicode="&#xce;" horiz-adv-x="753" d="M123 0l287 1623h520l-284 -1623h-523zM434 1778l250 246h75l223 -226l-93 -89l-175 174l-193 -194z" />
<glyph unicode="&#xcf;" horiz-adv-x="753" d="M123 0l287 1623h520l-284 -1623h-523zM262 1887q0 71 48 124.5t133 53.5q82 0 127.5 -49.5t45.5 -117.5q0 -70 -49.5 -124t-134.5 -54q-82 0 -126 49t-44 118zM785 1887q0 45 20 84.5t62.5 66.5t100.5 27q82 0 126.5 -49t44.5 -118q0 -71 -48.5 -124.5t-133.5 -53.5 q-82 0 -127 49.5t-45 117.5z" />
<glyph unicode="&#xd0;" horiz-adv-x="1670" d="M80 720l43 228h183l119 675h598q143 0 262 -39.5t202.5 -107.5t141.5 -160.5t85.5 -197t27.5 -218.5q0 -108 -26 -216t-74.5 -208.5t-124 -186.5t-169.5 -150.5t-217 -101t-261 -37.5l-731 -2l127 722h-186zM753 521h72q67 0 125 21t99.5 57.5t70.5 83.5t43.5 98.5 t14.5 103.5q0 70 -25.5 127.5t-81.5 94t-134 36.5h-73l-34 -195h202l-43 -228h-200z" />
<glyph unicode="&#xd1;" horiz-adv-x="1699" d="M91 0l284 1623h489l379 -782l137 782h523l-287 -1623h-520l-350 746l-134 -746h-521zM727 1848q14 16 34 31.5t45.5 30t53 25.5t58.5 17.5t60 6.5q94 0 170 -43q2 -1 14.5 -8t15.5 -8.5t14.5 -7t16.5 -7t15.5 -5.5t18.5 -5t19 -2.5t22 -1.5q39 0 68.5 6t53 19.5t33 20.5 t30.5 24l65 -138q-123 -107 -252 -107q-39 0 -72 7t-50 14.5t-39 19.5q-5 3 -15 9.5t-15 9.5t-14.5 8.5t-16 8.5t-17 6.5t-19.5 5.5t-21 3t-25 1q-100 0 -184 -84z" />
<glyph unicode="&#xd2;" horiz-adv-x="1811" d="M182 735q0 111 27 220.5t78 211t130 188t178.5 150.5t229 100.5t275.5 36.5q158 0 291 -41.5t225 -112.5t156.5 -167t95 -205t30.5 -227q0 -114 -27.5 -225t-79.5 -212.5t-132.5 -188t-181 -150t-231.5 -99.5t-278 -36q-130 0 -243 29t-198.5 81t-151.5 122.5t-108 155.5 t-63.5 178t-21.5 191zM746 773q0 -58 15 -109t44.5 -91.5t78 -64.5t109.5 -24q73 0 134.5 34t100.5 89.5t60.5 123.5t21.5 137q0 58 -15.5 109.5t-45 92t-78 64t-110.5 23.5q-73 0 -134 -34.5t-99.5 -90t-60 -123t-21.5 -136.5zM864 1919l112 113l243 -243l-117 -106z" />
<glyph unicode="&#xd3;" horiz-adv-x="1811" d="M182 735q0 111 27 220.5t78 211t130 188t178.5 150.5t229 100.5t275.5 36.5q158 0 291 -41.5t225 -112.5t156.5 -167t95 -205t30.5 -227q0 -114 -27.5 -225t-79.5 -212.5t-132.5 -188t-181 -150t-231.5 -99.5t-278 -36q-130 0 -243 29t-198.5 81t-151.5 122.5t-108 155.5 t-63.5 178t-21.5 191zM746 773q0 -58 15 -109t44.5 -91.5t78 -64.5t109.5 -24q73 0 134.5 34t100.5 89.5t60.5 123.5t21.5 137q0 58 -15.5 109.5t-45 92t-78 64t-110.5 23.5q-73 0 -134 -34.5t-99.5 -90t-60 -123t-21.5 -136.5zM1087 1789l241 237l113 -107l-239 -236z" />
<glyph unicode="&#xd4;" horiz-adv-x="1811" d="M182 735q0 111 27 220.5t78 211t130 188t178.5 150.5t229 100.5t275.5 36.5q158 0 291 -41.5t225 -112.5t156.5 -167t95 -205t30.5 -227q0 -114 -27.5 -225t-79.5 -212.5t-132.5 -188t-181 -150t-231.5 -99.5t-278 -36q-130 0 -243 29t-198.5 81t-151.5 122.5t-108 155.5 t-63.5 178t-21.5 191zM746 773q0 -58 15 -109t44.5 -91.5t78 -64.5t109.5 -24q73 0 134.5 34t100.5 89.5t60.5 123.5t21.5 137q0 58 -15.5 109.5t-45 92t-78 64t-110.5 23.5q-73 0 -134 -34.5t-99.5 -90t-60 -123t-21.5 -136.5zM855 1800l249 246h76l223 -226l-93 -87 l-176 172l-193 -193z" />
<glyph unicode="&#xd5;" horiz-adv-x="1811" d="M182 735q0 111 27 220.5t78 211t130 188t178.5 150.5t229 100.5t275.5 36.5q158 0 291 -41.5t225 -112.5t156.5 -167t95 -205t30.5 -227q0 -114 -27.5 -225t-79.5 -212.5t-132.5 -188t-181 -150t-231.5 -99.5t-278 -36q-130 0 -243 29t-198.5 81t-151.5 122.5t-108 155.5 t-63.5 178t-21.5 191zM727 1894q37 42 108.5 76.5t142.5 34.5q94 0 170 -44q4 -2 13 -7l13.5 -7.5t13 -6.5t14 -6.5t14 -6t15.5 -5t16 -3.5t18 -2.5t19 -0.5q39 0 68.5 5.5t53.5 19.5t32.5 21t30.5 25l65 -139q-123 -106 -252 -106q-39 0 -72 6.5t-50 14t-39 20.5 q-4 2 -16.5 10t-18 11t-16.5 9.5t-19.5 9t-20.5 6t-25 5t-27 1.5q-100 0 -184 -85zM746 773q0 -58 15 -109t44.5 -91.5t78 -64.5t109.5 -24q73 0 134.5 34t100.5 89.5t60.5 123.5t21.5 137q0 58 -15.5 109.5t-45 92t-78 64t-110.5 23.5q-73 0 -134 -34.5t-99.5 -90t-60 -123 t-21.5 -136.5z" />
<glyph unicode="&#xd6;" horiz-adv-x="1811" d="M182 735q0 111 27 220.5t78 211t130 188t178.5 150.5t229 100.5t275.5 36.5q158 0 291 -41.5t225 -112.5t156.5 -167t95 -205t30.5 -227q0 -114 -27.5 -225t-79.5 -212.5t-132.5 -188t-181 -150t-231.5 -99.5t-278 -36q-130 0 -243 29t-198.5 81t-151.5 122.5t-108 155.5 t-63.5 178t-21.5 191zM744 1887q0 71 48 124.5t134 53.5q82 0 127 -49t45 -118q0 -70 -49.5 -124t-134.5 -54q-82 0 -126 49t-44 118zM746 773q0 -58 15 -109t44.5 -91.5t78 -64.5t109.5 -24q73 0 134.5 34t100.5 89.5t60.5 123.5t21.5 137q0 58 -15.5 109.5t-45 92t-78 64 t-110.5 23.5q-73 0 -134 -34.5t-99.5 -90t-60 -123t-21.5 -136.5zM1267 1887q0 45 20 84.5t63 66.5t101 27q42 0 75 -14t53 -38t31 -53t11 -62q0 -71 -48.5 -124.5t-133.5 -53.5q-82 0 -127 49.5t-45 117.5z" />
<glyph unicode="&#xd7;" horiz-adv-x="1282" d="M87 128l445 447l-445 446l108 109l447 -448l447 448l109 -109l-448 -446l448 -447l-109 -110l-447 448l-447 -448z" />
<glyph unicode="&#xd8;" horiz-adv-x="1811" d="M204 735q0 111 27 220.5t78 211t130.5 188t179 150.5t229.5 100.5t275 36.5q222 0 400 -82l84 111h232l-162 -214q80 -69 135.5 -161t82 -194t26.5 -213q0 -97 -19.5 -193t-59.5 -186t-97 -170t-135 -146.5t-170.5 -114.5t-207 -74.5t-241.5 -26.5q-209 0 -375 74 l-73 -98h-229l148 196q-127 105 -192.5 258t-65.5 327zM768 773q0 -99 39 -166l393 525q-51 25 -116 25q-72 0 -133.5 -34.5t-100.5 -90t-60.5 -123t-21.5 -136.5zM950 493q24 -9 66 -9q73 0 134 34t100 89.5t60.5 123.5t21.5 137q0 64 -16 112z" />
<glyph unicode="&#xd9;" horiz-adv-x="1506" d="M173 475q0 56 16 154l175 994h523l-175 -996q-9 -48 -9 -70q0 -57 33 -89t80 -32q37 0 67 12.5t54.5 43.5t32.5 79l184 1052h523l-193 -1096q-26 -145 -88 -250.5t-157 -169t-214 -93.5t-268 -30q-129 0 -237 34t-184.5 96.5t-119.5 155t-43 205.5zM741 1919l111 113 l244 -243l-116 -106z" />
<glyph unicode="&#xda;" horiz-adv-x="1506" d="M173 475q0 56 16 154l175 994h523l-175 -996q-9 -48 -9 -70q0 -57 33 -89t80 -32q37 0 67 12.5t54.5 43.5t32.5 79l184 1052h523l-193 -1096q-26 -145 -88 -250.5t-157 -169t-214 -93.5t-268 -30q-129 0 -237 34t-184.5 96.5t-119.5 155t-43 205.5zM963 1789l244 237 l114 -107l-239 -236z" />
<glyph unicode="&#xdb;" horiz-adv-x="1506" d="M173 475q0 56 16 154l175 994h523l-175 -996q-9 -48 -9 -70q0 -57 33 -89t80 -32q37 0 67 12.5t54.5 43.5t32.5 79l184 1052h523l-193 -1096q-26 -145 -88 -250.5t-157 -169t-214 -93.5t-268 -30q-129 0 -237 34t-184.5 96.5t-119.5 155t-43 205.5zM777 1778l251 246h74 l223 -226l-93 -89l-175 174l-193 -194z" />
<glyph unicode="&#xdc;" horiz-adv-x="1506" d="M173 475q0 56 16 154l175 994h523l-175 -996q-9 -48 -9 -70q0 -57 33 -89t80 -32q37 0 67 12.5t54.5 43.5t32.5 79l184 1052h523l-193 -1096q-26 -145 -88 -250.5t-157 -169t-214 -93.5t-268 -30q-129 0 -237 34t-184.5 96.5t-119.5 155t-43 205.5zM618 1887 q0 71 48.5 124.5t133.5 53.5q82 0 127.5 -49.5t45.5 -117.5q0 -70 -49 -124t-135 -54q-82 0 -126.5 49t-44.5 118zM1141 1887q0 71 49.5 124.5t134.5 53.5q82 0 126.5 -49t44.5 -118q0 -71 -48 -124.5t-134 -53.5q-82 0 -127.5 49.5t-45.5 117.5z" />
<glyph unicode="&#xdd;" horiz-adv-x="1566" d="M321 1623h534l147 -404l278 404h553l-660 -879l-130 -744h-534l133 744zM978 1789l241 237l113 -107l-239 -236z" />
<glyph unicode="&#xde;" horiz-adv-x="1401" d="M91 0l284 1623h534l-41 -241h145q110 0 203.5 -36t158 -99t101 -150t36.5 -186q0 -56 -10 -110.5t-33 -109.5t-57.5 -103t-86.5 -90t-117 -72t-152.5 -47t-189.5 -17h-177l-66 -362h-532zM757 753h87q43 0 75.5 18t49 47t16.5 64q0 30 -14 54t-38.5 38.5t-54.5 14.5h-80z " />
<glyph unicode="&#xdf;" horiz-adv-x="1854" d="M198 0l134 766h-128l60 348h127l4 23q28 138 88 235.5t154 157t216.5 87t283.5 27.5q157 0 283 -26.5t215.5 -79t137 -133t47.5 -184.5q0 -57 -13.5 -102.5t-31.5 -73.5t-49 -52t-51.5 -35t-53.5 -26q227 -89 227 -391q0 -113 -34 -204t-93.5 -153t-141.5 -104 t-175.5 -61t-199.5 -19h-324l70 418h198q197 0 197 173q0 66 -26.5 101t-91.5 50t-190 15l52 286q92 0 135 33.5t43 101.5q0 57 -48.5 88.5t-116.5 31.5q-53 0 -91.5 -19t-60.5 -50.5t-30 -76.5l-202 -1152h-520z" />
<glyph unicode="&#xe0;" horiz-adv-x="1536" d="M152 443q0 80 19 161t54.5 157t89.5 142.5t121 116t153 78t181 28.5q118 0 188.5 -33t117.5 -100l22 121h509l-195 -1114h-510l24 128q-29 -35 -56 -59t-66.5 -46.5t-91.5 -33.5t-118 -11q-89 0 -162.5 25t-124.5 68t-86.5 102t-52 127t-16.5 143zM548 1491l122 125 l271 -271l-127 -117zM638 532q0 -74 38.5 -123t112.5 -49q63 0 112.5 38.5t74 95t24.5 115.5q0 74 -39 124t-113 50q-63 0 -112.5 -39.5t-73.5 -96t-24 -115.5z" />
<glyph unicode="&#xe1;" horiz-adv-x="1536" d="M152 443q0 80 19 161t54.5 157t89.5 142.5t121 116t153 78t181 28.5q118 0 188.5 -33t117.5 -100l22 121h509l-195 -1114h-510l24 128q-29 -35 -56 -59t-66.5 -46.5t-91.5 -33.5t-118 -11q-89 0 -162.5 25t-124.5 68t-86.5 102t-52 127t-16.5 143zM638 532 q0 -74 38.5 -123t112.5 -49q63 0 112.5 38.5t74 95t24.5 115.5q0 74 -39 124t-113 50q-63 0 -112.5 -39.5t-73.5 -96t-24 -115.5zM761 1336l269 265l124 -119l-265 -263z" />
<glyph unicode="&#xe2;" horiz-adv-x="1536" d="M152 443q0 80 19 161t54.5 157t89.5 142.5t121 116t153 78t181 28.5q118 0 188.5 -33t117.5 -100l22 121h509l-195 -1114h-510l24 128q-29 -35 -56 -59t-66.5 -46.5t-91.5 -33.5t-118 -11q-89 0 -162.5 25t-124.5 68t-86.5 102t-52 127t-16.5 143zM616 1343l280 273h84 l245 -250l-102 -97l-193 193l-218 -217zM638 532q0 -74 38.5 -123t112.5 -49q63 0 112.5 38.5t74 95t24.5 115.5q0 74 -39 124t-113 50q-63 0 -112.5 -39.5t-73.5 -96t-24 -115.5z" />
<glyph unicode="&#xe3;" horiz-adv-x="1536" d="M152 443q0 80 19 161t54.5 157t89.5 142.5t121 116t153 78t181 28.5q118 0 188.5 -33t117.5 -100l22 121h509l-195 -1114h-510l24 128q-29 -35 -56 -59t-66.5 -46.5t-91.5 -33.5t-118 -11q-89 0 -162.5 25t-124.5 68t-86.5 102t-52 127t-16.5 143zM493 1443 q27 30 70 57.5t100 47.5t110 20q63 0 105.5 -13t82.5 -37q3 -1 15 -7.5t15.5 -8.5t13.5 -7.5t15.5 -7.5t15 -6t17 -5.5l17.5 -3.5t20 -2.5t21 -0.5q35 0 66 5.5t48.5 11t39 20t27.5 19.5t24 21l75 -153q-66 -56 -132.5 -87t-149.5 -31q-63 0 -102 12t-77 34q-3 2 -21 13 t-23.5 14t-21.5 11t-27.5 10.5t-29 5.5t-37.5 3q-111 0 -204 -94zM638 532q0 -74 38.5 -123t112.5 -49q63 0 112.5 38.5t74 95t24.5 115.5q0 74 -39 124t-113 50q-63 0 -112.5 -39.5t-73.5 -96t-24 -115.5z" />
<glyph unicode="&#xe4;" horiz-adv-x="1536" d="M152 443q0 80 19 161t54.5 157t89.5 142.5t121 116t153 78t181 28.5q118 0 188.5 -33t117.5 -100l22 121h509l-195 -1114h-510l24 128q-29 -35 -56 -59t-66.5 -46.5t-91.5 -33.5t-118 -11q-89 0 -162.5 25t-124.5 68t-86.5 102t-52 127t-16.5 143zM505 1430q0 41 15 80.5 t42.5 71.5t72.5 51.5t100 19.5q68 0 118 -30.5t72.5 -76.5t22.5 -100q0 -41 -15 -80.5t-42.5 -71.5t-72.5 -51.5t-100 -19.5q-68 0 -118 30.5t-72.5 76.5t-22.5 100zM638 532q0 -74 38.5 -123t112.5 -49q63 0 112.5 38.5t74 95t24.5 115.5q0 74 -39 124t-113 50 q-63 0 -112.5 -39.5t-73.5 -96t-24 -115.5zM1098 1430q0 41 15 80.5t42.5 71.5t72.5 51.5t100 19.5q68 0 118 -30.5t73 -76.5t23 -100q0 -33 -9 -65t-28 -60.5t-46 -50t-65 -34.5t-82 -13q-102 0 -158 61t-56 146z" />
<glyph unicode="&#xe5;" horiz-adv-x="1536" d="M152 443q0 80 19 161t54.5 157t89.5 142.5t121 116t153 78t181 28.5q118 0 188.5 -33t117.5 -100l22 121h509l-195 -1114h-510l24 128q-29 -35 -56 -59t-66.5 -46.5t-91.5 -33.5t-118 -11q-89 0 -162.5 25t-124.5 68t-86.5 102t-52 127t-16.5 143zM638 532 q0 -74 38.5 -123t112.5 -49q63 0 112.5 38.5t74 95t24.5 115.5q0 74 -39 124t-113 50q-63 0 -112.5 -39.5t-73.5 -96t-24 -115.5zM735 1412q0 46 17 89.5t49 79t83 57t114 21.5q71 0 121.5 -29t74 -74t23.5 -99q0 -45 -17.5 -88t-50 -78.5t-85 -57t-116.5 -21.5 q-102 0 -157.5 58.5t-55.5 141.5zM811 1419q0 -57 39 -96t111 -39q33 0 61 10t48.5 26.5t35 38t21.5 45.5t7 49q0 56 -38 95t-111 39q-78 0 -126 -52t-48 -116z" />
<glyph unicode="&#xe6;" horiz-adv-x="2358" d="M152 443q0 80 19 161t54.5 157t89.5 142.5t121 116t153 78t181 28.5q118 0 188.5 -33t117.5 -100l22 121h341l-14 -73q159 93 364 93q126 0 227.5 -28.5t169 -76.5t113 -113.5t65.5 -137t20 -149.5q0 -75 -15 -138h-773q-14 -48 -14 -89q0 -28 6.5 -52t21.5 -45.5 t43 -33.5t67 -12q23 0 41.5 4.5t33.5 15t24.5 18.5t20 25t14 24l12.5 25l466 -57q-18 -54 -47 -101.5t-79.5 -94.5t-116.5 -80t-162.5 -54t-212.5 -21q-284 0 -447 160l-24 -123h-341l24 128q-29 -35 -56 -59t-66.5 -46.5t-91.5 -33.5t-118 -11q-89 0 -162.5 25t-124.5 68 t-86.5 102t-52 127t-16.5 143zM638 532q0 -74 38.5 -123t112.5 -49q63 0 112.5 38.5t74 95t24.5 115.5q0 74 -39 124t-113 50q-63 0 -112.5 -39.5t-73.5 -96t-24 -115.5zM1639 705h287q4 22 4 43q0 102 -130 102q-32 0 -59 -10.5t-44 -26t-29.5 -36t-18.5 -38t-10 -34.5z " />
<glyph unicode="&#xe7;" horiz-adv-x="926" d="M128 451q0 68 13 137t40.5 135.5t66 126.5t92 110.5t116.5 87t142 57.5t166 21q108 0 189 -19.5t118 -45.5l-60 -341q-14 15 -19.5 21t-21.5 17t-31 16t-41 9t-59 4q-64 0 -115 -42.5t-76 -105t-25 -127.5q0 -51 16 -91.5t52 -67t88 -26.5q20 0 37 2t29.5 4t25 7t20 9 t17.5 11.5t15 12t15.5 14.5t16.5 15l-61 -350q-54 -33 -111.5 -51.5t-159.5 -22.5l-35 -65q23 -17 38.5 -48t15.5 -65q0 -61 -42.5 -106.5t-122.5 -45.5q-27 0 -54 7t-51 20.5t-42 31.5l17 98q42 -33 80 -33q31 0 47.5 19t16.5 46q0 40 -34 70l41 73q-91 10 -162.5 52.5 t-116.5 107t-68 143.5t-23 168z" />
<glyph unicode="&#xe8;" horiz-adv-x="1345" d="M148 501q0 94 28 186t85 174.5t135.5 145.5t188.5 99.5t235 36.5q126 0 228 -29.5t169.5 -78.5t113 -116t65.5 -139.5t20 -150.5q0 -75 -15 -138h-774q-13 -45 -13 -89q0 -22 4 -42t13.5 -39t25 -32.5t40 -21.5t56.5 -8q26 0 48.5 8t36 17t27 28.5t18.5 28.5t15 30 l466 -57q-18 -54 -47 -101.5t-79.5 -94.5t-116.5 -80t-162.5 -54t-212.5 -21q-120 0 -219.5 29.5t-168.5 80t-117 119t-70.5 146.5t-22.5 163zM548 1491l122 125l271 -271l-127 -117zM670 705h287q4 22 4 43q0 102 -129 102q-39 0 -70.5 -15t-49.5 -39t-28 -46.5t-14 -44.5z " />
<glyph unicode="&#xe9;" horiz-adv-x="1345" d="M148 501q0 94 28 186t85 174.5t135.5 145.5t188.5 99.5t235 36.5q126 0 228 -29.5t169.5 -78.5t113 -116t65.5 -139.5t20 -150.5q0 -75 -15 -138h-774q-13 -45 -13 -89q0 -22 4 -42t13.5 -39t25 -32.5t40 -21.5t56.5 -8q26 0 48.5 8t36 17t27 28.5t18.5 28.5t15 30 l466 -57q-18 -54 -47 -101.5t-79.5 -94.5t-116.5 -80t-162.5 -54t-212.5 -21q-120 0 -219.5 29.5t-168.5 80t-117 119t-70.5 146.5t-22.5 163zM670 705h287q4 22 4 43q0 102 -129 102q-39 0 -70.5 -15t-49.5 -39t-28 -46.5t-14 -44.5zM761 1336l269 265l124 -119l-265 -263z " />
<glyph unicode="&#xea;" horiz-adv-x="1345" d="M148 501q0 94 28 186t85 174.5t135.5 145.5t188.5 99.5t235 36.5q126 0 228 -29.5t169.5 -78.5t113 -116t65.5 -139.5t20 -150.5q0 -75 -15 -138h-774q-13 -45 -13 -89q0 -22 4 -42t13.5 -39t25 -32.5t40 -21.5t56.5 -8q26 0 48.5 8t36 17t27 28.5t18.5 28.5t15 30 l466 -57q-18 -54 -47 -101.5t-79.5 -94.5t-116.5 -80t-162.5 -54t-212.5 -21q-120 0 -219.5 29.5t-168.5 80t-117 119t-70.5 146.5t-22.5 163zM562 1343l279 273h85l245 -250l-102 -97l-194 193l-218 -217zM670 705h287q4 22 4 43q0 102 -129 102q-39 0 -70.5 -15t-49.5 -39 t-28 -46.5t-14 -44.5z" />
<glyph unicode="&#xeb;" horiz-adv-x="1345" d="M148 501q0 94 28 186t85 174.5t135.5 145.5t188.5 99.5t235 36.5q126 0 228 -29.5t169.5 -78.5t113 -116t65.5 -139.5t20 -150.5q0 -75 -15 -138h-774q-13 -45 -13 -89q0 -22 4 -42t13.5 -39t25 -32.5t40 -21.5t56.5 -8q26 0 48.5 8t36 17t27 28.5t18.5 28.5t15 30 l466 -57q-18 -54 -47 -101.5t-79.5 -94.5t-116.5 -80t-162.5 -54t-212.5 -21q-120 0 -219.5 29.5t-168.5 80t-117 119t-70.5 146.5t-22.5 163zM382 1430q0 33 9 65t28 60.5t46 50t64.5 34.5t82.5 13q68 0 117.5 -30.5t72.5 -76.5t23 -100q0 -41 -15 -80.5t-42.5 -71.5 t-72 -51.5t-99.5 -19.5q-101 0 -157.5 61t-56.5 146zM670 705h287q4 22 4 43q0 102 -129 102q-39 0 -70.5 -15t-49.5 -39t-28 -46.5t-14 -44.5zM976 1430q0 41 14.5 80.5t42 71.5t72 51.5t99.5 19.5q69 0 119 -30.5t73 -76.5t23 -100q0 -41 -15 -80.5t-43 -71.5t-72.5 -51.5 t-99.5 -19.5q-69 0 -118.5 30.5t-72 76.5t-22.5 100z" />
<glyph unicode="&#xec;" horiz-adv-x="761" d="M148 0l199 1114h464l-199 -1114h-464zM273 1491l122 125l273 -271l-127 -117z" />
<glyph unicode="&#xed;" horiz-adv-x="761" d="M148 0l199 1114h464l-199 -1114h-464zM521 1336l268 265l125 -119l-266 -263z" />
<glyph unicode="&#xee;" horiz-adv-x="761" d="M148 0l199 1114h464l-199 -1114h-464zM312 1343l276 273h85l245 -250l-102 -97l-193 193l-216 -217z" />
<glyph unicode="&#xef;" horiz-adv-x="761" d="M82 1430q0 33 9 65t28 60.5t46 50t65 34.5t82 13q68 0 118 -30.5t72.5 -76.5t22.5 -100q0 -41 -15 -80.5t-42.5 -71.5t-72.5 -51.5t-100 -19.5q-68 0 -118 30.5t-72.5 76.5t-22.5 100zM148 0l199 1114h464l-199 -1114h-464zM675 1430q0 41 15 80.5t42.5 71.5t72.5 51.5 t100 19.5q101 0 157.5 -61t56.5 -146q0 -41 -15 -80.5t-42.5 -71.5t-72.5 -51.5t-100 -19.5q-101 0 -157.5 61t-56.5 146z" />
<glyph unicode="&#xf0;" horiz-adv-x="1371" d="M134 518q0 72 21 144.5t60 141.5t101 129t138.5 105t178 70.5t215.5 25.5h27q-53 87 -129 150l-205 -113l-189 118l207 121q-78 46 -140.5 73t-156.5 59l229 226q8 -2 25 -8q79 -25 121 -39.5t105.5 -43.5t118.5 -65l200 113l189 -120l-196 -114q119 -80 204.5 -213 t130.5 -303t45 -361q0 -95 -27.5 -187t-85.5 -174.5t-140 -145.5t-199.5 -100t-254.5 -37q-118 0 -216.5 29t-167.5 79t-116.5 119.5t-70 150.5t-22.5 170zM616 532q0 -33 9 -62.5t27 -53t46.5 -37t65.5 -13.5q61 0 108 35.5t69 87t22 107.5q0 70 -37 116.5t-108 46.5 q-63 0 -110.5 -35t-69.5 -86t-22 -106z" />
<glyph unicode="&#xf1;" horiz-adv-x="1510" d="M118 0l196 1114h525l-28 -157q37 35 61.5 55.5t64 46.5t78.5 40t95 23.5t122 9.5q60 0 109 -11.5t83 -32.5t59 -49t39.5 -63.5t21.5 -73t7 -79.5q0 -63 -15 -134l-120 -689h-520l117 675q6 33 6 48q0 102 -105 102q-38 0 -65.5 -11.5t-44 -33.5t-25.5 -44.5t-15 -53.5 l-122 -682h-524zM516 1443q44 48 123.5 86.5t156.5 38.5q63 0 106 -13t83 -37q2 -1 14 -7.5t15.5 -8.5t14 -7.5t15.5 -7.5l15 -6t17 -5.5t17 -3.5t20 -2.5t21 -0.5q36 0 66.5 5.5t47.5 11t39.5 20.5t27 19t24.5 21l75 -153q-66 -56 -132.5 -87t-149.5 -31q-62 0 -102 12.5 t-78 33.5q-4 3 -21 13.5t-23 14t-21.5 11t-27 10t-29 5.5t-36.5 3q-112 0 -206 -94z" />
<glyph unicode="&#xf2;" horiz-adv-x="1371" d="M134 518q0 72 21 144.5t60 141.5t101 129t138.5 105t178 70.5t215.5 25.5q116 0 213 -28t165 -77.5t115.5 -115.5t70 -141.5t22.5 -157.5q0 -95 -27.5 -187t-85.5 -174.5t-140 -145.5t-199.5 -100t-254.5 -37q-118 0 -216.5 29t-167.5 79t-116.5 119.5t-70 150.5 t-22.5 170zM548 1491l122 125l271 -271l-127 -117zM616 532q0 -33 9 -62.5t27 -53t46.5 -37t65.5 -13.5q61 0 108 35.5t69 87t22 107.5q0 70 -37 116.5t-108 46.5q-63 0 -110.5 -35t-69.5 -86t-22 -106z" />
<glyph unicode="&#xf3;" horiz-adv-x="1371" d="M134 518q0 72 21 144.5t60 141.5t101 129t138.5 105t178 70.5t215.5 25.5q116 0 213 -28t165 -77.5t115.5 -115.5t70 -141.5t22.5 -157.5q0 -95 -27.5 -187t-85.5 -174.5t-140 -145.5t-199.5 -100t-254.5 -37q-118 0 -216.5 29t-167.5 79t-116.5 119.5t-70 150.5 t-22.5 170zM616 532q0 -33 9 -62.5t27 -53t46.5 -37t65.5 -13.5q61 0 108 35.5t69 87t22 107.5q0 70 -37 116.5t-108 46.5q-63 0 -110.5 -35t-69.5 -86t-22 -106zM785 1336l267 265l126 -119l-267 -263z" />
<glyph unicode="&#xf4;" horiz-adv-x="1371" d="M134 518q0 72 21 144.5t60 141.5t101 129t138.5 105t178 70.5t215.5 25.5q116 0 213 -28t165 -77.5t115.5 -115.5t70 -141.5t22.5 -157.5q0 -95 -27.5 -187t-85.5 -174.5t-140 -145.5t-199.5 -100t-254.5 -37q-118 0 -216.5 29t-167.5 79t-116.5 119.5t-70 150.5 t-22.5 170zM553 1343l277 273h84l245 -250l-102 -97l-191 193l-218 -217zM616 532q0 -33 9 -62.5t27 -53t46.5 -37t65.5 -13.5q61 0 108 35.5t69 87t22 107.5q0 70 -37 116.5t-108 46.5q-63 0 -110.5 -35t-69.5 -86t-22 -106z" />
<glyph unicode="&#xf5;" horiz-adv-x="1371" d="M134 518q0 72 21 144.5t60 141.5t101 129t138.5 105t178 70.5t215.5 25.5q116 0 213 -28t165 -77.5t115.5 -115.5t70 -141.5t22.5 -157.5q0 -95 -27.5 -187t-85.5 -174.5t-140 -145.5t-199.5 -100t-254.5 -37q-118 0 -216.5 29t-167.5 79t-116.5 119.5t-70 150.5 t-22.5 170zM423 1443q44 48 123 86.5t157 38.5q27 0 51 -2.5t42.5 -7t36.5 -11.5t31 -13.5t27 -15.5q3 -1 15 -7.5t15.5 -8.5t14 -7.5t15.5 -7.5t14.5 -6t17 -5.5l17.5 -3.5t20 -2.5t21 -0.5q42 0 74.5 6t56.5 19t36.5 22t31.5 25q3 4 5 5l76 -153q-32 -26 -60 -45.5 t-63 -37t-75 -26.5t-84 -9q-63 0 -102.5 12.5t-77.5 33.5q-5 3 -21.5 13.5t-22.5 14t-21.5 11t-27 10t-29 5.5t-37.5 3q-112 0 -205 -94zM616 532q0 -33 9 -62.5t27 -53t46.5 -37t65.5 -13.5q61 0 108 35.5t69 87t22 107.5q0 70 -37 116.5t-108 46.5q-63 0 -110.5 -35 t-69.5 -86t-22 -106z" />
<glyph unicode="&#xf6;" horiz-adv-x="1371" d="M134 518q0 72 21 144.5t60 141.5t101 129t138.5 105t178 70.5t215.5 25.5q116 0 213 -28t165 -77.5t115.5 -115.5t70 -141.5t22.5 -157.5q0 -95 -27.5 -187t-85.5 -174.5t-140 -145.5t-199.5 -100t-254.5 -37q-118 0 -216.5 29t-167.5 79t-116.5 119.5t-70 150.5 t-22.5 170zM397 1430q0 33 9.5 65t28.5 60.5t45.5 50t64.5 34.5t82 13q102 0 158 -61t56 -146q0 -41 -14.5 -80.5t-42.5 -71.5t-72.5 -51.5t-99.5 -19.5q-102 0 -158.5 61t-56.5 146zM616 532q0 -33 9 -62.5t27 -53t46.5 -37t65.5 -13.5q61 0 108 35.5t69 87t22 107.5 q0 70 -37 116.5t-108 46.5q-63 0 -110.5 -35t-69.5 -86t-22 -106zM991 1430q0 41 15 80.5t42.5 71.5t72.5 51.5t100 19.5q68 0 118 -30.5t72.5 -76.5t22.5 -100q0 -41 -15 -80.5t-42.5 -71.5t-72.5 -51.5t-100 -19.5q-68 0 -117.5 30.5t-72.5 76.5t-23 100z" />
<glyph unicode="&#xf7;" d="M157 573l49 282h833l-48 -282h-834zM289 216q0 47 17 91.5t49 81t83 58t113 21.5q56 0 101.5 -18t73 -49.5t42.5 -70.5t15 -82q0 -48 -17 -92t-49 -80.5t-83 -58t-113 -21.5q-75 0 -129 32t-78.5 81t-24.5 107zM395 1187q0 47 17.5 91.5t49.5 80.5t82.5 58t112.5 22 q75 0 129 -32t78.5 -81t24.5 -107q0 -38 -10.5 -74t-32 -68.5t-52 -57t-74 -39t-93.5 -14.5q-57 0 -102 18.5t-73 49.5t-42.5 70t-14.5 83z" />
<glyph unicode="&#xf8;" horiz-adv-x="1299" d="M134 518q0 72 21 144.5t60 141.5t101 129t138.5 105t178 70.5t215.5 25.5q144 0 252 -41l64 85h146l-106 -137q57 -35 101 -82.5t72 -103t42.5 -116.5t14.5 -125q0 -95 -27.5 -187t-85.5 -174.5t-140 -145.5t-199.5 -100t-254.5 -37q-173 0 -300 60l-61 -82h-145l109 141 q-97 73 -146.5 185t-49.5 244zM616 532q0 -33 9 -62.5t27 -53t46.5 -37t65.5 -13.5q61 0 108 35.5t69 87t22 107.5q0 70 -37 116.5t-108 46.5q-63 0 -110.5 -35t-69.5 -86t-22 -106z" />
<glyph unicode="&#xf9;" horiz-adv-x="1438" d="M175 397q0 51 9 94l113 623h510l-111 -626q-4 -22 -4 -33q0 -20 5 -36.5t16 -30.5t30.5 -22.5t45.5 -8.5q36 0 62 11.5t41 32t23 41t13 46.5l111 626h512l-121 -678q-15 -76 -46 -142t-87.5 -126t-133.5 -102t-188.5 -67t-247.5 -25q-115 0 -208 23t-156 62t-106 93 t-62.5 115.5t-19.5 129.5zM588 1491l124 125l273 -271l-128 -117z" />
<glyph unicode="&#xfa;" horiz-adv-x="1438" d="M175 397q0 51 9 94l113 623h510l-111 -626q-4 -22 -4 -33q0 -20 5 -36.5t16 -30.5t30.5 -22.5t45.5 -8.5q36 0 62 11.5t41 32t23 41t13 46.5l111 626h512l-121 -678q-15 -76 -46 -142t-87.5 -126t-133.5 -102t-188.5 -67t-247.5 -25q-115 0 -208 23t-156 62t-106 93 t-62.5 115.5t-19.5 129.5zM844 1336l270 265l125 -119l-266 -263z" />
<glyph unicode="&#xfb;" horiz-adv-x="1438" d="M175 397q0 51 9 94l113 623h510l-111 -626q-4 -22 -4 -33q0 -20 5 -36.5t16 -30.5t30.5 -22.5t45.5 -8.5q36 0 62 11.5t41 32t23 41t13 46.5l111 626h512l-121 -678q-15 -76 -46 -142t-87.5 -126t-133.5 -102t-188.5 -67t-247.5 -25q-115 0 -208 23t-156 62t-106 93 t-62.5 115.5t-19.5 129.5zM636 1343l278 273h84l245 -250l-102 -97l-193 193l-219 -217z" />
<glyph unicode="&#xfc;" horiz-adv-x="1438" d="M175 397q0 51 9 94l113 623h510l-111 -626q-4 -22 -4 -33q0 -20 5 -36.5t16 -30.5t30.5 -22.5t45.5 -8.5q36 0 62 11.5t41 32t23 41t13 46.5l111 626h512l-121 -678q-15 -76 -46 -142t-87.5 -126t-133.5 -102t-188.5 -67t-247.5 -25q-115 0 -208 23t-156 62t-106 93 t-62.5 115.5t-19.5 129.5zM447 1430q0 41 15 80.5t43 71.5t72.5 51.5t99.5 19.5q102 0 158 -61t56 -146q0 -27 -6.5 -54t-19 -52t-32 -46t-44.5 -37t-57.5 -25t-69.5 -9q-102 0 -158.5 61t-56.5 146zM1041 1430q0 41 15 80.5t42.5 71.5t72.5 51.5t100 19.5q68 0 118 -30.5 t72.5 -76.5t22.5 -100q0 -41 -15 -80.5t-42.5 -71.5t-72.5 -51.5t-100 -19.5q-68 0 -117.5 30.5t-72.5 76.5t-23 100z" />
<glyph unicode="&#xfd;" horiz-adv-x="1399" d="M91 -464l382 623l-252 955h514l85 -422l234 422h528l-979 -1578h-512zM757 1336l271 271l124 -125l-270 -270z" />
<glyph unicode="&#xfe;" horiz-adv-x="1529" d="M50 -462l382 2141h520l-127 -699q48 74 119.5 112t194.5 38q90 0 165.5 -27.5t128.5 -75t89.5 -112t54 -138.5t17.5 -154q0 -98 -21 -190.5t-67 -176.5t-112 -146.5t-162.5 -100t-212.5 -37.5q-132 0 -212.5 36t-133.5 96l-100 -566h-523zM741 514q0 -74 36.5 -123.5 t107.5 -49.5q47 0 86 22t62.5 58.5t36 80t12.5 89.5q0 74 -36 123.5t-107 49.5q-30 0 -58 -10.5t-49 -28.5t-38.5 -42t-28.5 -52t-17.5 -58t-6.5 -59z" />
<glyph unicode="&#xff;" horiz-adv-x="1399" d="M91 -464l382 623l-252 955h514l85 -422l234 422h528l-979 -1578h-512zM443 1430q0 41 15 80.5t42.5 71.5t72.5 51.5t100 19.5q101 0 157.5 -61t56.5 -146q0 -27 -6.5 -54t-19 -52t-32.5 -46t-44.5 -37t-57.5 -25t-70 -9q-101 0 -157.5 61t-56.5 146zM1037 1430 q0 41 14.5 80.5t42.5 71.5t73 51.5t100 19.5q68 0 117.5 -30.5t72.5 -76.5t23 -100q0 -41 -15 -80.5t-43 -71.5t-72.5 -51.5t-99.5 -19.5q-69 0 -118.5 30.5t-72 76.5t-22.5 100z" />
<glyph unicode="&#x131;" horiz-adv-x="761" d="M148 0l199 1114h464l-199 -1114h-464z" />
<glyph unicode="&#x141;" horiz-adv-x="1202" d="M63 343l55 321l107 106l150 853h523l-80 -448l119 118l-55 -320l-121 -121l-77 -445h503l-70 -407h-1026l80 451z" />
<glyph unicode="&#x142;" horiz-adv-x="770" d="M102 343l55 321l107 106l161 913h521l-94 -531l118 119l-54 -321l-120 -120l-146 -830h-522l78 447z" />
<glyph unicode="&#x152;" horiz-adv-x="2707" d="M204 735q0 111 27 220.5t78 211t130.5 188t179 150.5t229.5 100.5t275 36.5q125 0 234 -26t194.5 -73.5t151.5 -111t113 -142.5l60 334h1048l-71 -404h-525l-37 -210h496l-71 -406h-497l-35 -196h526l-73 -407h-1045l35 209q-118 -110 -278.5 -170.5t-357.5 -60.5 q-155 0 -286 41.5t-222 113t-155 168t-94 206t-30 228.5zM768 773q0 -58 15 -109t44.5 -91.5t78 -64.5t110.5 -24q73 0 134 34t100 89.5t60.5 123.5t21.5 137q0 58 -15 109.5t-44.5 92t-78 64t-110.5 23.5q-72 0 -133.5 -34.5t-100.5 -90t-60.5 -123t-21.5 -136.5z" />
<glyph unicode="&#x153;" horiz-adv-x="2167" d="M134 518q0 72 21 144.5t60 141.5t101 129t138.5 105t178 70.5t215.5 25.5q214 0 359 -93q164 102 377 102q125 0 227 -29.5t169.5 -78.5t113.5 -116t66 -139.5t20 -150.5q0 -75 -16 -138h-773q-13 -45 -13 -89q0 -28 6.5 -52t21.5 -45.5t43 -33.5t67 -12q23 0 41.5 4.5 t33 15t24.5 18.5t20 25t14 24t13 25l466 -57q-18 -54 -47 -101.5t-79.5 -94.5t-116.5 -80t-162.5 -54t-212.5 -21q-229 0 -384 107q-171 -100 -399 -100q-118 0 -216.5 29t-167.5 79t-116.5 119.5t-70 150.5t-22.5 170zM616 532q0 -33 9 -62.5t27 -53t46.5 -37t65.5 -13.5 q61 0 108 35.5t69 87t22 107.5q0 70 -37 116.5t-108 46.5q-63 0 -110.5 -35t-69.5 -86t-22 -106zM1434 705h286q5 22 5 43q0 102 -129 102q-40 0 -71.5 -15t-49 -39t-27.5 -46.5t-14 -44.5z" />
<glyph unicode="&#x160;" horiz-adv-x="1451" d="M78 200l170 336q63 -38 94.5 -56t81.5 -42.5t85.5 -35t83 -19t99.5 -8.5q37 0 67.5 8.5t50 23t30 33t10.5 37.5q0 24 -14.5 46t-44 39.5t-68.5 23.5q-244 40 -357.5 156t-113.5 306q0 85 29 169t86.5 158.5t135.5 132t184 91t224 33.5q115 0 209 -11t171 -34t130.5 -45 t122.5 -58l-171 -350q-114 62 -216.5 88t-234.5 26q-49 0 -87.5 -31.5t-38.5 -70.5q0 -38 39.5 -68.5t125.5 -42.5q249 -38 388.5 -182.5t139.5 -357.5q0 -87 -26.5 -162t-83 -139.5t-139.5 -110t-203 -71t-267 -25.5q-112 0 -218 19t-194 53.5t-151.5 66.5t-128.5 74z M644 1974l102 102l195 -196l213 213l96 -97l-277 -273h-82z" />
<glyph unicode="&#x161;" horiz-adv-x="1176" d="M54 115l182 249q39 -21 59.5 -30.5t59 -24t80 -21t90.5 -6.5q128 0 128 59q0 21 -13.5 35.5t-37 23t-61.5 14.5q-172 26 -252 100t-80 206q0 63 20.5 121.5t64.5 110.5t107.5 90.5t155 61t200.5 22.5q164 0 281 -20t226 -54l-150 -282q-202 46 -294 46q-69 0 -93 -13 t-24 -42q0 -51 122 -61q129 -10 218 -53t134.5 -118t45.5 -179q0 -80 -35 -147.5t-105 -119.5t-185 -81.5t-264 -29.5q-172 0 -322 39.5t-258 103.5zM451 1496l102 102l195 -195l213 213l96 -98l-278 -273h-81z" />
<glyph unicode="&#x178;" horiz-adv-x="1566" d="M321 1623h534l147 -404l278 404h553l-660 -879l-130 -744h-534l133 744zM638 1887q0 71 48.5 124.5t133.5 53.5q82 0 127.5 -49.5t45.5 -117.5q0 -70 -49 -124t-135 -54q-82 0 -126.5 49t-44.5 118zM1162 1887q0 71 49 124.5t134 53.5q82 0 126.5 -49t44.5 -118 q0 -71 -48 -124.5t-134 -53.5q-82 0 -127 49.5t-45 117.5z" />
<glyph unicode="&#x17d;" horiz-adv-x="1692" d="M37 0l891 1195h-566l74 428h1453l-904 -1193h659l-76 -430h-1531zM848 1974l102 102l196 -196l214 213l95 -97l-277 -273h-82z" />
<glyph unicode="&#x17e;" horiz-adv-x="1297" d="M98 0l540 716h-410l69 398h1108l-511 -707h388l-70 -407h-1114zM559 1496l103 102l195 -195l214 213l96 -98l-278 -273h-82z" />
<glyph unicode="&#x192;" horiz-adv-x="1518" d="M132 -4l220 1252h1253l-221 -1252h-1252z" />
<glyph unicode="&#x2c6;" horiz-adv-x="915" d="M236 1343l273 273h87l248 -247l-100 -100l-193 193l-217 -217z" />
<glyph unicode="&#x2c7;" horiz-adv-x="950" d="M223 1496l102 102l196 -195l214 213l95 -98l-277 -273h-82z" />
<glyph unicode="&#x2d8;" horiz-adv-x="753" d="M104 1453l76 68q75 -89 193 -89q117 0 243 86l57 -67q-34 -29 -71.5 -51.5t-75.5 -37.5t-77 -22.5t-76 -7.5q-51 0 -99.5 13.5t-92 41t-77.5 66.5z" />
<glyph unicode="&#x2d9;" horiz-adv-x="859" d="M234 1436q0 55 25 104t77 82t121 33q65 0 111.5 -27.5t67.5 -69.5t21 -94q0 -32 -9 -62.5t-28 -58.5t-45 -49t-63 -33.5t-80 -12.5q-96 0 -147 54.5t-51 133.5z" />
<glyph unicode="&#x2da;" horiz-adv-x="833" d="M189 1412q0 46 17 89.5t49.5 79t83.5 57t114 21.5q105 0 161 -58.5t56 -143.5q0 -45 -17 -88t-49.5 -78.5t-85 -57t-116.5 -21.5q-102 0 -157.5 58.5t-55.5 141.5zM266 1419q0 -22 6 -41.5t18 -36.5t29.5 -29.5t42 -20t54.5 -7.5q79 0 125.5 51t46.5 118q0 56 -38 95 t-112 39q-77 0 -124.5 -52t-47.5 -116z" />
<glyph unicode="&#x2db;" horiz-adv-x="522" d="M89 -195q0 54 26.5 98.5t82.5 96.5h127q-2 -3 -7 -8q-24 -27 -36.5 -42.5t-24.5 -43t-12 -56.5q0 -32 22 -53.5t56 -21.5q36 0 93 30l-16 -98q-12 -12 -35.5 -24.5t-57 -22.5t-64.5 -10q-68 0 -111 45t-43 110z" />
<glyph unicode="&#x2dc;" horiz-adv-x="1113" d="M137 1443q44 48 123 86.5t156 38.5q63 0 106 -13t83 -37q3 -1 14.5 -7.5t15 -8.5t14 -7.5t15.5 -7.5l15 -6t17.5 -5.5l17.5 -3.5t20 -2.5t21 -0.5q35 0 65.5 5.5t47.5 11t39.5 20.5t27 19t24.5 21l76 -153q-67 -56 -133 -87t-149 -31q-44 0 -80.5 7.5t-56 16t-43.5 22.5 q-6 3 -18.5 11.5t-19 12t-18.5 10t-21.5 9.5t-22.5 7t-27.5 5.5t-31.5 1.5q-112 0 -205 -94z" />
<glyph unicode="&#x2dd;" horiz-adv-x="631" d="M18 1355l193 328l151 -85l-189 -323zM304 1355l191 328l153 -85l-191 -323z" />
<glyph unicode="&#x3c0;" d="M123 130l29 170l325 444h339l-72 -428h76l-31 -186h-80l-23 -132h-241l23 132h-345zM193 818l26 108h754l-23 -108h-757zM310 1243h215q4 -59 61 -59q30 0 48.5 19t18.5 59q0 23 -6.5 37t-20 20t-25 7.5t-30.5 1.5l25 152q54 -2 79 13t25 53q0 17 -8 29t-20.5 17.5 t-27.5 5.5q-10 0 -18.5 -2t-14.5 -5.5t-10.5 -9t-7.5 -10.5t-5.5 -12t-3.5 -12.5t-2 -12.5h-216q6 48 25 89t52 75t86 53t121 19q135 0 203.5 -51.5t68.5 -138.5q0 -73 -41.5 -115.5t-101.5 -48.5q58 -19 85 -61.5t27 -120.5q0 -73 -42.5 -126.5t-107.5 -78t-143 -24.5 q-138 0 -210.5 66t-77.5 172zM397 316h106l35 209z" />
<glyph unicode="&#x2000;" horiz-adv-x="1046" />
<glyph unicode="&#x2001;" horiz-adv-x="2093" />
<glyph unicode="&#x2002;" horiz-adv-x="1046" />
<glyph unicode="&#x2003;" horiz-adv-x="2093" />
<glyph unicode="&#x2004;" horiz-adv-x="697" />
<glyph unicode="&#x2005;" horiz-adv-x="523" />
<glyph unicode="&#x2006;" horiz-adv-x="348" />
<glyph unicode="&#x2007;" horiz-adv-x="348" />
<glyph unicode="&#x2008;" horiz-adv-x="261" />
<glyph unicode="&#x2009;" horiz-adv-x="418" />
<glyph unicode="&#x200a;" horiz-adv-x="116" />
<glyph unicode="&#x2010;" horiz-adv-x="1356" d="M239 416l61 348h1036l-61 -348h-1036z" />
<glyph unicode="&#x2011;" horiz-adv-x="1356" d="M239 416l61 348h1036l-61 -348h-1036z" />
<glyph unicode="&#x2012;" horiz-adv-x="1356" d="M239 416l61 348h1036l-61 -348h-1036z" />
<glyph unicode="&#x2013;" horiz-adv-x="1924" d="M239 416l61 348h1605l-61 -348h-1605z" />
<glyph unicode="&#x2014;" horiz-adv-x="2620" d="M239 416l61 348h2184l-61 -348h-2184z" />
<glyph unicode="&#x2018;" horiz-adv-x="508" d="M339 1284q0 13 8 74l55 306h290l-42 -237h-99l-13 -74q-2 -12 -3.5 -22t-2 -13.5t-0.5 -5.5q0 -32 20 -55t55 -43l-139 -118q-53 25 -91 72.5t-38 115.5z" />
<glyph unicode="&#x2019;" horiz-adv-x="545" d="M354 1214q104 45 114 114l16 99h-100l43 237h289l-57 -336q-6 -42 -22 -77t-35 -57.5t-47.5 -42.5t-50.5 -31t-53 -24z" />
<glyph unicode="&#x201a;" horiz-adv-x="545" d="M128 -68q102 44 113 114l15 99h-99l43 237h288l-56 -336q-7 -42 -23 -77t-34.5 -57.5t-47.5 -42.5t-50.5 -31t-53.5 -24z" />
<glyph unicode="&#x201c;" horiz-adv-x="963" d="M362 1284q0 13 9 74l54 306h289l-41 -237h-100l-11 -74q-2 -10 -3.5 -18t-2 -12t-1 -6.5t-0.5 -4.5q0 -23 11 -42t26 -31t37 -25l-138 -118q-33 15 -60.5 38.5t-48 63t-20.5 86.5zM791 1284q0 13 9 74l55 306h288l-41 -237h-100l-11 -74q-2 -12 -3.5 -22t-2 -13.5 t-0.5 -5.5q0 -33 19.5 -55.5t54.5 -42.5l-139 -118q-52 24 -90.5 72t-38.5 116z" />
<glyph unicode="&#x201d;" horiz-adv-x="963" d="M354 1214q104 45 114 114l16 99h-100l43 237h289l-57 -336q-6 -42 -22 -77t-35 -57.5t-47.5 -42.5t-50.5 -31t-53 -24zM785 1214q102 44 113 114l16 99h-100l43 237h289l-57 -336q-6 -42 -22.5 -77t-35 -57.5t-47.5 -42.5t-50.5 -31t-53.5 -24z" />
<glyph unicode="&#x201e;" horiz-adv-x="963" d="M128 -68q102 44 113 114l15 99h-99l43 237h288l-56 -336q-7 -42 -23 -77t-34.5 -57.5t-47.5 -42.5t-50.5 -31t-53.5 -24zM557 -68q103 44 113 114l16 99h-100l43 237h289l-57 -336q-6 -42 -22 -77t-35 -57.5t-47.5 -42.5t-50.5 -31t-53 -24z" />
<glyph unicode="&#x2020;" horiz-adv-x="556" d="M289 1271l11 104h166l43 298h98l-43 -298h165l-11 -104h-165l-108 -755h-98l108 755h-166z" />
<glyph unicode="&#x2021;" horiz-adv-x="556" d="M225 861l14 98h168l44 310h-169l15 109h167l41 295h100l-41 -295h165l-13 -109h-165l-46 -310h168l-14 -98h-168l-100 -672h-98l98 672h-166z" />
<glyph unicode="&#x2022;" horiz-adv-x="1136" d="M269 598q0 53 12.5 104.5t36.5 99t61.5 88t84.5 70t109 46.5t132 17q98 0 176 -32t126 -87t72.5 -123t24.5 -143q0 -63 -17.5 -124t-53.5 -115t-87 -95.5t-122.5 -65.5t-155.5 -24q-98 0 -176 32.5t-125.5 87t-72.5 122t-25 142.5z" />
<glyph unicode="&#x2026;" horiz-adv-x="2586" d="M302 204q0 47 17 92t49 81t83 58t113 22q75 0 129 -32t78.5 -81t24.5 -108q0 -47 -17 -91t-48.5 -80.5t-83 -58.5t-113.5 -22q-57 0 -102 18.5t-73 49.5t-42.5 70t-14.5 82zM1076 204q0 47 17 91.5t48.5 81t82.5 58.5t112 22q75 0 129 -32t78.5 -81t24.5 -108 q0 -47 -16.5 -91t-48 -80.5t-82.5 -58.5t-113 -22q-75 0 -129 32t-78.5 81t-24.5 107zM1853 204q0 47 17 92t49 81t83 58t113 22q56 0 101.5 -18.5t73 -49.5t42.5 -70t15 -83q0 -47 -17 -91t-49 -80.5t-83 -58.5t-113 -22q-75 0 -129 32t-78.5 81t-24.5 107z" />
<glyph unicode="&#x202f;" horiz-adv-x="418" />
<glyph unicode="&#x2030;" horiz-adv-x="2313" d="M223 0l1261 1623h210l-1262 -1623h-209zM311 1330q20 138 120 227q98 87 239 87q175 0 259 -124q71 -104 50 -243q-21 -140 -120 -228q-96 -86 -234 -86q-179 0 -264 125q-71 102 -50 242zM535 1237q18 -74 81 -83q9 -2 18 -2q65 0 101 75q34 71 17 144q-18 74 -81 83 q-8 1 -16 1q-67 0 -104 -74q-34 -71 -16 -144zM902 388q21 139 121 227q98 88 239 88q174 0 259 -124q70 -104 50 -244q-21 -139 -120 -227q-97 -85 -234 -86q-179 0 -265 124q-71 103 -50 242zM1126 296q18 -74 82 -84q8 -1 17 -1q65 0 101 75q35 71 17 144q-19 74 -82 83 l-16 1q-67 0 -103 -75q-34 -70 -16 -143zM1657 388q21 139 120 227q99 87 240 88q174 0 259 -124q70 -104 49 -244q-20 -139 -119 -227q-96 -86 -235 -86q-178 0 -264 124q-71 103 -50 242zM1881 296q18 -74 82 -84q8 -1 17 -1q65 0 101 75q34 71 16 144q-18 74 -81 83 q-8 1 -16 1q-67 0 -103 -75q-34 -70 -16 -143z" />
<glyph unicode="&#x2039;" horiz-adv-x="799" d="M145 603l24 186l614 411l124 -224l-434 -280l366 -284l-180 -219z" />
<glyph unicode="&#x203a;" horiz-adv-x="799" d="M63 412l435 284l-368 280l182 224l513 -411l-22 -186l-614 -410z" />
<glyph unicode="&#x2044;" horiz-adv-x="1263" d="M11 -104l1340 1798h209l-1339 -1798h-210z" />
<glyph unicode="&#x205f;" horiz-adv-x="523" />
<glyph unicode="&#x2122;" horiz-adv-x="952" d="M360 1582l11 57h336l-11 -57h-139l-66 -378h-57l64 378h-138zM616 1207l175 439l79 -327l206 329v-441h-48v273l-180 -298l-71 304l-104 -279h-57z" />
<glyph unicode="&#x2202;" d="M193 818l26 108h754l-23 -108h-757zM195 223h215q1 -29 17.5 -45.5t45.5 -16.5q28 0 45.5 20t17.5 60q0 22 -6 35.5t-19.5 19t-25 7t-30.5 1.5l27 153q35 -1 56.5 4.5t33.5 20.5t12 41q0 24 -16.5 38t-40.5 14q-51 0 -61 -63h-214q6 48 24.5 89t51 75t85.5 53t121 19 q133 0 202 -52t69 -139q0 -72 -42 -115.5t-99 -48.5q38 -13 62 -34.5t36.5 -57t12.5 -87.5q0 -74 -42.5 -127.5t-107 -78t-141.5 -24.5q-138 0 -210.5 66.5t-78.5 172.5zM477 1013l98 560h-74l33 186h314l-132 -746h-239z" />
<glyph unicode="&#x220f;" d="M193 818l26 108h754l-23 -108h-757zM195 225h215q3 -62 61 -62q18 0 32 8t23.5 26.5t9.5 45.5q0 22 -6 35.5t-19.5 19t-25 7t-30.5 1.5l25 154q54 -2 79 12.5t25 52.5q0 17 -8 28.5t-21 16.5t-30 5q-16 0 -27.5 -5t-18 -15.5t-9.5 -18.5t-6 -22h-212q6 48 24.5 88t51 74 t84.5 53t120 19q134 0 202.5 -51.5t68.5 -137.5q0 -72 -41 -115t-100 -49q57 -19 84 -60.5t27 -118.5q0 -73 -43 -126.5t-107.5 -78t-140.5 -24.5q-138 0 -210.5 66.5t-76.5 171.5zM264 1019l20 122l128 87q308 203 311 327q0 59 -59 59q-23 0 -40.5 -14.5t-26.5 -36.5 t-11 -49h-213q6 50 26 93.5t54.5 80.5t91 58.5t128.5 21.5q98 0 166.5 -26.5t102.5 -75t34 -115.5q0 -180 -326 -347h264l-34 -185h-616z" />
<glyph unicode="&#x2211;" d="M123 128l29 169l325 444h339l-72 -427h76l-31 -186h-80l-23 -132h-241l23 132h-345zM193 818l26 108h754l-23 -108h-757zM397 314h106l35 209zM477 1013l98 560h-74l33 186h314l-132 -746h-239z" />
<glyph unicode="&#x2212;" horiz-adv-x="1033" d="M128 555v122h781v-122h-781z" />
<glyph unicode="&#x221a;" horiz-adv-x="1468" d="M145 375l200 493q53 -193 76 -445q28 53 85 132.5t130.5 171t163 189t178 184t179.5 159t164 110.5v-592q-312 -142 -543 -329.5t-421 -458.5q-44 164 -91.5 253.5t-120.5 132.5z" />
<glyph unicode="&#x222b;" horiz-adv-x="1797" d="M123 -4l272 1564h1564l-272 -1564h-1564zM241 98h1360l240 1359h-1359z" />
<glyph unicode="&#x2248;" horiz-adv-x="1763" d="M125 234q0 66 23.5 124.5t69 105.5t122 74.5t174.5 27.5h184l46 341h-153q-68 0 -123.5 13t-96 37t-68.5 58t-41.5 76t-13.5 91q0 59 21 114.5t60.5 101.5t105 73t147.5 27q54 0 102 -15.5t88 -47.5t63.5 -88.5t23.5 -132.5q0 -47 -4 -73l-20 -150h332l24 207 q9 78 40 138t77.5 95t101 52.5t115.5 17.5q82 0 146.5 -30.5t103.5 -92.5t39 -146q0 -63 -24 -120t-70 -103.5t-124 -74t-177 -27.5h-176l-43 -341h151q71 0 129 -15.5t96.5 -42t64.5 -63t37 -76t11 -83.5q0 -137 -89 -222.5t-242 -85.5q-54 0 -102 16.5t-87.5 50t-63 90 t-23.5 129.5q0 17 5 68l17 150h-331l-25 -200q-10 -83 -39.5 -144.5t-74 -97.5t-98 -53t-118.5 -17q-130 0 -211.5 68.5t-81.5 195.5zM221 234q0 -76 57.5 -126.5t139.5 -50.5q68 0 119.5 28.5t87 91t45.5 155.5l19 150h-151q-82 0 -143 -17.5t-99 -50.5t-56.5 -78 t-18.5 -102zM343 1184q0 -85 64.5 -139t193.5 -54h152l17 150q3 18 3 50q0 57 -14.5 99.5t-41.5 69t-63.5 39.5t-82.5 13q-97 0 -162.5 -61t-65.5 -167zM783 566h331l43 341h-332zM1169 282q0 -109 57.5 -166t142.5 -57q104 0 166.5 60.5t62.5 155.5q0 45 -15 81.5t-45.5 65 t-81 44.5t-115.5 16h-152l-18 -150q-2 -18 -2 -50zM1252 991h178q137 0 215 69.5t78 169.5q0 35 -12 67.5t-35 60t-62.5 44.5t-90.5 17q-71 0 -123 -27.5t-84.5 -84t-42.5 -140.5z" />
<glyph unicode="&#x2260;" horiz-adv-x="1054" d="M225 347l37 210h252l89 187h-308l37 206h371l80 164h180l-78 -164h182l-37 -206h-245l-89 -187h302l-39 -210h-363l-67 -138h-184l69 138h-189z" />
<glyph unicode="&#x2264;" horiz-adv-x="861" d="M178 148l50 290h595l-50 -290h-595zM302 859l62 348l677 370l-61 -347l-373 -198l287 -197l-62 -349z" />
<glyph unicode="&#x2265;" horiz-adv-x="861" d="M169 137l52 290h595l-50 -290h-597zM230 475l63 348l355 198l-303 198l62 347l545 -371l-61 -349z" />
<glyph unicode="&#x25ca;" horiz-adv-x="1228" d="M193 642l514 512l514 -512l-514 -514zM388 638l317 -313l316 313l-316 317z" />
<glyph unicode="&#x25fc;" horiz-adv-x="1113" d="M0 0v1114h1114v-1114h-1114z" />
<glyph unicode="&#xe000;" horiz-adv-x="0" />
<glyph unicode="&#xe001;" horiz-adv-x="0" />
<glyph unicode="&#xe002;" horiz-adv-x="0" />
<glyph unicode="&#xe003;" horiz-adv-x="1794" d="M180 750q0 87 21.5 160t60.5 127t92.5 92t118 56.5t136.5 18.5q58 0 115.5 -14.5t95.5 -39.5q41 -27 57 -36.5t37 -17t43 -7.5q71 0 150 61q73 54 203 54q111 0 194 -46t103 -106q-92 -44 -137 -130t-45 -199q0 -53 21.5 -104.5t55.5 -90.5t74.5 -67t80.5 -40 q-11 -27 -23 -52t-32.5 -65t-44 -75t-52.5 -75t-62 -71t-70 -57.5t-79.5 -41t-86.5 -14.5q-101 0 -166 76q-38 43 -84 43q-27 0 -53 -11.5t-43 -31.5q-62 -76 -152 -76q-40 0 -89 25.5t-99 71t-100 105t-93 131.5t-76.5 146.5t-52.5 153t-19 147.5zM922 1217q0 50 26 105.5 t65 98.5t87.5 71.5t90.5 28.5q16 0 23.5 -4.5t9 -11t1.5 -21.5q0 -44 -27 -98.5t-66 -99.5t-86.5 -75.5t-84.5 -30.5q-22 0 -30.5 9.5t-8.5 27.5z" />
<glyph unicode="&#xe004;" horiz-adv-x="742" />
</font>
</defs>
</svg>
