<?xml version="1.0" standalone="no"?>
<!DOCTYPE svg PUBLIC "-//W3C//DTD SVG 1.1//EN" "http://www.w3.org/Graphics/SVG/1.1/DTD/svg11.dtd" >
<svg xmlns="http://www.w3.org/2000/svg" xmlns:xlink="http://www.w3.org/1999/xlink" version="1.1">
<metadata></metadata>
<defs>
<font id="sansserifexbflfmedium" horiz-adv-x="870" >
<font-face units-per-em="2048" ascent="1638" descent="-410" />
<missing-glyph horiz-adv-x="838" />
<glyph unicode="fi" horiz-adv-x="1681" d="M68 791v323h127v159q0 45 7 84t26.5 82t51 77.5t85 67t124.5 54t172.5 34.5t225.5 13q122 0 221.5 -12t168 -32t119.5 -50t80.5 -61t47 -70t23.5 -72.5t6 -73.5v-112h-523v71q0 57 -34.5 89.5t-120.5 32.5q-82 0 -120.5 -39.5t-38.5 -101.5v-140h228v-323h-228v-791h-521 v791h-127zM1030 0v1114h523v-1114h-523z" />
<glyph unicode="fl" horiz-adv-x="1640" d="M68 791v323h127v107q0 464 675 464q161 0 279.5 -21.5t195.5 -60t123.5 -100t65.5 -133t19 -166.5v-1204h-523v1234q0 86 -35 123.5t-120 37.5q-79 0 -119 -38.5t-40 -98.5v-144h228v-323h-228v-791h-521v791h-127z" />
<glyph unicode=" "  horiz-adv-x="838" />
<glyph unicode="&#x09;" horiz-adv-x="838" />
<glyph unicode="&#xa0;" horiz-adv-x="838" />
<glyph unicode="!" horiz-adv-x="833" d="M163 553v1070h523v-1070h-523zM184 232q0 102 72.5 175t175.5 73q67 0 124 -33.5t90 -90.5t33 -124q0 -102 -72.5 -175t-175 -73t-175 73t-72.5 175z" />
<glyph unicode="&#x22;" horiz-adv-x="859" d="M130 1687h209l-33 -477h-143zM532 1687h209l-34 -477h-143z" />
<glyph unicode="#" horiz-adv-x="1749" d="M91 609l59 250h288l65 260h-317l73 245h305l68 271h253l-69 -271h295l69 271h252l-68 -271h302l-74 -245h-289l-64 -260h307l-62 -250h-309l-68 -273h-252l67 273h-295l-68 -273h-253l69 273h-284zM689 859h298l63 260h-295z" />
<glyph unicode="$" horiz-adv-x="1408" d="M70 200l110 336q257 -161 440 -161q83 0 129.5 25t46.5 71q0 48 -46 77t-159 48q-168 27 -276.5 93.5t-159.5 167.5t-51 241q0 92 33 180.5t92.5 161t151.5 123t203 64.5v87h273v-91q73 0 150.5 -17t141.5 -44t98 -44t63 -34l-110 -350q-7 4 -32 17.5t-34.5 18.5 t-33.5 16.5t-39 16.5t-41 14t-49 13t-53 9t-63 7t-70 2q-130 0 -130 -89q0 -49 46 -78.5t154 -45.5q128 -19 228.5 -68.5t161.5 -118t92.5 -149t31.5 -167.5q0 -212 -135 -356t-377 -176v-139h-273v135q-66 4 -132.5 20t-119 36.5t-104.5 47.5t-88 50.5t-70 49.5z" />
<glyph unicode="%" horiz-adv-x="1518" d="M145 1305q0 64 19 122.5t54.5 106t93 75.5t129 28t129.5 -28t93.5 -75.5t54.5 -106t19 -122.5t-19 -123.5t-54.5 -107t-93.5 -76t-129.5 -28.5t-129 28.5t-93 76t-54.5 107t-19 123.5zM223 0l881 1623h208l-880 -1623h-209zM352 1303q0 -61 23.5 -105t65 -44t65 44 t23.5 105t-23 104.5t-65 43.5t-65.5 -43.5t-23.5 -104.5zM814 323q0 64 19 122.5t55 105.5t94 75.5t129.5 28.5t129.5 -28.5t94 -75.5t55.5 -106.5t19.5 -123.5t-19.5 -122.5t-55.5 -106t-94 -75.5t-129.5 -28t-129.5 28t-94 75.5t-55 107t-19 123.5zM1023 321 q0 -61 23 -104.5t65 -43.5t65.5 43.5t23.5 104.5t-23.5 104t-65.5 43t-65 -43t-23 -104z" />
<glyph unicode="&#x26;" horiz-adv-x="1854" d="M50 427q0 42 6.5 80t15.5 69t26.5 61.5t32.5 53t40.5 48t43.5 41t48.5 38t48 34t50.5 33t48 31.5l-58 80q-1 1 -14 18t-17 24t-15.5 25.5t-16.5 33.5t-12 37t-10 47t-3 53q0 48 16 96.5t46 94.5t77 85.5t106 69.5t136 47t164 17q109 0 203 -28.5t161 -78.5t105 -122.5 t38 -156.5q0 -40 -10.5 -79.5t-25.5 -70t-40.5 -62.5t-46 -53t-51.5 -46.5t-47 -37t-43 -30.5q-11 -8 -15 -11l154 -174q26 16 51 33.5t49.5 36.5t39.5 31.5t37.5 31.5t26.5 23l312 -312q-60 -63 -218 -181l311 -357h-581l-115 128q-37 -23 -67.5 -38.5t-82 -35.5 t-104.5 -32.5t-129 -21.5t-162 -9q-139 0 -255 55t-185 155.5t-69 225.5zM584 532q0 -45 36.5 -76t95.5 -31q61 0 98 32l-155 179q-16 -10 -26 -17.5t-23 -20.5t-19.5 -29.5t-6.5 -36.5zM707 1284q0 -25 8.5 -44t28.5 -42l56 -64l17.5 14t20 16.5t19.5 17.5t19.5 20.5 t15.5 21.5t11.5 25t3.5 26q0 37 -26.5 60t-75.5 23q-44 0 -71 -22.5t-27 -51.5z" />
<glyph unicode="'" horiz-adv-x="451" d="M132 1687h209l-31 -477h-144z" />
<glyph unicode="(" horiz-adv-x="729" d="M68 783q0 277 110 528t320 426l186 -180q-257 -360 -257 -780q0 -421 257 -786l-202 -200q-203 200 -308.5 459t-105.5 533z" />
<glyph unicode=")" horiz-adv-x="718" d="M43 -9q257 365 257 786q0 420 -257 780l187 180q210 -175 319.5 -425.5t109.5 -528.5q0 -274 -105.5 -533t-308.5 -459z" />
<glyph unicode="*" horiz-adv-x="833" d="M102 1200q0 19 14 37t39 32t52 26.5t59.5 22t56 15.5t46.5 11.5t26 6.5q-4 1 -21.5 5t-37.5 8.5t-47.5 12.5t-52 16.5t-50 20.5t-43.5 24.5t-29.5 29t-11.5 33.5q0 27 16.5 44t42.5 17q18 0 40.5 -9t44.5 -24t43.5 -32.5t42.5 -37.5t35.5 -35t28.5 -29.5t16 -16.5 l-6 18.5t-10.5 33t-11 41t-11 48.5t-8 49t-3.5 48q0 98 65.5 98t65.5 -98q0 -40 -11 -93t-25 -98.5t-14 -46.5q2 1 20 20.5t35.5 37.5t44.5 42.5t51 42.5t50.5 30.5t47.5 12.5q28 0 44.5 -16.5t16.5 -46.5q0 -19 -14.5 -37t-39 -32t-52 -26t-59.5 -21.5t-56 -16t-46.5 -11.5 t-25.5 -6q1 -1 31.5 -8t59 -14t67 -21t66.5 -28.5t48.5 -35.5t20.5 -44q0 -61 -59 -61q-21 0 -48.5 12.5t-51 30t-51.5 42t-45 41.5t-35.5 37t-19.5 21q0 -2 4.5 -15t8.5 -26t9.5 -33t10 -39.5t8.5 -41t6.5 -43.5t2.5 -41q0 -97 -65.5 -97t-65.5 97q0 41 11 93.5t24.5 98 t14.5 47.5q-2 -2 -20 -21t-35.5 -37.5t-44.5 -43t-51 -42t-50.5 -30t-47.5 -12.5q-28 0 -44.5 16.5t-16.5 46.5z" />
<glyph unicode="+" horiz-adv-x="1334" d="M154 416v348h347v347h347v-347h352v-348h-350v-348h-347v348h-349z" />
<glyph unicode="," horiz-adv-x="811" d="M11 -178l239 625h462l-426 -625h-275z" />
<glyph unicode="-" horiz-adv-x="1356" d="M163 416v348h1039v-348h-1039z" />
<glyph unicode="." horiz-adv-x="742" d="M128 223q0 103 71.5 174t173.5 71t173.5 -71t71.5 -174q0 -67 -32.5 -123.5t-89 -89t-123.5 -32.5t-123.5 32.5t-89 89t-32.5 123.5z" />
<glyph unicode="/" horiz-adv-x="799" d="M30 -104l523 1798h208l-522 -1798h-209z" />
<glyph unicode="0" horiz-adv-x="1599" d="M54 809q0 105 21 206.5t61.5 194.5t104 171.5t143.5 136.5t186 91t226 33q143 0 265.5 -46.5t208.5 -126t147 -186t90 -226t29 -246t-29 -246.5t-90.5 -226.5t-147.5 -187t-208 -127t-265 -46.5q-144 0 -266 46.5t-208.5 126t-147.5 186t-90.5 226.5t-29.5 246zM573 809 q0 -97 23.5 -179t75.5 -137t123.5 -55t124 55t76 137t23.5 179t-23.5 179t-76 137t-123.5 55q-54 0 -97.5 -31.5t-70.5 -84.5t-41 -118t-14 -137z" />
<glyph unicode="1" horiz-adv-x="961" d="M148 1219v404h684v-1623h-520v1219h-164z" />
<glyph unicode="2" horiz-adv-x="1468" d="M59 0v266l243 187q36 27 93.5 76.5t138.5 130t149 161t116.5 169.5t48.5 156q0 76 -34.5 112.5t-104.5 36.5q-40 0 -68.5 -17.5t-42.5 -50.5t-20.5 -68.5t-6.5 -80.5h-464q1 37 7.5 74.5t20 80t33 82.5t49 80.5t65.5 75t84.5 64.5t104.5 51t127.5 33.5t151.5 12.5 q164 0 288 -33.5t203 -96t118.5 -149t39.5 -194.5q0 -73 -20 -144.5t-52 -131.5t-79.5 -120t-96 -107.5t-108.5 -95.5t-109.5 -82.5t-106.5 -70.5h572v-407h-1340z" />
<glyph unicode="3" horiz-adv-x="1399" d="M89 501h464q10 -132 136 -132q68 0 101 37.5t33 118.5q0 30 -5 53t-13.5 39.5t-23 27.5t-30 18t-38.5 10.5t-44 4.5t-51 1v330q106 0 155.5 27.5t49.5 97.5t-29.5 101.5t-104.5 31.5q-125 0 -125 -137h-464q1 52 9.5 101t28 101t49.5 96.5t77.5 85t107.5 69t142.5 45 t181.5 16.5q604 0 604 -444q0 -60 -15.5 -110t-39.5 -83t-60 -60.5t-69.5 -43.5t-76.5 -31q41 -11 79.5 -28.5t81.5 -49t74.5 -71t52.5 -99t21 -129.5q0 -243 -164 -378t-472 -135q-98 0 -181 17t-144.5 46t-111 70t-82 86t-55.5 97.5t-34.5 101.5t-14.5 101z" />
<glyph unicode="4" horiz-adv-x="1603" d="M93 286v371l534 966h728v-931h170v-406h-170v-286h-511v286h-751zM618 692h226v456z" />
<glyph unicode="5" horiz-adv-x="1390" d="M75 80l46 377l27 -9t30.5 -10t30 -9.5t34.5 -10t35 -9t39.5 -9t40.5 -7t46 -6t47.5 -3.5t53.5 -2q311 0 311 219q0 64 -23.5 110t-68 72t-101 37.5t-130.5 11.5q-135 0 -284 -34l101 825h918v-382h-523l-16 -143q55 6 109 6q81 0 155 -16.5t144.5 -56.5t121.5 -100 t82 -153t31 -210q0 -119 -38 -217.5t-105 -166.5t-158.5 -115t-197.5 -69t-224 -22q-266 0 -534 102z" />
<glyph unicode="6" horiz-adv-x="1484" d="M82 559q0 244 157 489l375 575h523l-421 -593q27 7 109 7q53 0 105.5 -7t108.5 -24t105 -43t93.5 -66.5t76 -92t50 -122.5t18.5 -155q0 -129 -43 -233.5t-126 -179t-210 -115t-289 -40.5q-98 0 -185.5 21.5t-156.5 60t-124 93.5t-91 121.5t-55.5 143.5t-19.5 160z M557 518q0 -66 44.5 -116t123 -50t124 50t45.5 116q0 68 -45 118t-124 50q-53 0 -92 -24.5t-57.5 -62t-18.5 -81.5z" />
<glyph unicode="7" horiz-adv-x="1472" d="M87 0l605 1219h-601v404h1323l-805 -1623h-522z" />
<glyph unicode="8" horiz-adv-x="1367" d="M41 441q0 55 9.5 102.5t24 83t37 67t44.5 52.5t51.5 41t51.5 31.5t51 25.5q-21 11 -35.5 20t-34 22.5t-33.5 26t-30.5 30.5t-27.5 37t-22.5 43.5t-18 51.5t-11 60.5t-4.5 71.5q0 85 43 163t118.5 137t186 93.5t238.5 34.5t239.5 -34.5t188 -93t120.5 -137t44 -163.5 q0 -67 -14.5 -121.5t-34 -89.5t-52.5 -67t-57.5 -48t-62.5 -37q2 -1 7 -4q24 -10 37 -16t38.5 -20t41 -25.5t38.5 -31.5t37.5 -40t30.5 -48.5t25.5 -60t16 -72t6.5 -85.5q0 -77 -30 -148.5t-86.5 -129.5t-134.5 -101.5t-179.5 -67.5t-215.5 -24q-144 0 -265.5 37t-203 101 t-127 150t-45.5 183zM538 498q0 -72 38.5 -120t103 -48t102.5 48t38 120.5t-38 120t-103 47.5q-43 0 -75.5 -22.5t-49 -60.5t-16.5 -85zM575 1178q0 -49 30 -83t72.5 -34t72 34t29.5 83t-29.5 83t-72 34t-72.5 -34t-30 -83z" />
<glyph unicode="9" horiz-adv-x="1495" d="M91 1069q0 127 41 232.5t120 184t203.5 122t283.5 43.5q152 0 277 -43t210.5 -119.5t132 -184t46.5 -235.5q0 -245 -171 -510l-366 -559h-523l375 543q-95 0 -186 22t-171 66t-140.5 105.5t-96 147.5t-35.5 185zM579 1087q0 -43 18 -80t57.5 -62t93.5 -25q80 0 124 49.5 t44 117.5t-44 117.5t-124 49.5t-124.5 -49.5t-44.5 -117.5z" />
<glyph unicode=":" horiz-adv-x="742" d="M130 227.5q0 104.5 73 177t177 72.5q105 0 178.5 -72.5t73.5 -177t-73.5 -177t-178.5 -72.5q-104 0 -177 72.5t-73 177zM130 866q0 104 73 177.5t177 73.5q105 0 178.5 -73.5t73.5 -177.5t-73.5 -177t-178.5 -73q-104 0 -177 73t-73 177z" />
<glyph unicode=";" horiz-adv-x="822" d="M11 -182l243 639h471l-432 -639h-282zM223 866q0 104 73 177.5t177 73.5q105 0 178.5 -73.5t73.5 -177.5t-73.5 -177t-178.5 -73q-104 0 -177 73t-73 177z" />
<glyph unicode="&#x3c;" horiz-adv-x="799" d="M104 498v348l612 373v-349l-336 -197l320 -198v-347z" />
<glyph unicode="=" horiz-adv-x="1310" d="M152 230v291h1037v-291h-1037zM152 705v291h1037v-291h-1037z" />
<glyph unicode="&#x3e;" horiz-adv-x="799" d="M130 870v349l614 -373v-348l-599 -370v347l321 198z" />
<glyph unicode="?" horiz-adv-x="1413" d="M70 1139q0 59 16.5 116.5t48 114t83 104t119 84t160.5 57t201 20.5q165 0 291.5 -39.5t204.5 -110.5t117.5 -164.5t39.5 -206.5q0 -106 -34.5 -196.5t-93.5 -151t-137 -94.5t-164 -34v-76h-454v332h166q99 0 152 54t53 163q0 100 -36 143.5t-117 43.5t-116.5 -41 t-35.5 -118h-464zM441 223q0 102 73 175t175 73q67 0 124.5 -33.5t90.5 -90.5t33 -124t-33 -124.5t-90.5 -91t-124.5 -33.5q-102 0 -175 73.5t-73 175.5z" />
<glyph unicode="@" horiz-adv-x="1536" d="M57 911q0 87 22 172.5t63 163t104.5 144t141.5 115t178 76.5t211 28q105 0 201.5 -25t173.5 -69.5t140.5 -106.5t105.5 -135t65 -156.5t23 -169.5q0 -71 -9.5 -131.5t-31.5 -113.5t-56 -90t-85 -58t-115 -21q-161 0 -200 123q-42 -52 -115 -87.5t-165 -35.5 q-61 0 -115 18t-93.5 49t-68 72.5t-43 89.5t-14.5 98q0 71 25 138t71 121.5t119 87.5t160 33q63 0 114 -18t81.5 -45t47.5 -61l20 108h144l-84 -436q0 -71 32.5 -106t101.5 -35q45 0 79.5 25t54 68.5t29.5 95.5t10 111q0 115 -48.5 219.5t-130 178.5t-192.5 117.5t-232 43.5 q-115 0 -214.5 -33t-170 -90t-121.5 -133t-75.5 -162.5t-24.5 -177.5q0 -90 25.5 -175t76.5 -158t122.5 -128t170 -86.5t211.5 -31.5q117 0 216 30t159 83l73 -88q-65 -62 -182.5 -100t-272.5 -38q-99 0 -188.5 19.5t-160.5 55.5t-130.5 86.5t-102.5 110.5t-73 129t-44 142 t-14 149zM523 870q0 -83 49 -141.5t140 -58.5q54 0 98 20t71 53t41.5 73.5t14.5 83.5q0 54 -20.5 99.5t-64 75t-102.5 29.5q-43 0 -80.5 -13.5t-64 -36t-45.5 -53t-28 -63.5t-9 -68z" />
<glyph unicode="A" horiz-adv-x="1704" d="M52 0l514 1623h605l514 -1623h-514l-80 234h-443l-80 -234h-516zM757 596h219l-108 343z" />
<glyph unicode="B" horiz-adv-x="1486" d="M98 0v1623h796q135 0 239.5 -54.5t161 -152t56.5 -221.5q0 -98 -26 -169.5t-69 -110t-102 -54.5q53 -11 100.5 -32.5t88.5 -55.5t70.5 -77.5t46.5 -101.5t17 -123q0 -109 -33.5 -196t-98.5 -148t-162.5 -94t-221.5 -33h-863zM620 421h135q58 0 94 30.5t36 86.5 q0 38 -17 64.5t-46 39.5t-67 13h-135v-234zM620 1039h87q58 0 89 31t31 87q0 55 -32 86.5t-88 31.5h-87v-236z" />
<glyph unicode="C" horiz-adv-x="1256" d="M52 814q0 126 34.5 245t106.5 225t174 185.5t247.5 126t315.5 46.5q44 0 84.5 -4.5t82.5 -12.5t51 -9v-549q-31 11 -47 16t-65.5 12t-109.5 7q-58 0 -105.5 -14.5t-81.5 -40.5t-57.5 -62t-34.5 -79.5t-11 -91.5q0 -60 19 -112.5t54.5 -92.5t91.5 -63t125 -23 q63 0 110.5 6t64 11.5t47.5 16.5v-559q-74 -20 -218 -20q-170 0 -315 46.5t-247 127t-174.5 187.5t-107 227t-34.5 248z" />
<glyph unicode="D" horiz-adv-x="1670" d="M139 -2v1625h598q165 0 304.5 -43.5t237.5 -118.5t166.5 -175.5t101.5 -215t33 -238.5q0 -102 -23.5 -202t-69 -193t-117.5 -172t-163 -138t-211.5 -92.5t-258.5 -34.5zM662 521h73q60 0 111 17.5t87.5 47.5t62 70t38 85t12.5 91q0 60 -20 114.5t-57.5 99t-98.5 71 t-135 26.5h-73v-622z" />
<glyph unicode="E" horiz-adv-x="1228" d="M98 0v1623h1045v-404h-525v-210h499v-406h-499v-196h525v-407h-1045z" />
<glyph unicode="F" horiz-adv-x="1206" d="M98 0v1623h1045v-404h-525v-258h499v-404h-499v-557h-520z" />
<glyph unicode="G" horiz-adv-x="1707" d="M57 811q0 127 34 246.5t104.5 226t170 186t239 126t302.5 46.5q115 0 216.5 -21t176 -54t139 -80t106.5 -92.5t76 -96.5l-495 -175q-15 26 -30.5 43.5t-40.5 35t-62 26.5t-86 9q-70 0 -127 -36t-92.5 -96t-54.5 -134.5t-19 -154.5q0 -84 20 -161.5t58.5 -140t100 -100 t137.5 -37.5q79 0 120.5 17.5t63.5 52.5v151h-182v302h703v-564q-40 -67 -107.5 -130t-156.5 -114.5t-204.5 -82.5t-236.5 -31q-170 0 -314.5 46.5t-246 126.5t-173 187t-105.5 227t-34 246z" />
<glyph unicode="H" horiz-adv-x="1611" d="M89 0v1623h520v-616h393v616h521v-1623h-521v601h-393v-601h-520z" />
<glyph unicode="I" horiz-adv-x="753" d="M123 0v1623h523v-1623h-523z" />
<glyph unicode="J" horiz-adv-x="983" d="M84 20v398q12 -8 17.5 -12t17.5 -11t25.5 -10t28.5 -3q77 0 123.5 48t46.5 143v1050h523v-1137q0 -61 -11.5 -115.5t-32 -98t-49 -81.5t-62.5 -66.5t-74 -52t-81 -39.5t-85 -26.5t-86 -15t-83 -4.5q-106 0 -218 33z" />
<glyph unicode="K" horiz-adv-x="1540" d="M73 0v1623h521v-586l358 586h534l-456 -753l475 -870h-532l-379 698v-698h-521z" />
<glyph unicode="L" horiz-adv-x="1202" d="M89 0v1623h520v-1216h505v-407h-1025z" />
<glyph unicode="M" horiz-adv-x="2145" d="M54 0l306 1623h534l197 -716l204 716h525l297 -1623h-523l-132 820l-214 -820h-296l-234 820l-141 -820h-523z" />
<glyph unicode="N" horiz-adv-x="1699" d="M89 0v1623h486l518 -782v782h521v-1623h-521l-484 746v-746h-520z" />
<glyph unicode="O" horiz-adv-x="1797" d="M41 809q0 127 34 246.5t104.5 226.5t170.5 186.5t241.5 126.5t308.5 47q140 0 262.5 -33t215.5 -91t166.5 -136.5t120 -171.5t70.5 -194.5t24 -206.5q0 -126 -33.5 -246t-104 -226.5t-170.5 -186t-242 -126t-309 -46.5q-139 0 -262 32.5t-215.5 90.5t-166 136.5 t-120 171.5t-71 194t-24.5 206zM620 809.5q0 -52.5 11 -102.5t34 -94.5t56 -78t79 -53t100 -19.5q68 0 122.5 29.5t88 79t51.5 111t18 127.5q0 44 -8 86t-23 81t-39 72t-54.5 57t-70 38t-85.5 14q-54 0 -100 -19.5t-79 -53t-56 -78t-34 -94.5t-11 -102.5z" />
<glyph unicode="P" horiz-adv-x="1401" d="M93 0v1623h734q107 0 202.5 -36t167 -101t113 -162t41.5 -213q0 -100 -28 -183.5t-78 -143t-119.5 -100.5t-153 -61t-178.5 -20h-178v-603h-523zM616 993h87q55 0 87.5 31t32.5 87q0 16 -3.5 30t-9.5 26t-14 22t-18.5 17.5t-22.5 12.5t-25 8t-27 3h-87v-237z" />
<glyph unicode="Q" horiz-adv-x="1820" d="M50 809q0 127 33.5 246.5t104.5 226.5t171 186.5t241.5 126.5t308.5 47t309 -47t241.5 -126.5t170.5 -186.5t104.5 -226.5t33.5 -246.5q0 -115 -28 -225t-87.5 -212t-145.5 -181l202 -302l-470 -128l-146 232q-79 -15 -184 -15q-139 0 -262 32.5t-216 90.5t-166 136.5 t-120 171.5t-71 194t-24 206zM629 809.5q0 -52.5 11 -102.5t34 -94.5t55.5 -78t79 -53t100.5 -19.5q68 0 122.5 29.5t88 79t51.5 111t18 127.5t-18 127.5t-51.5 111t-88 79.5t-122.5 30q-54 0 -100.5 -19.5t-79 -53t-55.5 -78t-34 -94.5t-11 -102.5z" />
<glyph unicode="R" horiz-adv-x="1522" d="M89 0v1623h727q115 0 212.5 -33t171 -96.5t114.5 -164t41 -229.5q0 -100 -18 -175t-53.5 -126t-80 -83.5t-105.5 -56.5l388 -659h-599l-267 509v-509h-531zM620 993h87q56 0 88 31t32 87q0 55 -32.5 87t-87.5 32h-87v-237z" />
<glyph unicode="S" horiz-adv-x="1360" d="M20 200l110 336q126 -72 234 -116.5t200 -44.5q184 0 184 96q0 93 -205 125q-241 38 -363.5 173.5t-122.5 339.5q0 79 23.5 154.5t72 142.5t116 117t162.5 79.5t205 29.5q390 0 624 -148l-110 -350q-85 49 -202 81.5t-232 32.5q-46 0 -78.5 -26.5t-32.5 -62.5 q0 -49 46 -78.5t154 -45.5q127 -19 226 -65.5t162 -114t95.5 -152.5t32.5 -182q0 -86 -27 -165t-82.5 -146.5t-134.5 -117t-190 -77.5t-243 -28q-171 0 -335.5 60.5t-288.5 152.5z" />
<glyph unicode="T" horiz-adv-x="1252" d="M61 1182v441h1149v-441h-314v-1182h-523v1182h-312z" />
<glyph unicode="U" horiz-adv-x="1460" d="M78 521v1102h520v-1059q0 -62 36.5 -95t96.5 -33q40 0 70.5 14t48.5 43.5t18 70.5v1059h521v-1102q0 -106 -36.5 -195.5t-99 -151.5t-146.5 -105.5t-179 -64t-197 -20.5q-85 0 -165.5 15t-154 43.5t-134 73.5t-105.5 103.5t-69.5 135.5t-24.5 166z" />
<glyph unicode="V" horiz-adv-x="1659" d="M39 1623h534l266 -798l268 798h532l-602 -1623h-393z" />
<glyph unicode="W" horiz-adv-x="2458" d="M41 1623h525l223 -800l220 800h464l219 -800l215 800h525l-473 -1623h-497l-221 809l-220 -809h-498z" />
<glyph unicode="X" horiz-adv-x="1625" d="M32 1623h556l230 -365l217 365h563l-505 -820l497 -803h-562l-210 347l-220 -347h-555l493 807z" />
<glyph unicode="Y" horiz-adv-x="1566" d="M34 1623h534l219 -404l209 404h552l-505 -879v-744h-534v744z" />
<glyph unicode="Z" horiz-adv-x="1729" d="M37 0l750 1195h-637v428h1535l-755 -1193h721v-430h-1614z" />
<glyph unicode="[" horiz-adv-x="694" d="M137 -243v2052h451v-208h-161v-1635h161v-209h-451z" />
<glyph unicode="\" horiz-adv-x="788" d="M30 1705h232l488 -1787h-232z" />
<glyph unicode="]" horiz-adv-x="694" d="M134 -34h163v1635h-163v208h452v-2052h-452v209z" />
<glyph unicode="^" horiz-adv-x="892" d="M102 952l308 612h81l307 -612h-116l-231 376l-245 -376h-104z" />
<glyph unicode="_" horiz-adv-x="811" d="M0 -50h852v-161h-852v161z" />
<glyph unicode="`" horiz-adv-x="568" d="M91 1521l123 123l266 -266l-123 -124z" />
<glyph unicode="a" horiz-adv-x="1536" d="M68 551q0 72 14.5 142t42.5 134.5t72.5 118.5t101 94.5t131 63t158.5 22.5q218 0 314 -133v121h510v-1114h-510v128q-88 -150 -314 -150q-101 0 -187 32t-146.5 87t-103 128.5t-63 155.5t-20.5 170zM538 571q0 -56 19.5 -102.5t61 -77.5t97.5 -31t97.5 31t61 77.5 t19.5 102t-19.5 102.5t-61 78.5t-97.5 31.5q-43 0 -77.5 -18t-56 -48.5t-33 -68t-11.5 -77.5z" />
<glyph unicode="b" horiz-adv-x="1465" d="M82 0v1679h521v-681q57 63 132 97.5t181 34.5q98 0 182 -32.5t143 -88t100.5 -129.5t61.5 -157.5t20 -171.5t-20 -171.5t-61.5 -157.5t-100.5 -129.5t-143 -88t-182 -32.5q-58 0 -107 12t-87 35t-65.5 47.5t-53.5 56.5v-123h-521zM591 557q0 -52 17.5 -96t57 -74 t93.5 -30t93.5 30t57.5 74t18 96t-18 96.5t-57.5 74t-93.5 29.5q-41 0 -74 -17t-53 -45.5t-30.5 -63.5t-10.5 -74z" />
<glyph unicode="c" horiz-adv-x="926" d="M32 548q0 88 21 171t65 157t105.5 129.5t149.5 88t191 32.5q179 0 321 -65v-341q-77 67 -165 67q-61 0 -105.5 -34t-65 -84.5t-20.5 -109.5q0 -60 20.5 -111.5t65 -86t105.5 -34.5q100 0 165 75v-350q-3 -1 -8 -4q-27 -14 -42.5 -21t-47 -19t-60 -18t-72 -11t-91.5 -5 q-103 0 -191 32.5t-149.5 87.5t-105.5 128.5t-65 156t-21 169.5z" />
<glyph unicode="d" horiz-adv-x="1472" d="M48 551q0 88 19.5 171.5t61.5 157.5t101 129.5t142.5 88t182.5 32.5q106 0 181 -34.5t132 -97.5v681h521v-1679h-521v123q-26 -32 -53.5 -56.5t-65.5 -47.5t-87 -35t-107 -12q-99 0 -182.5 32.5t-142.5 88t-101 129.5t-61.5 157.5t-19.5 171.5zM543 557q0 -52 18 -96 t57 -74t93.5 -30t93.5 30t57 74t18 96q0 39 -10.5 74t-31 63.5t-53.5 45.5t-73 17q-55 0 -94 -29.5t-57 -74t-18 -96.5z" />
<glyph unicode="e" horiz-adv-x="1345" d="M32 546q0 89 25 173.5t78 159t127.5 130.5t180 88.5t230.5 32.5q110 0 204.5 -22.5t164.5 -63t123.5 -95.5t86.5 -121.5t50 -139t17 -150.5q0 -7 -1.5 -23.5t-1.5 -23.5h-784q0 -5 -1.5 -14t-1.5 -15q0 -19 2.5 -37.5t8 -43t17.5 -45t29 -39t44 -28.5t62 -10 q31 0 53.5 7.5t39 25t26 34t21.5 45.5l478 -57q-21 -46 -49 -87t-67.5 -81.5t-91.5 -72.5t-115 -57t-144.5 -39t-174.5 -14q-123 0 -228 33t-179 89t-126.5 130.5t-77.5 158.5t-25 172zM538 705h297q0 51 -39.5 93.5t-111.5 42.5q-37 0 -66.5 -13.5t-46 -34.5t-25 -43.5 t-8.5 -44.5z" />
<glyph unicode="f" horiz-adv-x="1020" d="M68 766v348h127v107q0 468 501 468q38 0 80.5 -3t63.5 -5.5t71.5 -10t56.5 -8.5v-278q-91 21 -148 21q-104 0 -104 -147v-144h223v-348h-223v-766h-521v766h-127z" />
<glyph unicode="g" horiz-adv-x="1501" d="M59 570.5q0 87.5 19 170.5t58.5 156.5t95.5 128.5t135.5 87.5t173.5 32.5q236 0 334 -148v116h520v-1077q0 -110 -39.5 -197t-106.5 -143t-160.5 -93t-195 -52.5t-216.5 -15.5q-88 0 -207.5 24.5t-189.5 53.5v311q9 -3 53.5 -18t64 -19.5t61.5 -13.5t88 -12t103 -3 q34 0 61 3.5t53.5 12t45.5 24.5t34 39.5t23 58t8 78.5v50q-24 -30 -47.5 -50t-61 -40t-94 -29.5t-131.5 -9.5q-94 0 -173.5 32t-135.5 87t-95.5 128.5t-58.5 156.5t-19 170.5zM557 559q0 -81 44.5 -140t123.5 -59q53 0 92.5 29.5t58 74t18.5 95.5q0 81 -45 140.5t-124 59.5 q-53 0 -92 -29.5t-57.5 -74t-18.5 -96.5z" />
<glyph unicode="h" horiz-adv-x="1484" d="M118 0v1683h524v-681q27 54 107.5 92t180.5 38q221 0 341 -105t120 -286v-741h-475v638q0 27 -7 52t-21.5 48t-42.5 37t-66 14q-35 0 -63 -14t-43.5 -37t-23 -48.5t-7.5 -51.5v-638h-524z" />
<glyph unicode="i" horiz-adv-x="761" d="M107 1441q0 114 80.5 194.5t194.5 80.5t194.5 -80.5t80.5 -194.5t-80.5 -194t-194.5 -80t-194.5 80t-80.5 194zM123 0v1114h523v-1114h-523z" />
<glyph unicode="j" horiz-adv-x="763" d="M107 1441q0 114 80.5 194.5t194.5 80.5t194.5 -80.5t80.5 -194.5t-80.5 -194t-194.5 -80t-194.5 80t-80.5 194zM123 -464v1578h523v-1578h-523z" />
<glyph unicode="k" horiz-adv-x="1540" d="M128 0v1683h522v-1008l268 439h535l-351 -555l403 -559h-579l-276 430v-430h-522z" />
<glyph unicode="l" horiz-adv-x="770" d="M128 0v1683h522v-1683h-522z" />
<glyph unicode="m" horiz-adv-x="2254" d="M87 0v1114h520v-118q34 26 61 43.5t75.5 41.5t112.5 36.5t140 12.5q71 0 132 -15t103 -40.5t69 -49.5t48 -52q69 75 167 116t247 41q119 0 208.5 -43t139.5 -127t50 -201v-759h-523v638q0 18 -1 31.5t-5 32.5t-12.5 33t-21 27t-34 20t-49.5 7q-33 0 -58 -11.5 t-38.5 -27.5t-22 -38t-11 -39.5t-2.5 -34.5v-638h-521v638q0 20 -2 38t-10 39.5t-21.5 37t-38.5 26t-57.5 10.5t-57 -11.5t-37.5 -27.5t-20.5 -38.5t-9.5 -39t-2 -34.5v-638h-518z" />
<glyph unicode="n" horiz-adv-x="1510" d="M118 0v1114h524v-159q133 177 393 177q99 0 173 -27.5t119.5 -80t67 -123t21.5 -160.5v-741h-520v675q0 19 -2.5 37t-11 39.5t-21.5 37t-37 26t-56 10.5q-34 0 -60.5 -16.5t-40 -41.5t-19.5 -48.5t-6 -43.5v-675h-524z" />
<glyph unicode="o" horiz-adv-x="1371" d="M34 552.5q0 88.5 26 172.5t79.5 158.5t129 130t183.5 88t234 32.5t234 -32.5t184 -88t129.5 -130t79.5 -158.5t26 -172.5t-26 -172t-79.5 -158.5t-129.5 -131t-184 -88.5t-234 -32.5t-234 32.5t-183.5 88.5t-129 131t-79.5 158.5t-26 172zM518 553q0 -55 18.5 -102.5 t57.5 -78.5t92 -31t92.5 31t58 78.5t18.5 102.5q0 86 -45 148.5t-124 62.5q-40 0 -72.5 -18t-53 -48t-31.5 -67.5t-11 -77.5z" />
<glyph unicode="p" horiz-adv-x="1529" d="M134 -462v1576h521v-134q56 69 129.5 109.5t183.5 40.5q98 0 182 -32.5t143 -87.5t100.5 -129t61.5 -157t20 -171q0 -89 -20 -172.5t-61.5 -157.5t-100.5 -130t-143 -88.5t-182 -32.5q-106 0 -181 34.5t-132 97.5v-566h-521zM644 546q0 -52 17.5 -96.5t56.5 -74.5t93 -30 t93.5 30t57.5 74.5t18 96.5t-18 96.5t-57.5 74t-93.5 29.5t-93 -29.5t-56.5 -74t-17.5 -96.5z" />
<glyph unicode="q" horiz-adv-x="1484" d="M48 553q0 62 10 122.5t31 118t51.5 108t73 92.5t93 72t114 47t134.5 17q110 0 183.5 -40.5t129.5 -109.5v134h521v-1576h-521v566q-57 -63 -132 -97.5t-181 -34.5q-99 0 -182.5 32.5t-142.5 88.5t-101 130t-61.5 157.5t-19.5 172.5zM543 546q0 -38 10.5 -73.5t31 -64 t53.5 -46t74 -17.5q54 0 93 30t57 74.5t18 96.5t-18 96.5t-57 74t-93.5 29.5t-93.5 -29.5t-57 -74t-18 -96.5z" />
<glyph unicode="r" horiz-adv-x="1124" d="M115 0v1114h523v-101q59 64 163 96t236 32v-416q-106 0 -180.5 -16.5t-129 -55.5t-89.5 -105v-548h-523z" />
<glyph unicode="s" horiz-adv-x="1176" d="M34 115l129 235q173 -68 310 -68q104 0 104 50q0 32 -37.5 52t-116.5 32q-159 24 -241 109.5t-82 227.5q0 164 137 268.5t366 104.5q269 0 475 -74l-91 -273q-63 16 -144 27.5t-149 11.5q-32 0 -56.5 -5.5t-40 -18t-15.5 -30.5q0 -28 31 -42t103 -17q203 -10 312 -102 t109 -237q0 -88 -34.5 -159t-105 -124t-184.5 -82t-265 -29q-132 0 -266 39t-248 104z" />
<glyph unicode="t" horiz-adv-x="997" d="M84 766v348h127v320h520v-320h185v-348h-185v-766h-520v766h-127z" />
<glyph unicode="u" horiz-adv-x="1438" d="M98 484v630h509v-626q0 -58 31 -94.5t85 -36.5q27 0 49.5 10t37 27.5t22 41.5t7.5 52v626h512v-630q0 -116 -40 -209t-117 -160.5t-197 -104t-274 -36.5t-273 36.5t-196 104t-116.5 160.5t-39.5 209z" />
<glyph unicode="v" horiz-adv-x="1363" d="M43 1114h471l180 -482l152 482h497l-463 -1114h-373z" />
<glyph unicode="w" horiz-adv-x="2059" d="M34 1114h467l181 -452l153 452h395l161 -461l164 461h489l-464 -1116h-368l-175 453l-173 -451l-369 -2z" />
<glyph unicode="x" horiz-adv-x="1506" d="M46 0l434 573l-402 541h531l146 -198l139 198h533l-411 -543l441 -571h-535l-167 228l-173 -228h-536z" />
<glyph unicode="y" horiz-adv-x="1397" d="M28 1114h534l136 -383l163 383h525l-702 -1578h-511l272 623z" />
<glyph unicode="z" horiz-adv-x="1297" d="M95 0l358 714h-353v397h1110l-332 -704h332v-407h-1115z" />
<glyph unicode="{" horiz-adv-x="777" d="M89 807q59 35 92 87.5t33 116.5v440q0 56 14 103.5t38 83.5t59.5 64t77 47t90.5 31t100 17.5t107 5.5v-176q-44 0 -76 -5.5t-53.5 -17.5t-35 -27.5t-20.5 -40t-9.5 -49t-2.5 -60.5v-401q0 -71 -49.5 -130.5t-121.5 -88.5q34 -14 65 -36t54.5 -50t37.5 -62.5t14 -70.5 v-465q0 -41 3.5 -67.5t15 -53t32.5 -40.5t57.5 -23t88.5 -9v-175q-79 0 -148 10.5t-132.5 36t-108 65t-71 100.5t-26.5 140v496q0 63 -33.5 116t-91.5 88z" />
<glyph unicode="|" horiz-adv-x="451" d="M125 -104v1820h209v-1820h-209z" />
<glyph unicode="}" horiz-adv-x="753" d="M87 -70q52 0 88.5 9t57.5 23t32.5 40.5t15 53t3.5 67.5v465q0 71 49.5 130.5t121.5 88.5q-72 29 -121.5 88.5t-49.5 130.5v401q0 44 -3.5 72t-15 54.5t-33 41.5t-57.5 23.5t-88 8.5v176q79 0 148 -10.5t132.5 -36.5t108 -65t71 -100.5t26.5 -139.5v-440q0 -43 15.5 -82 t43.5 -69t66 -53q-28 -17 -51 -39t-39.5 -47.5t-25.5 -55.5t-9 -62v-496q0 -66 -18 -119.5t-52 -91.5t-78 -66t-99.5 -44t-114.5 -23.5t-124 -7.5v175z" />
<glyph unicode="~" horiz-adv-x="1043" d="M98 955q124 138 284 138q54 0 92 -12.5t81 -37.5q34 -18 49.5 -25t47.5 -16t66 -9q114 0 180 76l89 -101q-50 -54 -112 -86t-155 -32q-101 0 -186 48q-6 3 -28.5 15.5t-30.5 16t-26 11t-33.5 9.5t-33.5 2q-32 0 -60.5 -5.5t-47.5 -14t-39 -22.5t-31 -24.5t-26 -26.5z" />
<glyph unicode="&#xa1;" horiz-adv-x="833" d="M171 -310v1071h523v-1071h-523zM178 1082.5q0 102.5 72.5 175t175 72.5t175 -72.5t72.5 -175t-72.5 -175t-175 -72.5t-175 72.5t-72.5 175z" />
<glyph unicode="&#xa2;" horiz-adv-x="1031" d="M123 770q0 91 27.5 171t78.5 141.5t128.5 99.5t171.5 43v133h155v-130q140 -11 230 -80v-252q-83 86 -211 86q-54 0 -96.5 -17.5t-68 -47t-39 -65.5t-13.5 -75q0 -56 24 -104.5t74.5 -81t118.5 -32.5q137 0 211 85v-258q-87 -59 -230 -72v-139h-155v139 q-201 22 -303.5 142t-102.5 314z" />
<glyph unicode="&#xa3;" horiz-adv-x="1310" d="M78 282q33 35 92 66.5t105 44.5q89 107 61 286h-193v178h157q-12 44 -33.5 91.5t-38.5 80t-30.5 92t-13.5 133.5q0 77 32.5 145t93.5 121t157 84t215 31q100 0 177 -13t131.5 -40.5t91 -64t57.5 -88t30 -107.5t9 -129h-287v5q0 40 -7 68t-18 43.5t-30.5 23.5t-36 10 t-42.5 2q-54 0 -86.5 -33t-32.5 -98q0 -51 15.5 -99.5t35.5 -81t41.5 -81t30.5 -95.5h262v-178h-232q5 -64 5 -95q0 -38 -9.5 -83.5t-26.5 -87t-37 -68.5q29 0 86 -16.5t109 -16.5q63 0 137 27.5t109 65.5l50 -257q-153 -161 -366 -161q-78 0 -128 12.5t-102 37.5 q-37 18 -58 26.5t-61 17t-87 8.5q-82 0 -132 -19t-123 -72z" />
<glyph unicode="&#xa5;" horiz-adv-x="1577" d="M46 1621h542l210 -354l209 356h546l-499 -800h232v-127h-232v-93h232v-128h-232v-475h-531v475h-232v128h232v93h-232v127h232z" />
<glyph unicode="&#xa6;" horiz-adv-x="336" d="M104 0v614h124v-614h-124zM104 857v675h124v-675h-124z" />
<glyph unicode="&#xa7;" horiz-adv-x="1663" d="M63 777q0 94 38 182.5t112.5 152t168.5 79.5q-41 71 -41 145q0 154 119 241t356 87q66 0 123.5 -3.5t103.5 -9t90 -15t80 -20t78 -24.5l-91 -273q-137 39 -293 39q-50 0 -85 -20.5t-35 -68.5q0 -54 28.5 -70.5t125.5 -25.5q170 -14 296 -58t202.5 -113t113.5 -155 t37 -190q0 -339 -274 -432q9 -29 9 -100q0 -164 -148 -262.5t-420 -98.5q-114 0 -252.5 35t-256.5 108l129 234q120 -61 296 -61q52 0 83 9t44.5 28t13.5 52q0 48 -39.5 65t-215.5 52q-243 50 -369.5 174t-126.5 317zM512 714q0 -55 24.5 -99.5t67 -73t99 -44t122.5 -15.5 q87 0 157.5 26.5t113.5 80t43 125.5q0 102 -91 167t-223 65q-88 0 -158 -26.5t-112.5 -80t-42.5 -125.5z" />
<glyph unicode="&#xa8;" horiz-adv-x="1197" d="M89 1434q0 91 63.5 155t154 64t154.5 -64t64 -155q0 -44 -17.5 -84.5t-46.5 -69.5t-69.5 -46t-85.5 -17q-90 0 -153.5 63t-63.5 154zM675 1434q0 91 64 155t154.5 64t154 -64t63.5 -155t-63.5 -154t-154 -63t-154.5 63t-64 154z" />
<glyph unicode="&#xa9;" horiz-adv-x="1336" d="M89 885q0 97 30 188t85.5 164.5t128.5 129t164.5 85.5t188.5 30q121 0 232 -47.5t191 -127.5t127.5 -190.5t47.5 -232t-47.5 -232t-127.5 -191t-191 -128t-232 -47.5t-232 47.5t-191 128t-127 191t-47 232.5zM137 887q0 -112 43.5 -214.5t118 -176.5t176.5 -118t214 -44 q90 0 174 28t152 79.5t119 119.5t79 152t28 174q0 112 -44 214t-117.5 176t-176 118t-214.5 44t-214 -44t-176.5 -118t-118 -176t-43.5 -214zM391 896q0 41 11.5 80.5t35.5 74.5t58.5 61t83 41.5t106.5 15.5q74 0 124.5 -23.5t91.5 -63.5v-54q-91 95 -216 95 q-60 0 -109 -19.5t-79 -52t-46 -72.5t-16 -83.5t16 -83.5t46 -73t79 -53t109 -20q80 0 129.5 29.5t86.5 79.5v-70q-79 -85 -216 -85q-71 0 -128.5 24t-93 63t-54.5 88t-19 101z" />
<glyph unicode="&#xaa;" horiz-adv-x="940" d="M111 703v165h741v-165h-741zM125 1245q0 37 7.5 72.5t21.5 67.5t36 59t50.5 47.5t66 31.5t79.5 11q106 0 157 -65v58h255v-557h-255v65q-48 -76 -157 -76q-63 0 -114 24.5t-82.5 65.5t-48 91t-16.5 105zM362 1258q0 -44 23.5 -76t65.5 -32q28 0 48.5 16t29.5 39.5t9 52.5 q0 42 -23 73t-64.5 31t-65 -31t-23.5 -73z" />
<glyph unicode="&#xab;" horiz-adv-x="1417" d="M50 603v186l564 411l154 -224l-402 -280l402 -284l-154 -219zM677 603v186l564 411l152 -224l-400 -280l400 -284l-152 -219z" />
<glyph unicode="&#xac;" d="M68 800v130h771v-130h-771zM145 195q0 42 11.5 74.5t31.5 53.5t38.5 32.5t42.5 21.5q-23 13 -36.5 24t-29.5 30t-24 47t-8 65q0 80 74.5 138t190.5 58q117 0 194 -58t77 -138q0 -30 -6.5 -55t-15 -40.5t-24 -30.5t-25.5 -21.5t-29 -18.5q12 -5 16.5 -7t17.5 -8.5 t19 -11.5t17.5 -14t17.5 -18t14 -22t12 -27.5t7 -33.5t3 -40q0 -59 -35.5 -107.5t-103 -78t-154.5 -29.5q-131 0 -212 62.5t-81 152.5zM254 1551v186h314v-746h-238v560h-76zM373 221q0 -22 7.5 -39.5t22 -28t33.5 -10.5q20 0 35.5 10.5t23.5 28t8 39.5q0 16 -5 30t-13 24.5 t-21 16t-28 5.5q-28 0 -45.5 -21.5t-17.5 -54.5zM388 529q0 -22 13.5 -37t34.5 -15q19 0 32.5 15t13.5 37q0 24 -13 39.5t-33 15.5q-21 0 -34.5 -15t-13.5 -40z" />
<glyph unicode="&#xad;" horiz-adv-x="1356" d="M163 416v348h1039v-348h-1039z" />
<glyph unicode="&#xae;" horiz-adv-x="952" d="M118 1225.5q0 97.5 48 180t131 130.5t180 48t180 -48t131.5 -130.5t48.5 -180.5q0 -72 -28.5 -138.5t-77 -115t-115 -77t-139.5 -28.5q-97 0 -180 48t-131 131t-48 180.5zM152 1225.5q0 -88.5 43.5 -163.5t118.5 -118.5t163 -43.5q67 0 127 26t103.5 69.5t69.5 103.5 t26 126.5t-26 126.5t-69.5 103.5t-103.5 69.5t-127 26q-88 0 -163 -43.5t-118.5 -118.5t-43.5 -163.5zM352 1028v413h160q51 0 83 -31.5t32 -79.5q0 -55 -31 -83t-84 -28h-19l134 -191h-41l-131 191h-71v-191h-32zM384 1250h130q40 0 61 21t21 59q0 34 -21.5 57t-60.5 23 h-130v-160z" />
<glyph unicode="&#xaf;" horiz-adv-x="1020" d="M95 1269v165h871v-165h-871z" />
<glyph unicode="&#xb0;" horiz-adv-x="601" d="M82 1375q0 48 19 92t50.5 75.5t75.5 50.5t92 19q97 0 166.5 -69.5t69.5 -167t-69.5 -167t-167 -69.5t-167 69.5t-69.5 166.5zM159 1375.5q0 -66.5 47.5 -114t114 -47.5t114 47.5t47.5 114t-47.5 113.5t-114 47t-114 -47t-47.5 -113.5z" />
<glyph unicode="&#xb1;" horiz-adv-x="1297" d="M132 137v290h1043v-290h-1043zM132 868v349h348v347h347v-347h348v-349h-348v-347h-347v347h-348z" />
<glyph unicode="&#xb2;" d="M132 993v124l111 85q22 17 58.5 50t82.5 80.5t78.5 99.5t32.5 89q0 71 -63 71t-63 -103h-215q1 31 10 64t30.5 68.5t54 62.5t84.5 44.5t118 17.5q148 0 222.5 -58t74.5 -161q0 -184 -262 -347h262v-187h-616z" />
<glyph unicode="&#xb3;" d="M166 1219h214q3 -62 61 -62q62 0 62 73q0 24 -6 38.5t-20 21t-28.5 8.5t-38.5 2v153q48 0 70.5 12t22.5 45q0 32 -14 46.5t-48 14.5q-57 0 -57 -64h-213q1 35 8 66t26.5 63t49 55.5t78.5 38t112 14.5q71 0 124 -14t86.5 -40.5t50.5 -64t17 -87.5q0 -34 -10 -60t-28.5 -43 t-37.5 -27.5t-44 -18.5q24 -7 46.5 -18.5t45.5 -31.5t37 -51.5t14 -70.5q0 -74 -33.5 -127t-99.5 -81.5t-160 -28.5q-62 0 -111.5 15t-80.5 39t-52.5 56t-30.5 63.5t-12 65.5z" />
<glyph unicode="&#xb4;" horiz-adv-x="590" d="M89 1378l265 266l123 -123l-266 -267z" />
<glyph unicode="&#xb5;" d="M68 800v130h771v-130h-771zM132 -7v122l111 87q22 16 58.5 49.5t82.5 81t78.5 99.5t32.5 89q0 70 -63 70t-63 -103h-215q1 26 7.5 53.5t20 57t37 55.5t54.5 47t77 33t101 12q148 0 222.5 -58t74.5 -161q0 -184 -262 -347h262v-187h-616zM252 1551v186h314v-746h-239v560 h-75z" />
<glyph unicode="&#xb6;" horiz-adv-x="1413" d="M91 1111q0 152 67 269t185 180t269 63h349v-1842h-232v822h-81q-254 0 -405.5 138t-151.5 370zM1078 -219v1842h234v-1842h-234z" />
<glyph unicode="&#xb7;" horiz-adv-x="915" d="M202 834.5q0 102.5 71.5 174t174 71.5t174.5 -71.5t72 -174t-72 -174.5t-174.5 -72t-174 72t-71.5 174.5z" />
<glyph unicode="&#xb8;" horiz-adv-x="549" d="M125 -182q29 -29 73 -29q21 0 33 12.5t12 29.5q0 12 -10 25t-15 17t-23 18l48 109h123l-50 -102q91 -49 91 -130q0 -56 -39 -88t-102 -32q-78 0 -141 42v128z" />
<glyph unicode="&#xb9;" d="M254 1551v186h314v-746h-238v560h-76z" />
<glyph unicode="&#xba;" horiz-adv-x="900" d="M75 705v165h741v-165h-741zM102 1252q0 57 21.5 110.5t61.5 96t105.5 68.5t145.5 26q82 0 147.5 -26t106 -69t62 -95.5t21.5 -110t-21.5 -110.5t-62 -96t-106 -68.5t-147.5 -25.5q-80 0 -145.5 25.5t-105.5 68.5t-61.5 96t-21.5 110zM350 1252q0 -44 23 -76.5t63 -32.5 q28 0 49 16.5t30.5 40.5t9.5 52q0 44 -23.5 77t-65.5 33q-27 0 -47 -16.5t-29.5 -41t-9.5 -52.5z" />
<glyph unicode="&#xbb;" horiz-adv-x="1417" d="M50 412l403 284l-403 280l154 224l564 -411v-186l-564 -410zM689 412l402 284l-402 280l152 224l564 -411v-186l-564 -410z" />
<glyph unicode="&#xbc;" d="M68 800v130h771v-130h-771zM111 128v169l246 447h335v-430h78v-186h-78v-132h-235v132h-346zM254 1551v186h314v-746h-238v560h-76zM352 314h105v211z" />
<glyph unicode="&#xbd;" d="M68 800v130h771v-130h-771zM132 -7v122l111 87q22 16 58.5 49.5t82.5 81t78.5 99.5t32.5 89q0 70 -63 70t-63 -103h-215q1 26 7.5 53.5t20 57t37 55.5t54.5 47t77 33t101 12q148 0 222.5 -58t74.5 -161q0 -184 -262 -347h262v-187h-616zM252 1551v186h314v-746h-239v560 h-75z" />
<glyph unicode="&#xbe;" d="M68 800v130h771v-130h-771zM111 128v169l246 447h335v-430h78v-186h-78v-132h-235v132h-346zM166 1219h214q3 -62 61 -62q62 0 62 73q0 24 -6 38.5t-20 21t-28.5 8.5t-38.5 2v153q48 0 70.5 12t22.5 45q0 32 -14 46.5t-48 14.5q-57 0 -57 -64h-213q1 35 8 66t26.5 63 t49 55.5t78.5 38t112 14.5q71 0 124 -14t86.5 -40.5t50.5 -64t17 -87.5q0 -34 -10 -60t-28.5 -43t-37.5 -27.5t-44 -18.5q24 -7 46.5 -18.5t45.5 -31.5t37 -51.5t14 -70.5q0 -74 -33.5 -127t-99.5 -81.5t-160 -28.5q-62 0 -111.5 15t-80.5 39t-52.5 56t-30.5 63.5t-12 65.5z M352 314h105v211z" />
<glyph unicode="&#xbf;" horiz-adv-x="1495" d="M89 166q0 107 34.5 197t93 150.5t136 94.5t163.5 34v76h454v-332h-165q-99 0 -151.5 -54t-52.5 -163q0 -100 35.5 -143.5t116.5 -43.5q41 0 71 11t47.5 32t25.5 49.5t8 66.5h464q-1 -71 -23 -139.5t-71 -133.5t-119.5 -114t-177.5 -78.5t-237 -29.5q-164 0 -291 39.5 t-205 110.5t-117 164.5t-39 205.5zM503 1057q0 50 19.5 96t52.5 79.5t79 53t96 19.5q103 0 175.5 -73t72.5 -175.5t-72.5 -175t-175.5 -72.5q-67 0 -124 33.5t-90 90.5t-33 124z" />
<glyph unicode="&#xc0;" horiz-adv-x="1704" d="M52 0l514 1623h605l514 -1623h-514l-80 234h-443l-80 -234h-516zM594 1914l109 110l238 -239l-109 -110zM757 596h219l-108 343z" />
<glyph unicode="&#xc1;" horiz-adv-x="1704" d="M52 0l514 1623h605l514 -1623h-514l-80 234h-443l-80 -234h-516zM757 596h219l-108 343zM768 1789l239 239l110 -109l-239 -240z" />
<glyph unicode="&#xc2;" horiz-adv-x="1704" d="M52 0l514 1623h605l514 -1623h-514l-80 234h-443l-80 -234h-516zM546 1792l286 284h84l284 -284l-111 -113l-211 215l-219 -219zM757 596h219l-108 343z" />
<glyph unicode="&#xc3;" horiz-adv-x="1704" d="M52 0l514 1623h605l514 -1623h-514l-80 234h-443l-80 -234h-516zM412 1841q124 139 284 139q54 0 91 -12.5t81 -37.5q33 -17 49.5 -25t48.5 -16.5t66 -8.5q115 0 180 75l88 -100q-50 -54 -111.5 -86t-153.5 -32q-102 0 -187 48q-6 3 -28.5 15.5t-30.5 16t-26 11 t-33.5 9.5t-33.5 2q-40 0 -72.5 -7.5t-57.5 -23t-40.5 -29t-34.5 -33.5zM757 596h219l-108 343z" />
<glyph unicode="&#xc4;" horiz-adv-x="1704" d="M52 0l514 1623h605l514 -1623h-514l-80 234h-443l-80 -234h-516zM430 1871q0 48 23 88t63.5 63.5t88.5 23.5q72 0 123 -51.5t51 -123.5q0 -46 -23.5 -86.5t-63.5 -64.5t-87 -24q-73 0 -124 51.5t-51 123.5zM757 596h219l-108 343zM946 1871.5q0 71.5 51.5 123t123.5 51.5 q73 0 123.5 -51.5t50.5 -123.5q0 -47 -23 -87t-63 -64t-88 -24q-71 0 -123 52t-52 123.5z" />
<glyph unicode="&#xc5;" horiz-adv-x="1704" d="M52 0l514 1623h605l514 -1623h-514l-80 234h-443l-80 -234h-516zM675 1861.5q0 78.5 55 133.5t133.5 55t133.5 -55t55 -133.5t-55 -133.5t-133.5 -55t-133.5 55t-55 133.5zM737 1861q0 -52 38 -90t90.5 -38t91.5 38t39 90.5t-39 91t-91 38.5q-35 0 -64.5 -17.5t-47 -47.5 t-17.5 -65zM757 596h219l-108 343z" />
<glyph unicode="&#xc6;" horiz-adv-x="2086" d="M39 0l618 1623h1310v-404h-524v-214h501v-407h-503v-191h526v-407h-1047v243h-267l-80 -243h-534zM773 603h147v464z" />
<glyph unicode="&#xc7;" horiz-adv-x="1256" d="M52 814q0 126 34.5 245t106.5 225t174 185.5t247.5 126t315.5 46.5q44 0 84.5 -4.5t82.5 -12.5t51 -9v-549q-31 11 -47 16t-65.5 12t-109.5 7q-58 0 -105.5 -14.5t-81.5 -40.5t-57.5 -62t-34.5 -79.5t-11 -91.5q0 -60 19 -112.5t54.5 -92.5t91.5 -63t125 -23 q63 0 110.5 6t64 11.5t47.5 16.5v-559q-74 -20 -216 -20l-30 -73q114 -60 114 -161q0 -69 -48.5 -110t-126.5 -41q-98 0 -177 55v157q17 -16 42 -26.5t49 -10.5q28 0 43.5 15.5t15.5 38.5q0 15 -12 30.5t-21 22.5t-28 21l38 88q-143 18 -264.5 72.5t-208 134.5t-147 181 t-90 213t-29.5 229z" />
<glyph unicode="&#xc8;" horiz-adv-x="1228" d="M98 0v1623h1045v-404h-525v-210h499v-406h-499v-196h525v-407h-1045zM416 1919l109 109l239 -239l-109 -110z" />
<glyph unicode="&#xc9;" horiz-adv-x="1228" d="M98 0v1623h1045v-404h-525v-210h499v-406h-499v-196h525v-407h-1045zM518 1785l239 239l109 -110l-239 -239z" />
<glyph unicode="&#xca;" horiz-adv-x="1228" d="M98 0v1623h1045v-404h-525v-210h499v-406h-499v-196h525v-407h-1045zM295 1837l287 284h84l282 -284l-111 -112l-210 214l-217 -219z" />
<glyph unicode="&#xcb;" horiz-adv-x="1228" d="M98 0v1623h1045v-404h-525v-210h499v-406h-499v-196h525v-407h-1045zM193 1871q0 72 51.5 123.5t124.5 51.5q71 0 122.5 -51.5t51.5 -123t-51.5 -123.5t-122.5 -52q-73 0 -124.5 51.5t-51.5 123.5zM709 1871q0 47 24 87.5t64.5 64t87.5 23.5q48 0 88 -23.5t63 -63.5 t23 -88q0 -72 -51 -123.5t-123 -51.5t-124 52t-52 123z" />
<glyph unicode="&#xcc;" horiz-adv-x="761" d="M123 0v1623h523v-1623h-523zM161 1919l110 109l238 -239l-109 -110z" />
<glyph unicode="&#xcd;" horiz-adv-x="753" d="M123 0v1623h523v-1623h-523zM286 1789l239 239l109 -109l-239 -240z" />
<glyph unicode="&#xce;" horiz-adv-x="753" d="M59 1837l286 284h85l282 -284l-111 -112l-213 214l-215 -219zM123 0v1623h523v-1623h-523z" />
<glyph unicode="&#xcf;" horiz-adv-x="718" d="M-46 1871q0 72 51.5 123.5t124.5 51.5q71 0 122.5 -51.5t51.5 -123t-51.5 -123.5t-122.5 -52q-73 0 -124.5 51.5t-51.5 123.5zM123 0v1623h523v-1623h-523zM447 1871q0 47 24 87.5t64.5 64t87.5 23.5q73 0 124 -51.5t51 -123.5q0 -47 -23 -87t-63.5 -64t-88.5 -24 q-72 0 -124 52t-52 123z" />
<glyph unicode="&#xd0;" horiz-adv-x="1670" d="M28 718v228h111v677h598q165 0 304.5 -43.5t237.5 -118.5t166.5 -175.5t101.5 -215t33 -238.5q0 -102 -23.5 -202t-69 -193t-117.5 -172t-163 -138t-211.5 -92.5t-258.5 -34.5l-598 -2v720h-111zM662 521h73q60 0 111 17.5t87.5 47.5t62 70t38 85t12.5 91q0 60 -20 114.5 t-57.5 99t-98.5 71t-135 26.5h-73v-197h143v-228h-143v-197z" />
<glyph unicode="&#xd1;" horiz-adv-x="1699" d="M89 0v1623h486l518 -782v782h521v-1623h-521l-484 746v-746h-520zM373 1841q124 139 284 139q38 0 71.5 -8t53.5 -17t48 -25q34 -18 49.5 -25.5t47.5 -16t66 -8.5q115 0 180 75l89 -100q-50 -54 -112 -86t-154 -32q-102 0 -187 48q-8 4 -24.5 13t-24.5 13.5t-22.5 11 t-25 9.5t-25.5 5t-30 2q-32 0 -60 -6t-47.5 -14t-39 -22t-31 -24.5t-26.5 -26.5z" />
<glyph unicode="&#xd2;" horiz-adv-x="1797" d="M41 809q0 127 34 246.5t104.5 226.5t170.5 186.5t241.5 126.5t308.5 47q140 0 262.5 -33t215.5 -91t166.5 -136.5t120 -171.5t70.5 -194.5t24 -206.5q0 -126 -33.5 -246t-104 -226.5t-170.5 -186t-242 -126t-309 -46.5q-139 0 -262 32.5t-215.5 90.5t-166 136.5 t-120 171.5t-71 194t-24.5 206zM620 809.5q0 -52.5 11 -102.5t34 -94.5t56 -78t79 -53t100 -19.5q68 0 122.5 29.5t88 79t51.5 111t18 127.5q0 44 -8 86t-23 81t-39 72t-54.5 57t-70 38t-85.5 14q-54 0 -100 -19.5t-79 -53t-56 -78t-34 -94.5t-11 -102.5zM766 1919l109 109 l239 -239l-109 -110z" />
<glyph unicode="&#xd3;" horiz-adv-x="1797" d="M41 809q0 127 34 246.5t104.5 226.5t170.5 186.5t241.5 126.5t308.5 47q140 0 262.5 -33t215.5 -91t166.5 -136.5t120 -171.5t70.5 -194.5t24 -206.5q0 -126 -33.5 -246t-104 -226.5t-170.5 -186t-242 -126t-309 -46.5q-139 0 -262 32.5t-215.5 90.5t-166 136.5 t-120 171.5t-71 194t-24.5 206zM620 809.5q0 -52.5 11 -102.5t34 -94.5t56 -78t79 -53t100 -19.5q68 0 122.5 29.5t88 79t51.5 111t18 127.5q0 44 -8 86t-23 81t-39 72t-54.5 57t-70 38t-85.5 14q-54 0 -100 -19.5t-79 -53t-56 -78t-34 -94.5t-11 -102.5zM768 1789l239 239 l110 -109l-239 -240z" />
<glyph unicode="&#xd4;" horiz-adv-x="1797" d="M41 809q0 127 34 246.5t104.5 226.5t170.5 186.5t241.5 126.5t308.5 47q140 0 262.5 -33t215.5 -91t166.5 -136.5t120 -171.5t70.5 -194.5t24 -206.5q0 -126 -33.5 -246t-104 -226.5t-170.5 -186t-242 -126t-309 -46.5q-139 0 -262 32.5t-215.5 90.5t-166 136.5 t-120 171.5t-71 194t-24.5 206zM568 1792l289 284h82l284 -284l-112 -113l-211 215l-218 -219zM620 809.5q0 -52.5 11 -102.5t34 -94.5t56 -78t79 -53t100 -19.5q68 0 122.5 29.5t88 79t51.5 111t18 127.5q0 44 -8 86t-23 81t-39 72t-54.5 57t-70 38t-85.5 14 q-54 0 -100 -19.5t-79 -53t-56 -78t-34 -94.5t-11 -102.5z" />
<glyph unicode="&#xd5;" horiz-adv-x="1797" d="M41 809q0 127 34 246.5t104.5 226.5t170.5 186.5t241.5 126.5t308.5 47q140 0 262.5 -33t215.5 -91t166.5 -136.5t120 -171.5t70.5 -194.5t24 -206.5q0 -126 -33.5 -246t-104 -226.5t-170.5 -186t-242 -126t-309 -46.5q-139 0 -262 32.5t-215.5 90.5t-166 136.5 t-120 171.5t-71 194t-24.5 206zM455 1841q124 139 284 139q54 0 91 -12.5t81 -37.5q26 -13 37.5 -19t34 -15t44.5 -12.5t49 -3.5q113 0 178 75l89 -100q-50 -54 -111.5 -86t-153.5 -32q-102 0 -187 48q-5 3 -28 15.5t-31 16t-25.5 11t-33.5 9.5t-34 2q-39 0 -72 -7.5 t-58 -23t-40.5 -29t-34.5 -33.5zM620 809.5q0 -52.5 11 -102.5t34 -94.5t56 -78t79 -53t100 -19.5q68 0 122.5 29.5t88 79t51.5 111t18 127.5q0 44 -8 86t-23 81t-39 72t-54.5 57t-70 38t-85.5 14q-54 0 -100 -19.5t-79 -53t-56 -78t-34 -94.5t-11 -102.5z" />
<glyph unicode="&#xd6;" horiz-adv-x="1797" d="M41 809q0 127 34 246.5t104.5 226.5t170.5 186.5t241.5 126.5t308.5 47q140 0 262.5 -33t215.5 -91t166.5 -136.5t120 -171.5t70.5 -194.5t24 -206.5q0 -126 -33.5 -246t-104 -226.5t-170.5 -186t-242 -126t-309 -46.5q-139 0 -262 32.5t-215.5 90.5t-166 136.5 t-120 171.5t-71 194t-24.5 206zM462 1871q0 72 50.5 123.5t123.5 51.5q47 0 87.5 -23.5t64 -64t23.5 -87.5q0 -71 -51.5 -123t-123.5 -52q-73 0 -123.5 51.5t-50.5 123.5zM620 809.5q0 -52.5 11 -102.5t34 -94.5t56 -78t79 -53t100 -19.5q68 0 122.5 29.5t88 79t51.5 111 t18 127.5q0 44 -8 86t-23 81t-39 72t-54.5 57t-70 38t-85.5 14q-54 0 -100 -19.5t-79 -53t-56 -78t-34 -94.5t-11 -102.5zM978 1871.5q0 71.5 51.5 123t122.5 51.5q73 0 124.5 -51.5t51.5 -123.5t-51.5 -123.5t-124.5 -51.5q-71 0 -122.5 52t-51.5 123.5z" />
<glyph unicode="&#xd7;" horiz-adv-x="1282" d="M87 128l445 447l-445 446l108 109l447 -448l447 448l109 -109l-448 -446l448 -447l-109 -110l-447 448l-447 -448z" />
<glyph unicode="&#xd8;" horiz-adv-x="1797" d="M50 809q0 127 33.5 246.5t104.5 226.5t171 186.5t241.5 126.5t308.5 47q194 0 366 -67l59 96h232l-117 -194q156 -115 237.5 -293t81.5 -375q0 -126 -33.5 -246t-104.5 -226.5t-170.5 -186t-241.5 -126t-309 -46.5q-193 0 -354 63l-52 -87h-230l109 178 q-162 114 -247 294.5t-85 382.5zM629 809q0 -112 48 -200l328 530q-48 18 -96 18q-54 0 -100.5 -19.5t-79 -53t-55.5 -78t-34 -94.5t-11 -103zM825 475q38 -13 84 -13q68 0 122.5 29.5t88 79t51.5 111t18 127.5q0 103 -41 187z" />
<glyph unicode="&#xd9;" horiz-adv-x="1460" d="M78 521v1102h520v-1059q0 -62 36.5 -95t96.5 -33q40 0 70.5 14t48.5 43.5t18 70.5v1059h521v-1102q0 -106 -36.5 -195.5t-99 -151.5t-146.5 -105.5t-179 -64t-197 -20.5q-85 0 -165.5 15t-154 43.5t-134 73.5t-105.5 103.5t-69.5 135.5t-24.5 166zM480 1919l108 109 l239 -239l-109 -110z" />
<glyph unicode="&#xda;" horiz-adv-x="1460" d="M78 521v1102h520v-1059q0 -62 36.5 -95t96.5 -33q40 0 70.5 14t48.5 43.5t18 70.5v1059h521v-1102q0 -106 -36.5 -195.5t-99 -151.5t-146.5 -105.5t-179 -64t-197 -20.5q-85 0 -165.5 15t-154 43.5t-134 73.5t-105.5 103.5t-69.5 135.5t-24.5 166zM614 1789l238 239 l109 -109l-238 -240z" />
<glyph unicode="&#xdb;" horiz-adv-x="1460" d="M78 521v1102h520v-1059q0 -62 36.5 -95t96.5 -33q40 0 70.5 14t48.5 43.5t18 70.5v1059h521v-1102q0 -106 -36.5 -195.5t-99 -151.5t-146.5 -105.5t-179 -64t-197 -20.5q-85 0 -165.5 15t-154 43.5t-134 73.5t-105.5 103.5t-69.5 135.5t-24.5 166zM407 1792l287 284h83 l282 -284l-111 -113l-211 215l-216 -219z" />
<glyph unicode="&#xdc;" horiz-adv-x="1460" d="M78 521v1102h520v-1059q0 -62 36.5 -95t96.5 -33q40 0 70.5 14t48.5 43.5t18 70.5v1059h521v-1102q0 -106 -36.5 -195.5t-99 -151.5t-146.5 -105.5t-179 -64t-197 -20.5q-85 0 -165.5 15t-154 43.5t-134 73.5t-105.5 103.5t-69.5 135.5t-24.5 166zM300 1871 q0 72 51 123.5t124 51.5q47 0 87.5 -23.5t64 -64t23.5 -87.5q0 -71 -51.5 -123t-123.5 -52q-73 0 -124 51.5t-51 123.5zM816 1871.5q0 71.5 52 123t123 51.5q73 0 124.5 -51.5t51.5 -123.5t-51.5 -123.5t-124.5 -51.5q-71 0 -123 52t-52 123.5z" />
<glyph unicode="&#xdd;" horiz-adv-x="1566" d="M34 1623h534l219 -404l209 404h552l-505 -879v-744h-534v744zM677 1785l239 239l110 -110l-239 -239z" />
<glyph unicode="&#xde;" horiz-adv-x="1401" d="M93 0v1623h523v-268h211q107 0 202.5 -36t167 -100.5t113 -162t41.5 -212.5q0 -125 -42.5 -223t-118.5 -160t-176.5 -94.5t-219.5 -32.5h-178v-334h-523zM616 725h87q55 0 87.5 31.5t32.5 87.5q0 53 -35 85t-85 32h-87v-236z" />
<glyph unicode="&#xdf;" horiz-adv-x="1854" d="M70 766v348h128q0 100 37.5 186t104.5 148.5t157.5 107t196 66.5t220.5 22q194 0 351 -50.5t249.5 -147.5t92.5 -225q0 -86 -18.5 -144.5t-49 -89.5t-79.5 -55q46 -13 87 -34t82 -58.5t70.5 -86t48 -120t18.5 -158.5q0 -75 -19 -140t-51.5 -112.5t-77.5 -86t-95 -63.5 t-106 -42t-108.5 -24t-104.5 -7h-324v347h159q99 0 150.5 54t51.5 152q0 47 -17 83t-54.5 64t-104.5 42.5t-160 14.5v286q89 0 121.5 32t32.5 103q0 27 -12 50t-33 38t-49.5 23.5t-62.5 8.5q-57 0 -98.5 -18t-63.5 -51t-22 -77v-1152h-520v766h-128z" />
<glyph unicode="&#xe0;" horiz-adv-x="1536" d="M68 551q0 72 14.5 142t42.5 134.5t72.5 118.5t101 94.5t131 63t158.5 22.5q218 0 314 -133v121h510v-1114h-510v128q-88 -150 -314 -150q-101 0 -187 32t-146.5 87t-103 128.5t-63 155.5t-20.5 170zM405 1521l122 123l267 -266l-124 -124zM538 571q0 -56 19.5 -102.5 t61 -77.5t97.5 -31t97.5 31t61 77.5t19.5 102t-19.5 102.5t-61 78.5t-97.5 31.5q-43 0 -77.5 -18t-56 -48.5t-33 -68t-11.5 -77.5z" />
<glyph unicode="&#xe1;" horiz-adv-x="1536" d="M68 551q0 72 14.5 142t42.5 134.5t72.5 118.5t101 94.5t131 63t158.5 22.5q218 0 314 -133v121h510v-1114h-510v128q-88 -150 -314 -150q-101 0 -187 32t-146.5 87t-103 128.5t-63 155.5t-20.5 170zM538 571q0 -56 19.5 -102.5t61 -77.5t97.5 -31t97.5 31t61 77.5 t19.5 102t-19.5 102.5t-61 78.5t-97.5 31.5q-43 0 -77.5 -18t-56 -48.5t-33 -68t-11.5 -77.5zM566 1378l266 266l123 -123l-266 -267z" />
<glyph unicode="&#xe2;" horiz-adv-x="1536" d="M68 551q0 72 14.5 142t42.5 134.5t72.5 118.5t101 94.5t131 63t158.5 22.5q218 0 314 -133v121h510v-1114h-510v128q-88 -150 -314 -150q-101 0 -187 32t-146.5 87t-103 128.5t-63 155.5t-20.5 170zM382 1336l288 285h85l282 -285l-111 -111l-212 214l-219 -218zM538 571 q0 -56 19.5 -102.5t61 -77.5t97.5 -31t97.5 31t61 77.5t19.5 102t-19.5 102.5t-61 78.5t-97.5 31.5q-43 0 -77.5 -18t-56 -48.5t-33 -68t-11.5 -77.5z" />
<glyph unicode="&#xe3;" horiz-adv-x="1536" d="M68 551q0 72 14.5 142t42.5 134.5t72.5 118.5t101 94.5t131 63t158.5 22.5q218 0 314 -133v121h510v-1114h-510v128q-88 -150 -314 -150q-101 0 -187 32t-146.5 87t-103 128.5t-63 155.5t-20.5 170zM291 1419q124 138 284 138q29 0 53.5 -3.5t46.5 -11.5t37 -15.5 t36 -19.5q34 -18 49.5 -25.5t47.5 -16t66 -8.5q115 0 180 75l89 -100q-50 -54 -112 -86t-154 -32q-102 0 -187 48q-6 3 -28.5 15.5t-30.5 16t-26 11t-33.5 9.5t-33.5 2q-32 0 -60 -5.5t-47.5 -14t-39 -22.5t-31 -24.5t-26.5 -26.5zM538 571q0 -56 19.5 -102.5t61 -77.5 t97.5 -31t97.5 31t61 77.5t19.5 102t-19.5 102.5t-61 78.5t-97.5 31.5q-43 0 -77.5 -18t-56 -48.5t-33 -68t-11.5 -77.5z" />
<glyph unicode="&#xe4;" horiz-adv-x="1536" d="M68 551q0 72 14.5 142t42.5 134.5t72.5 118.5t101 94.5t131 63t158.5 22.5q218 0 314 -133v121h510v-1114h-510v128q-88 -150 -314 -150q-101 0 -187 32t-146.5 87t-103 128.5t-63 155.5t-20.5 170zM275 1434q0 91 63.5 155t154.5 64t155 -64t64 -155t-64 -154t-155 -63 t-154.5 63t-63.5 154zM538 571q0 -56 19.5 -102.5t61 -77.5t97.5 -31t97.5 31t61 77.5t19.5 102t-19.5 102.5t-61 78.5t-97.5 31.5q-43 0 -77.5 -18t-56 -48.5t-33 -68t-11.5 -77.5zM861 1434q0 91 64 155t155 64t154.5 -64t63.5 -155q0 -59 -29 -109.5t-79 -79t-110 -28.5 q-91 0 -155 63t-64 154z" />
<glyph unicode="&#xe5;" horiz-adv-x="1536" d="M68 551q0 72 14.5 142t42.5 134.5t72.5 118.5t101 94.5t131 63t158.5 22.5q218 0 314 -133v121h510v-1114h-510v128q-88 -150 -314 -150q-101 0 -187 32t-146.5 87t-103 128.5t-63 155.5t-20.5 170zM445 1457.5q0 97.5 69.5 167t167 69.5t167 -69.5t69.5 -167t-69.5 -167 t-167 -69.5t-167 69.5t-69.5 167zM523 1457.5q0 -66.5 47 -114.5t113.5 -48t114.5 48t48 114q0 33 -13 63t-35 51.5t-52 34t-62 12.5q-67 0 -114 -47t-47 -113.5zM538 571q0 -56 19.5 -102.5t61 -77.5t97.5 -31t97.5 31t61 77.5t19.5 102t-19.5 102.5t-61 78.5t-97.5 31.5 q-43 0 -77.5 -18t-56 -48.5t-33 -68t-11.5 -77.5z" />
<glyph unicode="&#xe6;" horiz-adv-x="2363" d="M68 551q0 72 14.5 142t42.5 134.5t72.5 118.5t101 94.5t131 63t158.5 22.5q218 0 314 -133v121h348v-109q61 53 163.5 89t213.5 36q132 0 241 -32t183 -87.5t125 -131.5t74 -161.5t23 -179.5q0 -7 -1 -23.5t-1 -23.5h-785q-2 -9 -2 -29q0 -16 1.5 -31.5t6 -36.5t11.5 -39 t19.5 -36t29 -31t41 -21t53.5 -8q31 0 54 7.5t39 25t26 34t22 45.5l477 -57q-25 -56 -60 -104t-90 -94.5t-123 -79.5t-162.5 -53t-205.5 -20q-135 0 -223 35.5t-150 101.5v-100h-348v128q-88 -150 -314 -150q-101 0 -187 32t-146.5 87t-103 128.5t-63 155.5t-20.5 170z M538 571q0 -56 19.5 -102.5t61 -77.5t97.5 -31t97.5 31t61 77.5t19.5 102t-19.5 102.5t-61 78.5t-97.5 31.5q-43 0 -77.5 -18t-56 -48.5t-33 -68t-11.5 -77.5zM1494 705h295q0 51 -39 93.5t-111 42.5q-37 0 -66 -13.5t-45.5 -34.5t-25 -43.5t-8.5 -44.5z" />
<glyph unicode="&#xe7;" horiz-adv-x="926" d="M32 548q0 88 21 171t65 157t105.5 129.5t149.5 88t191 32.5q179 0 321 -65v-341q-77 67 -165 67q-61 0 -105.5 -34t-65 -84.5t-20.5 -109.5q0 -60 20.5 -111.5t65 -86t105.5 -34.5q100 0 165 75v-350q-43 -21 -66.5 -31.5t-77.5 -24.5t-116 -18l-34 -80q91 -49 91 -130 q0 -56 -39.5 -88t-101.5 -32q-79 0 -141 42v128q28 -29 73 -29q21 0 33 12.5t12 29.5q0 12 -9.5 25t-14.5 17t-23 18l38 87q-92 8 -171 43.5t-134.5 90.5t-94.5 125.5t-58 149t-19 161.5z" />
<glyph unicode="&#xe8;" horiz-adv-x="1345" d="M32 546q0 89 25 173.5t78 159t127.5 130.5t180 88.5t230.5 32.5q110 0 204.5 -22.5t164.5 -63t123.5 -95.5t86.5 -121.5t50 -139t17 -150.5q0 -7 -1.5 -23.5t-1.5 -23.5h-784q0 -5 -1.5 -14t-1.5 -15q0 -19 2.5 -37.5t8 -43t17.5 -45t29 -39t44 -28.5t62 -10 q31 0 53.5 7.5t39 25t26 34t21.5 45.5l478 -57q-21 -46 -49 -87t-67.5 -81.5t-91.5 -72.5t-115 -57t-144.5 -39t-174.5 -14q-123 0 -228 33t-179 89t-126.5 130.5t-77.5 158.5t-25 172zM455 1521l122 123l267 -266l-124 -124zM538 705h297q0 51 -39.5 93.5t-111.5 42.5 q-37 0 -66.5 -13.5t-46 -34.5t-25 -43.5t-8.5 -44.5z" />
<glyph unicode="&#xe9;" horiz-adv-x="1345" d="M32 546q0 89 25 173.5t78 159t127.5 130.5t180 88.5t230.5 32.5q110 0 204.5 -22.5t164.5 -63t123.5 -95.5t86.5 -121.5t50 -139t17 -150.5q0 -7 -1.5 -23.5t-1.5 -23.5h-784q0 -5 -1.5 -14t-1.5 -15q0 -19 2.5 -37.5t8 -43t17.5 -45t29 -39t44 -28.5t62 -10 q31 0 53.5 7.5t39 25t26 34t21.5 45.5l478 -57q-21 -46 -49 -87t-67.5 -81.5t-91.5 -72.5t-115 -57t-144.5 -39t-174.5 -14q-123 0 -228 33t-179 89t-126.5 130.5t-77.5 158.5t-25 172zM538 705h297q0 51 -39.5 93.5t-111.5 42.5q-37 0 -66.5 -13.5t-46 -34.5t-25 -43.5 t-8.5 -44.5zM548 1378l266 266l123 -123l-267 -267z" />
<glyph unicode="&#xea;" horiz-adv-x="1345" d="M32 546q0 89 25 173.5t78 159t127.5 130.5t180 88.5t230.5 32.5q110 0 204.5 -22.5t164.5 -63t123.5 -95.5t86.5 -121.5t50 -139t17 -150.5q0 -7 -1.5 -23.5t-1.5 -23.5h-784q0 -5 -1.5 -14t-1.5 -15q0 -19 2.5 -37.5t8 -43t17.5 -45t29 -39t44 -28.5t62 -10 q31 0 53.5 7.5t39 25t26 34t21.5 45.5l478 -57q-21 -46 -49 -87t-67.5 -81.5t-91.5 -72.5t-115 -57t-144.5 -39t-174.5 -14q-123 0 -228 33t-179 89t-126.5 130.5t-77.5 158.5t-25 172zM350 1336l288 285h82l285 -285l-111 -111l-212 214l-218 -218zM538 705h297 q0 51 -39.5 93.5t-111.5 42.5q-37 0 -66.5 -13.5t-46 -34.5t-25 -43.5t-8.5 -44.5z" />
<glyph unicode="&#xeb;" horiz-adv-x="1345" d="M32 546q0 89 25 173.5t78 159t127.5 130.5t180 88.5t230.5 32.5q110 0 204.5 -22.5t164.5 -63t123.5 -95.5t86.5 -121.5t50 -139t17 -150.5q0 -7 -1.5 -23.5t-1.5 -23.5h-784q0 -5 -1.5 -14t-1.5 -15q0 -19 2.5 -37.5t8 -43t17.5 -45t29 -39t44 -28.5t62 -10 q31 0 53.5 7.5t39 25t26 34t21.5 45.5l478 -57q-21 -46 -49 -87t-67.5 -81.5t-91.5 -72.5t-115 -57t-144.5 -39t-174.5 -14q-123 0 -228 33t-179 89t-126.5 130.5t-77.5 158.5t-25 172zM180 1434q0 91 63.5 155t154 64t154.5 -64t64 -155t-64 -154t-155 -63q-59 0 -109 28.5 t-79 79t-29 109.5zM538 705h297q0 51 -39.5 93.5t-111.5 42.5q-37 0 -66.5 -13.5t-46 -34.5t-25 -43.5t-8.5 -44.5zM766 1434q0 91 64 155t154.5 64t154 -64t63.5 -155q0 -59 -29 -109.5t-79 -79t-109 -28.5q-91 0 -155 63t-64 154z" />
<glyph unicode="&#xec;" horiz-adv-x="779" d="M123 0v1111h523v-1111h-523zM154 1521l124 123l265 -266l-122 -124z" />
<glyph unicode="&#xed;" horiz-adv-x="761" d="M123 0v1111h523v-1111h-523zM262 1378l265 266l123 -123l-266 -267z" />
<glyph unicode="&#xee;" horiz-adv-x="761" d="M54 1336l289 285h84l282 -285l-111 -111l-212 214l-217 -218zM123 0v1111h523v-1111h-523z" />
<glyph unicode="&#xef;" horiz-adv-x="761" d="M-130 1434q0 91 64 155t155 64q59 0 109 -29.5t79 -79.5t29 -110q0 -91 -63 -154t-154 -63t-155 63t-64 154zM123 0v1111h523v-1111h-523zM457 1434q0 91 63.5 155t154.5 64t155 -64t64 -155t-64 -154t-155 -63t-154.5 63t-63.5 154z" />
<glyph unicode="&#xf0;" horiz-adv-x="1371" d="M34 552.5q0 88.5 26 172.5t79.5 158.5t129 130t183.5 88t234 32.5q55 0 103 -6q-52 90 -132 156l-204 -113l-189 118l207 121q-79 46 -141 73t-157 59l229 226q8 -2 25 -8q79 -25 121 -39.5t106 -43.5t119 -65l200 113l189 -120l-196 -114q185 -126 279 -349.5t94 -527.5 q0 -103 -26 -197t-79.5 -176t-130 -142t-183.5 -94.5t-234 -34.5q-126 0 -234 32.5t-183.5 88.5t-129 131t-79.5 158.5t-26 172zM518 553q0 -55 18.5 -102.5t57.5 -78.5t92 -31t92.5 31t58 78.5t18.5 102.5q0 86 -45 148.5t-124 62.5q-40 0 -72.5 -18t-53 -48t-31.5 -67.5 t-11 -77.5z" />
<glyph unicode="&#xf1;" horiz-adv-x="1510" d="M118 0v1114h524v-159q133 177 393 177q99 0 173 -27.5t119.5 -80t67 -123t21.5 -160.5v-741h-520v675q0 19 -2.5 37t-11 39.5t-21.5 37t-37 26t-56 10.5q-34 0 -60.5 -16.5t-40 -41.5t-19.5 -48.5t-6 -43.5v-675h-524zM297 1419q125 138 285 138q53 0 91 -12.5t82 -37.5 q34 -18 49 -25.5t47.5 -16t66.5 -8.5q114 0 180 75l89 -100q-50 -54 -112 -86t-155 -32q-100 0 -185 48q-8 4 -21.5 11.5t-21 11.5t-19.5 10t-21 9t-21 6.5t-24 4.5t-25 1q-40 0 -72.5 -7.5t-57.5 -23t-40 -28.5t-35 -34z" />
<glyph unicode="&#xf2;" horiz-adv-x="1371" d="M34 552.5q0 88.5 26 172.5t79.5 158.5t129 130t183.5 88t234 32.5t234 -32.5t184 -88t129.5 -130t79.5 -158.5t26 -172.5t-26 -172t-79.5 -158.5t-129.5 -131t-184 -88.5t-234 -32.5t-234 32.5t-183.5 88.5t-129 131t-79.5 158.5t-26 172zM405 1521l122 123l267 -266 l-124 -124zM518 553q0 -55 18.5 -102.5t57.5 -78.5t92 -31t92.5 31t58 78.5t18.5 102.5q0 86 -45 148.5t-124 62.5q-40 0 -72.5 -18t-53 -48t-31.5 -67.5t-11 -77.5z" />
<glyph unicode="&#xf3;" horiz-adv-x="1371" d="M34 552.5q0 88.5 26 172.5t79.5 158.5t129 130t183.5 88t234 32.5t234 -32.5t184 -88t129.5 -130t79.5 -158.5t26 -172.5t-26 -172t-79.5 -158.5t-129.5 -131t-184 -88.5t-234 -32.5t-234 32.5t-183.5 88.5t-129 131t-79.5 158.5t-26 172zM518 553q0 -55 18.5 -102.5 t57.5 -78.5t92 -31t92.5 31t58 78.5t18.5 102.5q0 86 -45 148.5t-124 62.5q-40 0 -72.5 -18t-53 -48t-31.5 -67.5t-11 -77.5zM579 1378l267 266l122 -123l-265 -267z" />
<glyph unicode="&#xf4;" horiz-adv-x="1371" d="M34 552.5q0 88.5 26 172.5t79.5 158.5t129 130t183.5 88t234 32.5t234 -32.5t184 -88t129.5 -130t79.5 -158.5t26 -172.5t-26 -172t-79.5 -158.5t-129.5 -131t-184 -88.5t-234 -32.5t-234 32.5t-183.5 88.5t-129 131t-79.5 158.5t-26 172zM364 1336l289 285h82l284 -285 l-112 -111l-211 214l-219 -218zM518 553q0 -55 18.5 -102.5t57.5 -78.5t92 -31t92.5 31t58 78.5t18.5 102.5q0 86 -45 148.5t-124 62.5q-40 0 -72.5 -18t-53 -48t-31.5 -67.5t-11 -77.5z" />
<glyph unicode="&#xf5;" horiz-adv-x="1371" d="M34 552.5q0 88.5 26 172.5t79.5 158.5t129 130t183.5 88t234 32.5t234 -32.5t184 -88t129.5 -130t79.5 -158.5t26 -172.5t-26 -172t-79.5 -158.5t-129.5 -131t-184 -88.5t-234 -32.5t-234 32.5t-183.5 88.5t-129 131t-79.5 158.5t-26 172zM234 1419q124 138 284 138 q38 0 71.5 -8t53.5 -17t49 -25q34 -18 49 -25.5t47.5 -16t66.5 -8.5q114 0 180 75l88 -100q-49 -54 -111 -86t-155 -32q-101 0 -187 48q-5 3 -28 15.5t-31 16t-25.5 11t-33 9.5t-34.5 2q-39 0 -71.5 -7.5t-57.5 -23t-40 -28.5t-35 -34zM518 553q0 -55 18.5 -102.5 t57.5 -78.5t92 -31t92.5 31t58 78.5t18.5 102.5q0 86 -45 148.5t-124 62.5q-40 0 -72.5 -18t-53 -48t-31.5 -67.5t-11 -77.5z" />
<glyph unicode="&#xf6;" horiz-adv-x="1371" d="M34 552.5q0 88.5 26 172.5t79.5 158.5t129 130t183.5 88t234 32.5t234 -32.5t184 -88t129.5 -130t79.5 -158.5t26 -172.5t-26 -172t-79.5 -158.5t-129.5 -131t-184 -88.5t-234 -32.5t-234 32.5t-183.5 88.5t-129 131t-79.5 158.5t-26 172zM169 1434q0 91 63.5 155t154 64 t154.5 -64t64 -155q0 -44 -17.5 -84.5t-46.5 -69.5t-69.5 -46t-85.5 -17q-90 0 -153.5 63t-63.5 154zM518 553q0 -55 18.5 -102.5t57.5 -78.5t92 -31t92.5 31t58 78.5t18.5 102.5q0 86 -45 148.5t-124 62.5q-40 0 -72.5 -18t-53 -48t-31.5 -67.5t-11 -77.5zM755 1434 q0 91 64 155t154.5 64t154 -64t63.5 -155t-63.5 -154t-154.5 -63q-59 0 -109.5 28.5t-79.5 79t-29 109.5z" />
<glyph unicode="&#xf7;" horiz-adv-x="1008" d="M95 573v282h835v-282h-835zM262 223.5q0 102.5 71.5 173.5t173.5 71q51 0 96.5 -19t78 -52t52 -78.5t19.5 -95.5q0 -102 -71.5 -173.5t-174 -71.5t-174 71.5t-71.5 174zM262 1209.5q0 102.5 71.5 174t174 71.5t174 -71.5t71.5 -174t-71.5 -174.5t-174 -72t-174 72 t-71.5 174.5z" />
<glyph unicode="&#xf8;" horiz-adv-x="1371" d="M34 553q0 88 26 172t79.5 158.5t129 130t183.5 88t234 32.5q147 0 269 -43l75 116h141l-108 -168q67 -39 120 -94t86.5 -118t51.5 -132.5t18 -141.5q0 -89 -26 -172.5t-79.5 -158.5t-129.5 -131t-184 -88.5t-234 -32.5q-150 0 -281 48l-110 -170h-141l143 225 q-51 33 -94 75t-74 89t-52.5 99.5t-32 106.5t-10.5 110zM518 553q0 -55 18.5 -102.5t57.5 -78.5t92 -31t92.5 31t58 78.5t18.5 102.5q0 86 -45 148.5t-124 62.5q-40 0 -72.5 -18t-53 -48t-31.5 -67.5t-11 -77.5z" />
<glyph unicode="&#xf9;" horiz-adv-x="1438" d="M98 484v630h509v-626q0 -58 31 -94.5t85 -36.5q27 0 49.5 10t37 27.5t22 41.5t7.5 52v626h512v-630q0 -116 -40 -209t-117 -160.5t-197 -104t-274 -36.5t-273 36.5t-196 104t-116.5 160.5t-39.5 209zM468 1521l123 123l266 -266l-122 -124z" />
<glyph unicode="&#xfa;" horiz-adv-x="1438" d="M98 484v630h509v-626q0 -58 31 -94.5t85 -36.5q27 0 49.5 10t37 27.5t22 41.5t7.5 52v626h512v-630q0 -116 -40 -209t-117 -160.5t-197 -104t-274 -36.5t-273 36.5t-196 104t-116.5 160.5t-39.5 209zM616 1378l266 266l123 -123l-266 -267z" />
<glyph unicode="&#xfb;" horiz-adv-x="1438" d="M98 484v630h509v-626q0 -58 31 -94.5t85 -36.5q27 0 49.5 10t37 27.5t22 41.5t7.5 52v626h512v-630q0 -116 -40 -209t-117 -160.5t-197 -104t-274 -36.5t-273 36.5t-196 104t-116.5 160.5t-39.5 209zM395 1336l289 285h84l282 -285l-111 -111l-212 214l-218 -218z" />
<glyph unicode="&#xfc;" horiz-adv-x="1438" d="M98 484v630h509v-626q0 -58 31 -94.5t85 -36.5q27 0 49.5 10t37 27.5t22 41.5t7.5 52v626h512v-630q0 -116 -40 -209t-117 -160.5t-197 -104t-274 -36.5t-273 36.5t-196 104t-116.5 160.5t-39.5 209zM211 1434q0 91 64 155t154.5 64t154.5 -64t64 -155q0 -44 -17 -84.5 t-46.5 -69.5t-70 -46t-84.5 -17q-91 0 -155 63t-64 154zM798 1434q0 91 63.5 155t154 64t154.5 -64t64 -155q0 -44 -17 -84.5t-46.5 -69.5t-70 -46t-84.5 -17q-91 0 -154.5 63t-63.5 154z" />
<glyph unicode="&#xfd;" horiz-adv-x="1397" d="M28 1114h534l136 -383l163 383h525l-702 -1578h-511l272 623zM566 1378l266 266l123 -123l-266 -267z" />
<glyph unicode="&#xfe;" horiz-adv-x="1529" d="M134 -462v2141h521v-699q56 69 129.5 109.5t183.5 40.5q98 0 182 -32.5t143 -87.5t100.5 -129t61.5 -157t20 -171q0 -89 -20 -172.5t-61.5 -157.5t-100.5 -130t-143 -88.5t-182 -32.5q-106 0 -181 34.5t-132 97.5v-566h-521zM644 546q0 -52 17.5 -96.5t56.5 -74.5t93 -30 t93.5 30t57.5 74.5t18 96.5t-18 96.5t-57.5 74t-93.5 29.5t-93 -29.5t-56.5 -74t-17.5 -96.5z" />
<glyph unicode="&#xff;" horiz-adv-x="1399" d="M28 1114h534l136 -383l163 383h525l-702 -1578h-511l272 623zM211 1434q0 91 64 155t154.5 64t154.5 -64t64 -155q0 -44 -17 -84.5t-46.5 -69.5t-70 -46t-84.5 -17q-91 0 -155 63t-64 154zM798 1434q0 91 63.5 155t154 64t154.5 -64t64 -155q0 -44 -17 -84.5t-46.5 -69.5 t-70 -46t-84.5 -17q-91 0 -154.5 63t-63.5 154z" />
<glyph unicode="&#x131;" horiz-adv-x="761" d="M123 0v1114h523v-1114h-523z" />
<glyph unicode="&#x141;" horiz-adv-x="1202" d="M7 382v297l82 85v859h520v-486l118 117v-297l-118 -118v-432h505v-407h-1025v466z" />
<glyph unicode="&#x142;" horiz-adv-x="770" d="M39 382v297l89 91v913h522v-533l96 95v-297l-96 -96v-852h-522v473z" />
<glyph unicode="&#x152;" horiz-adv-x="2707" d="M50 809q0 127 33.5 246.5t104.5 226.5t171 186.5t241.5 126.5t308.5 47q235 0 412 -88t289 -240v309h1045v-404h-525v-210h497v-406h-497v-196h525v-407h-1045v304q-110 -151 -287 -238.5t-414 -87.5q-139 0 -262 32.5t-216 90.5t-166 136.5t-120 171.5t-71 194t-24 206z M629 809.5q0 -52.5 11 -102.5t34 -94.5t55.5 -78t79 -53t100.5 -19.5q68 0 122.5 29.5t88 79t51.5 111t18 127.5t-18 127.5t-51.5 111t-88 79.5t-122.5 30q-54 0 -100.5 -19.5t-79 -53t-55.5 -78t-34 -94.5t-11 -102.5z" />
<glyph unicode="&#x153;" horiz-adv-x="2180" d="M34 552.5q0 88.5 26 172.5t79.5 158.5t129 130t183.5 88t234 32.5q221 0 383 -95q153 91 363 91q110 0 204.5 -22.5t164.5 -63t123.5 -95.5t87 -121.5t50 -139t16.5 -150.5q0 -7 -1 -23.5t-1 -23.5h-785q-2 -9 -2 -29q0 -16 1 -31.5t5.5 -36.5t11.5 -39t20 -36t29 -31 t40.5 -21t54.5 -8q31 0 54 7.5t39 25t25.5 34t22.5 45.5l477 -57q-25 -56 -60.5 -104t-90.5 -94.5t-122.5 -79.5t-162.5 -53t-206 -20q-216 0 -373 98q-157 -91 -368 -91q-126 0 -234 32.5t-183.5 88.5t-129 131t-79.5 158.5t-26 172zM518 553q0 -55 18.5 -102.5t57.5 -78.5 t92 -31t92.5 31t58 78.5t18.5 102.5q0 86 -45 148.5t-124 62.5q-40 0 -72.5 -18t-53 -48t-31.5 -67.5t-11 -77.5zM1298 705h296q0 51 -39.5 93.5t-111.5 42.5q-37 0 -66.5 -13.5t-46 -34.5t-24.5 -43.5t-8 -44.5z" />
<glyph unicode="&#x160;" horiz-adv-x="1360" d="M20 200l110 336q126 -72 234 -116.5t200 -44.5q184 0 184 96q0 93 -205 125q-241 38 -363.5 173.5t-122.5 339.5q0 79 23.5 154.5t72 142.5t116 117t162.5 79.5t205 29.5q390 0 624 -148l-110 -350q-85 49 -202 81.5t-232 32.5q-46 0 -78.5 -26.5t-32.5 -62.5 q0 -49 46 -78.5t154 -45.5q127 -19 226 -65.5t162 -114t95.5 -152.5t32.5 -182q0 -86 -27 -165t-82.5 -146.5t-134.5 -117t-190 -77.5t-243 -28q-171 0 -335.5 60.5t-288.5 152.5zM386 2039l115 117l217 -219l210 213l111 -111l-282 -284h-84z" />
<glyph unicode="&#x161;" horiz-adv-x="1176" d="M34 115l129 235q173 -68 310 -68q104 0 104 50q0 32 -37.5 52t-116.5 32q-159 24 -241 109.5t-82 227.5q0 164 137 268.5t366 104.5q269 0 475 -74l-91 -273q-63 16 -144 27.5t-149 11.5q-32 0 -56.5 -5.5t-40 -18t-15.5 -30.5q0 -28 31 -42t103 -17q203 -10 312 -102 t109 -237q0 -88 -34.5 -159t-105 -124t-184.5 -82t-265 -29q-132 0 -266 39t-248 104zM264 1527l111 112l211 -212l219 217l113 -117l-286 -284h-84z" />
<glyph unicode="&#x178;" horiz-adv-x="1566" d="M34 1623h534l219 -404l209 404h552l-505 -879v-744h-534v744zM360 1871q0 72 50.5 123.5t123.5 51.5q47 0 87.5 -23.5t64 -64t23.5 -87.5q0 -71 -51.5 -123t-123.5 -52q-73 0 -123.5 51.5t-50.5 123.5zM875 1871.5q0 71.5 51.5 123t123.5 51.5q73 0 124 -51.5t51 -123.5 t-51 -123.5t-124 -51.5q-72 0 -123.5 52t-51.5 123.5z" />
<glyph unicode="&#x17d;" horiz-adv-x="1729" d="M37 0l750 1195h-637v428h1535l-755 -1193h721v-430h-1614zM579 2039l115 117l217 -219l210 213l111 -111l-282 -284h-84z" />
<glyph unicode="&#x17e;" horiz-adv-x="1297" d="M95 0l358 714h-353v397h1110l-332 -704h332v-407h-1115zM310 1527l111 112l211 -212l218 217l113 -117l-286 -284h-83z" />
<glyph unicode="&#x192;" horiz-adv-x="1518" d="M132 0v1252h1252v-1252h-1252z" />
<glyph unicode="&#x2c6;" horiz-adv-x="892" d="M123 1336l289 285h81l284 -285l-111 -111l-211 214l-219 -218z" />
<glyph unicode="&#x2c7;" horiz-adv-x="833" d="M104 1527l112 112l211 -212l219 217l113 -117l-286 -284h-85z" />
<glyph unicode="&#x2d8;" horiz-adv-x="742" d="M98 1430l82 84q34 -45 86.5 -70t113.5 -25q41 0 79.5 12.5t70 36t54.5 55.5l84 -84q-34 -43 -79 -74t-99 -48t-110 -17q-84 0 -157.5 34.5t-124.5 95.5z" />
<glyph unicode="&#x2d9;" horiz-adv-x="718" d="M161 1455q0 90 62.5 151.5t151.5 61.5t151 -61.5t62 -151.5q0 -58 -28.5 -107t-77.5 -78t-107 -29q-88 0 -151 63t-63 151z" />
<glyph unicode="&#x2da;" horiz-adv-x="742" d="M134 1443q0 97 69.5 166.5t167 69.5t167 -69.5t69.5 -166.5t-69.5 -166.5t-166.5 -69.5q-64 0 -118.5 31.5t-86.5 86t-32 118.5zM211 1443.5q0 -66.5 47.5 -114t114.5 -47.5t114 47t47 114t-47.5 114.5t-114 47.5t-114 -47.5t-47.5 -114z" />
<glyph unicode="&#x2db;" horiz-adv-x="508" d="M111 -171q0 108 78 171h127q-57 -58 -57 -125q0 -50 27 -75t66 -25q37 0 86 30v-98q-6 -8 -14.5 -15t-19.5 -13t-23.5 -11t-26.5 -8.5t-29.5 -5t-31.5 -1.5q-68 0 -125 49.5t-57 126.5z" />
<glyph unicode="&#x2dc;" horiz-adv-x="1076" d="M98 1419q124 138 284 138q37 0 71 -8t54 -17t48 -25q34 -18 49.5 -25.5t47.5 -16t66 -8.5q115 0 180 75l89 -100q-50 -54 -112 -86t-155 -32q-101 0 -186 48q-6 3 -28.5 15.5t-30.5 16t-26 11t-33.5 9.5t-33.5 2q-40 0 -72.5 -7.5t-57.5 -23t-40 -28.5t-34 -34z" />
<glyph unicode="&#x2dd;" horiz-adv-x="627" d="M30 1305l193 327l150 -81l-189 -323zM297 1305l191 327l154 -81l-191 -323z" />
<glyph unicode="&#x3c0;" d="M68 800v130h771v-130h-771zM111 128v169l246 447h335v-430h78v-186h-78v-132h-235v132h-346zM166 1219h214q3 -62 61 -62q62 0 62 73q0 24 -6 38.5t-20 21t-28.5 8.5t-38.5 2v153q48 0 70.5 12t22.5 45q0 32 -14 46.5t-48 14.5q-57 0 -57 -64h-213q1 35 8 66t26.5 63 t49 55.5t78.5 38t112 14.5q71 0 124 -14t86.5 -40.5t50.5 -64t17 -87.5q0 -34 -10 -60t-28.5 -43t-37.5 -27.5t-44 -18.5q24 -7 46.5 -18.5t45.5 -31.5t37 -51.5t14 -70.5q0 -74 -33.5 -127t-99.5 -81.5t-160 -28.5q-62 0 -111.5 15t-80.5 39t-52.5 56t-30.5 63.5t-12 65.5z M352 314h105v211z" />
<glyph unicode="&#x2000;" horiz-adv-x="1078" />
<glyph unicode="&#x2001;" horiz-adv-x="2156" />
<glyph unicode="&#x2002;" horiz-adv-x="1078" />
<glyph unicode="&#x2003;" horiz-adv-x="2156" />
<glyph unicode="&#x2004;" horiz-adv-x="718" />
<glyph unicode="&#x2005;" horiz-adv-x="539" />
<glyph unicode="&#x2006;" horiz-adv-x="359" />
<glyph unicode="&#x2007;" horiz-adv-x="359" />
<glyph unicode="&#x2008;" horiz-adv-x="269" />
<glyph unicode="&#x2009;" horiz-adv-x="431" />
<glyph unicode="&#x200a;" horiz-adv-x="119" />
<glyph unicode="&#x2010;" horiz-adv-x="1356" d="M163 416v348h1039v-348h-1039z" />
<glyph unicode="&#x2011;" horiz-adv-x="1356" d="M163 416v348h1039v-348h-1039z" />
<glyph unicode="&#x2012;" horiz-adv-x="1356" d="M163 416v348h1039v-348h-1039z" />
<glyph unicode="&#x2013;" horiz-adv-x="1681" d="M163 416v348h1340v-348h-1340z" />
<glyph unicode="&#x2014;" horiz-adv-x="2191" d="M163 416v348h1885v-348h-1885z" />
<glyph unicode="&#x2018;" horiz-adv-x="508" d="M109 1341v325h291v-236h-100v-87q0 -52 26 -81t67 -45l-100 -137q-1 1 -17.5 10.5t-22.5 13t-23 15t-25.5 19.5t-23.5 22t-23 26.5t-19 30.5t-16.5 36t-9.5 41t-4 47z" />
<glyph unicode="&#x2019;" horiz-adv-x="545" d="M134 1430v236h291v-325q0 -44 -13 -83t-29.5 -63.5t-44 -48.5t-43.5 -34t-42 -25l-3 -1.5l-3 -1.5t-3.5 -2t-2.5 -2l-100 137q26 10 44 23t33.5 40t15.5 63v87h-100z" />
<glyph unicode="&#x201a;" horiz-adv-x="545" d="M134 143v237h291v-326q0 -24 -4 -46.5t-9.5 -40.5t-16.5 -36.5t-19 -30.5t-23 -26.5t-23.5 -22t-25.5 -19t-23 -15t-22.5 -13.5t-17.5 -10l-100 136q41 17 67 45.5t26 81.5v86h-100z" />
<glyph unicode="&#x201c;" horiz-adv-x="942" d="M111 1341v325h291v-236h-100v-91q0 -26 7.5 -46.5t23 -34.5t28.5 -22.5t34 -18.5l-100 -137q-1 1 -17.5 10.5t-22.5 13t-23 15t-25.5 19.5t-23.5 22t-23 26.5t-19 30.5t-16.5 36t-9.5 41t-4 47zM564 1341v325h291v-236h-100v-87q0 -52 26 -81t67 -45l-100 -137 q-1 1 -17.5 10.5t-22.5 13t-23 15t-25.5 19.5t-23.5 22t-23 26.5t-19 30.5t-16.5 36t-9.5 41t-4 47z" />
<glyph unicode="&#x201d;" horiz-adv-x="963" d="M134 1430v236h291v-325q0 -44 -13 -83t-29.5 -63.5t-44 -48.5t-43.5 -34t-42 -25l-3 -1.5l-3 -1.5t-3.5 -2t-2.5 -2l-100 137q26 10 44 23t33.5 40t15.5 63v87h-100zM586 1430v236h292v-325q0 -44 -13 -83t-29.5 -63.5t-44 -48.5t-43.5 -34t-42 -25q-3 -1 -4.5 -2 t-3.5 -2.5t-4 -2.5l-100 137q21 10 34 18.5t28 22.5t22.5 34t7.5 47v91h-100z" />
<glyph unicode="&#x201e;" horiz-adv-x="963" d="M134 143v237h291v-326q0 -24 -4 -46.5t-9.5 -40.5t-16.5 -36.5t-19 -30.5t-23 -26.5t-23.5 -22t-25.5 -19t-23 -15t-22.5 -13.5t-17.5 -10l-100 136q41 17 67 45.5t26 81.5v86h-100zM586 143v237h292v-326q0 -24 -4 -46.5t-9.5 -40.5t-16.5 -36.5t-19 -30.5t-23 -26.5 t-23.5 -22t-25.5 -19t-23 -15t-22.5 -13.5t-17.5 -10l-100 136q21 10 34 18.5t28 23t22.5 34.5t7.5 46v91h-100z" />
<glyph unicode="&#x2020;" horiz-adv-x="556" d="M68 1271v104h166v298h98v-298h166v-104h-166v-755h-98v755h-166z" />
<glyph unicode="&#x2021;" horiz-adv-x="556" d="M68 861v98h166v310h-166v109h166v295h100v-295h167v-109h-167v-310h167v-98h-167v-597h-100v597h-166z" />
<glyph unicode="&#x2022;" horiz-adv-x="1136" d="M152 605q0 114 56 210.5t152 152t210.5 55.5t210.5 -55.5t152 -152t56 -210.5t-56 -210.5t-152 -152.5t-210.5 -56t-210.5 56t-152 152.5t-56 210.5z" />
<glyph unicode="&#x2026;" horiz-adv-x="2590" d="M262 223.5q0 102.5 71.5 173.5t173.5 71q51 0 96.5 -19t78 -52t52 -78.5t19.5 -95.5q0 -102 -71.5 -173.5t-174 -71.5t-174 71.5t-71.5 174zM1039 223.5q0 102.5 71.5 173.5t173.5 71q51 0 96.5 -19t78 -52t52 -78.5t19.5 -95.5q0 -102 -71.5 -173.5t-174 -71.5 t-174 71.5t-71.5 174zM1812 223.5q0 102.5 71 173.5t173.5 71t174.5 -71.5t72 -173.5q0 -67 -33 -123.5t-89.5 -89t-123.5 -32.5q-103 0 -174 71.5t-71 174z" />
<glyph unicode="&#x202f;" horiz-adv-x="431" />
<glyph unicode="&#x2030;" horiz-adv-x="2052" d="M61 1300q0 65 19.5 125.5t56 109t95.5 78t132 29.5q72 0 131 -29t95.5 -77.5t56 -108t19.5 -124.5t-19.5 -125.5t-56 -109t-95.5 -78t-131 -29.5q-59 0 -109 19t-85 51.5t-60 76t-37 92.5t-12 100zM121 0l975 1623h207l-973 -1623h-209zM273 1300q0 -62 24 -106t67 -44 t67 44t24 106q0 63 -24 108t-67 45q-22 0 -40 -13t-28.5 -34.5t-16.5 -48.5t-6 -57zM723 327q0 66 19 126t55.5 108.5t96 77.5t132.5 29q48 0 91 -13t76 -37t58.5 -56t42 -69.5t25.5 -79t9 -83.5q0 -66 -19.5 -126t-56.5 -108.5t-95.5 -77.5t-130.5 -29q-73 0 -132.5 29 t-96 77t-55.5 108t-19 124zM935 327q0 -39 9.5 -72t30.5 -55t51 -22q43 0 67 44t24 105q0 63 -24 108t-67.5 45t-67 -45t-23.5 -108zM1395 327q0 52 12 101.5t37 93t60 76t85 51.5t109 19q73 0 131.5 -29t95 -77t56 -108t19.5 -124q0 -66 -19.5 -126t-56 -108.5t-95 -77.5 t-131.5 -29t-132 29t-95.5 77t-56 108t-19.5 124zM1607 327q0 -39 10 -72t31 -55t50 -22q44 0 67.5 44t23.5 105q0 63 -23.5 108t-67 45t-67.5 -45t-24 -108z" />
<glyph unicode="&#x2039;" horiz-adv-x="799" d="M50 603v186l564 411l154 -224l-402 -280l402 -284l-154 -219z" />
<glyph unicode="&#x203a;" horiz-adv-x="799" d="M50 412l403 284l-403 280l154 224l564 -411v-186l-564 -410z" />
<glyph unicode="&#x2044;" horiz-adv-x="1263" d="M30 -104l1020 1798h210l-1021 -1798h-209z" />
<glyph unicode="&#x205f;" horiz-adv-x="539" />
<glyph unicode="&#x2122;" horiz-adv-x="952" d="M80 1582v57h336v-57h-141v-378h-56v378h-139zM402 1207l96 439l140 -321l141 321l93 -439h-61l-45 273l-128 -298l-124 304l-57 -279h-55z" />
<glyph unicode="&#x2202;" d="M68 800v130h771v-130h-771zM143 214h214q4 -62 61 -62q62 0 62 73q0 45 -22 57.5t-72 12.5v152q49 0 71.5 12.5t22.5 45.5q0 32 -13.5 46.5t-48.5 14.5q-56 0 -56 -63h-214q0 24 4 46.5t13 46.5t23 44.5t35.5 39t49.5 31.5t66 20.5t84 7.5q140 0 208.5 -53t68.5 -152 q0 -34 -10 -60.5t-28.5 -43.5t-37.5 -27t-45 -19q25 -7 47.5 -18.5t45.5 -31.5t37 -52t14 -71q0 -112 -76 -174.5t-217 -62.5q-62 0 -111.5 15.5t-80.5 39t-52.5 56t-31 64.5t-11.5 65zM252 1551v186h314v-746h-239v560h-75z" />
<glyph unicode="&#x220f;" d="M68 800v130h771v-130h-771zM132 993v124l111 85q22 17 58.5 50t82.5 80.5t78.5 99.5t32.5 89q0 71 -63 71t-63 -103h-215q1 31 10 64t30.5 68.5t54 62.5t84.5 44.5t118 17.5q148 0 222.5 -58t74.5 -161q0 -184 -262 -347h262v-187h-616zM143 219h214q4 -62 61 -62 q62 0 62 73q0 45 -22 57.5t-72 12.5v153q49 0 71.5 12t22.5 44q0 33 -13.5 47.5t-48.5 14.5q-56 0 -56 -64h-214q0 35 7.5 66t27 63t49.5 55t79 38t112 15q140 0 208.5 -53t68.5 -153q0 -34 -10 -60t-28.5 -43t-37.5 -27.5t-45 -19.5q25 -6 47.5 -18t45.5 -31.5t37 -51 t14 -71.5q0 -111 -76 -173.5t-217 -62.5q-52 0 -95.5 10.5t-73.5 28.5t-52.5 41t-36 50.5t-20.5 54t-9 54.5z" />
<glyph unicode="&#x2211;" d="M68 800v130h771v-130h-771zM111 128v169l246 447h335v-430h78v-186h-78v-132h-235v132h-346zM254 1551v186h314v-746h-238v560h-76zM352 314h105v211z" />
<glyph unicode="&#x2212;" horiz-adv-x="1033" d="M128 555v122h781v-122h-781z" />
<glyph unicode="&#x221a;" horiz-adv-x="1472" d="M82 447l174 251q57 -116 85.5 -206.5t46.5 -222.5q27 71 104 191.5t188.5 263.5t236 282t261.5 261t249 188v-375q-315 -157 -600 -439t-452 -598q-39 84 -82.5 159.5t-101.5 146.5t-109 98z" />
<glyph unicode="&#x222b;" horiz-adv-x="1797" d="M123 0v1564h1564v-1564h-1564zM225 102h1359v1360h-1359v-1360z" />
<glyph unicode="&#x2248;" horiz-adv-x="1772" d="M93 286q0 70 26 130.5t70 102.5t104 66t125 24h228v280h-228q-141 0 -233 91.5t-92 231.5q0 64 25 122.5t67 101.5t101.5 68.5t125.5 25.5q105 0 179.5 -44t110 -116t35.5 -163v-227h276v227q0 91 37 163t111.5 116t177.5 44q135 0 226.5 -90.5t91.5 -227.5 q0 -90 -43.5 -164.5t-118 -116.5t-163.5 -42h-228v-280h228q89 0 163.5 -40.5t118 -115t43.5 -167.5q0 -135 -91 -225.5t-227 -90.5q-103 0 -177.5 43t-111.5 115t-37 163v227h-276v-227q0 -92 -35.5 -163.5t-110 -114.5t-179.5 -43q-137 0 -228 89.5t-91 226.5zM182 291 q0 -109 66 -171.5t170 -62.5q109 0 168.5 67t59.5 169v225h-225q-110 0 -174.5 -62.5t-64.5 -164.5zM182 1207q0 -102 64.5 -164.5t174.5 -62.5h225v224q0 103 -59.5 170t-168.5 67q-104 0 -170 -63t-66 -171zM737 609h276v280h-276v-280zM1104 293q0 -102 60 -169t168 -67 q105 0 170.5 62.5t65.5 171.5q0 102 -64.5 164.5t-173.5 62.5h-226v-225zM1104 980h226q109 0 173.5 62.5t64.5 164.5q0 72 -30.5 125.5t-83.5 81t-122 27.5q-108 0 -168 -67t-60 -170v-224z" />
<glyph unicode="&#x2260;" horiz-adv-x="1054" d="M163 347v210h255l55 187h-310v206h373l50 164h182l-52 -164h184v-206h-245l-57 -187h302v-210h-364l-45 -138h-179l40 138h-189z" />
<glyph unicode="&#x2264;" horiz-adv-x="861" d="M150 148v290h598v-290h-598zM150 859v348l614 370v-347l-337 -198l321 -197v-349z" />
<glyph unicode="&#x2265;" horiz-adv-x="861" d="M130 1219v347l614 -371v-349l-599 -371v348l321 198zM145 137v290h599v-290h-599z" />
<glyph unicode="&#x25ca;" horiz-adv-x="1234" d="M102 642l514 512l514 -512l-514 -514zM297 638l317 -313l316 313l-316 317z" />
<glyph unicode="&#x25fc;" horiz-adv-x="1113" d="M0 0v1114h1114v-1114h-1114z" />
<glyph unicode="&#xe000;" horiz-adv-x="0" />
<glyph unicode="&#xe001;" horiz-adv-x="0" />
<glyph unicode="&#xe002;" horiz-adv-x="0" />
<glyph unicode="&#xe003;" horiz-adv-x="1840" d="M191 761q0 128 52.5 228.5t151.5 157.5t230 57q130 0 207 -54q54 -37 79 -49t57 -12q76 0 151 61q70 57 191 57q65 0 132 -20t117 -56t59 -79q-43 -33 -71 -59t-56 -63.5t-41.5 -83.5t-13.5 -102q0 -64 19.5 -119.5t52.5 -95.5t74 -67.5t86 -40.5q-13 -33 -27.5 -64 t-35.5 -71t-45 -75t-52 -72t-60.5 -66.5t-68 -53t-77 -36.5t-83.5 -13q-105 0 -167 76q-28 36 -89 36q-62 0 -91 -36q-57 -72 -149 -72q-29 0 -67.5 16.5t-81 46t-88 73.5t-88 96.5t-80 117.5t-66 133.5t-45 147t-16.5 156.5zM935 1217q0 33 12 70t32.5 70t48 63.5 t58.5 52.5t64.5 35t63.5 13q13 0 18 -5t5 -15q0 -44 -23 -99.5t-59.5 -105.5t-88.5 -84t-105 -34q-26 0 -26 39z" />
<glyph unicode="&#xe004;" horiz-adv-x="881" />
</font>
</defs>
</svg>
